<?xml version="1.0" encoding="UTF-8" standalone="no"?>
<!-- Created with Inkscape (http://www.inkscape.org/) -->

<svg
   xmlns:dc="http://purl.org/dc/elements/1.1/"
   xmlns:cc="http://creativecommons.org/ns#"
   xmlns:rdf="http://www.w3.org/1999/02/22-rdf-syntax-ns#"
   xmlns:svg="http://www.w3.org/2000/svg"
   xmlns="http://www.w3.org/2000/svg"
   xmlns:sodipodi="http://sodipodi.sourceforge.net/DTD/sodipodi-0.dtd"
   xmlns:inkscape="http://www.inkscape.org/namespaces/inkscape"
   width="51.196426mm"
   height="88.875389mm"
   viewBox="0 0 51.196426 88.875389"
   version="1.1"
   id="svg2012"
   inkscape:version="0.92.4 (5da689c313, 2019-01-14)"
   sodipodi:docname="hourglass.svg">
  <defs
     id="defs2006" />
  <sodipodi:namedview
     id="base"
     pagecolor="#ffffff"
     bordercolor="#666666"
     borderopacity="1.0"
     inkscape:pageopacity="0.0"
     inkscape:pageshadow="2"
     inkscape:zoom="1.979899"
     inkscape:cx="-14.374298"
     inkscape:cy="151.64955"
     inkscape:document-units="mm"
     inkscape:current-layer="layer1"
     showgrid="false"
     fit-margin-top="0"
     fit-margin-left="0"
     fit-margin-right="0"
     fit-margin-bottom="0"
     inkscape:window-width="1920"
     inkscape:window-height="986"
     inkscape:window-x="-11"
     inkscape:window-y="-11"
     inkscape:window-maximized="1" />
  <metadata
     id="metadata2009">
    <rdf:RDF>
      <cc:Work
         rdf:about="">
        <dc:format>image/svg+xml</dc:format>
        <dc:type
           rdf:resource="http://purl.org/dc/dcmitype/StillImage" />
        <dc:title></dc:title>
      </cc:Work>
    </rdf:RDF>
  </metadata>
  <g
     inkscape:label="Layer 1"
     inkscape:groupmode="layer"
     id="layer1"
     transform="translate(-2.3914817,-3.0227798)">
    <path
       style="fill:#ccf8ff;fill-opacity:1;stroke:#ccf8ff;stroke-width:0.26458332px;stroke-linecap:butt;stroke-linejoin:miter;stroke-opacity:1"
       d="m 49.230759,81.697901 -42.3631884,-0.2797 -0.0512,-17.90699 c 0.77547,-11.350178 18.6027774,-7.4075 15.4817064,-19.126599 1.68912,-3.54172 11.103585,-2.894576 12.830925,0.679574 -2.98047,11.038708 10.652197,6.705047 14.318597,18.993235 z"
       id="path1566-8"
       inkscape:connector-curvature="0"
       sodipodi:nodetypes="ccccccc" />
    <path
       style="fill:#ccf8ff;fill-opacity:1;stroke:#ccf8ff;stroke-width:0.26458332px;stroke-linecap:butt;stroke-linejoin:miter;stroke-opacity:1"
       d="m 6.737528,13.160265 42.362215,0.400906 1e-5,18.851997 c -3.06731,12.093849 -19.91899,7.530084 -17.23888,19.64431 -1.69925,3.536877 -5.632805,3.445442 -7.349921,-0.133636 C 27.524789,40.265262 10.102525,43.67954 6.47026,31.744993 Z"
       id="path1566"
       inkscape:connector-curvature="0"
       sodipodi:nodetypes="ccccccc" />
    <path
       style="fill:#abebf4;fill-opacity:1;stroke:#abebf4;stroke-width:0.26458332px;stroke-linecap:butt;stroke-linejoin:miter;stroke-opacity:1"
       d="M 6.737528,13.160265 6.470362,31.745178 c 2.920003,9.594257 14.749309,9.270507 17.711579,14.831136 l 2.065284,-4.424571 c -0.854936,-4.172168 -9.059464,-10.84777 -0.730556,-17.124577 8.328904,-6.276807 15.753584,-3.98272 23.434824,-4.724702 l 0.14831,-6.741189 z"
       id="path1566-9"
       inkscape:connector-curvature="0"
       sodipodi:nodetypes="cccczccc" />
    <path
       style="fill:#dd9f80;fill-opacity:1;stroke:#dd9f80;stroke-width:0.11303718px;stroke-linecap:butt;stroke-linejoin:miter;stroke-opacity:1"
       d="M 6.0858879,3.079759 H 49.30013 c 4.725854,0.03704 6.721551,10.524742 -0.610374,10.573727 L 7.062478,13.33307 C 1.0570481,13.25543 1.1077521,2.999951 6.0858879,3.079759 Z"
       id="path1549"
       inkscape:connector-curvature="0"
       sodipodi:nodetypes="ccccc" />
    <path
       inkscape:connector-curvature="0"
       style="fill:#c68d6d;fill-opacity:1;stroke:#c68d6d;stroke-width:0.11303718px;stroke-linecap:butt;stroke-linejoin:miter;stroke-opacity:1"
       d="m 6.0858879,3.079759 c -4.9781387,-0.0798 -5.0288214,10.17552 0.9766094,10.25312 l 10.4245347,0.0853 C 15.268567,10.854439 15.23769,5.436369 17.135381,3.079789 Z"
       id="path1549-5-3-7" />
    <path
       style="fill:#abebf4;fill-opacity:1;stroke:#abebf4;stroke-width:0.26458332px;stroke-linecap:butt;stroke-linejoin:miter;stroke-opacity:1"
       d="M 25.188891,42.151793 C 23.8922,42.56158 22.813721,43.303612 22.298112,44.384731 25.419187,56.10383 7.5918406,52.161033 6.8163706,63.511211 l 0.05116,17.90692 12.3274124,0.0816 c -1.014312,-8.10001 -8.790642,-18.656645 2.605967,-26.756656 4.768983,-4.41833 4.305442,-7.312559 3.387981,-12.591332 z"
       id="path1566-8-4"
       inkscape:connector-curvature="0"
       sodipodi:nodetypes="cccccccc" />
    <path
       style="opacity:1;fill:#efd4bf;fill-opacity:1;stroke:#efd4bf;stroke-width:0.34607729;stroke-linecap:round;stroke-linejoin:round;stroke-miterlimit:4;stroke-dasharray:none;stroke-opacity:1"
       d="m 29.418911,76.164659 a 8.1479434,5.6438511 0 0 0 -8.119916,5.253427 h 16.247586 a 8.1479434,5.6438511 0 0 0 -8.12767,-5.253427 z"
       id="path1789-6"
       inkscape:connector-curvature="0" />
    <path
       style="fill:#dd9f80;fill-opacity:1;stroke:#dd9f80;stroke-width:0.11429717px;stroke-linecap:butt;stroke-linejoin:miter;stroke-opacity:1"
       d="M 7.1478836,81.499701 H 48.906368 c 5.703418,0 6.246081,10.237486 -0.156335,10.239643 L 8.1463664,91.753021 C 3.0753863,91.742238 3.127225,81.553536 7.1478836,81.499701 Z"
       id="path1549-5"
       inkscape:connector-curvature="0"
       sodipodi:nodetypes="csscc" />
    <path
       style="fill:#c68d6d;fill-opacity:1;stroke:#c68d6d;stroke-width:0.11802948px;stroke-linecap:butt;stroke-linejoin:miter;stroke-opacity:1"
       d="m 7.1478836,81.499701 c -6.42454176,-0.316202 -5.9548429,9.833054 1.064781,10.25312 l 11.3656674,0.0853 c -2.418741,-2.56374 -2.452411,-7.9818 -0.383389,-10.33839 z"
       id="path1549-5-3"
       inkscape:connector-curvature="0"
       sodipodi:nodetypes="ccccc" />
    <path
       style="fill:#efd4bf;fill-opacity:1;stroke:#efd4bf;stroke-width:0.26458332px;stroke-linecap:butt;stroke-linejoin:miter;stroke-opacity:1"
       d="m 15.277657,23.950793 c -3.175669,0.04304 -6.0363941,0.744945 -8.7209148,1.801958 l -0.086299,5.992397 c 4.0393858,11.174589 22.8253098,5.582944 18.8029868,25.29768 1.717109,3.579082 5.461553,3.426293 7.160803,-0.110585 -2.381721,-19.431233 15.246178,-11.741902 16.760216,-23.857461 0.0029,-0.02312 0.0049,-0.03953 0.0078,-0.06253 l -0.102319,-4.38268 c -4.991971,1.896509 -9.865556,4.125759 -19.577616,-0.86713 -5.195361,-2.6709 -9.644954,-3.754337 -13.604854,-3.811137 -0.214548,-0.0031 -0.428043,-0.0034 -0.639755,-5.29e-4 z"
       id="path1566-7"
       inkscape:connector-curvature="0" />
    <path
       style="fill:#e0c1ad;fill-opacity:1;stroke:#e0c1ad;stroke-width:0.26458332px;stroke-linecap:butt;stroke-linejoin:miter;stroke-opacity:1"
       d="m 15.917283,23.951148 c -3.432771,-0.0492 -6.497183,0.67396 -9.360671,1.80144 l -0.0863,5.9924 c 1.751895,10.467493 19.805414,8.647708 19.310169,19.610905 0,0 0.631458,-2.552198 0.867412,-5.997265 0.235954,-3.445066 -8.89404,-13.40237 -1.90738,-19.69234 -3.21937,-1.15996 -6.13524,-1.67658 -8.82323,-1.71514 z"
       id="path1566-9-0"
       inkscape:connector-curvature="0"
       sodipodi:nodetypes="cccczcc" />
    <ellipse
       style="opacity:1;fill:#efd4bf;fill-opacity:1;stroke:#efd4bf;stroke-width:0.2;stroke-linecap:round;stroke-linejoin:round;stroke-miterlimit:4;stroke-dasharray:none;stroke-opacity:1"
       id="path1789"
       cx="28.37933"
       cy="67.492584"
       rx="3.7797618"
       ry="4.0632439" />
    <path
       inkscape:connector-curvature="0"
       style="fill:#f4d7d7;fill-rule:evenodd;stroke:#f4d7d7;stroke-width:0.0825323"
       d="m 18.381795,40.527636 c 0.04842,-0.425451 0.707472,-0.733024 1.472113,-0.687054 0.764557,0.04594 1.345238,0.428151 1.29682,0.853603 -0.04834,0.425485 -0.707433,0.73312 -1.472076,0.687149 -0.764594,-0.04603 -1.345193,-0.428213 -1.296857,-0.853698 z"
       id="path35" />
    <path
       inkscape:connector-curvature="0"
       style="fill:#7a2900;stroke-width:0.26458332"
       d="m 22.166137,38.086644 c 0.0356,0.08714 0.0554,0.156949 0.0594,0.209484 0.004,0.05255 -0.0124,0.09232 -0.0492,0.119298 -0.0368,0.027 -0.0953,0.04348 -0.17515,0.04947 -0.08,0.006 -0.18613,0.0083 -0.31848,0.0069 -0.11869,-0.0013 -0.21792,-0.0058 -0.29773,-0.0135 -0.0799,-0.0077 -0.14472,-0.02096 -0.19473,-0.03976 -0.05,-0.01884 -0.0875,-0.04203 -0.11225,-0.06966 -0.0248,-0.02765 -0.0461,-0.05987 -0.064,-0.09655 l -1.547788,-3.789674 -0.02081,0.02033 -1.539866,3.735837 c -0.01406,0.03638 -0.03381,0.06813 -0.05924,0.09523 -0.02543,0.0271 -0.0633,0.04954 -0.113712,0.06725 -0.0504,0.01772 -0.113303,0.02961 -0.188691,0.03562 -0.07538,0.0061 -0.172417,0.0084 -0.291096,0.0072 -0.132372,-0.0014 -0.236175,-0.006 -0.311416,-0.01365 -0.07524,-0.0076 -0.129815,-0.02649 -0.163731,-0.05653 -0.03391,-0.03002 -0.04947,-0.07015 -0.04664,-0.120338 0.0028,-0.05017 0.02295,-0.118426 0.06042,-0.204755 l 1.992297,-4.415766 c 0.0141,-0.04092 0.03961,-0.07601 0.07646,-0.105306 0.03683,-0.02927 0.08387,-0.05273 0.14113,-0.07037 0.05724,-0.01764 0.126994,-0.0306 0.209267,-0.03884 0.08225,-0.0082 0.178149,-0.01181 0.287706,-0.01061 0.118684,0.0013 0.219042,0.0069 0.301114,0.01695 0.08206,0.01001 0.150372,0.02446 0.204946,0.0433 0.05456,0.01888 0.09996,0.04331 0.136161,0.07336 0.03616,0.03006 0.06317,0.06575 0.08103,0.107004 z"
       id="path47" />
    <path
       inkscape:connector-curvature="0"
       style="fill:#7a2900;stroke-width:0.26458332"
       d="m 39.498103,38.132851 c 0.0356,0.08714 0.0554,0.156955 0.0594,0.20949 0.004,0.05255 -0.0124,0.09232 -0.0492,0.119298 -0.0368,0.027 -0.0953,0.04348 -0.17515,0.04947 -0.08,0.006 -0.18613,0.0083 -0.31849,0.0069 -0.11868,-0.0013 -0.21791,-0.0058 -0.29772,-0.0135 -0.0799,-0.0077 -0.14472,-0.02096 -0.19473,-0.03976 -0.05,-0.01884 -0.0875,-0.04203 -0.11224,-0.06966 -0.0248,-0.02765 -0.0461,-0.05987 -0.064,-0.09655 l -1.54778,-3.789674 -0.0209,0.02023 -1.53987,3.735837 c -0.0138,0.03653 -0.034,0.06802 -0.0597,0.09499 -0.0257,0.02696 -0.0633,0.04953 -0.11369,0.06726 -0.0505,0.0177 -0.11333,0.0296 -0.18869,0.03562 -0.0754,0.0061 -0.17242,0.0084 -0.29109,0.0072 -0.13238,-0.0014 -0.23618,-0.006 -0.31142,-0.01365 -0.0753,-0.0076 -0.12982,-0.02647 -0.16373,-0.05654 -0.0338,-0.03 -0.0495,-0.07013 -0.0466,-0.120318 0.003,-0.05014 0.0229,-0.118408 0.0604,-0.204775 l 1.99232,-4.415732 c 0.014,-0.04103 0.0396,-0.07603 0.0765,-0.105287 0.0367,-0.02928 0.0839,-0.05274 0.14116,-0.07035 0.0572,-0.01765 0.127,-0.03059 0.20926,-0.03884 0.0823,-0.0083 0.17816,-0.01181 0.28771,-0.01061 0.11869,0.0013 0.21904,0.0069 0.30112,0.01695 0.0821,0.01 0.15037,0.02446 0.20494,0.0433 0.0546,0.01886 0.1,0.0433 0.13616,0.07336 0.0363,0.03006 0.0632,0.06576 0.081,0.107009 z"
       id="path59" />
    <text
       xml:space="preserve"
       style="font-style:normal;font-weight:normal;font-size:10.58333302px;line-height:1.25;font-family:sans-serif;letter-spacing:0px;word-spacing:0px;fill:#7a2900;fill-opacity:1;stroke:none;stroke-width:0.26458332"
       x="-42.31131"
       y="32.950413"
       id="text1873"
       transform="rotate(-88.744619)"><tspan
         sodipodi:role="line"
         id="tspan1871"
         x="-42.31131"
         y="32.950413"
         style="fill:#7a2900;fill-opacity:1;stroke-width:0.26458332">(</tspan></text>
    <path
       inkscape:connector-curvature="0"
       style="fill:#f4d7d7;fill-rule:evenodd;stroke:#f4d7d7;stroke-width:0.0825323"
       d="m 35.287243,40.481568 c 0.0484,-0.425451 0.70747,-0.733024 1.47212,-0.687054 0.76455,0.04594 1.34523,0.428151 1.29682,0.853603 -0.0483,0.425485 -0.70744,0.73312 -1.47208,0.687149 -0.76459,-0.04603 -1.34519,-0.428213 -1.29686,-0.853698 z"
       id="path35-6" />
  </g>
</svg>
