<?xml version="1.0" encoding="utf-8"?>
<!-- Generator: Adobe Illustrator 25.4.1, SVG Export Plug-In . SVG Version: 6.00 Build 0)  -->
<svg version="1.1"
	 id="svg8" sodipodi:docname="hourglass.svg" xmlns:cc="http://creativecommons.org/ns#" xmlns:dc="http://purl.org/dc/elements/1.1/" xmlns:rdf="http://www.w3.org/1999/02/22-rdf-syntax-ns#" xmlns:sodipodi="http://sodipodi.sourceforge.net/DTD/sodipodi-0.dtd" xmlns:svg="http://www.w3.org/2000/svg"
	 xmlns="http://www.w3.org/2000/svg" xmlns:xlink="http://www.w3.org/1999/xlink" x="0px" y="0px" viewBox="0 0 84.1 106.5"
	 style="enable-background:new 0 0 84.1 106.5;" xml:space="preserve">
<style type="text/css">
	.st0{fill:#CCF8FF;}
	.st1{fill:#DD9F80;}
	.st2{fill:#EFD4BF;}
	.st3{clip-path:url(#SVGID_00000132075761905979187390000012141346818977515919_);fill:#EFD4BF;}
	.st4{clip-path:url(#SVGID_00000136403298459016211990000010408066486241314731_);fill:#EFD4BF;}
	.st5{opacity:0.3;fill:#49AFBF;}
</style>
<path class="st0" d="M74.2,79.1c0-10.3-7.2-19.2-17.8-23.5c-2.7-1.1-2.7-4.2,0-5.3C66.9,46,74.2,37.1,74.2,26.8V11H9.4v15.8
	c0,10.3,7.2,19.2,17.8,23.5c2.7,1.1,2.7,4.2,0,5.3C16.7,60,9.4,68.8,9.4,79.1v16.4h64.7V79.1z"/>
<path id="bottom-plate_00000096770004359806510740000009679658122960028843_" class="st1" d="M75.3,11H8.3c-4.7,0-8.5-2.5-8.5-5.5
	c0-3,3.8-5.5,8.5-5.5h67.1c4.7,0,8.5,2.5,8.5,5.5C83.8,8.5,80,11,75.3,11z"/>
<path id="top-plate_00000065067755522841091360000010120955123122853020_" class="st1" d="M75.3,95.5H8.3c-4.7,0-8.5,2.5-8.5,5.5
	c0,3,3.8,5.5,8.5,5.5h67.1c4.7,0,8.5-2.5,8.5-5.5C83.8,98,80,95.5,75.3,95.5z"/>
<path class="st2" d="M42.2,61c-2.8,0-5,2.2-5,5c0,2.8,2.2,5,5,5s5-2.2,5-5C47.2,63.2,45,61,42.2,61z"/>
<g>
	<defs>
		<path id="SVGID_1_" d="M49.9,65.4c-0.1-0.1-0.2-0.2-0.3-0.3c-1.5-1.7-4.3-4.9-8.1-4.9c-3.7,0-6.6,3.2-8,4.9
			c-0.1,0.1-0.2,0.2-0.3,0.3c-4.3,5.1-11,11.8-22,20.7c0,0.3,0,0.7,0,1.1c0,1.8,0,4.4,0,6.9c0,0,60.6,0,60.6,0v-6.9v-0.7
			C61.1,77.4,54.4,70.6,49.9,65.4z"/>
	</defs>
	<clipPath id="SVGID_00000016774342856356564440000011376420489182760604_">
		<use xlink:href="#SVGID_1_"  style="overflow:visible;"/>
	</clipPath>
	<path style="clip-path:url(#SVGID_00000016774342856356564440000011376420489182760604_);fill:#EFD4BF;" d="M49.9,100.4
		c-0.1-0.1-0.2-0.2-0.3-0.3c-1.5-1.7-4.3-4.9-8.1-4.9c-3.7,0-6.6,3.2-8,4.9c-0.1,0.1-0.2,0.2-0.3,0.3c-4.3,5.1-11,11.8-22,20.7
		c0,0.3,0,0.7,0,1.1c0,1.8,0,4.4,0,6.9c0,0,60.6,0,60.6,0v-6.9v-0.7C61.1,112.4,54.4,105.6,49.9,100.4z"/>
</g>
<g>
	<defs>
		<path id="SVGID_00000114036208266438774260000011892159503920647596_" d="M62.2,18.7c-6.4-0.7-14-1.8-19.2-3.5
			c-5.5-1.9-11.2-2.8-17.1-2.8c-6,0-11,1-14.4,1.9v3.3v11h0h0c0,0.4,0.1,0.8,0.1,1.2c0,0.1,0,0.3,0.1,0.4c0,0.3,0.1,0.5,0.1,0.8
			c0,0.2,0.1,0.3,0.1,0.4c0.1,0.2,0.1,0.5,0.2,0.7c0,0.2,0.1,0.3,0.1,0.5c0.1,0.2,0.1,0.4,0.2,0.6c0,0.2,0.1,0.3,0.2,0.5
			c0.1,0.2,0.2,0.4,0.2,0.6c0.1,0.1,0.1,0.3,0.2,0.4c0.1,0.2,0.2,0.4,0.3,0.6c0.1,0.1,0.1,0.3,0.2,0.4c0.1,0.2,0.2,0.4,0.3,0.6
			c0.1,0.1,0.1,0.3,0.2,0.4c0.1,0.2,0.3,0.4,0.4,0.7c0.1,0.1,0.1,0.2,0.2,0.3c0.2,0.3,0.4,0.6,0.6,0.9c0.1,0.1,0.2,0.2,0.3,0.4
			c0.1,0.2,0.3,0.3,0.4,0.5c0.1,0.1,0.2,0.3,0.4,0.4c0.1,0.1,0.3,0.3,0.4,0.4c0.1,0.1,0.3,0.3,0.4,0.4c0.1,0.1,0.3,0.3,0.4,0.4
			c0.1,0.1,0.3,0.3,0.4,0.4c0.1,0.1,0.3,0.2,0.4,0.3c0.2,0.1,0.3,0.3,0.5,0.4c0.1,0.1,0.3,0.2,0.4,0.3c0.2,0.1,0.3,0.3,0.5,0.4
			c0.1,0.1,0.2,0.2,0.4,0.3c0.2,0.1,0.4,0.3,0.6,0.4c0.1,0.1,0.2,0.1,0.3,0.2c1.1,0.7,2.3,1.4,3.5,1.9c0.1,0,0.1,0.1,0.2,0.1
			c0.3,0.1,0.6,0.3,0.9,0.4c0.1,0,0.2,0.1,0.2,0.1c0.3,0.1,0.6,0.2,0.9,0.3c0.1,0,0.1,0.1,0.2,0.1c0.3,0.1,0.6,0.2,0.9,0.3
			c0.1,0,0.1,0,0.2,0.1c0.3,0.1,0.7,0.2,1,0.3c0,0,0.1,0,0.1,0c2.6,0.8,5.4,1.3,8.2,1.6c0,0,0,0,0,0c16.1,1.6,34-5.2,35-20.4h0
			c0-0.1,0-4.8,0-9.1c0,0,0,0,0,0C70,19.4,66.3,19.1,62.2,18.7z"/>
	</defs>
	<clipPath id="SVGID_00000014592883662881111300000014751814480064084382_">
		<use xlink:href="#SVGID_00000114036208266438774260000011892159503920647596_"  style="overflow:visible;"/>
	</clipPath>
	<path style="clip-path:url(#SVGID_00000014592883662881111300000014751814480064084382_);fill:#EFD4BF;" d="M62.2,22.7
		c-6.4-0.7-14-1.8-19.2-3.5c-5.5-1.9-11.2-2.8-17.1-2.8c-6,0-11,1-14.4,1.9v3.3v11c0,0-0.7-0.7,0,3.5c1.6,9.5,18.5,17.1,31.9,16.3
		c10-0.6,14.1-1.3,16.5-3.6C72.2,37,72.3,35.3,72.1,32.6h0c0-0.1,0-4.8,0-9.1c0,0,0,0,0,0C70,23.4,66.3,23.1,62.2,22.7z"/>
</g>
<path class="st5" d="M34,11c-4.7,0-8.5-2.5-8.5-5.5c0-3,3.8-5.5,8.5-5.5H8.3C3.6,0-0.2,2.5-0.2,5.5c0,3,3.8,5.5,8.5,5.5h1.2v15.8
	c0,10.3,7.2,19.2,17.8,23.5c0.3,0.1,0.6,0.3,0.9,0.5c0.6,0.5,0.9,1,1.1,1.7c0,0,0,0.1,0,0.1c0.2,1.2-0.5,2.4-2,3
	C16.7,60,9.4,68.8,9.4,79.1v16.4H8.3c-4.7,0-8.5,2.5-8.5,5.5c0,3,3.8,5.5,8.5,5.5H34c-4.7,0-8.5-2.5-8.5-5.5c0-3,3.8-5.5,8.5-5.5
	h-9.2c-2.3-10.4-2.1-20.9,4.6-28.2C38.7,57,38.1,46,35.3,37.5c-2.3-6.8,3-13.8,11.2-14.7c18.8-2.2,27.8-8.9,27.8-8.9V11H34z"/>
</svg>
