<?xml version="1.0" encoding="utf-8"?>
<!-- Generator: Adobe Illustrator 25.4.1, SVG Export Plug-In . SVG Version: 6.00 Build 0)  -->
<svg version="1.1" id="Ebene_1" xmlns="http://www.w3.org/2000/svg" xmlns:xlink="http://www.w3.org/1999/xlink" x="0px" y="0px"
	 viewBox="0 0 360 1080" style="enable-background:new 0 0 360 1080;" xml:space="preserve">
<style type="text/css">
	.st0{fill:#CCF8FF;}
	.st1{fill:#DD9F80;}
	.st2{clip-path:url(#SVGID_00000008147548018382975810000003700895782157422738_);fill:#EFD4BF;}
	.st3{fill:none;}
	.st4{opacity:0.3;fill:#49AFBF;enable-background:new    ;}
	.st5{clip-path:url(#SVGID_00000036968428272588903940000001396595858117592469_);fill:#EFD4BF;}
	.st6{fill:#EFD4BF;}
	.st7{fill:#ABEBF4;}
	.st8{fill:#DEC1AD;}
	.st9{fill:#E0C1AD;}
	.st10{fill:#C68D6D;}
	.st11{clip-path:url(#SVGID_00000021825745652604837140000009183073209817300671_);}
</style>
<path class="st0" d="M212.4,565.4c0-10.3-7.2-19.2-17.8-23.5c-2.7-1.1-2.7-4.2,0-5.3c10.5-4.3,17.8-13.2,17.8-23.5v-15.8h-64.7v15.8
	c0,10.3,7.2,19.2,17.8,23.5c2.7,1.1,2.7,4.2,0,5.3c-10.5,4.3-17.8,13.2-17.8,23.5v16.4h64.7V565.4z"/>
<path id="bottom-plate_00000126283888646811805730000012196805234739643547_" class="st1" d="M213.5,497.3h-67.1
	c-4.7,0-8.5-2.5-8.5-5.5s3.8-5.5,8.5-5.5h67.1c4.7,0,8.5,2.5,8.5,5.5S218.2,497.3,213.5,497.3z"/>
<path id="top-plate_00000076596417424535776110000001317823699466027694_" class="st1" d="M213.5,581.8h-67.1
	c-4.7,0-8.5,2.5-8.5,5.5s3.8,5.5,8.5,5.5h67.1c4.7,0,8.5-2.5,8.5-5.5C222,584.2,218.2,581.8,213.5,581.8z"/>
<g>
	<g>
		<defs>
			<path id="SVGID_1_" d="M200.4,504.9c-6.4-0.7-14-1.8-19.2-3.5c-5.5-1.9-11.2-2.8-17.1-2.8c-6,0-11,1-14.4,1.9v3.3v11l0,0l0,0
				c0,0.4,0.1,0.8,0.1,1.2c0,0.1,0,0.3,0.1,0.4c0,0.3,0.1,0.5,0.1,0.8c0,0.2,0.1,0.3,0.1,0.4c0.1,0.2,0.1,0.5,0.2,0.7
				c0,0.2,0.1,0.3,0.1,0.5c0.1,0.2,0.1,0.4,0.2,0.6c0,0.2,0.1,0.3,0.2,0.5c0.1,0.2,0.2,0.4,0.2,0.6c0.1,0.1,0.1,0.3,0.2,0.4
				c0.1,0.2,0.2,0.4,0.3,0.6c0.1,0.1,0.1,0.3,0.2,0.4c0.1,0.2,0.2,0.4,0.3,0.6c0.1,0.1,0.1,0.3,0.2,0.4c0.1,0.2,0.3,0.4,0.4,0.7
				c0.1,0.1,0.1,0.2,0.2,0.3c0.2,0.3,0.4,0.6,0.6,0.9c0.1,0.1,0.2,0.2,0.3,0.4s0.3,0.3,0.4,0.5c0.1,0.1,0.2,0.3,0.4,0.4
				c0.1,0.1,0.3,0.3,0.4,0.4c0.1,0.1,0.3,0.3,0.4,0.4c0.1,0.1,0.3,0.3,0.4,0.4c0.1,0.1,0.3,0.3,0.4,0.4c0.1,0.1,0.3,0.2,0.4,0.3
				c0.2,0.1,0.3,0.3,0.5,0.4c0.1,0.1,0.3,0.2,0.4,0.3c0.2,0.1,0.3,0.3,0.5,0.4c0.1,0.1,0.2,0.2,0.4,0.3s0.4,0.3,0.6,0.4
				c0.1,0.1,0.2,0.1,0.3,0.2c1.1,0.7,2.3,1.4,3.5,1.9c0.1,0,0.1,0.1,0.2,0.1c0.3,0.1,0.6,0.3,0.9,0.4c0.1,0,0.2,0.1,0.2,0.1
				c0.3,0.1,0.6,0.2,0.9,0.3c0.1,0,0.1,0.1,0.2,0.1c0.3,0.1,0.6,0.2,0.9,0.3c0.1,0,0.1,0,0.2,0.1c0.3,0.1,0.7,0.2,1,0.3h0.1
				c2.6,0.8,5.4,1.3,8.2,1.6l0,0c16.1,1.6,34-5.2,35-20.4l0,0c0-0.1,0-4.8,0-9.1l0,0C208.2,505.6,204.5,505.4,200.4,504.9z"/>
		</defs>
		<clipPath id="SVGID_00000044153667224846416270000004915435521259415701_">
			<use xlink:href="#SVGID_1_"  style="overflow:visible;"/>
		</clipPath>
		<path style="clip-path:url(#SVGID_00000044153667224846416270000004915435521259415701_);fill:#EFD4BF;" d="M200.4,508.9
			c-6.4-0.7-14-1.8-19.2-3.5c-5.5-1.9-11.2-2.8-17.1-2.8c-6,0-11,1-14.4,1.9v3.3v11l0,0l0,0c0,0.2,0,0.4,0,0.6
			c0,0.3,0.1,0.6,0.1,0.6c0.1,0.7,0.4,16.8,1.2,21c1.6,9.5,15.6,18.8,29,18c10-0.6,16.6-6.7,19-9c12.4-11.7,11.5-28.4,11.3-31.2l0,0
			c0-0.1,0-4.8,0-9.1l0,0C208.2,509.6,204.5,509.4,200.4,508.9z"/>
	</g>
</g>
<path class="st3" d="M224.5,582.4"/>
<path class="st4" d="M172.2,497.3c-4.7,0-8.5-2.5-8.5-5.5s3.8-5.5,8.5-5.5h-25.7c-4.7,0-8.5,2.5-8.5,5.5s3.8,5.5,8.5,5.5h1.2v15.8
	c0,10.3,7.2,19.2,17.8,23.5c0.3,0.1,0.6,0.3,0.9,0.5c0.6,0.5,0.9,1,1.1,1.7v0.1c0.2,1.2-0.5,2.4-2,3c-10.5,4.3-17.8,13.2-17.8,23.5
	v16.4h-1.2c-4.7,0-8.5,2.5-8.5,5.5s3.8,5.5,8.5,5.5h25.7c-4.7,0-8.5-2.5-8.5-5.5s3.8-5.5,8.5-5.5H163c-2.3-10.4-2.1-20.9,4.6-28.2
	c9.3-10.3,8.7-21.4,5.9-29.9c-2.3-6.8,3-13.8,11.2-14.7c18.8-2.2,27.8-8.9,27.8-8.9v-2.8L172.2,497.3L172.2,497.3z"/>
<g>
	<g>
		<defs>
			<path id="SVGID_00000096764421086418162630000015750382906706623139_" d="M188.2,551.7c-0.1-0.1-0.2-0.2-0.3-0.3
				c-1.5-1.7-4.3-4.9-8.1-4.9c-3.7,0-6.6,3.2-8,4.9c-0.1,0.1-0.2,0.2-0.3,0.3c-4.3,5.1-11,11.8-22,20.7c0,0.3,0,0.7,0,1.1
				c0,1.8,0,4.4,0,6.9h60.6v-6.9v-0.7C199.3,563.7,192.6,556.9,188.2,551.7z"/>
		</defs>
		<clipPath id="SVGID_00000147904620101817231480000004904561272361647503_">
			<use xlink:href="#SVGID_00000096764421086418162630000015750382906706623139_"  style="overflow:visible;"/>
		</clipPath>
		<path style="clip-path:url(#SVGID_00000147904620101817231480000004904561272361647503_);fill:#EFD4BF;" d="M188.2,585.7
			c-0.1-0.1-0.2-0.2-0.3-0.3c-1.5-1.7-4.3-4.9-8.1-4.9c-3.7,0-6.6,3.2-8,4.9c-0.1,0.1-0.2,0.2-0.3,0.3c-4.3,5.1-11,11.8-22,20.7
			c0,0.3,0,0.7,0,1.1c0,1.8,0,4.4,0,6.9h60.6v-6.9v-0.7C199.3,597.7,192.6,590.9,188.2,585.7z"/>
	</g>
</g>
<path class="st6" d="M604.3,594.2v-14.4c0-9.2,6.3-17.5,16.5-21.7c2-0.8,3.2-2.5,3.2-4.5s-1.2-3.7-3.2-4.5
	c-10.2-4.2-16.5-12.5-16.5-21.7v-13.8H665v13.8c0,9.2-6.3,17.5-16.5,21.7c-2,0.8-3.2,2.5-3.2,4.5s1.2,3.7,3.2,4.5
	c10.2,4.2,16.5,12.5,16.5,21.7v14.4H604.3z"/>
<g id="glass-group">
	<path class="st0" d="M460.5,554.7c0-10.3-7.2-19.2-17.8-23.5c-2.7-1.1-2.7-4.2,0-5.3c10.5-4.3,17.8-13.2,17.8-23.5v-15.8h-64.7
		v15.8c0,10.3,7.2,19.2,17.8,23.5c2.7,1.1,2.7,4.2,0,5.3c-10.5,4.3-17.8,13.2-17.8,23.5v16.4h64.7V554.7z"/>
	<path id="glass-shadow" class="st7" d="M395.8,479.3v23.1c0,10.3,7.2,19.2,17.8,23.5c2.7,1.1,2.7,4.2,0,5.3
		c-10.5,4.3-17.8,13.2-17.8,23.5v23.1H413c-4-12.5-5.3-26,2.7-34.9c9.3-10.3,8.7-21.4,5.9-29.9c-2.3-6.8,3-13.8,11.2-14.7
		c18.8-2.2,27.8-8.9,27.8-8.9v-10.1L395.8,479.3L395.8,479.3z"/>
</g>
<g id="top-sand-group">
	<path id="top-sand-whole" class="st6" d="M427.9,540.8c-1,0-2.8-0.3-3.3-2.5c0-2.2,0-3.4,0-4.1c-0.1-6.7-8.9-9.7-10.4-10.1
		c-10.2-4.2-16.5-12.5-16.5-21.6v-3.3c3.5-1,8.5-1.9,14.4-1.9c5.8,0,11.6,0.9,17.1,2.8c8.6,2.9,23.7,4,29.1,4.3
		c-0.8,8.4-6.9,15.8-16.4,19.7c-1.4,0.4-10.2,3.5-10.4,10.1c-0.1,0.7-0.1,1.9,0,4.3C431.6,539.8,429.7,540.8,427.9,540.8
		L427.9,540.8z"/>
	<path id="top-sand-shadow" class="st8" d="M428.2,499.6c-5.2-1.6-10.5-2.5-16-2.5c-6,0-11,1-14.4,1.9v3.3c0,9.1,6.3,17.4,16.5,21.6
		c1,0.3,5.9,2,8.6,5.5c1.3-5.9,0.4-11.6-1.2-16.4C419.8,507.6,422.8,502.1,428.2,499.6z"/>
</g>
<path class="st9" d="M508.7,498.1c-14.9-5.1-28-2.4-34.1-0.5v4.8c0,10.3,7.2,19.2,17.8,23.5c0,0,6.7,2,8.6,6.2
	c2.2-6.8,1.3-13.5-0.5-19.1c-2.2-6.5,2.5-13,9.9-14.5C509.7,498.4,509.2,498.3,508.7,498.1L508.7,498.1z"/>
<path id="sand-grain" class="st6" d="M433.1,550.2c0-2.8-2.2-5-5-5s-5,2.2-5,5s2.2,5,5,5S433.1,553,433.1,550.2z"/>
<path id="bottom-sand" class="st6" d="M413.9,569.1h28.5c0,0-4.2-8.5-14.2-8.5C418.1,560.6,413.9,569.1,413.9,569.1z"/>
<g id="top-plate-group">
	<path id="bottom-plate" class="st1" d="M461.7,486.6h-67.1c-4.7,0-8.5-2.5-8.5-5.5s3.8-5.5,8.5-5.5h67.1c4.7,0,8.5,2.5,8.5,5.5
		S466.4,486.6,461.7,486.6z"/>
	<path id="top-plate-shadow" class="st10" d="M411.8,481.1c0-3,3.8-5.5,8.5-5.5h-25.7c-4.7,0-8.5,2.5-8.5,5.5s3.8,5.5,8.5,5.5h25.7
		C415.6,486.6,411.8,484.2,411.8,481.1z"/>
</g>
<g id="bottom-plate-group">
	<path id="top-plate" class="st1" d="M461.7,571.1h-67.1c-4.7,0-8.5,2.5-8.5,5.5s3.8,5.5,8.5,5.5h67.1c4.7,0,8.5-2.5,8.5-5.5
		S466.4,571.1,461.7,571.1z"/>
	<path id="bottom-plate-shadow" class="st10" d="M411.8,576.6c0-3,3.8-5.5,8.5-5.5h-25.7c-4.7,0-8.5,2.5-8.5,5.5s3.8,5.5,8.5,5.5
		h25.7C415.6,582.1,411.8,579.7,411.8,576.6z"/>
</g>
<path class="st6" d="M506.4,634.7c-1.1-0.3-6.4-2.2-9-5.9c-0.8-1.2-9.1-1-10,0.2c-2.6,3.6-7.8,5.4-8.8,5.8
	c-9.4,3.9-15.6,11.4-16.4,19.7h60.6C522,646,515.9,638.6,506.4,634.7z"/>
<path class="st6" d="M584.7,547.4c0-10.3-7.2-19.2-17.8-23.5c0,0-9-2.7-9-8.4c-0.1,0-0.1-2,0-4.1c-1.3-6.6-10.9-4.8-11,0
	c0,2.1,0,4.1,0,4.1c0,5.7-9,8.4-9,8.4c-10.5,4.3-17.8,13.2-17.8,23.5v17.5h64.8L584.7,547.4L584.7,547.4z"/>
<path class="st6" d="M504.4,606.5V591c0-9.1,6.3-17.4,16.5-21.6c1.4-0.4,26.5-0.4,27.8,0c10.2,4.2,16.5,12.5,16.5,21.6v2l0,0v13.5
	H504.4z"/>
<path class="st6" d="M636.8,441.1c-1.9-0.8-3.1-2.4-3.2-4.2h-21.2c-0.1,1.8-1.3,3.4-3.2,4.2c-10.2,4.2-16.5,12.5-16.5,21.7v14.4
	h60.7v-14.4C653.3,453.6,647,445.3,636.8,441.1z"/>
<path class="st6" d="M548.7,678.3c10.2,4.2,16.5,12.5,16.5,21.7v14.4h-60.7V700c0-9.2,6.3-17.5,16.5-21.7c0,0,1.7-0.9,6.9-1.7
	s10.6-0.6,14,0C545.2,677.2,548.7,678.3,548.7,678.3z"/>
<path class="st6" d="M557.3,683.6"/>
<g>
	<path class="st6" d="M504.5,810.3c1.7,27.5,58.8,27.5,60.6,0l0,0c0-0.2,0-15.6,0-16.2h-60.6L504.5,810.3L504.5,810.3z"/>
	<path class="st9" d="M504.5,810.3L504.5,810.3c0.8,12.3,12.6,19,25.6,20.4c0.2-4.4-0.6-8.5-1.8-12.2c-2.3-6.8,3-13.8,11.2-14.7
		c13.6-1.6,22-5.5,25.7-7.6c0-1.2,0-2,0-2.1h-60.6v16.2H504.5z"/>
</g>
<g>
	<path class="st6" d="M565.1,766.3c-1.7-27.5-58.8-27.5-60.6,0l0,0c0,0.2,0,15.6,0,16.2h60.6V766.3L565.1,766.3z"/>
	<path class="st9" d="M522.3,756.4c3-3.4,5-6.8,6.2-10.2c-12.4,1.7-23.2,8.4-24,20.2l0,0c0,0.2,0,15.6,0,16.2h12.8
		C515.5,772.8,516.1,763.2,522.3,756.4z"/>
</g>
<g>
	<path class="st0" d="M572.8,363.5c0-10.3-7.2-19.2-17.8-23.5c-2.7-1.1-2.7-4.2,0-5.3c10.5-4.3,17.8-13.2,17.8-23.5v-15.8H508v15.8
		c0,10.3,7.2,19.2,17.8,23.5c2.7,1.1,2.7,4.2,0,5.3c-10.5,4.3-17.8,13.2-17.8,23.5v16.4h64.7L572.8,363.5L572.8,363.5z"/>
	<path id="glass-shadow_00000180346123677749024090000013409665554094261947_" class="st7" d="M508,288.1v23.1
		c0,10.3,7.2,19.2,17.8,23.5c2.7,1.1,2.7,4.2,0,5.3c-10.5,4.3-17.8,13.2-17.8,23.5v23.1h17.2c-4-12.5-5.3-26,2.7-34.9
		c9.3-10.3,8.7-21.4,5.9-29.9c-2.3-6.8,3-13.8,11.2-14.7c18.8-2.2,27.8-8.9,27.8-8.9v-10.1H508z"/>
	<g>
		<path class="st6" d="M540.2,349.5c-1,0-2.8-0.3-3.3-2.5c0-2.2,0-3.4,0-4.1c-0.1-6.7-8.9-9.7-10.4-10.1
			c-10.2-4.2-16.5-12.5-16.5-21.6v-3.3c3.5-1,8.5-1.9,14.4-1.9c5.8,0,11.6,0.9,17.1,2.8c8.6,2.9,23.7,4,29.1,4.3
			c-0.8,8.4-6.9,15.8-16.4,19.7c-1.4,0.4-10.2,3.5-10.4,10.1c-0.1,0.7-0.1,1.9,0,4.3C543.9,348.5,541.9,349.5,540.2,349.5
			L540.2,349.5z"/>
		<path class="st8" d="M540.5,308.4c-5.2-1.6-10.5-2.5-16-2.5c-6,0-11,1-14.4,1.9v3.3c0,9.1,6.3,17.4,16.5,21.6c1,0.3,5.9,2,8.6,5.5
			c1.3-5.9,0.4-11.6-1.2-16.4C532,316.4,535,310.9,540.5,308.4z"/>
	</g>
	<path id="sand-grain_00000065033190137598244960000015395341390442484157_" class="st6" d="M545.4,359c0-2.8-2.2-5-5-5s-5,2.2-5,5
		s2.2,5,5,5S545.4,361.7,545.4,359z"/>
	<path id="bottom-sand_00000120518481618369860000000007068102213885279361_" class="st6" d="M526.1,377.9h28.5
		c0,0-4.2-8.5-14.2-8.5C530.3,369.4,526.1,377.9,526.1,377.9z"/>
	<path id="bottom-plate_00000093860520317687660570000000834034804497369528_" class="st1" d="M573.9,295.4h-67.1
		c-4.7,0-8.5-2.5-8.5-5.5s3.8-5.5,8.5-5.5h67.1c4.7,0,8.5,2.5,8.5,5.5S578.6,295.4,573.9,295.4z"/>
	<path id="top-plate-shadow_00000144332914759493266920000008202005599681483666_" class="st10" d="M524.1,289.9
		c0-3,3.8-5.5,8.5-5.5h-25.7c-4.7,0-8.5,2.5-8.5,5.5s3.8,5.5,8.5,5.5h25.7C527.9,295.4,524.1,292.9,524.1,289.9z"/>
	<path id="top-plate_00000170978546782349616660000007793497236936224163_" class="st1" d="M573.9,379.9h-67.1
		c-4.7,0-8.5,2.5-8.5,5.5s3.8,5.5,8.5,5.5h67.1c4.7,0,8.5-2.5,8.5-5.5S578.6,379.9,573.9,379.9z"/>
	<path id="bottom-plate-shadow_00000051374853657606380450000010667627093487200675_" class="st10" d="M524.1,385.4
		c0-3,3.8-5.5,8.5-5.5h-25.7c-4.7,0-8.5,2.5-8.5,5.5s3.8,5.5,8.5,5.5h25.7C527.9,390.9,524.1,388.4,524.1,385.4z"/>
	<path class="st6" d="M572.8,382.9"/>
</g>
<g>
	<path class="st0" d="M880,363.5c0-10.3-7.2-19.2-17.8-23.5c-2.7-1.1-2.7-4.2,0-5.3c10.5-4.3,17.8-13.2,17.8-23.5v-15.8h-64.7v15.8
		c0,10.3,7.2,19.2,17.8,23.5c2.7,1.1,2.7,4.2,0,5.3c-10.5,4.3-17.8,13.2-17.8,23.5v16.4H880V363.5z"/>
	<path id="glass-shadow_00000088839455298269190860000014414974452004838837_" class="st7" d="M815.3,288.1v23.1
		c0,10.3,7.2,19.2,17.8,23.5c2.7,1.1,2.7,4.2,0,5.3c-10.5,4.3-17.8,13.2-17.8,23.5v23.1h17.2c-4-12.5-5.3-26,2.7-34.9
		c9.3-10.3,8.7-21.4,5.9-29.9c-2.3-6.8,3-13.8,11.2-14.7c18.8-2.2,27.8-8.9,27.8-8.9v-10.1H815.3z"/>
	<path id="bottom-plate_00000127735269018826077580000015869921586261973689_" class="st1" d="M881.2,295.4h-67.1
		c-4.7,0-8.5-2.5-8.5-5.5s3.8-5.5,8.5-5.5h67.1c4.7,0,8.5,2.5,8.5,5.5S885.9,295.4,881.2,295.4z"/>
	<path id="top-plate-shadow_00000140694322856106149090000012603492823501489840_" class="st10" d="M831.4,289.9
		c0-3,3.8-5.5,8.5-5.5h-25.7c-4.7,0-8.5,2.5-8.5,5.5s3.8,5.5,8.5,5.5h25.7C835.2,295.4,831.4,292.9,831.4,289.9z"/>
	<path id="top-plate_00000000187962970638062360000010096364654379798180_" class="st1" d="M881.2,379.9h-67.1
		c-4.7,0-8.5,2.5-8.5,5.5s3.8,5.5,8.5,5.5h67.1c4.7,0,8.5-2.5,8.5-5.5S885.9,379.9,881.2,379.9z"/>
	<path id="bottom-plate-shadow_00000111875104523114259160000003702718637018822569_" class="st10" d="M831.4,385.4
		c0-3,3.8-5.5,8.5-5.5h-25.7c-4.7,0-8.5,2.5-8.5,5.5s3.8,5.5,8.5,5.5h25.7C835.2,390.9,831.4,388.4,831.4,385.4z"/>
	<path class="st6" d="M861.6,358.2c-1.1-0.3-6.6-2-9-5.9c-0.7-1.2-7-2.4-10,0.2c-3.4,2.9-7.8,5.4-8.8,5.8
		c-9.4,3.9-15.6,11.4-16.4,19.7H878C877.1,369.5,871,362.1,861.6,358.2z"/>
	<path class="st9" d="M830.7,359.6c-7.7,4.1-12.6,10.8-13.3,18.3h12.9C829,371.5,828.9,365.2,830.7,359.6z"/>
	<g>
		<path class="st6" d="M834.8,333.2C834.8,333.2,834.7,333.2,834.8,333.2C834.7,333.2,834.8,333.2,834.8,333.2z"/>
		<path class="st6" d="M834.5,333.1c-0.1,0-0.2-0.1-0.2-0.1C834.3,333.1,834.4,333.1,834.5,333.1z"/>
		<path class="st8" d="M834.8,333.2c1.9,0.7,5.5,2.3,7.6,5.1C840.2,335.6,836.6,333.9,834.8,333.2z"/>
		<path class="st8" d="M834.1,333L834.1,333C834.2,333,834.2,333,834.1,333L834.1,333z"/>
		<path class="st8" d="M834.7,333.2c-0.1,0-0.2-0.1-0.3-0.1C834.5,333.1,834.6,333.2,834.7,333.2z"/>
		<path class="st8" d="M845.8,307.9L845.8,307.9L845.8,307.9z"/>
		<path class="st8" d="M834.1,333c-0.1,0-0.2-0.1-0.3-0.1C833.9,332.9,834,332.9,834.1,333z"/>
		<path class="st8" d="M834.1,333L834.1,333L834.1,333L834.1,333z"/>
		<g>
			<path class="st6" d="M848.8,327.5c-2.2-0.7-4.4-1.3-6.6-1.8c0.5,2.3,0.8,4.8,0.8,7.3c0,1.7-0.2,3.5-0.6,5.3l0,0
				c0.3,0.3,0.6,0.8,0.9,1.3c0.4,0.7,0.7,1.4,0.8,1.9c0,0.4,0.1,1.7,1.1,2.6c0.8,0.7,1.7,0.7,3.2,0.6c1.3,0,2.3,0,3-0.7
				c0.9-0.8,0.6-1.7,1-3.3c1.2-4.7,7.4-7.3,9-7.8c0.1,0,0.2,0,0.3-0.1c1.5-0.6,2.9-1.3,4.2-2.1C860,330.1,853.5,329,848.8,327.5z"/>
			<path class="st8" d="M842.2,325.7c-3.4-0.7-6.9-1-10.4-1c-3.3,0-6.2,0.3-8.8,0.7c2.8,3.1,6.4,5.7,10.8,7.5c0.1,0,0.2,0.1,0.3,0.1
				c0,0,0,0,0.1,0h0.1c0.1,0,0.1,0,0.2,0.1c0.1,0,0.2,0.1,0.3,0.1l0,0c1.9,0.7,5.5,2.3,7.6,5.1l0,0c0.4-1.8,0.6-3.6,0.6-5.3
				C843,330.5,842.7,328,842.2,325.7z"/>
		</g>
	</g>
</g>
<g>
	<path class="st8" d="M730.3,511.1c-5.5-1.9-11.2-2.8-17.1-2.8c-6,0-11,1-14.4,1.9v3.3c0,1.1,0.1,2.1,0.3,3.1h60.2
		c0.1-0.4,0.1-0.8,0.2-1.2C754,515.2,738.9,514.1,730.3,511.1z"/>
</g>
<g>
	<path class="st0" d="M470.3,363.5c0-10.3-7.2-19.2-17.8-23.5c-2.7-1.1-2.7-4.2,0-5.3c10.5-4.3,17.8-13.2,17.8-23.5v-15.8h-64.7
		v15.8c0,10.3,7.2,19.2,17.8,23.5c2.7,1.1,2.7,4.2,0,5.3c-10.5,4.3-17.8,13.2-17.8,23.5v16.4h64.7V363.5z"/>
	<path id="glass-shadow_00000134231567772909718380000015577714247587625618_" class="st7" d="M405.6,288.1v23.1
		c0,10.3,7.2,19.2,17.8,23.5c2.7,1.1,2.7,4.2,0,5.3c-10.5,4.3-17.8,13.2-17.8,23.5v23.1h17.2c-4-12.5-5.3-26,2.7-34.9
		c9.3-10.3,8.7-21.4,5.9-29.9c-2.3-6.8,3-13.8,11.2-14.7c18.8-2.2,27.8-8.9,27.8-8.9v-10.1H405.6z"/>
	<path id="bottom-plate_00000172418321752017995350000014924600066175378324_" class="st1" d="M471.5,295.4h-67.1
		c-4.7,0-8.5-2.5-8.5-5.5s3.8-5.5,8.5-5.5h67.1c4.7,0,8.5,2.5,8.5,5.5S476.2,295.4,471.5,295.4z"/>
	<path id="top-plate-shadow_00000155117577683762358920000005599783209057066902_" class="st10" d="M421.7,289.9
		c0-3,3.8-5.5,8.5-5.5h-25.7c-4.7,0-8.5,2.5-8.5,5.5s3.8,5.5,8.5,5.5h25.7C425.5,295.4,421.7,292.9,421.7,289.9z"/>
	<path id="top-plate_00000158029020162680752030000008921764665003672497_" class="st1" d="M471.5,379.9h-67.1
		c-4.7,0-8.5,2.5-8.5,5.5s3.8,5.5,8.5,5.5h67.1c4.7,0,8.5-2.5,8.5-5.5S476.2,379.9,471.5,379.9z"/>
	<path id="bottom-plate-shadow_00000003073978530029690500000009680354870524202412_" class="st10" d="M421.7,385.4
		c0-3,3.8-5.5,8.5-5.5h-25.7c-4.7,0-8.5,2.5-8.5,5.5s3.8,5.5,8.5,5.5h25.7C425.5,390.9,421.7,388.4,421.7,385.4z"/>
	<g>
		<path class="st6" d="M409.1,319.8c-0.1-0.1-0.1-0.3-0.2-0.4C409,319.5,409,319.6,409.1,319.8z"/>
		<path class="st6" d="M414.8,327.2c-0.2-0.1-0.3-0.3-0.5-0.4C414.5,326.9,414.7,327.1,414.8,327.2z"/>
		<path class="st6" d="M416.7,328.6c-0.2-0.1-0.4-0.3-0.6-0.4C416.3,328.3,416.5,328.4,416.7,328.6z"/>
		<path class="st6" d="M409.6,320.8c-0.1-0.1-0.1-0.3-0.2-0.4C409.4,320.5,409.5,320.7,409.6,320.8z"/>
		<path class="st6" d="M408.3,317.6c0-0.2-0.1-0.3-0.1-0.5C408.2,317.3,408.3,317.5,408.3,317.6z"/>
		<path class="st6" d="M415.8,327.9c-0.2-0.1-0.4-0.3-0.5-0.4C415.4,327.6,415.6,327.8,415.8,327.9z"/>
		<path class="st6" d="M408.7,318.7c-0.1-0.2-0.1-0.3-0.2-0.5C408.6,318.4,408.6,318.6,408.7,318.7z"/>
		<path class="st6" d="M413.2,325.7c-0.1-0.1-0.3-0.3-0.4-0.4C412.9,325.4,413,325.5,413.2,325.7z"/>
		<path class="st6" d="M410.1,321.8c-0.1-0.1-0.1-0.3-0.2-0.4C410,321.5,410,321.6,410.1,321.8z"/>
		<path class="st6" d="M412.4,324.8c-0.1-0.1-0.2-0.3-0.4-0.4C412.1,324.6,412.2,324.7,412.4,324.8z"/>
		<path class="st6" d="M411.6,323.9c-0.1-0.1-0.2-0.2-0.3-0.4C411.4,323.7,411.5,323.8,411.6,323.9z"/>
		<path class="st6" d="M414,326.4c-0.1-0.1-0.3-0.3-0.4-0.4C413.7,326.2,413.8,326.3,414,326.4z"/>
		<path class="st6" d="M410.7,322.7c-0.1-0.1-0.1-0.2-0.2-0.3C410.6,322.5,410.6,322.6,410.7,322.7z"/>
		<path class="st6" d="M408,316.5c0-0.1-0.1-0.3-0.1-0.4C408,316.2,408,316.3,408,316.5z"/>
		<path class="st6" d="M420.5,330.7c-1.2-0.6-2.4-1.2-3.5-1.9C418.1,329.4,419.3,330.1,420.5,330.7z"/>
		<path class="st6" d="M433.2,334c-2.8-0.3-5.6-0.8-8.2-1.6C427.6,333.2,430.4,333.7,433.2,334z"/>
		<path class="st6" d="M407.8,315.3c0-0.1,0-0.3-0.1-0.4C407.8,315,407.8,315.1,407.8,315.3z"/>
		<path class="st6" d="M422.6,331.6c-0.3-0.1-0.6-0.2-0.9-0.3C422.1,331.3,422.3,331.5,422.6,331.6z"/>
		<path class="st6" d="M421.5,331.1c-0.3-0.1-0.6-0.2-0.9-0.4C421,330.9,421.2,331,421.5,331.1z"/>
		<path class="st6" d="M424.9,332.4c-0.3-0.1-0.7-0.2-1-0.3C424.3,332.2,424.6,332.3,424.9,332.4z"/>
		<path class="st6" d="M423.8,332c-0.3-0.1-0.6-0.2-0.9-0.3C423.2,331.8,423.5,331.9,423.8,332z"/>
		<path class="st9" d="M413.5,326c-0.1-0.1-0.3-0.3-0.4-0.4C413.3,325.8,413.4,325.9,413.5,326z"/>
		<path class="st9" d="M421.8,331.2c-0.1,0-0.2-0.1-0.2-0.1C421.6,331.2,421.7,331.2,421.8,331.2z"/>
		<path class="st9" d="M422.9,331.7c-0.1,0-0.1-0.1-0.2-0.1C422.7,331.6,422.8,331.6,422.9,331.7z"/>
		<path class="st9" d="M414.4,326.8c-0.1-0.1-0.3-0.2-0.4-0.3C414.1,326.6,414.2,326.7,414.4,326.8z"/>
		<path class="st9" d="M412.8,325.3c-0.1-0.1-0.3-0.3-0.4-0.4C412.5,325,412.6,325.1,412.8,325.3z"/>
		<path class="st9" d="M416.1,328.1c-0.1-0.1-0.2-0.2-0.4-0.3C415.9,328,416,328.1,416.1,328.1z"/>
		<path class="st9" d="M420.7,330.8c-0.1,0-0.1-0.1-0.2-0.1C420.6,330.7,420.6,330.7,420.7,330.8z"/>
		<path class="st9" d="M417,328.7c-0.1-0.1-0.2-0.1-0.3-0.2C416.8,328.6,416.9,328.7,417,328.7z"/>
		<path class="st9" d="M415.2,327.5c-0.1-0.1-0.3-0.2-0.4-0.3C415,327.3,415.1,327.4,415.2,327.5z"/>
		<path class="st9" d="M411.3,323.6c-0.2-0.3-0.4-0.6-0.6-0.9C410.9,323,411.1,323.3,411.3,323.6z"/>
		<path class="st9" d="M425,332.4L425,332.4L425,332.4z"/>
		<path class="st9" d="M407.9,316c0-0.3-0.1-0.5-0.1-0.8C407.9,315.5,407.9,315.8,407.9,316z"/>
		<path class="st9" d="M407.6,313.7c0,0.4,0.1,0.8,0.1,1.2C407.7,314.5,407.7,314.1,407.6,313.7L407.6,313.7z"/>
		<path class="st9" d="M412,324.4c-0.1-0.2-0.3-0.3-0.4-0.5C411.7,324.1,411.9,324.3,412,324.4z"/>
		<path class="st9" d="M408.2,317.2c-0.1-0.2-0.1-0.5-0.2-0.7C408.1,316.7,408.1,317,408.2,317.2z"/>
		<polygon class="st9" points="407.6,302.7 407.6,313.7 407.6,313.7 		"/>
		<path class="st9" d="M433.2,334L433.2,334L433.2,334z"/>
		<path class="st9" d="M409.4,320.4c-0.1-0.2-0.2-0.4-0.3-0.6C409.2,320,409.3,320.2,409.4,320.4z"/>
		<path class="st9" d="M408.5,318.3c-0.1-0.2-0.1-0.4-0.2-0.6C408.4,317.9,408.5,318.1,408.5,318.3z"/>
		<path class="st9" d="M409.9,321.4c-0.1-0.2-0.2-0.4-0.3-0.6C409.7,321,409.8,321.2,409.9,321.4z"/>
		<path class="st9" d="M424,332.1c-0.1,0-0.1,0-0.2-0.1C423.8,332,423.9,332,424,332.1z"/>
		<path class="st9" d="M410.5,322.4c-0.1-0.2-0.3-0.4-0.4-0.7C410.2,322,410.4,322.2,410.5,322.4z"/>
		<path class="st9" d="M408.9,319.3c-0.1-0.2-0.2-0.4-0.2-0.6C408.8,318.9,408.8,319.1,408.9,319.3z"/>
		<path class="st8" d="M407.6,299.4v3.3l0,0V299.4L407.6,299.4z"/>
		<path class="st8" d="M468.2,304.6L468.2,304.6L468.2,304.6z"/>
		<path class="st6" d="M458.3,303.8c-2.2,0.7-4.7,1.4-7.6,2c-2.5,0.5-5.2,1-8.2,1.3c-8.2,1-13.4,7.9-11.2,14.7
			c1.2,3.7,2,7.8,1.8,12.2c16.1,1.6,34-5.2,35-20.4l0,0c0-0.1,0-4.8,0-9.1l0,0C466.1,304.5,462.5,304.2,458.3,303.8z"/>
		<polygon class="st8" points="407.6,299.4 407.6,299.4 407.6,302.7 407.6,302.7 		"/>
		<path class="st8" d="M439.1,300.3c-5.5-1.9-11.2-2.8-17.1-2.8c-6,0-11,1-14.4,1.9v3.3v11l0,0l0,0c0,0.4,0.1,0.8,0.1,1.2
			c0,0.1,0,0.3,0.1,0.4c0,0.3,0.1,0.5,0.1,0.8c0,0.2,0.1,0.3,0.1,0.4c0.1,0.2,0.1,0.5,0.2,0.7c0,0.2,0.1,0.3,0.1,0.5
			c0.1,0.2,0.1,0.4,0.2,0.6c0,0.2,0.1,0.3,0.2,0.5s0.2,0.4,0.2,0.6c0.1,0.1,0.1,0.3,0.2,0.4c0.1,0.2,0.2,0.4,0.3,0.6
			c0.1,0.1,0.1,0.3,0.2,0.4c0.1,0.2,0.2,0.4,0.3,0.6c0.1,0.1,0.1,0.3,0.2,0.4c0.1,0.2,0.3,0.4,0.4,0.7c0.1,0.1,0.1,0.2,0.2,0.3
			c0.2,0.3,0.4,0.6,0.6,0.9c0.1,0.1,0.2,0.2,0.3,0.4c0.1,0.2,0.3,0.3,0.4,0.5c0.1,0.1,0.2,0.3,0.4,0.4c0.1,0.1,0.3,0.3,0.4,0.4
			s0.3,0.3,0.4,0.4s0.3,0.3,0.4,0.4s0.3,0.3,0.4,0.4s0.3,0.2,0.4,0.3c0.2,0.1,0.3,0.3,0.5,0.4c0.1,0.1,0.3,0.2,0.4,0.3
			c0.2,0.1,0.3,0.3,0.5,0.4c0.1,0.1,0.2,0.2,0.4,0.3c0.2,0.1,0.4,0.3,0.6,0.4c0.1,0.1,0.2,0.1,0.3,0.2c1.1,0.7,2.3,1.4,3.5,1.9
			c0.1,0,0.1,0.1,0.2,0.1c0.3,0.1,0.6,0.3,0.9,0.4c0.1,0,0.2,0.1,0.2,0.1c0.3,0.1,0.6,0.2,0.9,0.3c0.1,0,0.1,0.1,0.2,0.1
			c0.3,0.1,0.6,0.2,0.9,0.3c0.1,0,0.1,0,0.2,0.1c0.3,0.1,0.7,0.2,1,0.3h0.1c2.6,0.8,5.4,1.3,8.2,1.6l0,0c0.2-4.4-0.6-8.5-1.8-12.2
			c-2.3-6.8,3-13.8,11.2-14.7c3-0.3,5.7-0.8,8.2-1.3c2.8-0.6,5.4-1.3,7.6-2C451.9,303.1,444.3,302,439.1,300.3z"/>
	</g>
</g>
<g>
	<path class="st0" d="M982.5,363.5c0-10.3-7.2-19.2-17.8-23.5c-2.7-1.1-2.7-4.2,0-5.3c10.5-4.3,17.8-13.2,17.8-23.5v-15.8h-64.7
		v15.8c0,10.3,7.2,19.2,17.8,23.5c2.7,1.1,2.7,4.2,0,5.3c-10.5,4.3-17.8,13.2-17.8,23.5v16.4h64.7V363.5z"/>
	<path id="glass-shadow_00000142153102773046869260000006780674859406348975_" class="st7" d="M917.7,288.1v23.1
		c0,10.3,7.2,19.2,17.8,23.5c2.7,1.1,2.7,4.2,0,5.3c-10.5,4.3-17.8,13.2-17.8,23.5v23.1h17.2c-4-12.5-5.3-26,2.7-34.9
		c9.3-10.3,8.7-21.4,5.9-29.9c-2.3-6.8,3-13.8,11.2-14.7c18.8-2.2,27.8-8.9,27.8-8.9v-10.1H917.7z"/>
	<path id="bottom-plate_00000025441609748474763130000003360391097858103728_" class="st1" d="M983.6,295.4h-67.1
		c-4.7,0-8.5-2.5-8.5-5.5s3.8-5.5,8.5-5.5h67.1c4.7,0,8.5,2.5,8.5,5.5S988.3,295.4,983.6,295.4z"/>
	<path id="top-plate-shadow_00000109023228277943129290000014044748232876084878_" class="st10" d="M933.8,289.9
		c0-3,3.8-5.5,8.5-5.5h-25.7c-4.7,0-8.5,2.5-8.5,5.5s3.8,5.5,8.5,5.5h25.7C937.6,295.4,933.8,292.9,933.8,289.9z"/>
	<path id="top-plate_00000106117987461224724490000014721291975130833332_" class="st1" d="M983.6,379.9h-67.1
		c-4.7,0-8.5,2.5-8.5,5.5s3.8,5.5,8.5,5.5h67.1c4.7,0,8.5-2.5,8.5-5.5S988.3,379.9,983.6,379.9z"/>
	<path id="bottom-plate-shadow_00000183961551871467251070000011282854828070853530_" class="st10" d="M933.8,385.4
		c0-3,3.8-5.5,8.5-5.5h-25.7c-4.7,0-8.5,2.5-8.5,5.5s3.8,5.5,8.5,5.5h25.7C937.6,390.9,933.8,388.4,933.8,385.4z"/>
	<g>
		<path class="st6" d="M964.6,348.5c-4.3-1.8-5.6-5.5-9.3-6.1c-3.5-0.6-7.9,0.1-11.6,2.1c-0.6,0.3-1.1,0.6-1.4,0.8
			c-1.1,2.2-2.6,4.4-4.6,6.5c-4.2,4.7-5.9,10.7-5.9,17.2c0,2.9,0.3,6,0.9,9h47.8v-9v-4.6C978.2,357.6,972.6,351.8,964.6,348.5z"/>
		<path class="st9" d="M942.2,345.2c-2.6,2-5.6,3-6.4,3.3c-8,3.3-13.7,9.1-16,15.9c0,1.3,0,2.8,0,4.5c0,4.2,0,8.7,0,9h12.8
			c-0.6-3-0.9-6.1-0.9-9c0-6.5,1.6-12.5,5.9-17.2C939.6,349.6,941.1,347.4,942.2,345.2z"/>
	</g>
</g>
<path class="st6" d="M730.1,620.4c-1.1-0.3-6.4-2.2-9-5.9c-0.8-1.2-9.1-1-10,0.2c-2.6,3.6-7.8,5.4-8.8,5.8
	c-9.4,3.9-15.6,11.4-16.4,19.7h60.6C745.6,631.8,739.5,624.3,730.1,620.4z"/>
<g>
	<path class="st0" d="M675,363.5c0-10.3-7.2-19.2-17.8-23.5c-2.7-1.1-2.7-4.2,0-5.3c10.5-4.3,17.8-13.2,17.8-23.5v-15.8h-64.7v15.8
		c0,10.3,7.2,19.2,17.8,23.5c2.7,1.1,2.7,4.2,0,5.3c-10.5,4.3-17.8,13.2-17.8,23.5v16.4H675V363.5z"/>
	<path id="glass-shadow_00000000916152335189590510000007721620806278660769_" class="st7" d="M610.3,288.1v23.1
		c0,10.3,7.2,19.2,17.8,23.5c2.7,1.1,2.7,4.2,0,5.3c-10.5,4.3-17.8,13.2-17.8,23.5v23.1h17.2c-4-12.5-5.3-26,2.7-34.9
		c9.3-10.3,8.7-21.4,5.9-29.9c-2.3-6.8,3-13.8,11.2-14.7c18.8-2.2,27.8-8.9,27.8-8.9v-10.1H610.3z"/>
	<path id="sand-grain_00000120537345706145887930000016791726537049724828_" class="st6" d="M646.2,357.2c0-1.9-1.5-3.4-3.4-3.4
		s-3.4,1.5-3.4,3.4s1.5,3.4,3.4,3.4S646.2,359.1,646.2,357.2z"/>
	<path id="bottom-plate_00000072978172490660889170000005822720011370270342_" class="st1" d="M676.4,295.4h-67.1
		c-4.7,0-8.5-2.5-8.5-5.5s3.8-5.5,8.5-5.5h67.1c4.7,0,8.5,2.5,8.5,5.5S681,295.4,676.4,295.4z"/>
	<path id="top-plate-shadow_00000069370194965295939100000002214255638809605305_" class="st10" d="M626.5,289.9
		c0-3,3.8-5.5,8.5-5.5h-25.7c-4.7,0-8.5,2.5-8.5,5.5s3.8,5.5,8.5,5.5H635C630.3,295.4,626.5,292.9,626.5,289.9z"/>
	<path id="top-plate_00000094589643784597215590000013943038723456189881_" class="st1" d="M676.4,379.9h-67.1
		c-4.7,0-8.5,2.5-8.5,5.5s3.8,5.5,8.5,5.5h67.1c4.7,0,8.5-2.5,8.5-5.5C684.8,382.4,681,379.9,676.4,379.9z"/>
	<path id="bottom-plate-shadow_00000053511921105337804990000006427007979637655441_" class="st10" d="M626.5,385.4
		c0-3,3.8-5.5,8.5-5.5h-25.7c-4.7,0-8.5,2.5-8.5,5.5s3.8,5.5,8.5,5.5H635C630.3,390.9,626.5,388.4,626.5,385.4z"/>
	<path class="st6" d="M675.2,382.9"/>
	<g>
		<path class="st6" d="M629.6,333c-0.1,0-0.2-0.1-0.2-0.1C629.4,333,629.5,333,629.6,333z"/>
		<path class="st6" d="M629.9,333.1L629.9,333.1L629.9,333.1z"/>
		<path class="st6" d="M629.2,332.9c-0.1,0-0.2-0.1-0.3-0.1C629,332.8,629.1,332.9,629.2,332.9z"/>
		<path class="st8" d="M629.8,333.1c-0.1,0-0.2-0.1-0.3-0.1C629.7,333.1,629.7,333.1,629.8,333.1z"/>
		<path class="st8" d="M629.3,333c-0.1,0-0.1,0-0.2-0.1C629.2,332.9,629.3,332.9,629.3,333z"/>
		<path class="st8" d="M629.9,333.1c1.9,0.7,5.5,2.3,7.6,5.1C635.3,335.5,631.7,333.8,629.9,333.1z"/>
		<path class="st6" d="M643.9,316.5c-2.4-0.8-4.9-1.5-7.4-1.9c-1,2.2-1.1,4.7-0.3,7.2c0,0.1,0,0.2,0.1,0.2
			c1.6,4.8,2.4,10.4,1.2,16.2l0,0c1,1.3,1.7,2.9,1.8,4.7c0,0,0.1,1.3,0.1,1.8c0.1,0.5,0.4,1.2,0.9,1.7c1.1,1.1,3.1,1.3,4.9,0.5
			c1-0.8,1.2-1.4,1.2-1.9c0-0.1,0-1.9,0-2.2c0.4-6.6,8.9-9.7,10.4-10.1c5.8-2.4,10.4-6.2,13.2-10.7c0.3-0.4,0.5-0.9,0.8-1.4
			C664.1,320.3,651.5,319.1,643.9,316.5z"/>
		<path class="st8" d="M636.3,322.1c0-0.1,0-0.2-0.1-0.2c-0.8-2.5-0.6-5,0.3-7.2c-3.2-0.6-6.4-0.9-9.7-0.9c-5.7,0-10.5,0.9-13.9,1.8
			c0.5,2.3,1.4,4.5,2.7,6.6c2.8,4.5,7.4,8.3,13.2,10.7c0.1,0,0.2,0.1,0.3,0.1c0,0,0.1,0,0.2,0.1c0.1,0,0.1,0,0.2,0.1
			c0.1,0,0.2,0.1,0.3,0.1l0,0c1.9,0.7,5.5,2.3,7.6,5.1l0,0C638.7,332.5,637.9,326.9,636.3,322.1z"/>
	</g>
	<g>
		<g>
			<path class="st6" d="M656.9,371.7c-1.1-0.3-6.4-2.2-9-5.9c-0.8-1.2-9.1-1-10,0.2c-2.6,3.6-7.8,5.4-8.8,5.8
				c-3.8,1.6-7,3.7-9.5,6.2h46.9C663.8,375.3,660.6,373.2,656.9,371.7z"/>
		</g>
		<path class="st9" d="M624.7,373.9c-1.9,1.2-3.7,2.5-5.2,4h5.8C625,376.5,624.8,375.2,624.7,373.9z"/>
	</g>
</g>
<path class="st6" d="M734.5,660.3c-1.1-0.3-6.4-2.2-9-5.9c-0.8-1.2-9.1-1-10,0.2c-2.6,3.6-7.8,5.4-8.8,5.8
	c-9.4,3.9-15.6,11.4-16.4,19.7h60.6C750,671.7,743.9,664.3,734.5,660.3z"/>
<rect x="687.7" y="667.5" class="st6" width="65" height="8.7"/>
<g>
	<path class="st6" d="M701.4,784.1c-1.1-0.3-6.4-2.2-9-5.9c-0.8-1.2-9.1-1-10,0.2c-2.6,3.6-7.8,5.4-8.8,5.8
		c-5.6,2.3-10,5.9-12.9,10.2h53.6C711.5,790,707.1,786.4,701.4,784.1z"/>
</g>
<path class="st9" d="M668,787.1c-3,2-5.4,4.4-7.2,7.2h8.1C668.3,791.9,668.1,789.5,668,787.1z"/>
<g>
	<path class="st0" d="M777.5,363.5c0-10.3-7.2-19.2-17.8-23.5c-2.7-1.1-2.7-4.2,0-5.3c10.5-4.3,17.8-13.2,17.8-23.5v-15.8h-64.7
		v15.8c0,10.3,7.2,19.2,17.8,23.5c2.7,1.1,2.7,4.2,0,5.3c-10.5,4.3-17.8,13.2-17.8,23.5v16.4h64.7V363.5z"/>
	<path id="glass-shadow_00000021101467218661677980000013596439835964529559_" class="st7" d="M712.7,288.1v23.1
		c0,10.3,7.2,19.2,17.8,23.5c2.7,1.1,2.7,4.2,0,5.3c-10.5,4.3-17.8,13.2-17.8,23.5v23.1H730c-4-12.5-5.3-26,2.7-34.9
		c9.3-10.3,8.7-21.4,5.9-29.9c-2.3-6.8,3-13.8,11.2-14.7c18.8-2.2,27.8-8.9,27.8-8.9v-10.1H712.7z"/>
	<path id="bottom-plate_00000012456608314758361270000014145914865713991612_" class="st1" d="M778.8,295.4h-67.1
		c-4.7,0-8.5-2.5-8.5-5.5s3.8-5.5,8.5-5.5h67.1c4.7,0,8.5,2.5,8.5,5.5S783.5,295.4,778.8,295.4z"/>
	<path id="top-plate-shadow_00000130626454072118493230000010087347871015946131_" class="st10" d="M728.9,289.9
		c0-3,3.8-5.5,8.5-5.5h-25.7c-4.7,0-8.5,2.5-8.5,5.5s3.8,5.5,8.5,5.5h25.7C732.7,295.4,728.9,292.9,728.9,289.9z"/>
	<path id="top-plate_00000168081361745563498080000007479603784767738029_" class="st1" d="M778.8,379.9h-67.1
		c-4.7,0-8.5,2.5-8.5,5.5s3.8,5.5,8.5,5.5h67.1c4.7,0,8.5-2.5,8.5-5.5S783.5,379.9,778.8,379.9z"/>
	<path id="bottom-plate-shadow_00000069399217196461235010000007615318112031589280_" class="st10" d="M728.9,385.4
		c0-3,3.8-5.5,8.5-5.5h-25.7c-4.7,0-8.5,2.5-8.5,5.5s3.8,5.5,8.5,5.5h25.7C732.7,390.9,728.9,388.4,728.9,385.4z"/>
	<path class="st6" d="M777.6,382.9"/>
	<g>
		<path class="st8" d="M732.3,333.1c1.9,0.7,5.5,2.3,7.6,5.1C737.8,335.5,734.1,333.8,732.3,333.1z"/>
		<path class="st6" d="M748.2,323.4c-3.2-1.1-6.4-1.8-9.8-2.3c0.1,0.2,0.1,0.5,0.2,0.7c0,0.1,0,0.2,0.1,0.2c0.7,2.1,1.2,4.5,1.5,6.9
			c0.4,3,0.3,6.1-0.4,9.3l0,0c1,1.3,1.7,2.9,1.8,4.7c0,0,0.1,1.3,0.1,1.8c0.1,0.5,0.4,1.2,0.9,1.7c1.1,1.1,3.1,1.3,4.9,0.5
			c1-0.8,1.2-1.4,1.2-1.9c0-0.1,0-1.9,0-2.2c0.4-6.6,8.9-9.7,10.4-10.1c2.5-1,4.8-2.3,6.8-3.8c0.8-0.6,1.6-1.3,2.3-1.9
			C761.7,326.4,753.7,325.3,748.2,323.4z"/>
		<path class="st8" d="M740.3,329c-0.3-2.4-0.8-4.7-1.5-6.9c0-0.1,0-0.2-0.1-0.2c-0.1-0.2-0.1-0.5-0.2-0.7c-2.4-0.3-4.9-0.5-7.3-0.5
			c-5.2,0-9.7,0.7-13,1.6c1.6,2.5,3.8,4.8,6.4,6.8c2,1.5,4.3,2.8,6.8,3.8c0.1,0,0.2,0.1,0.3,0.1c0,0,0.1,0,0.2,0.1
			c0.1,0,0.1,0,0.2,0.1c0.1,0,0.2,0.1,0.3,0.1l0,0c1.9,0.7,5.5,2.3,7.6,5.1l0,0C740.6,335.1,740.6,331.9,740.3,329z"/>
	</g>
	<g>
		<path class="st6" d="M759,361.5c-1.1-0.3-6.4-2.2-9-5.9c-0.8-1.2-9.1-1-10,0.2c-2.6,3.6-7.8,5.4-8.8,5.8
			c-8.3,3.4-14,9.5-15.8,16.6h59.5C773,371,767.3,364.9,759,361.5z"/>
	</g>
	<path class="st9" d="M727.2,363.5c-6.1,3.6-10.3,8.8-11.8,14.6h12.3C726.8,373.1,726.4,368.1,727.2,363.5z"/>
</g>
<path id="glass" class="st0" d="M207.6,714.9c0-10.3-7.2-19.2-17.8-23.5c-2.7-1.1-2.7-4.2,0-5.3c10.5-4.3,17.8-13.2,17.8-23.5v-15.8
	h-64.8v15.8c0,10.3,7.2,19.2,17.8,23.5c2.7,1.1,2.7,4.2,0,5.3c-10.5,4.4-17.8,13.2-17.8,23.5v16.4h64.7L207.6,714.9L207.6,714.9z"/>
<path id="bottom-plate_00000113312244603705954130000000681525986086488741_" class="st1" d="M208.7,646.8h-67
	c-4.7,0-8.5-2.5-8.5-5.5s3.8-5.5,8.5-5.5h67.1c4.7,0,8.5,2.5,8.5,5.5C217.2,644.3,213.4,646.8,208.7,646.8z"/>
<path id="top-plate_00000090267241725500976160000004035551516482668941_" class="st1" d="M208.7,731.3h-67c-4.7,0-8.5,2.5-8.5,5.5
	s3.8,5.5,8.5,5.5h67.1c4.7,0,8.5-2.5,8.5-5.5C217.2,733.8,213.4,731.3,208.7,731.3z"/>
<g id="bottom-sand_00000083049163466454418560000010524568971866017935_">
	<g>
		<g>
			<defs>
				<rect id="SVGID_00000080199958284176976930000017134640728373837239_" x="133.4" y="688.1" width="83.9" height="40"/>
			</defs>
			<clipPath id="SVGID_00000130608645968772377780000010270684321528412574_">
				<use xlink:href="#SVGID_00000080199958284176976930000017134640728373837239_"  style="overflow:visible;"/>
			</clipPath>
			<g style="clip-path:url(#SVGID_00000130608645968772377780000010270684321528412574_);">
				<path class="st6" d="M145.6,727.9v-6.5c9.4-7.6,16.7-14.5,21.8-20.5l0.2-0.2c2.6-3.1,4.9-4.6,7.3-4.6c3.3,0,5.9,2.9,7.3,4.5
					l0.1,0.1l0.3,0.3c5.4,6.2,12.5,13.1,21.6,20.9v6.1H145.6z"/>
			</g>
		</g>
	</g>
</g>
<path class="st6" d="M175.3,683.9c-1.5,0-3-0.1-4.4-0.2c-2.9-0.3-5.5-0.8-7.8-1.5l-0.3-0.1h-0.1c-0.1,0-0.3-0.1-0.4-0.1
	c-0.2-0.1-0.4-0.2-0.7-0.3l-0.5-0.2c-0.2-0.1-0.3-0.2-0.5-0.2l-0.5-0.2c-0.1-0.1-0.3-0.2-0.5-0.2c0,0-0.1,0-0.1-0.1
	c-0.2-0.1-0.3-0.2-0.5-0.2c-0.1-0.1-0.3-0.1-0.4-0.2c-0.8-0.4-1.8-0.9-3-1.6c-0.1-0.1-0.2-0.1-0.2-0.2l-0.1-0.1l-0.2-0.1l-0.1,0
	c-0.2-0.1-0.3-0.2-0.5-0.3l-0.2-0.1l-0.1-0.1c-0.1-0.1-0.3-0.3-0.5-0.4c-0.1-0.1-0.1-0.1-0.2-0.2l-0.1-0.1l-0.1-0.1
	c-0.1-0.1-0.3-0.2-0.4-0.3c-0.1-0.1-0.1-0.1-0.2-0.2l-1.7-1.7l0,0c-0.1-0.2-0.2-0.3-0.3-0.4c-0.1-0.2-0.3-0.4-0.4-0.6l-0.5-0.8
	c0,0,0-0.1-0.1-0.1c-0.1-0.3-0.3-0.5-0.4-0.6l-0.1-0.2c0-0.1-0.1-0.2-0.2-0.4l-0.3-0.6c0-0.1-0.1-0.3-0.2-0.4l-0.3-0.6c0,0,0,0,0,0
	c-0.1-0.4-0.2-0.6-0.3-0.8v-0.1l-0.2-0.3c0-0.1,0-0.2-0.1-0.3c0-0.1,0-0.2-0.1-0.2v-0.3l-0.1-0.3c0-0.2-0.1-0.3-0.1-0.5
	c0,0,0-0.1,0-0.1c0-0.2-0.1-0.4-0.1-0.5v-0.8l-0.1-0.1c0-0.1,0-0.2,0-0.3c0-0.1,0-0.2,0-0.4V657c4-0.9,8-1.3,12.1-1.3
	c5.9,0,11.6,0.9,17,2.8c8.5,3,22.5,4.1,27.8,4.4v2.4C202.8,678.1,188.4,683.9,175.3,683.9C175.3,683.9,175.3,683.9,175.3,683.9z"/>
<path id="shadow" class="st4" d="M167.4,646.8c-4.7,0-8.5-2.5-8.5-5.5s3.8-5.5,8.5-5.5h-25.7c-4.7,0-8.5,2.5-8.5,5.5
	s3.8,5.5,8.5,5.5h1.2v15.8c0,10.3,7.2,19.2,17.8,23.5c0.3,0.1,0.6,0.3,0.9,0.5c0.6,0.5,0.9,1,1.1,1.7v0.1c0.2,1.2-0.5,2.4-2,3
	c-10.6,4.4-17.9,13.2-17.9,23.5v16.4h-1.1c-4.7,0-8.5,2.5-8.5,5.5s3.8,5.5,8.5,5.5h25.7c-4.7,0-8.5-2.5-8.5-5.5s3.8-5.5,8.5-5.5
	h-9.2c-2.3-10.4-2.1-20.9,4.6-28.2c9.3-10.3,8.7-21.3,5.9-29.8c-2.3-6.8,3-13.8,11.2-14.7c18.8-2.2,27.8-8.9,27.8-8.9v-2.9H167.4z"
	/>
</svg>
