<?xml version="1.0" encoding="UTF-8" standalone="no"?>
<!-- Created with Inkscape (http://www.inkscape.org/) -->

<svg
   width="141.21205mm"
   height="120.77661mm"
   viewBox="0 0 141.21205 120.77661"
   version="1.1"
   id="svg5"
   inkscape:version="1.1 (c68e22c387, 2021-05-23)"
   sodipodi:docname="arrow-back.svg"
   xmlns:inkscape="http://www.inkscape.org/namespaces/inkscape"
   xmlns:sodipodi="http://sodipodi.sourceforge.net/DTD/sodipodi-0.dtd"
   xmlns="http://www.w3.org/2000/svg"
   xmlns:svg="http://www.w3.org/2000/svg">
  <sodipodi:namedview
     id="namedview7"
     pagecolor="#ffffff"
     bordercolor="#111111"
     borderopacity="1"
     inkscape:pageshadow="0"
     inkscape:pageopacity="0"
     inkscape:pagecheckerboard="1"
     inkscape:document-units="mm"
     showgrid="false"
     inkscape:zoom="0.83654462"
     inkscape:cx="-112.36699"
     inkscape:cy="216.36622"
     inkscape:window-width="1920"
     inkscape:window-height="1001"
     inkscape:window-x="-9"
     inkscape:window-y="-9"
     inkscape:window-maximized="1"
     inkscape:current-layer="layer1" />
  <defs
     id="defs2" />
  <g
     inkscape:label="Ebene 1"
     inkscape:groupmode="layer"
     id="layer1"
     transform="translate(-38.799181,-78.051409)">
    <path
       style="color:#000000;fill:#008080;stroke-width:0.248224;-inkscape-stroke:none"
       d="m 108.96131,78.055868 c -7.15874,0.49772 -70.170338,42.169802 -70.162128,46.666412 0.008,4.64166 67.312488,48.57906 70.846318,46.24989 1.21742,-0.80241 1.98515,-11.87344 2.33836,-26.03459 47.48372,7.0465 58.383,55.15594 64.95211,53.86493 6.56911,-1.29101 9.39527,-83.01655 -65.12729,-98.17231 -0.43437,-12.450102 -1.21405,-21.760872 -2.33267,-22.491132 -0.1107,-0.0723 -0.28377,-0.0992 -0.5147,-0.0832 z"
       id="path4366-4" />
    <path
       id="path2029"
       style="color:#000000;fill:#155755;fill-opacity:1;stroke-width:0.938169;-inkscape-stroke:none"
       d="m 550.42188,450.1875 c -0.31197,-2.24691 -0.64664,-4.56533 -1.0293,-7.01953 -0.42642,-2.73483 -0.89951,-5.5938 -1.41992,-8.56445 -0.52042,-2.97066 -1.08804,-6.05261 -1.70899,-9.23633 -0.62095,-3.18373 -1.29541,-6.46971 -2.02344,-9.84375 -0.72802,-3.37404 -1.50991,-6.8373 -2.35156,-10.37891 -0.84165,-3.5416 -1.74327,-7.16124 -2.70508,-10.84765 -0.9618,-3.68642 -1.98376,-7.43958 -3.07226,-11.24805 -1.08851,-3.80848 -2.2431,-7.6723 -3.46485,-11.58008 -1.22174,-3.90778 -2.51152,-7.85942 -3.87304,-11.84375 -0.68077,-1.99217 -1.37877,-3.99296 -2.09571,-6 -0.71693,-2.00704 -1.4531,-4.02 -2.20703,-6.03906 -0.75392,-2.01907 -1.52663,-4.04402 -2.31836,-6.07227 -0.79173,-2.02825 -1.60128,-4.05916 -2.43164,-6.09375 -0.83035,-2.03459 -1.68098,-4.07324 -2.55078,-6.11133 -0.86979,-2.03808 -1.75987,-4.07649 -2.66992,-6.11523 -0.91005,-2.03874 -1.83988,-4.07674 -2.79102,-6.11328 -0.95113,-2.03655 -1.92299,-4.07201 -2.91601,-6.10352 -0.99303,-2.03151 -2.00723,-4.0584 -3.04297,-6.08203 -1.03574,-2.02363 -2.09261,-4.04374 -3.17188,-6.05664 -1.07926,-2.0129 -2.18107,-4.0202 -3.30468,-6.01953 -1.12362,-1.99934 -2.26872,-3.98973 -3.4375,-5.97266 -1.16878,-1.98292 -2.36141,-3.95821 -3.57617,-5.92187 -1.21476,-1.96367 -2.45329,-3.91586 -3.71485,-5.85742 -1.26156,-1.94157 -2.54629,-3.87245 -3.85547,-5.78907 -1.30917,-1.91662 -2.64238,-3.82015 -4,-5.70898 -1.35761,-1.88883 -2.73962,-3.7629 -4.14648,-5.62109 -1.40687,-1.8582 -2.83799,-3.70068 -4.29492,-5.52539 -1.45694,-1.82472 -2.93945,-3.63153 -4.44727,-5.41993 -1.50782,-1.78839 -3.04204,-3.5574 -4.60156,-5.30664 -1.55953,-1.74923 -3.14381,-3.47832 -4.75586,-5.18554 -1.61205,-1.70723 -3.25063,-3.39232 -4.91602,-5.05469 -1.66538,-1.66237 -3.35858,-3.30135 -5.07812,-4.91602 -1.71955,-1.61467 -3.46571,-3.2054 -5.24024,-4.76953 -1.77452,-1.56413 -3.57593,-3.10254 -5.40625,-4.61328 -1.83031,-1.51074 -3.68924,-2.99471 -5.57617,-4.44922 -1.88692,-1.45451 -3.80369,-2.87995 -5.74804,-4.27539 -1.94436,-1.39544 -3.91733,-2.76023 -5.91993,-4.09375 -2.00259,-1.33352 -4.03404,-2.63554 -6.0957,-3.9043 -2.06166,-1.26876 -4.15385,-2.50392 -6.27539,-3.70507 -2.12154,-1.20116 -4.27284,-2.36735 -6.45508,-3.49805 -2.18224,-1.1307 -4.39492,-2.2258 -6.63867,-3.2832 -2.24375,-1.05741 -4.51813,-2.07733 -6.82422,-3.0586 -2.30609,-0.98127 -4.64248,-1.92388 -7.01172,-2.82617 -2.36924,-0.90229 -4.77187,-1.76548 -7.20508,-2.58594 -2.4332,-0.82046 -4.89849,-1.59819 -7.39648,-2.33398 -2.49799,-0.73579 -5.0282,-1.4279 -7.5918,-2.07617 -2.56359,-0.64828 -5.15904,-1.25264 -7.78906,-1.81055 -2.63002,-0.55792 -5.29493,-1.07045 -7.99219,-1.53516 -2.69725,-0.46471 -5.42805,-0.88133 -8.19336,-1.25 -2.76531,-0.36866 -5.56425,-0.68921 -8.39843,-0.95898 -2.83419,-0.26977 -5.70355,-0.49017 -8.60743,-0.6582 -2.90387,-0.16804 -5.84202,-0.2842 -8.8164,-0.34766 -2.97439,-0.0635 -5.98554,-0.0733 -9.03125,-0.0293 L 32.037109,168.35938 c -0.493406,0.84673 -0.762735,1.56101 -0.761718,2.11718 0.03024,17.54332 254.409419,183.6059 267.765629,174.80274 4.60127,-3.03273 7.50292,-44.87602 8.83789,-98.39844 172.56839,25.60884 217.28625,194.68356 242.54297,203.30664 z"
       transform="matrix(0.26458333,0,0,0.26458333,30.524235,79.617018)" />
    <path
       id="path6809"
       style="color:#000000;fill:#1d7775;fill-opacity:1;stroke-width:0.938169;-inkscape-stroke:none"
       d="M 296.45508,-5.9003906 C 270.28386,-4.0808054 46.620873,143.33202 32.037109,168.35938 l 268.199221,2.11718 c 3.04571,-0.044 6.05686,-0.0342 9.03125,0.0293 2.97438,0.0635 5.91253,0.17962 8.8164,0.34766 2.90388,0.16803 5.77324,0.38843 8.60743,0.6582 2.83418,0.26977 5.63312,0.59032 8.39843,0.95898 2.76531,0.36867 5.49611,0.78529 8.19336,1.25 2.69726,0.46471 5.36217,0.97724 7.99219,1.53516 2.63002,0.55791 5.22547,1.16227 7.78906,1.81055 2.5636,0.64827 5.09381,1.34038 7.5918,2.07617 2.49799,0.73579 4.96328,1.51352 7.39648,2.33398 2.43321,0.82046 4.83584,1.68365 7.20508,2.58594 2.36924,0.90229 4.70563,1.8449 7.01172,2.82617 2.30609,0.98127 4.58047,2.00119 6.82422,3.0586 2.24375,1.0574 4.45643,2.1525 6.63867,3.2832 2.18224,1.1307 4.33354,2.29689 6.45508,3.49805 2.12154,1.20115 4.21373,2.43631 6.27539,3.70507 2.06166,1.26876 4.09311,2.57078 6.0957,3.9043 2.0026,1.33352 3.97557,2.69831 5.91993,4.09375 1.94435,1.39544 3.86112,2.82088 5.74804,4.27539 1.88693,1.45451 3.74586,2.93848 5.57617,4.44922 1.83032,1.51074 3.63173,3.04915 5.40625,4.61328 1.77453,1.56413 3.52069,3.15486 5.24024,4.76953 1.71954,1.61467 3.41274,3.25365 5.07812,4.91602 1.66539,1.66237 3.30397,3.34746 4.91602,5.05469 1.61205,1.70722 3.19633,3.43631 4.75586,5.18554 1.55952,1.74924 3.09374,3.51825 4.60156,5.30664 1.50782,1.7884 2.99033,3.59521 4.44727,5.41993 1.45693,1.82471 2.88805,3.66719 4.29492,5.52539 1.40686,1.85819 2.78887,3.73226 4.14648,5.62109 1.35762,1.88883 2.69083,3.79236 4,5.70898 1.30918,1.91662 2.59391,3.8475 3.85547,5.78907 1.26156,1.94156 2.50009,3.89375 3.71485,5.85742 1.21476,1.96366 2.40739,3.93895 3.57617,5.92187 1.16878,1.98293 2.31388,3.97332 3.4375,5.97266 1.12361,1.99933 2.22542,4.00663 3.30468,6.01953 1.07927,2.0129 2.13614,4.03301 3.17188,6.05664 1.03574,2.02363 2.04994,4.05052 3.04297,6.08203 0.99302,2.03151 1.96488,4.06697 2.91601,6.10352 0.95114,2.03654 1.88097,4.07454 2.79102,6.11328 0.91005,2.03874 1.80013,4.07715 2.66992,6.11523 0.8698,2.03809 1.72043,4.07674 2.55078,6.11133 0.83036,2.03459 1.63991,4.0655 2.43164,6.09375 0.79173,2.02825 1.56444,4.0532 2.31836,6.07227 0.75393,2.01906 1.4901,4.03202 2.20703,6.03906 0.71694,2.00704 1.41494,4.00783 2.09571,6 1.36152,3.98433 2.6513,7.93597 3.87304,11.84375 1.22175,3.90778 2.37634,7.7716 3.46485,11.58008 1.0885,3.80847 2.11046,7.56163 3.07226,11.24805 0.96181,3.68641 1.86343,7.30605 2.70508,10.84765 0.84165,3.54161 1.62354,7.00487 2.35156,10.37891 0.72803,3.37404 1.40249,6.66002 2.02344,9.84375 0.62095,3.18372 1.18857,6.26567 1.70899,9.23633 0.52041,2.97065 0.9935,5.82962 1.41992,8.56445 0.38266,2.4542 0.71733,4.77262 1.0293,7.01953 1.00952,0.34467 1.99105,0.46488 2.94531,0.27734 24.82813,-4.8794 35.50968,-313.76338 -246.15039,-371.044918 -1.64172,-47.0555 -4.58855,-82.2458217 -8.81641,-85.0058595 -0.41839,-0.2732598 -1.07251,-0.3749256 -1.94531,-0.3144531 z"
       transform="matrix(0.26458333,0,0,0.26458333,30.524235,79.617018)" />
  </g>
</svg>
