<?xml version="1.0" encoding="UTF-8" standalone="no"?>
<!-- Created with Inkscape (http://www.inkscape.org/) -->

<svg
   xmlns:dc="http://purl.org/dc/elements/1.1/"
   xmlns:cc="http://creativecommons.org/ns#"
   xmlns:rdf="http://www.w3.org/1999/02/22-rdf-syntax-ns#"
   xmlns:svg="http://www.w3.org/2000/svg"
   xmlns="http://www.w3.org/2000/svg"
   xmlns:sodipodi="http://sodipodi.sourceforge.net/DTD/sodipodi-0.dtd"
   xmlns:inkscape="http://www.inkscape.org/namespaces/inkscape"
   width="272.78909mm"
   height="296.71631mm"
   viewBox="0 0 272.78909 296.71631"
   version="1.1"
   id="svg2486"
   inkscape:version="0.92.4 (5da689c313, 2019-01-14)"
   sodipodi:docname="fede_drawing.svg">
  <defs
     id="defs2480" />
  <sodipodi:namedview
     id="base"
     pagecolor="#ffffff"
     bordercolor="#666666"
     borderopacity="1.0"
     inkscape:pageopacity="0.0"
     inkscape:pageshadow="2"
     inkscape:zoom="0.7"
     inkscape:cx="656.89057"
     inkscape:cy="677.64411"
     inkscape:document-units="mm"
     inkscape:current-layer="layer1"
     showgrid="false"
     inkscape:object-paths="true"
     inkscape:window-width="958"
     inkscape:window-height="974"
     inkscape:window-x="-10"
     inkscape:window-y="0"
     inkscape:window-maximized="0"
     fit-margin-top="0"
     fit-margin-left="0"
     fit-margin-right="0"
     fit-margin-bottom="0" />
  <metadata
     id="metadata2483">
    <rdf:RDF>
      <cc:Work
         rdf:about="">
        <dc:format>image/svg+xml</dc:format>
        <dc:type
           rdf:resource="http://purl.org/dc/dcmitype/StillImage" />
        <dc:title></dc:title>
      </cc:Work>
    </rdf:RDF>
  </metadata>
  <g
     inkscape:label="Layer 1"
     inkscape:groupmode="layer"
     id="layer1"
     transform="translate(63.015062,-1.9880307)">
    <path
       sodipodi:nodetypes="ccccc"
       inkscape:connector-curvature="0"
       id="path14100"
       d="m -60.15727,211.5697 41.81432,-0.37415 -43.77875,66.97774 -0.74835,-63.23598 z"
       style="fill:#b4acaa;fill-opacity:1;stroke:#b4acaa;stroke-width:0.26458332px;stroke-linecap:butt;stroke-linejoin:miter;stroke-opacity:1" />
    <path
       inkscape:connector-curvature="0"
       id="path14102"
       d="m -62.1217,278.17329 v 0 l -0.46772,4.49014 46.86571,-71.56144 -2.61924,0.0936 z"
       style="fill:#271e1b;fill-opacity:1;stroke:#271e1b;stroke-width:0.26458332px;stroke-linecap:butt;stroke-linejoin:miter;stroke-opacity:1" />
    <path
       inkscape:connector-curvature="0"
       id="path14104"
       d="m -62.58942,282.66343 -0.0664,15.90008 57.87681,0.003 23.76026,-70.81306 -2.61924,-3.36759 -0.28063,-5.23848 4.02241,-4.77076 5.98683,-3.55467 -41.81431,0.28061 z"
       style="fill:#b0abaa;fill-opacity:1;stroke:#b0abaa;stroke-width:0.26458332px;stroke-linecap:butt;stroke-linejoin:miter;stroke-opacity:1" />
    <path
       inkscape:connector-curvature="0"
       id="path14106"
       d="m -4.77903,298.5665 3.18051,-0.0941 22.17001,-69.22281 -1.59026,-1.49616 z"
       style="fill:#3b2f2d;fill-opacity:1;stroke:#3b2f2d;stroke-width:0.26458332px;stroke-linecap:butt;stroke-linejoin:miter;stroke-opacity:1" />
    <path
       inkscape:connector-curvature="0"
       id="path14108"
       d="m -1.59852,298.47239 66.69711,-0.46771 0.18709,-61.92634 -11.78659,0.93544 -14.40583,-1.12253 -14.59291,-4.11596 -3.92886,-2.52571 z"
       style="fill:#a19792;fill-opacity:1;stroke:#a19792;stroke-width:0.26458332px;stroke-linecap:butt;stroke-linejoin:miter;stroke-opacity:1" />
    <path
       inkscape:connector-curvature="0"
       id="path14110"
       d="m 65.09859,298.00468 v 0 l 3.5356,0.21866 0.0191,-53.63248 -3.40094,2.52561 z"
       style="fill:#282627;fill-opacity:1;stroke:#282627;stroke-width:0.26458332px;stroke-linecap:butt;stroke-linejoin:miter;stroke-opacity:1" />
    <path
       inkscape:connector-curvature="0"
       id="path14112"
       d="m 65.25233,247.11647 3.40094,-2.52561 -0.15137,-9.20607 -3.21622,0.69355 z"
       style="fill:#863f2d;fill-opacity:1;stroke:#863f2d;stroke-width:0.26458332px;stroke-linecap:butt;stroke-linejoin:miter;stroke-opacity:1" />
    <path
       inkscape:connector-curvature="0"
       id="path14114"
       d="m 68.63419,298.22334 66.01354,0.26458 -28.575,-88.10626 -23.28333,0.26459 5.29167,3.175 3.43958,3.70416 0.52917,3.96875 -3.96875,6.08542 -10.05417,5.29167 -9.525,2.51354 z"
       style="fill:#aaa4a1;fill-opacity:1;stroke:#aaa4a1;stroke-width:0.26458332px;stroke-linecap:butt;stroke-linejoin:miter;stroke-opacity:1" />
    <path
       inkscape:connector-curvature="0"
       id="path14116"
       d="m 106.07273,210.38166 v 0 l 28.575,88.10626 3.30729,-0.26458 -29.17123,-87.77617 z"
       style="fill:#1a190d;fill-opacity:1;stroke:none;stroke-width:0.26458332px;stroke-linecap:butt;stroke-linejoin:miter;stroke-opacity:1" />
    <path
       inkscape:connector-curvature="0"
       id="path14202"
       d="m 161.86674,224.99989 1.96789,-0.14687 6.78196,-1.96445 4.11596,-2.43213 9.9157,-5.51913 5.7062,-1.96442 1.12253,-3.08698 -5.79975,-2.52568 -8.41899,6.08039 -9.82215,-1.96445 -8.24825,0.39378 -8.95591,-1.54739 0.56487,0.83489 11.4008,3.87342 1.6838,1.49669 0.18709,2.3386 z"
       style="fill:#ee9161;fill-opacity:1;stroke:#ee9161;stroke-width:0.26458332px;stroke-linecap:butt;stroke-linejoin:miter;stroke-opacity:1" />
    <path
       inkscape:connector-curvature="0"
       id="path14118"
       d="m 108.78379,210.44717 37.77019,-0.33009 57.15,87.84167 -65.74896,0.26459 z"
       style="fill:#acacaf;fill-opacity:1;stroke:#acacaf;stroke-width:0.26458332px;stroke-linecap:butt;stroke-linejoin:miter;stroke-opacity:1" />
    <path
       inkscape:connector-curvature="0"
       id="path14120"
       d="m 203.70398,297.95875 v 0 h 5.82083 l -60.1927,-88.96615 -2.77813,1.12448 z"
       style="fill:#c8deeb;fill-opacity:1;stroke:#c8deeb;stroke-width:0.26458332px;stroke-linecap:butt;stroke-linejoin:miter;stroke-opacity:1" />
    <path
       inkscape:connector-curvature="0"
       id="path14176"
       d="m 108.52066,209.07026 1.09088,-4.60865 2.11666,-3.93569 5.75469,2.48047 0.0661,1.15757 -2.05052,2.54661 -0.36349,2.34709 z"
       style="fill:#9e9c81;fill-opacity:1;stroke:#9e9c81;stroke-width:0.26458332px;stroke-linecap:butt;stroke-linejoin:miter;stroke-opacity:1" />
    <path
       inkscape:connector-curvature="0"
       id="path14186"
       d="m 109.07586,206.72467 -0.5552,2.34559 -12.30365,0.0233 5.1263,-7.97242 2.34817,1.98437 -4.72942,2.3151 6.87916,-0.46302 z"
       style="fill:#757059;fill-opacity:1;stroke:#757059;stroke-width:0.26458332px;stroke-linecap:butt;stroke-linejoin:miter;stroke-opacity:1" />
    <path
       inkscape:connector-curvature="0"
       id="path14190"
       d="m 134.18107,203.94586 1e-5,3.27406 1.16943,1.79927 -20.21548,0.0385 0.36349,-2.34709 2.05052,-2.54661 -0.0661,-1.15757 -3.77655,-1.62782 10.09824,1.384 z"
       style="fill:#6b674e;fill-opacity:1;stroke:#6b674e;stroke-width:0.26458332px;stroke-linecap:butt;stroke-linejoin:miter;stroke-opacity:1" />
    <path
       inkscape:connector-curvature="0"
       id="path14122"
       d="m 149.33211,208.9926 -2.77813,1.12448 -63.76458,0.52917 -2.97656,-1.52136 z"
       style="fill:#e4e3e3;fill-opacity:1;stroke:none;stroke-width:0.26458332px;stroke-linecap:butt;stroke-linejoin:miter;stroke-opacity:1" />
    <path
       sodipodi:nodetypes="cccc"
       inkscape:connector-curvature="0"
       id="path14124"
       d="m -62.87005,214.93731 -1e-5,-3.18049 2.71279,-0.18712 z"
       style="fill:#3b3c37;fill-opacity:1;stroke:none;stroke-width:0.26458332px;stroke-linecap:butt;stroke-linejoin:miter;stroke-opacity:1" />
    <path
       inkscape:connector-curvature="0"
       id="path14126"
       d="m -62.87005,211.75681 v 0 l 0.14031,-1.54347 75.30534,-0.46006 -0.95861,1.16578 z"
       style="fill:#e5e0e3;fill-opacity:1;stroke:#e5e0e3;stroke-width:0.26458332px;stroke-linecap:butt;stroke-linejoin:miter;stroke-opacity:1" />
    <path
       inkscape:connector-curvature="0"
       id="path14128"
       d="m 11.61699,210.91906 14.47361,-0.0971 3.28605,-1.39938 -11.90625,0.19844 -0.54571,0.46302 -3.175,-0.44649 -1.17409,0.11576 z"
       style="fill:#49261f;fill-opacity:1;stroke:#49261f;stroke-width:0.26458332px;stroke-linecap:butt;stroke-linejoin:miter;stroke-opacity:1" />
    <path
       inkscape:connector-curvature="0"
       id="path14130"
       d="m 24.5939,223.07568 -1.12253,3.46112 4.67721,1.029 0.28064,-2.89986 z"
       style="fill:#544a4d;fill-opacity:1;stroke:none;stroke-width:0.26458332px;stroke-linecap:butt;stroke-linejoin:miter;stroke-opacity:1" />
    <path
       inkscape:connector-curvature="0"
       id="path14132"
       d="m 28.14858,227.5658 5.98684,0.8419 12.81557,0.46773 -0.93545,-5.14496 -14.31227,-0.18708 -3.27405,1.12255 z"
       style="fill:#bfd6e1;fill-opacity:1;stroke:none;stroke-width:0.26458332px;stroke-linecap:butt;stroke-linejoin:miter;stroke-opacity:1" />
    <path
       inkscape:connector-curvature="0"
       id="path14140"
       d="m 46.51395,226.47172 4.9554,1.27322 3.40651,-2.01744 -2.38028,-2.46708 -6.48004,0.47005 z"
       style="fill:#d8817d;fill-opacity:1;stroke:none;stroke-width:0.26458332px;stroke-linecap:butt;stroke-linejoin:miter;stroke-opacity:1" />
    <path
       inkscape:connector-curvature="0"
       id="path14142"
       d="m 29.37665,209.42258 2.93465,-0.51888 1.82412,0.60804 0.56126,-0.37417 1.63703,5.75296 0.60804,4.39659 -0.18709,0.88868 -2.61924,-0.51448 -0.79513,1.07574 0.30402,1.7072 1.30907,1.14162 -3.25011,-0.0425 -11.5995,-9.16678 5.98683,-3.55465 z"
       style="fill:#d3d7da;fill-opacity:1;stroke:#d3d7da;stroke-width:0.26458332px;stroke-linecap:butt;stroke-linejoin:miter;stroke-opacity:1" />
    <path
       inkscape:connector-curvature="0"
       id="path14144"
       d="m 20.10377,214.37661 -4.02241,4.77075 0.28063,5.23849 4.2095,4.86373 3.92886,2.52571 14.59291,4.11596 6.19707,-7.07644 -11.15491,-0.40711 -5.98684,-0.8419 -4.67721,-1.029 1.12253,-3.46112 3.83532,1.59026 3.27405,-1.12255 z"
       style="fill:#dff0f2;fill-opacity:1;stroke:#dff0f2;stroke-width:0.26458332px;stroke-linecap:butt;stroke-linejoin:miter;stroke-opacity:1" />
    <path
       inkscape:connector-curvature="0"
       id="path14146"
       d="m 39.09326,235.89125 14.40583,1.12253 11.78659,-0.93544 12.74122,-3.20709 -7.22211,-5.2119 -12.2543,1.02899 -11.5995,0.18709 -1.66066,-0.0606 z"
       style="fill:#dfeef5;fill-opacity:1;stroke:#dfeef5;stroke-width:0.26458332px;stroke-linecap:butt;stroke-linejoin:miter;stroke-opacity:1" />
    <path
       inkscape:connector-curvature="0"
       id="path14148"
       d="m 70.80479,227.65935 7.22211,5.2119 10.05417,-5.29167 3.96875,-6.08542 -0.52917,-3.96875 -3.43958,-3.70416 -5.29167,-3.175 -2.97656,-1.52136 -1.91823,-0.59531 1.85208,2.84427 0.52917,4.36563 -1.12448,3.175 -1.98557,2.19675 2.15152,3.83532 -3.18051,0.37418 z"
       style="fill:#e8f4f8;fill-opacity:1;stroke:#e8f4f8;stroke-width:0.26458332px;stroke-linecap:butt;stroke-linejoin:miter;stroke-opacity:1" />
    <path
       style="fill:#f5d9a1;fill-opacity:1;stroke:#f5d9a1;stroke-width:0.99999994px;stroke-linecap:butt;stroke-linejoin:miter;stroke-opacity:1"
       d="m 278.6543,783.89258 -5.5,14.5 -10,21 -8.75,13 5.49804,7.4375 13.00977,-0.59766 18.73828,-3.53711 7.50391,-8.30273 4.25,-12 -2,-16.5 -7,-10.75 z"
       transform="scale(0.26458333)"
       id="path14150"
       inkscape:connector-curvature="0" />
    <path
       inkscape:connector-curvature="0"
       id="path14138"
       d="m 72.20796,222.04669 4.95785,-0.93546 2.15152,3.83532 -3.18051,0.37418 z"
       style="fill:#928c8a;fill-opacity:1;stroke:none;stroke-width:0.26458332px;stroke-linecap:butt;stroke-linejoin:miter;stroke-opacity:1" />
    <path
       inkscape:connector-curvature="0"
       id="path14154"
       d="m 67.31128,220.23739 1.45443,1.96755 -2.91034,0.13383 z"
       style="fill:#c6c7c5;fill-opacity:1;stroke:none;stroke-width:0.26458332px;stroke-linecap:butt;stroke-linejoin:miter;stroke-opacity:1" />
    <path
       sodipodi:nodetypes="ccccccccccccccc"
       inkscape:connector-curvature="0"
       id="path14156"
       d="m 34.69668,209.13757 v 0 l 0.72497,-0.18709 2.03459,5.14493 1.28623,2.78294 -0.25724,3.95227 c 1.68782,0.66315 3.640378,0.69884 5.420798,0.91248 l 2.109512,1.98737 -6.08056,-0.0795 -4.48994,-1.74463 -1.14592,-1.20439 2.45554,-0.52617 0.18709,-0.88868 -0.60804,-4.39659 z"
       style="fill:#595d57;fill-opacity:1;stroke:none;stroke-width:0.26458332px;stroke-linecap:butt;stroke-linejoin:miter;stroke-opacity:1" />
    <path
       inkscape:connector-curvature="0"
       id="path14158"
       d="m 36.75466,220.17577 -2.45554,0.52618 1.14592,1.20438 4.48994,1.74464 -4.9816,-0.0651 -1.30907,-1.14162 -0.30402,-1.7072 0.79513,-1.07574 z"
       style="fill:#7c8083;fill-opacity:1;stroke:none;stroke-width:0.26458332px;stroke-linecap:butt;stroke-linejoin:miter;stroke-opacity:1" />
    <path
       inkscape:connector-curvature="0"
       id="path14160"
       d="m 38.74247,216.87835 5.163558,4.86475 -3.475318,-0.31506 -1.94548,-0.59742 z"
       style="fill:#dfd9d0;fill-opacity:1;stroke:none;stroke-width:0.26458332px;stroke-linecap:butt;stroke-linejoin:miter;stroke-opacity:1"
       sodipodi:nodetypes="ccccc" />
    <path
       inkscape:connector-curvature="0"
       id="path14162"
       d="m 18.49566,180.02066 4.49791,-2.91036 h 3.175 l 4.36563,2.44739 3.37344,3.70417 1.25677,3.04272 2.35107,1.98311 -3.34326,1.85334 -1.00885,3.82866 -3.19067,-8.9198 0.28063,-1.68379 -1.91766,-3.36759 -4.8643,-0.79513 -3.13374,1.91766 z"
       style="fill:#f4ccaa;fill-opacity:1;stroke:none;stroke-width:0.26458332px;stroke-linecap:butt;stroke-linejoin:miter;stroke-opacity:1" />
    <path
       inkscape:connector-curvature="0"
       id="path14164"
       d="m 35.42165,208.95048 -1.75395,-5.98684 -0.56127,-10.00924 1.21608,1.59025 6.64164,2.71279 8.13836,1.12253 9.0738,-0.0935 7.67063,-0.8419 5.33203,-1.87088 3.83532,-2.71279 0.56126,-1.21608 -0.56126,10.85115 -1.28687,4.90918 -4.10104,9.39271 -3.77101,5.54096 -1.78577,0.0821 -18.05406,1.3096 -7.27307,-6.85212 z"
       style="fill:#e0e7f0;fill-opacity:1;stroke:none;stroke-width:0.26458332px;stroke-linecap:butt;stroke-linejoin:miter;stroke-opacity:1" />
    <path
       inkscape:connector-curvature="0"
       id="path14326"
       d="m 58.17631,198.28647 7.67063,-0.8419 5.33203,-1.87088 3.83532,-2.7128 0.56126,-1.21607 -0.56126,10.85115 -1.28687,4.90918 -1.45521,3.83641 -2.64583,5.55625 -3.77101,5.54101 -1.78577,0.0821 4.76303,-9.26108 1.91823,-6.54844 -1.38906,-2.51354 -4.43177,-1.32293 -9.12813,-2.18281 -1.45743,-2.26612 z"
       style="fill:#e8f4f8;fill-opacity:1;stroke:#e8f4f8;stroke-width:0.26458332px;stroke-linecap:butt;stroke-linejoin:miter;stroke-opacity:1" />
    <path
       inkscape:connector-curvature="0"
       id="path14136"
       d="m 70.80479,227.65935 5.33203,-2.33862 -3.92886,-3.27404 -8.13836,0.37418 z"
       style="fill:#7e7e87;fill-opacity:1;stroke:none;stroke-width:0.26458332px;stroke-linecap:butt;stroke-linejoin:miter;stroke-opacity:1" />
    <path
       inkscape:connector-curvature="0"
       id="path14134"
       d="m 46.95099,228.87543 11.5995,-0.18709 12.2543,-1.02899 -6.73519,-5.23848 -18.05406,1.3096 z"
       style="fill:#676e6f;fill-opacity:1;stroke:none;stroke-width:0.26458332px;stroke-linecap:butt;stroke-linejoin:miter;stroke-opacity:1" />
    <path
       sodipodi:nodetypes="cccccccccscccccccccc"
       inkscape:connector-curvature="0"
       id="path14166"
       d="m 75.57555,191.64482 -0.56126,1.21607 -3.83532,2.7128 -5.33203,1.87088 -7.67063,0.8419 -9.0738,0.0935 -8.13836,-1.12253 -6.64164,-2.71279 -1.21608,-1.59025 c -0.61911,-0.57382 0.8902,-2.66613 1.09887,-2.85271 0.19029,-0.17014 -0.70473,1.61196 -0.36381,1.52762 l 1.55443,1.68672 6.31692,2.57968 7.62353,0.98756 8.5593,-0.0935 7.95127,-0.98221 4.37475,-1.56543 3.90261,-2.31511 0.3638,-2.21588 z"
       style="fill:#f4f3f0;fill-opacity:1;stroke:none;stroke-width:0.26458332px;stroke-linecap:butt;stroke-linejoin:miter;stroke-opacity:1" />
    <path
       inkscape:connector-curvature="0"
       id="path14168"
       d="m 33.76142,203.28355 -2.38556,-0.53038 -2.0112,-1.66042 -7.99804,-11.73981 -1.63703,-2.8531 0.60804,-5.3788 3.13374,-1.91766 4.8643,0.79513 1.91766,3.36759 -0.28063,1.68381 3.19067,8.91979 z"
       style="fill:#f4d4b9;fill-opacity:1;stroke:#f4d4b9;stroke-width:0.26458332px;stroke-linecap:butt;stroke-linejoin:miter;stroke-opacity:1" />
    <path
       inkscape:connector-curvature="0"
       id="path14170"
       d="m 33.84149,191.62931 0.33073,-1.48828 6.08541,-3.37344 8.40052,-1.25676 10.31875,-0.2646 7.14375,0.99219 5.55625,1.52136 2.8112,1.95135 -0.3638,2.21588 -3.90261,2.31511 -4.37475,1.56543 -7.95127,0.98221 -8.5593,0.0935 -7.62353,-0.98756 -6.31692,-2.57968 z"
       style="fill:#fbecd4;fill-opacity:1;stroke:none;stroke-width:0.26458332px;stroke-linecap:butt;stroke-linejoin:miter;stroke-opacity:1" />
    <path
       inkscape:connector-curvature="0"
       id="path14172"
       d="m 46.60763,192.9853 -2.84427,0.39687 -4.29948,-1.45521 0.66146,-1.32291 6.35,-2.51354 12.7,-0.8599 8.13594,1.52135 3.83646,1.78594 0.46302,0.99219 -4.96094,2.3151 -8.40052,0.92604 7.47448,-2.71197 0.99218,-1.19063 -5.15937,-1.65365 -14.15521,0.33073 -4.36562,1.32292 -0.79375,0.79375 z"
       style="fill:#f7f7ee;fill-opacity:1;stroke:none;stroke-width:0.26458332px;stroke-linecap:butt;stroke-linejoin:miter;stroke-opacity:1" />
    <path
       inkscape:connector-curvature="0"
       id="path14174"
       d="m 56.00034,194.10978 3.50573,-1.5875 0.52917,-1.05834 -1.98438,-0.7276 -7.94275,0.0665 -1.35639,0.74835 2.73617,0.30402 5.5425,-0.0935 0.56127,0.32741 z"
       style="fill:#ffffff;fill-opacity:1;stroke:none;stroke-width:0.26458332px;stroke-linecap:butt;stroke-linejoin:miter;stroke-opacity:1" />
    <path
       inkscape:connector-curvature="0"
       id="path14178"
       d="m 111.1224,189.02553 4.6407,-2.32409 9.42578,-4.29948 6.15093,-5.34266 -0.13166,2.69689 0.28502,3.70514 -4.09406,2.19661 -5.19171,1.6838 z"
       style="fill:#271e23;fill-opacity:1;stroke:none;stroke-width:0.26458332px;stroke-linecap:butt;stroke-linejoin:miter;stroke-opacity:1" />
    <path
       inkscape:connector-curvature="0"
       id="path14180"
       d="m 101.07872,199.89754 2.93431,-8.15922 1.30962,0.8419 0.0936,-1.49671 -1.02899,-1.02899 1.12253,-2.71278 2.15152,-6.54811 4.67722,3.46114 2.99342,3.74178 1.87089,2.71278 0.46772,1.30962 0.37417,-1.75395 -0.88866,-1.3564 1.56686,0.79513 -1.66041,-3.55468 -3.81193,-3.22728 -2.08457,-2.2396 -1.71979,-0.92604 -1.52136,-2.24896 -2.11666,-4.29948 2.44739,2.84427 1.52136,-6.94531 1.4552,-6.74687 0.62839,-5.12631 0.0661,-1.65363 0.66146,-6.38307 -0.29766,-5.29168 -0.39688,-4.29948 -2.11666,-7.27604 -4.45425,-10.18823 -5.93065,-6.14979 6.28386,4.43177 4.36562,1.38906 10.71563,-0.72759 5.88698,-3.04272 3.83645,-3.7703 3.37344,7.9375 0.59531,8.46665 -1.12448,5.6224 -1.33415,18.07163 -0.21967,11.99223 -0.0221,2.31751 -0.54078,11.0765 0.44101,5.73312 1.87711,14.15351 -9.77538,1.35639 -12.02268,-0.47329 z"
       style="fill:#a3c5e4;fill-opacity:1;stroke:#a3c5e4;stroke-width:0.26458332px;stroke-linecap:butt;stroke-linejoin:miter;stroke-opacity:1" />
    <path
       inkscape:connector-curvature="0"
       id="path14182"
       d="m 101.07872,199.89754 10.64948,0.62838 -1.48434,2.75996 -5.29561,-2.06543 -3.60494,-0.0992 z"
       style="fill:#0f0903;fill-opacity:1;stroke:#0f0903;stroke-width:0.26458332px;stroke-linecap:butt;stroke-linejoin:miter;stroke-opacity:1" />
    <path
       inkscape:connector-curvature="0"
       id="path14184"
       d="m 101.34331,201.12125 3.60494,0.0992 5.29561,2.06544 -0.63233,1.17573 -0.53567,2.26306 -3.23464,-1.76696 -6.87916,0.46302 4.72942,-2.31511 z"
       style="fill:#4e482d;fill-opacity:1;stroke:#4e482d;stroke-width:0.26458332px;stroke-linecap:butt;stroke-linejoin:miter;stroke-opacity:1" />
    <path
       inkscape:connector-curvature="0"
       id="path14188"
       d="m 111.7282,200.52592 12.02268,0.47329 9.77539,-1.35639 0.65481,4.30304 -10.66406,-1.21608 -9.81067,-1.35121 z"
       style="fill:#070301;fill-opacity:1;stroke:#070301;stroke-width:0.26458332px;stroke-linecap:butt;stroke-linejoin:miter;stroke-opacity:1" />
    <path
       inkscape:connector-curvature="0"
       id="path14194"
       d="m 150.7968,211.15745 11.4008,3.87342 1.6838,1.49669 0.18709,2.3386 -2.20175,6.13373 -0.38773,1.94609 z"
       style="fill:#cf6144;fill-opacity:1;stroke:#cf6144;stroke-width:0.26458332px;stroke-linecap:butt;stroke-linejoin:miter;stroke-opacity:1" />
    <path
       inkscape:connector-curvature="0"
       id="path14196"
       d="m 161.86674,224.99989 1.75073,-0.86516 6.99912,-1.24616 -3.64822,2.94667 -4.16195,3.07268 -1.32741,-1.96194 z"
       style="fill:#6a251b;fill-opacity:1;stroke:#6a251b;stroke-width:0.26458332px;stroke-linecap:butt;stroke-linejoin:miter;stroke-opacity:1"
       sodipodi:nodetypes="ccccccc" />
    <path
       inkscape:connector-curvature="0"
       id="path14200"
       d="m 177.67919,226.30294 0.98222,21.00072 c -4.38267,-5.33502 -8.55135,-10.483 -11.27154,-17.0121 2.75057,1.31203 5.39161,2.78472 7.21047,5.46327 l 0.0657,-7.51379 -3.63802,-2.57969 1.45521,-1.25677 z"
       style="fill:#aa482b;fill-opacity:1;stroke:none;stroke-width:0.26458332px;stroke-linecap:butt;stroke-linejoin:miter;stroke-opacity:1"
       sodipodi:nodetypes="cccccccc" />
    <path
       inkscape:connector-curvature="0"
       id="path14192"
       d="m 165.59731,233.03293 5.39346,2.85832 7.67064,11.41241 0.0702,3.69498 0.88867,0.98224 -0.29094,1.34824 z"
       style="fill:#93816f;fill-opacity:1;stroke:none;stroke-width:0.26458332px;stroke-linecap:butt;stroke-linejoin:miter;stroke-opacity:1" />
    <path
       inkscape:connector-curvature="0"
       id="path14198"
       d="m 170.61659,222.88857 4.11596,-2.43213 2.94664,5.8465 -5.19604,-1.89836 -1.45521,1.25677 3.63802,2.57969 c 0,0 -0.0662,7.80521 -0.0662,7.54062 0,-0.26458 -7.20989,-5.4901 -7.20989,-5.4901 l 3.60085,5.59969 -5.39346,-2.85832 -2.79089,-4.12501 z"
       style="fill:#551309;fill-opacity:1;stroke:none;stroke-width:0.26458332px;stroke-linecap:butt;stroke-linejoin:miter;stroke-opacity:1"
       sodipodi:nodetypes="ccccccsccccc" />
    <path
       inkscape:connector-curvature="0"
       id="path14204"
       d="m 162.1976,215.03087 5.70621,-0.18709 3.18051,2.71278 7.01582,-1.35639 2.34048,1.07913 -9.82403,5.60927 -6.7229,2.15934 -2.02695,-0.048 2.20175,-6.13373 -0.18709,-2.3386 z"
       style="fill:#98381c;fill-opacity:1;stroke:#98381c;stroke-width:0.26458332px;stroke-linecap:butt;stroke-linejoin:miter;stroke-opacity:1"
       sodipodi:nodetypes="ccccccccccc" />
    <path
       inkscape:connector-curvature="0"
       id="path14212"
       d="m 191.92997,202.77488 0.7938,-4.89479 6.15157,-20.76979 -3.63803,-2.71197 -1.05833,-1.19064 -8.92969,3.70417 5.75469,8.26823 -10.05417,-3.37344 -1.91822,7.80521 0.79375,0.59531 3.24114,-0.0661 -3.24114,1.19062 -1.25678,-0.0992 -0.16536,0.59531 -1.5875,0.99219 -1.2237,0.13229 -1.45521,1.19063 -1.89177,0.0794 2.55318,1.27661 z"
       style="fill:#d46746;fill-opacity:1;stroke:#d46746;stroke-width:0.26458332px;stroke-linecap:butt;stroke-linejoin:miter;stroke-opacity:1" />
    <path
       inkscape:connector-curvature="0"
       id="path14206"
       d="m 191.47698,209.88591 -0.74835,-2.24506 2.98733,-1.42637 0.0661,-1.52136 -1.85209,-1.91824 -17.13177,-7.27604 -16.13958,6.48229 -17.06563,4.23335 -3.10869,2.79876 10.84776,-0.0206 0.89982,1.32996 8.95591,1.54739 8.24825,-0.39378 9.82215,1.96445 8.41899,-6.08039 z"
       style="fill:#c35538;fill-opacity:1;stroke:none;stroke-width:0.26458332px;stroke-linecap:butt;stroke-linejoin:miter;stroke-opacity:1" />
    <path
       inkscape:connector-curvature="0"
       id="path14208"
       d="m 141.59299,206.21448 20.17453,-1.19063 13.09688,-4.43178 16.40416,3.50574 2.4474,2.11667 0.0661,-1.52136 -1.85209,-1.91824 -17.13177,-7.27604 -16.13958,6.48229 z"
       style="fill:#e07551;fill-opacity:1;stroke:none;stroke-width:0.26458332px;stroke-linecap:butt;stroke-linejoin:miter;stroke-opacity:1" />
    <path
       inkscape:connector-curvature="0"
       id="path14210"
       d="m 141.59299,206.21448 10.51724,-8.66512 6.48229,-4.10104 h 8.20209 l 2.44739,-0.72761 5.5562,2.77813 -16.13958,6.48229 z"
       style="fill:#af3f23;fill-opacity:1;stroke:#af3f23;stroke-width:0.26458332px;stroke-linecap:butt;stroke-linejoin:miter;stroke-opacity:1" />
    <path
       inkscape:connector-curvature="0"
       id="path14214"
       d="m 180.94981,181.80665 0.1323,-0.89297 2.61276,-2.11666 1.55442,-1.88516 5.75469,8.26823 z"
       style="fill:#b44329;fill-opacity:1;stroke:#b44329;stroke-width:0.26458332px;stroke-linecap:butt;stroke-linejoin:miter;stroke-opacity:1" />
    <path
       inkscape:connector-curvature="0"
       id="path14268"
       d="m 126.65074,194.82528 1.12253,-5.33202 2.50231,-3.32083 0.51449,0.49111 0.90983,-0.51431 0.0644,0.83693 0.10531,1.36898 0.3412,2.3248 -2.30938,2.15753 z"
       style="fill:#6a617f;fill-opacity:1;stroke:none;stroke-width:0.26458332px;stroke-linecap:butt;stroke-linejoin:miter;stroke-opacity:1" />
    <path
       inkscape:connector-curvature="0"
       id="path14230"
       d="m 131.99067,154.36995 -3.16377,0.84608 h -2.05052 l -2.4474,0.59531 -4.03489,1.32293 -1.78594,0.52915 -5.02708,-0.13229 -1.62058,-0.29766 -0.16525,2.22635 -0.46313,2.89996 0.3638,3.34037 0.67241,1.55294 -0.30402,1.80073 6.9248,-0.28846 0.7134,-0.27109 2.18395,-0.0953 0.56127,-0.42094 3.64823,-0.0468 2.94664,-0.60804 2.1002,-0.49863 0.72821,-0.46237 0.15167,-11.07127 z"
       style="fill:#141825;fill-opacity:1;stroke:none;stroke-width:0.26458332px;stroke-linecap:butt;stroke-linejoin:miter;stroke-opacity:1" />
    <path
       inkscape:connector-curvature="0"
       id="path14270"
       d="m 124.7683,200.85803 -0.0637,-1.73535 3.62148,-0.77721 3.40415,-3.3191 -0.70871,2.57496 2.29979,0.64505 0.20497,1.39644 z"
       style="fill:#212127;fill-opacity:1;stroke:none;stroke-width:0.26458332px;stroke-linecap:butt;stroke-linejoin:miter;stroke-opacity:1"
       sodipodi:nodetypes="cccccccc" />
    <path
       inkscape:connector-curvature="0"
       id="path14216"
       d="m 138.99211,208.55607 -0.50781,0.45717 -3.13379,0.006 -1.16944,-1.79927 v -3.27406 l -0.6548,-4.30305 -1.65666,-11.28772 -0.66146,-8.59896 0.54078,-11.07649 2.43578,-12.93445 5.42396,-14.08906 0.66146,1.19062 4.29948,5.55625 4.23333,5.15938 -3.83646,10.64948 -4.16719,14.68437 -2.64583,15.80886 -0.26458,10.25261 -0.38698,0.29777 0.14032,2.1749 0.49111,0.93546 z"
       style="fill:#cc5e3e;fill-opacity:1;stroke:#cc5e3e;stroke-width:0.26458332px;stroke-linecap:butt;stroke-linejoin:miter;stroke-opacity:1" />
    <path
       inkscape:connector-curvature="0"
       id="path14220"
       d="m 137.88888,204.95776 5.59986,-7.13906 9.63507,-5.61266 4.34981,-0.8419 4.58367,-2.10475 -2.99342,2.94665 2.71278,-0.23386 5.47235,-4.86431 0.8419,-1.30961 -0.0468,-1.87089 3.36759,1.73057 0.8419,2.29183 -0.0468,1.59027 -1.63703,2.01119 -1.32782,1.16948 -2.44739,0.7276 h -8.20209 l -6.48229,4.10105 -10.51724,8.66512 -2.60088,2.34159 -0.85878,-0.19019 -0.49111,-0.93546 -0.14032,-2.1749 z"
       style="fill:#530f09;fill-opacity:1;stroke:none;stroke-width:0.26458332px;stroke-linecap:butt;stroke-linejoin:miter;stroke-opacity:1"
       sodipodi:nodetypes="cccccccccccccccccccccccc" />
    <path
       inkscape:connector-curvature="0"
       id="path14222"
       d="m 140.54441,180.41922 2.30541,13.22754 3.24114,0.26458 7.03285,-1.7053 4.34981,-0.8419 1.23377,-0.56653 3.09321,-3.26934 1.71979,-4.8948 -1.2237,-2.08359 -1.98437,-0.0662 -1.85209,-1.65364 -2.57969,-4.36563 0.1323,-2.97656 -2.38125,-3.70417 -1.98438,-2.71197 -1.78594,-5.42396 -1.05833,-6.08537 -3.83646,10.64948 -4.16719,14.68437 z"
       style="fill:#7b210f;fill-opacity:1;stroke:none;stroke-width:0.26458332px;stroke-linecap:butt;stroke-linejoin:miter;stroke-opacity:1" />
    <path
       inkscape:connector-curvature="0"
       id="path14224"
       d="m 141.18875,177.52384 2.25638,14.66771 2.44739,0.3638 6.4823,-1.28984 5.09322,-0.95912 2.67995,-1.03141 -1.4406,1.52263 -1.23377,0.56653 -4.34981,0.8419 -7.03285,1.7053 -3.24114,-0.26458 -2.30541,-13.22754 0.25488,-1.52299 z"
       style="fill:#8f3a30;fill-opacity:1;stroke:none;stroke-width:0.26458332px;stroke-linecap:butt;stroke-linejoin:miter;stroke-opacity:1" />
    <path
       inkscape:connector-curvature="0"
       id="path14226"
       d="m 137.88888,204.95776 5.59986,-7.13906 9.63507,-5.61266 -7.03285,1.7053 -3.24114,-0.26458 -2.30541,-13.22754 -2.39095,14.28592 z"
       style="fill:#6c1e12;fill-opacity:1;stroke:#6c1e12;stroke-width:0.26458332px;stroke-linecap:butt;stroke-linejoin:miter;stroke-opacity:1" />
    <path
       inkscape:connector-curvature="0"
       id="path14246"
       d="m 112.29044,143.90509 0.29766,5.29168 -0.29766,3.34035 -0.3638,3.04272 5.4901,0.62838 5.49011,-1.88516 3.93567,-0.23151 3.90261,-1.12447 1.35814,-0.12237 0.92835,-12.57486 -5.72607,1.58472 -6.18464,1.71979 -3.00964,0.39687 z"
       style="fill:#141825;fill-opacity:1;stroke:none;stroke-width:0.26458332px;stroke-linecap:butt;stroke-linejoin:miter;stroke-opacity:1" />
    <path
       inkscape:connector-curvature="0"
       id="path14260"
       d="m 130.74513,142.71447 1.42213,-0.0661 0.63015,0.79388 -0.28744,3.89359 -0.57422,-1.21481 0.31619,4.70993 -1.57296,0.28407 z"
       style="fill:#cfd6e5;fill-opacity:1;stroke:none;stroke-width:0.26458332px;stroke-linecap:butt;stroke-linejoin:miter;stroke-opacity:1" />
    <path
       inkscape:connector-curvature="0"
       id="path14232"
       d="m 130.28211,156.34052 1.5875,-0.33074 -0.0813,8.53581 -1.77077,0.32774 z"
       style="fill:#cfd6e5;fill-opacity:1;stroke:none;stroke-width:0.26458332px;stroke-linecap:butt;stroke-linejoin:miter;stroke-opacity:1" />
    <path
       inkscape:connector-curvature="0"
       id="path14242"
       d="m 129.57015,167.17418 -2.85992,3.05695 -6.68073,4.23333 -1.78593,2.77813 7.01145,-3.175 6.39883,-3.44043 0.0951,-1.94747 0.0221,-2.31751 -0.72821,0.46237 z"
       style="fill:#73799f;fill-opacity:1;stroke:none;stroke-width:0.26458332px;stroke-linecap:butt;stroke-linejoin:miter;stroke-opacity:1" />
    <path
       inkscape:connector-curvature="0"
       id="path14228"
       d="m 131.74892,168.67969 2.43579,-12.93444 5.42396,-14.08906 -3.50573,-4.89484 -1.38906,-3.63803 -0.26458,-2.4474 -1.12448,5.6224 -1.45521,19.71146 z"
       style="fill:#b04a2f;fill-opacity:1;stroke:#b04a2f;stroke-width:0.26458332px;stroke-linecap:butt;stroke-linejoin:miter;stroke-opacity:1" />
    <path
       inkscape:connector-curvature="0"
       id="path14218"
       d="m 139.60867,141.65619 0.66146,1.19061 -5.06007,13.39144 -2.38537,12.53495 -0.46773,11.17854 -0.7078,5.5376 -0.44101,-5.73314 0.54077,-11.0765 2.43579,-12.93444 z"
       style="fill:#a93d25;fill-opacity:1;stroke:#a93d25;stroke-width:0.26458332px;stroke-linecap:butt;stroke-linejoin:miter;stroke-opacity:1" />
    <path
       inkscape:connector-curvature="0"
       id="path14234"
       d="m 127.30555,157.00196 1.25677,-0.0661 -0.26459,8.26823 -1.52135,0.33073 0.0661,-3.57187 -1.05833,0.13228 -0.19844,3.83647 -1.38906,-0.19844 0.33073,-8.00365 1.12448,-0.19844 0.13229,3.175 1.12448,-0.0662 z"
       style="fill:#cfd6e5;fill-opacity:1;stroke:none;stroke-width:0.26458332px;stroke-linecap:butt;stroke-linejoin:miter;stroke-opacity:1" />
    <path
       inkscape:connector-curvature="0"
       id="path14236"
       d="m 122.14617,160.77228 0.92604,-0.0992 0.26459,-1.32292 -1.05834,-1.02526 -0.92604,0.1323 -1.09141,0.99219 -0.49609,0.92603 0.0331,1.88516 0.89297,0.85989 0.66146,0.39688 0.26458,1.15755 -0.3638,0.52918 -0.49609,0.0331 -0.36381,-0.42995 0.0331,-0.56224 -1.19062,-0.19844 -0.16537,1.45522 0.72761,1.12447 1.71979,0.0661 1.12448,-1.09141 0.3638,-1.05833 -0.0992,-1.38906 -0.59531,-1.05834 -0.99219,-0.69453 -0.19844,-0.95911 0.3638,-0.46302 0.52917,-0.0331 0.16537,0.2646 z"
       style="fill:#cfd6e5;fill-opacity:1;stroke:none;stroke-width:0.26458332px;stroke-linecap:butt;stroke-linejoin:miter;stroke-opacity:1" />
    <path
       inkscape:connector-curvature="0"
       id="path14238"
       d="m 112.99329,167.46356 1.44993,-0.14031 1.18759,-5.62492 0.21558,5.71846 1.37978,-0.0935 1.54348,-7.92788 -1.30962,0.0234 -0.60804,3.99902 -0.32741,-3.83532 -1.82411,-0.0468 z"
       style="fill:#cfd6e5;fill-opacity:1;stroke:none;stroke-width:0.26458332px;stroke-linecap:butt;stroke-linejoin:miter;stroke-opacity:1" />
    <path
       inkscape:connector-curvature="0"
       id="path14240"
       d="m 111.59591,165.70015 1.01699,-6.00274 -0.91766,-0.23759 -0.46313,2.89996 0.13229,1.4552 z"
       style="fill:#cfd6e5;fill-opacity:1;stroke:none;stroke-width:0.26458332px;stroke-linecap:butt;stroke-linejoin:miter;stroke-opacity:1" />
    <path
       inkscape:connector-curvature="0"
       id="path14244"
       d="m 109.1112,157.40755 2.15152,1.59025 4.11595,4.39659 4.67721,7.15614 3.08697,6.50133 -0.18709,-2.19828 -2.5257,-5.14495 -4.30304,-6.31424 -3.36759,-4.25627 -4.5369,-4.06918 z"
       style="fill:#080102;fill-opacity:1;stroke:none;stroke-width:0.26458332px;stroke-linecap:butt;stroke-linejoin:miter;stroke-opacity:1" />
    <path
       sodipodi:nodetypes="cccccccccccccccccccccccc"
       inkscape:connector-curvature="0"
       id="path14248"
       d="m 115.36622,148.73373 h 1.15755 l 0.0992,-1.71979 -0.62839,-0.79375 -0.82682,-0.23151 -0.95912,0.33073 -0.76067,0.99219 -0.29766,5.42396 0.8599,1.05834 1.25677,-0.0661 0.69453,-0.72761 0.13229,-3.50573 h -1.25677 l -0.0661,1.12448 0.42995,0.0331 v 1.52136 l -0.26459,0.42995 -0.46302,0.0331 -0.3638,-0.33073 0.23151,-4.33254 0.33073,-0.56224 h 0.42995 l 0.26458,0.46301 z"
       style="fill:#cfd6e5;fill-opacity:1;stroke:none;stroke-width:0.26458332px;stroke-linecap:butt;stroke-linejoin:miter;stroke-opacity:1" />
    <path
       sodipodi:nodetypes="ccccc"
       inkscape:connector-curvature="0"
       id="path14250"
       d="m 117.91284,145.95561 h 1.05833 l -0.79375,8.03673 -1.35599,0.0331 z"
       style="fill:#cfd6e5;fill-opacity:1;stroke:none;stroke-width:0.26458332px;stroke-linecap:butt;stroke-linejoin:miter;stroke-opacity:1" />
    <path
       inkscape:connector-curvature="0"
       id="path14252"
       d="m 119.96336,146.68322 0.99219,-1.25678 1.52135,-0.42994 1.25677,0.59531 0.0661,5.85391 -0.76068,1.42213 -1.4552,0.56224 -1.45521,-0.52917 -0.19844,-1.19062 z"
       style="fill:#cfd6e5;fill-opacity:1;stroke:none;stroke-width:0.26458332px;stroke-linecap:butt;stroke-linejoin:miter;stroke-opacity:1" />
    <path
       inkscape:connector-curvature="0"
       id="path14254"
       d="m 121.05476,152.00796 0.66146,0.33072 0.72761,-0.46302 v -5.09323 l -0.66146,-0.49609 -0.72761,0.7276 z"
       style="fill:#141825;fill-opacity:1;stroke:none;stroke-width:0.26458332px;stroke-linecap:butt;stroke-linejoin:miter;stroke-opacity:1" />
    <path
       inkscape:connector-curvature="0"
       id="path14256"
       d="m 125.42039,152.40484 1.32292,-0.16537 v -3.37344 l 0.79375,-0.0331 0.0992,2.91042 1.52135,-0.2315 -0.0331,-3.37344 -0.82682,-0.56225 0.79375,-0.79375 0.0661,-2.21587 -0.92604,-0.76069 -2.97657,0.19844 z"
       style="fill:#cfd6e5;fill-opacity:1;stroke:none;stroke-width:0.26458332px;stroke-linecap:butt;stroke-linejoin:miter;stroke-opacity:1" />
    <path
       inkscape:connector-curvature="0"
       id="path14258"
       d="m 126.64409,147.17931 0.59531,-0.0331 0.59531,-0.8599 -0.0331,-1.09141 h -1.25677 z"
       style="fill:#141825;fill-opacity:1;stroke:none;stroke-width:0.26458332px;stroke-linecap:butt;stroke-linejoin:miter;stroke-opacity:1" />
    <path
       inkscape:connector-curvature="0"
       id="path14262"
       d="m 99.39201,115.99155 -1.58751,-4.16719 -0.52916,-4.56406 0.8599,0.0661 0.7276,3.50573 9.59114,5.62241 2.77813,0.52916 7.9375,-0.1323 3.70416,-1.32291 3.37344,-3.30729 2.51354,-4.8948 -0.39687,4.43178 1.52135,0.85989 0.59532,1.65366 -3.83646,3.77031 -5.88698,3.0427 -10.71562,0.72761 -4.36563,-1.38906 z"
       style="fill:#c4e8f8;fill-opacity:1;stroke:#c4e8f8;stroke-width:0.26458332px;stroke-linecap:butt;stroke-linejoin:miter;stroke-opacity:1" />
    <path
       sodipodi:nodetypes="ccccccccccccccc"
       inkscape:connector-curvature="0"
       id="path14264"
       d="m 97.27534,107.2603 0.8599,0.0661 0.7276,3.50573 9.59114,5.62241 2.77813,0.52916 1.98382,-0.0331 c 2.8779,2.94351 0,0 2.8779,2.94351 l -4.66328,0.2646 -1.88516,0.0661 c 4.80327,1.295 0,0 4.80327,1.29499 l -4.30717,0.29251 -4.36563,-1.38907 -6.28385,-4.43176 -1.58751,-4.16719 z"
       style="fill:#73799f;fill-opacity:1;stroke:#73799f;stroke-width:0.26458332px;stroke-linecap:butt;stroke-linejoin:miter;stroke-opacity:1" />
    <path
       sodipodi:nodetypes="cccccccccccccccc"
       inkscape:connector-curvature="0"
       id="path14266"
       d="m 99.39201,115.99155 6.28385,4.43177 4.36563,1.38903 4.30717,-0.29254 v 0 l 0.65376,0.7556 -3.37344,0.13228 h -1.65364 c 10.74204,6.79623 7.24682,4.46457 10.74204,6.79623 l -5.01131,2.66597 2.5257,5.05138 0.37418,2.15152 c -2.43216,-0.88867 0,0 -2.43216,-0.88867 l -8.77511,-11.29435 -2.07602,-4.74851 z"
       style="fill:#6a617f;fill-opacity:1;stroke:#6a617f;stroke-width:0.26458332px;stroke-linecap:butt;stroke-linejoin:miter;stroke-opacity:1" />
    <path
       inkscape:connector-curvature="0"
       id="path14272"
       d="m 193.16078,244.31024 0.74835,-3.46114 -0.37417,-2.43216 -10.04979,-22.83224 -2.4769,1.37863 z"
       style="fill:#311b11;fill-opacity:1;stroke:none;stroke-width:0.26458332px;stroke-linecap:butt;stroke-linejoin:miter;stroke-opacity:1" />
    <path
       inkscape:connector-curvature="0"
       id="path14274"
       d="m 193.16078,244.31024 -0.18709,0.98222 14.17196,0.70156 1.54348,-1.1693 0.46773,-2.80632 -0.56126,-1.30961 -14.92794,-1.42926 0.24147,1.56957 z"
       style="fill:#79685e;fill-opacity:1;stroke:none;stroke-width:0.26458332px;stroke-linecap:butt;stroke-linejoin:miter;stroke-opacity:1" />
    <path
       inkscape:connector-curvature="0"
       id="path14276"
       d="m 183.48517,215.5847 1.16308,-0.64739 5.7062,-1.96442 1.12253,-3.08698 17.11862,30.82288 -14.92794,-1.42926 -0.1327,-0.86259 z"
       style="fill:#dad9d5;fill-opacity:1;stroke:none;stroke-width:0.26458332px;stroke-linecap:butt;stroke-linejoin:miter;stroke-opacity:1" />
    <path
       inkscape:connector-curvature="0"
       id="path14278"
       d="m 178.63095,218.31258 2.37732,-1.34925 12.15251,27.34691 -0.18709,0.98222 -2.54497,24.44184 -2.99458,-4.42606 2.92031,-20.06256 z"
       style="fill:#231a11;fill-opacity:1;stroke:none;stroke-width:0.26458332px;stroke-linecap:butt;stroke-linejoin:miter;stroke-opacity:1" />
    <path
       inkscape:connector-curvature="0"
       id="path14280"
       d="m 192.97369,245.29246 14.17196,0.70156 v 0 l 1.07577,0.98222 -1.02899,5.5659 -8.13836,-0.14033 -2.89669,25.79958 -5.72866,-8.46709 z"
       style="fill:#1e1f1f;fill-opacity:1;stroke:#1e1f1f;stroke-width:0.26458332px;stroke-linecap:butt;stroke-linejoin:miter;stroke-opacity:1" />
    <path
       inkscape:connector-curvature="0"
       id="path14282"
       d="m 30.66649,206.28062 1.25677,-1.5875 2.25311,0.007 1.24528,4.25059 -0.72497,0.18708 -2.45553,-0.93543 z"
       style="fill:#d27e76;fill-opacity:1;stroke:none;stroke-width:0.26458332px;stroke-linecap:butt;stroke-linejoin:miter;stroke-opacity:1" />
    <path
       inkscape:connector-curvature="0"
       id="path14284"
       d="m 33.6677,202.96364 -2.15152,-0.70158 -1.56687,-2.38538 1.42655,-2.31523 1.95208,-0.65673 z"
       style="fill:#d27e76;fill-opacity:1;stroke:none;stroke-width:0.26458332px;stroke-linecap:butt;stroke-linejoin:miter;stroke-opacity:1" />
    <path
       id="path14286"
       d="m 18.49566,180.02069 -2.05052,0.0661 -2.11667,0.46302 -1.98438,2.84427 0.99219,8.13594 2.41743,3.24838 8.74675,8.69972 5.20692,3.82767 2.60397,1.59785 1.82418,0.60822 0.5612,-0.37412 -2.45566,-0.93536 -1.57458,-1.92185 1.25677,-1.5875 2.25309,0.007 -0.41496,-1.41697 -2.38538,-0.5302 -2.01125,-1.66036 -7.99796,-11.73986 -1.63711,-2.85305 0.60772,-5.379 z"
       style="fill:#deb198;fill-opacity:1;stroke:#deb198;stroke-width:0.26458332px;stroke-linecap:butt;stroke-linejoin:miter;stroke-opacity:1"
       inkscape:connector-curvature="0" />
    <path
       inkscape:connector-curvature="0"
       id="path14288"
       d="m 12.76129,186.81512 -3.98907,4.25196 -0.26458,3.57186 2.11666,5.35781 11.04636,7.60679 2.05052,0.52917 5.9862,-0.82683 -5.20703,-3.82775 -8.74639,-8.69963 -2.41768,-3.24841 z"
       style="fill:#e7b997;fill-opacity:1;stroke:#e7b997;stroke-width:0.26458332px;stroke-linecap:butt;stroke-linejoin:miter;stroke-opacity:1" />
    <path
       inkscape:connector-curvature="0"
       id="path14290"
       d="m 27.4841,205.67152 -0.58792,1.07212 0.44763,0.88869 2.36357,-0.32645 z"
       style="fill:#d27e76;fill-opacity:1;stroke:none;stroke-width:0.26458332px;stroke-linecap:butt;stroke-linejoin:miter;stroke-opacity:1" />
    <path
       inkscape:connector-curvature="0"
       id="path14292"
       d="m 8.50764,194.63894 -2.06135,6.6409 0.56127,4.49014 6.74213,3.86757 3.175,0.44649 0.414188,-0.35143 2.182042,-2.096 0.13386,-1.42126 -9.03048,-6.2186 z"
       style="fill:#c5896d;fill-opacity:1;stroke:#c5896d;stroke-width:0.26458332px;stroke-linecap:butt;stroke-linejoin:miter;stroke-opacity:1"
       sodipodi:nodetypes="cccccccccc" />
    <path
       inkscape:connector-curvature="0"
       id="path14294"
       d="m 17.4704,209.62101 2.05052,-1.9844 0.13386,-1.42126 2.01588,1.38819 2.05052,0.52917 5.9862,-0.82683 2.60392,1.59782 -2.93465,0.51888 z"
       style="fill:#461706;fill-opacity:1;stroke:#461706;stroke-width:0.26458332px;stroke-linecap:butt;stroke-linejoin:miter;stroke-opacity:1" />
    <path
       inkscape:connector-curvature="0"
       id="path14296"
       d="m 12.5756,209.75328 -5.38095,-1.9721 -2.19829,-3.36759 0.14032,-12.30109 1.68379,-4.25627 5.17409,-0.22386 -3.22234,3.43469 -0.26458,3.57188 -2.06135,6.6409 0.56127,4.49014 6.74213,3.86757 z"
       style="fill:#92341f;fill-opacity:1;stroke:#92341f;stroke-width:0.26458332px;stroke-linecap:butt;stroke-linejoin:miter;stroke-opacity:1" />
    <path
       inkscape:connector-curvature="0"
       id="path14298"
       d="m 6.82047,187.85623 3.67154,-4.99125 2.24896,-3.24114 -5.15938,2.05052 -2.24895,1.85208 -2.91042,0.8599 -6.68073,7.34219 3.24115,5.4901 6.01372,7.19496 0.14032,-12.30109 z"
       style="fill:#a53f28;fill-opacity:1;stroke:#a53f28;stroke-width:0.26458332px;stroke-linecap:butt;stroke-linejoin:miter;stroke-opacity:1" />
    <path
       inkscape:connector-curvature="0"
       id="path14300"
       d="m 6.82047,187.85623 5.17409,-0.22386 0.76673,-0.81725 -0.4172,-3.421 1.98438,-2.84427 2.11667,-0.46303 2.05052,-0.0661 3.01688,-1.95209 -4.73667,-0.49527 -4.29948,0.66146 -4.8948,3.43958 5.15938,-2.05052 z"
       style="fill:#d4704e;fill-opacity:1;stroke:#d4704e;stroke-width:0.26458332px;stroke-linecap:butt;stroke-linejoin:miter;stroke-opacity:1" />
    <path
       inkscape:connector-curvature="0"
       id="path14302"
       d="m 4.6275,183.73478 2.35878,-3.58176 4.10104,-3.20809 5.35782,-1.12447 3.14192,0.26458 3.40651,1.02526 -1.48103,0.95833 -4.73667,-0.49527 -4.29948,0.66146 -4.8948,3.43958 -2.24895,1.85204 z"
       style="fill:#b05636;fill-opacity:1;stroke:#b05636;stroke-width:0.26458332px;stroke-linecap:butt;stroke-linejoin:miter;stroke-opacity:1" />
    <path
       inkscape:connector-curvature="0"
       id="path14304"
       d="m 2.42222,184.38634 3.83698,-5.08942 4.86431,-3.60145 11.92691,-4.5369 1.13378,-5.22692 -6.87917,-1.52135 0.66146,-1.19063 v -4.69634 l 5.4901,-3.4396 -2.84427,3.96875 0.1323,1.78594 3.37343,2.91042 16.93333,15.08125 4.89479,3.10885 h 2.11667 l -0.33073,-1.91823 2.4474,3.24115 -0.16372,2.21414 -1.35764,0.0348 -8.40052,1.25678 -2.74215,1.5201 -2.35107,-1.98312 -1.25677,-3.0427 -3.37344,-3.70417 -4.36563,-2.44739 h -3.175 l -3.40651,-1.02526 -3.14192,-0.26458 -5.35782,1.12447 -4.10104,3.20809 -2.35878,3.58174 z"
       style="fill:#882e1c;fill-opacity:1;stroke:#882e1c;stroke-width:0.26458332px;stroke-linecap:butt;stroke-linejoin:miter;stroke-opacity:1" />
    <path
       inkscape:connector-curvature="0"
       id="path14306"
       d="m 30.5342,179.55769 6.54843,2.77814 4.55301,4.2256 -1.37801,0.20616 -2.74215,1.5201 -2.35107,-1.98313 -1.25677,-3.0427 z"
       style="fill:#330301;fill-opacity:1;stroke:#330301;stroke-width:0.26458332px;stroke-linecap:butt;stroke-linejoin:miter;stroke-opacity:1"
       sodipodi:nodetypes="ccccccccc" />
    <path
       inkscape:connector-curvature="0"
       id="path14308"
       d="m 11.12351,175.69547 3.13881,-6.45653 3.04271,-4.82864 6.87917,1.52135 -1.13378,5.22692 z"
       style="fill:#a94126;fill-opacity:1;stroke:#a94126;stroke-width:0.26458332px;stroke-linecap:butt;stroke-linejoin:miter;stroke-opacity:1" />
    <path
       inkscape:connector-curvature="0"
       id="path14310"
       d="m 47.73211,180.02071 -1.62302,-3.99784 0.56127,-1.49671 1.40316,-1.30961 -1.77734,-2.24507 1.30962,-1.77734 3.74177,-1.49672 -1.12253,4.2095 -0.0936,6.73519 0.25725,2.80633 -0.20924,1.81342 z"
       style="fill:#1d0101;fill-opacity:1;stroke:none;stroke-width:0.26458332px;stroke-linecap:butt;stroke-linejoin:miter;stroke-opacity:1" />
    <path
       inkscape:connector-curvature="0"
       id="path14312"
       d="m 51.34757,167.69742 0.0226,-5.53608 0.72761,-1.52136 -0.26459,-2.3151 -7.14374,-6.35 -3.77032,-2.51354 0.0662,-0.59531 6.74687,0.0661 4.23334,2.05053 0.33072,-1.91824 -1.71979,-2.71198 -4.89479,-4.96093 -5.15937,-3.9026 -3.43959,-3.63803 -0.52916,-3.30728 -1.52135,3.175 0.59531,1.85208 4.23333,4.43176 4.7625,3.83647 2.64583,2.84426 -19.51301,0.92606 0.26458,-1.52137 3.57187,-1.91823 0.26459,-2.11665 -4.82865,3.24113 -1.98437,2.57969 v 2.91043 l -1.5875,4.29946 1.5875,0.1323 3.50573,-3.3073 1.98437,-0.0661 0.99219,-2.11667 h 6.87916 l 6.94531,5.55625 0.26458,1.32292 -0.39687,0.52918 3.24115,2.84426 v 0.99218 l -1.32292,1.32292 -1.78594,-0.13229 -2.91042,4.63021 3.85574,4.17993 1.30962,-1.77734 z"
       style="fill:#bd5337;fill-opacity:1;stroke:#bd5337;stroke-width:0.26458332px;stroke-linecap:butt;stroke-linejoin:miter;stroke-opacity:1" />
    <path
       inkscape:connector-curvature="0"
       id="path14314"
       d="m 23.45659,155.08373 -2.84427,3.96875 0.1323,1.78594 20.30676,17.99167 4.89479,3.10885 h 2.11667 l -0.33073,-1.91823 -1.62302,-3.99784 0.56127,-1.49671 1.40316,-1.30961 -1.77734,-2.24507 -3.85574,-4.17993 2.91042,-4.63021 0.52917,-1.52136 -2.4474,-2.51354 0.0662,-1.05833 -1.91823,-2.24896 -4.43177,-3.175 -6.61458,0.19844 -1.98437,0.0661 -3.50573,3.3073 z"
       style="fill:#be4c2e;fill-opacity:1;stroke:#be4c2e;stroke-width:0.26458332px;stroke-linecap:butt;stroke-linejoin:miter;stroke-opacity:1" />
    <path
       inkscape:connector-curvature="0"
       id="path14316"
       d="m 30.5342,151.84259 0.99219,-2.11667 h 6.87916 l 6.94531,5.55625 0.26458,1.32292 -0.39687,0.52918 3.24114,2.84426 v 0.99218 l -1.32291,1.32292 -1.78594,-0.13229 0.52917,-1.52136 -2.4474,-2.51354 0.0662,-1.05833 -1.91823,-2.24896 -4.43177,-3.175 z"
       style="fill:#4a0201;fill-opacity:1;stroke:none;stroke-width:0.26458332px;stroke-linecap:butt;stroke-linejoin:miter;stroke-opacity:1" />
    <path
       inkscape:connector-curvature="0"
       id="path14318"
       d="m 51.83315,158.32488 -0.43881,-5.12683 0.57111,-2.21539 -4.23334,-2.05053 -6.74687,-0.0661 -0.0661,0.59531 3.77031,2.51354 z"
       style="fill:#511205;fill-opacity:1;stroke:none;stroke-width:0.26458332px;stroke-linecap:butt;stroke-linejoin:miter;stroke-opacity:1" />
    <path
       inkscape:connector-curvature="0"
       id="path14320"
       d="m 31.59253,144.16963 -0.53263,3.2828 -3.30382,0.1568 0.26458,-1.52137 z"
       style="fill:#c15937;fill-opacity:1;stroke:none;stroke-width:0.26458332px;stroke-linecap:butt;stroke-linejoin:miter;stroke-opacity:1" />
    <path
       inkscape:connector-curvature="0"
       id="path14322"
       d="m 31.0599,147.45243 0.79722,-5.39945 0.50096,-4.57037 0.70158,-1.07576 0.98221,-4.11595 0.99025,1.4277 0.59531,1.85208 4.23333,4.43176 4.7625,3.83647 2.64583,2.84426 z"
       style="fill:#932c15;fill-opacity:1;stroke:none;stroke-width:0.26458332px;stroke-linecap:butt;stroke-linejoin:miter;stroke-opacity:1" />
    <path
       inkscape:connector-curvature="0"
       id="path14324"
       d="m 36.55347,130.5436 2.39948,-1.43321 0.42095,3.50791 4.58367,3.22728 2.80633,3.22728 2.75956,3.32082 v -1.35638 l 1.30962,0.70158 0.74835,1.82411 0.71474,5.50143 -1.71979,-2.71198 -4.89479,-4.96093 -5.15938,-3.9026 -3.43958,-3.63803 z"
       style="fill:#2c0503;fill-opacity:1;stroke:#2c0503;stroke-width:0.26458332px;stroke-linecap:butt;stroke-linejoin:miter;stroke-opacity:1" />
    <path
       sodipodi:nodetypes="cccccccccccccccccccccccccccccccccccccccccc"
       inkscape:connector-curvature="0"
       id="path14336"
       d="m 56.00034,103.22541 2.38125,-1.65365 4.7625,-1.653646 8.20208,-0.46302 c 1.04887,14.173706 0,0 1.04887,14.173706 l 0.56127,3.64823 -2.15152,5.0514 -1.40317,8.88671 3.46114,7.67064 0.0709,2.63802 -0.19844,1.91824 -3.57188,7.47447 -0.46302,3.24115 0.42982,1.96997 0.36393,1.66801 1.40425,4.85039 -1.02899,5.8933 -0.8419,4.77076 1.02899,3.74177 1.87089,4.58367 2.33861,1.87089 0.0935,3.46114 -1.28493,1.76237 -1.39765,-0.97015 -5.55625,-1.52136 -7.14375,-0.99219 -7.11352,0.1824 -1.84759,0.0474 0.37295,-4.02757 -0.25725,-2.80633 0.0935,-6.73519 1.12253,-4.2095 0.0226,-5.53608 0.72761,-1.52135 -0.7034,-7.44193 0.90183,-4.13364 -0.71474,-5.50143 1.54348,-4.30304 1.8171,-2.96163 1.52921,-10.74438 0.85204,-10.29 z"
       style="fill:#c4643e;fill-opacity:1;stroke:#c4643e;stroke-width:0.26458332px;stroke-linecap:butt;stroke-linejoin:miter;stroke-opacity:1" />
    <path
       inkscape:connector-curvature="0"
       id="path14328"
       d="m 54.54513,152.50405 0.52917,1.45522 3.175,0.0661 6.81302,2.64583 4.43177,1.12448 -0.79375,-3.63801 0.46302,-3.24115 3.57188,-7.47447 0.19843,-1.91824 -10.18646,-3.50573 -4.23333,-0.66146 -1.78594,-0.33073 0.33073,2.38125 -1.25677,6.21772 -0.46302,5.29166 z"
       style="fill:#7b2111;fill-opacity:1;stroke:none;stroke-width:0.26458332px;stroke-linecap:butt;stroke-linejoin:miter;stroke-opacity:1" />
    <path
       inkscape:connector-curvature="0"
       id="path14330"
       d="m 54.54513,152.50405 0.79375,-1.58754 0.40527,1.60335 0.72497,0.39756 2.50232,-0.0468 5.29713,2.27923 4.13411,1.09141 0.72748,-0.11363 0.36393,1.66801 -4.43177,-1.12448 -6.81302,-2.64583 -3.175,-0.0661 z"
       style="fill:#6d2b29;fill-opacity:1;stroke:none;stroke-width:0.26458332px;stroke-linecap:butt;stroke-linejoin:miter;stroke-opacity:1" />
    <path
       inkscape:connector-curvature="0"
       id="path14332"
       d="m 56.72794,137.02588 0.33073,2.38125 4.69636,0.33078 10.98021,3.70413 0.19843,-1.91824 -10.18646,-3.50573 z"
       style="fill:#893128;fill-opacity:1;stroke:none;stroke-width:0.26458332px;stroke-linecap:butt;stroke-linejoin:miter;stroke-opacity:1" />
    <path
       inkscape:connector-curvature="0"
       id="path14334"
       d="m 34.04187,132.2909 0.23386,-2.66601 4.39658,-3.97563 2.29184,-5.47235 4.11595,-4.86431 4.58368,-3.74177 3.36759,-3.64823 0.93544,16.93152 -0.8419,14.40583 -1.54348,4.30304 -0.74835,-1.82411 -1.30962,-0.70158 v 1.35638 l -5.56589,-6.5481 -4.58367,-3.22728 -0.42095,-3.50791 -2.39948,1.43321 -1.52135,3.175 z"
       style="fill:#af4629;fill-opacity:1;stroke:none;stroke-width:0.26458332px;stroke-linecap:butt;stroke-linejoin:miter;stroke-opacity:1" />
    <path
       inkscape:connector-curvature="0"
       id="path14338"
       d="m 53.03137,107.9226 1.51376,-3.63886 1.45521,-1.05833 1.32292,12.03853 -0.8599,10.38491 -1.52135,10.64947 -1.8171,2.96163 0.8419,-14.40583 z"
       style="fill:#9b3821;fill-opacity:1;stroke:#9b3821;stroke-width:0.26458332px;stroke-linecap:butt;stroke-linejoin:miter;stroke-opacity:1" />
    <path
       inkscape:connector-curvature="0"
       id="path14340"
       d="m 56.12151,153.98106 -0.7983,8.2908 0.28063,5.1917 -2.31548,6.40559 -0.92604,4.89479 -0.0661,2.24896 5.75469,2.77813 6.77371,2.26737 1.29608,0.18002 5.55625,1.52136 1.39764,0.97015 1.28492,-1.76237 -0.0935,-3.46114 -2.33861,-1.87089 -1.87088,-4.58367 -1.02899,-3.74177 1.87089,-10.66406 -1.40425,-4.85039 -4.43177,-1.12445 -6.81302,-2.64586 z"
       style="fill:#601507;fill-opacity:1;stroke:#601507;stroke-width:0.26458332px;stroke-linecap:butt;stroke-linejoin:miter;stroke-opacity:1" />
    <path
       inkscape:connector-curvature="0"
       id="path14342"
       d="m 52.29618,181.0129 5.75469,2.77813 6.77371,2.26737 -5.84768,-0.81217 -7.5737,-3.24114 -0.29765,-0.92604 0.19844,-1.2237 1.05833,-1.09141 z"
       style="fill:#6d2b29;fill-opacity:1;stroke:none;stroke-width:0.26458332px;stroke-linecap:butt;stroke-linejoin:miter;stroke-opacity:1" />
    <path
       inkscape:connector-curvature="0"
       id="path14344"
       d="m 111.89357,139.60561 -2.62917,-8.4483 -3.94174,-9.01605 -5.93065,-6.14977 -1.58751,-4.16713 -0.52916,-4.56406 -1.40067,-1.48921 -0.46772,6.82873 2.80633,7.95126 5.42557,4.11596 4.02138,6.4719 z"
       style="fill:#c55c4c;fill-opacity:1;stroke:none;stroke-width:0.26458332px;stroke-linecap:butt;stroke-linejoin:miter;stroke-opacity:1" />
    <path
       inkscape:connector-curvature="0"
       id="path14346"
       d="m 98.21328,120.55108 0.98029,7.54516 3.0427,3.70417 0.66146,4.10103 -1.32291,3.43959 1.85208,2.64583 v 2.24896 l 2.77812,5.95312 2.01751,4.88 3.53664,2.9911 0.16748,-2.4802 0.66146,-6.38307 -0.69454,-9.59116 -4.23334,-8.46667 -4.02138,-6.4719 z"
       style="fill:#49140c;fill-opacity:1;stroke:#49140c;stroke-width:0.26458332px;stroke-linecap:butt;stroke-linejoin:miter;stroke-opacity:1" />
    <path
       inkscape:connector-curvature="0"
       id="path14348"
       d="m 109.1112,157.40755 2.58404,2.05227 -0.46313,2.89996 -1.1387,-2.1459 z"
       style="fill:#49140c;fill-opacity:1;stroke:#49140c;stroke-width:0.26458332px;stroke-linecap:butt;stroke-linejoin:miter;stroke-opacity:1" />
    <path
       sodipodi:nodetypes="cccccccccc"
       inkscape:connector-curvature="0"
       id="path14350"
       d="m 110.83523,147.80769 1.48414,-2.32199 -0.4258,-5.88009 -4.23334,-8.46667 -4.02138,-6.4719 -5.42557,-4.11596 0.98029,7.54516 3.0427,3.70417 0.66146,4.10103 c 7.9375,11.90625 0,0 7.9375,11.90625 z"
       style="fill:#270704;fill-opacity:1;stroke:#270704;stroke-width:0.26458332px;stroke-linecap:butt;stroke-linejoin:miter;stroke-opacity:1" />
    <path
       inkscape:connector-curvature="0"
       d="m 111.96697,120.72022 c 0.23529,-0.14927 0.18408,-0.12106 0.46383,-0.2761 0.56383,-0.31248 1.56998,-0.85149 1.32509,-0.69986 -0.63679,0.39428 -1.28459,0.77181 -1.94597,1.12328 -0.56823,0.30197 1.11088,-0.64978 1.66631,-0.97468 5.79934,-3.5077 11.90994,-6.45283 18.08932,-9.21897 4.01241,-1.78074 8.09005,-3.43098 12.258,-4.81337 0.59634,-0.15357 1.56202,-0.56446 2.21216,-0.34647 0.80938,0.2714 1.16608,1.22577 1.52438,1.89825 0.98881,2.27869 1.6816,4.73375 1.90432,7.21612 0.058,0.64684 0.05,1.29792 0.0751,1.94688 -0.025,2.81341 -0.35322,5.63314 -1.34898,8.28139 -0.59303,1.57719 -1.12979,2.47994 -1.91595,3.97161 -2.03038,3.45114 -4.94583,6.20344 -8.134,8.57013 -1.97996,1.21208 -3.92142,2.58345 -6.15193,3.28173 -0.71778,0.2247 -1.44839,0.34662 -2.19105,0.44613 -1.04705,-0.0513 -2.06412,-0.43681 -2.97996,-0.93245 -0.29141,-0.19749 -0.55994,-0.41424 -0.8105,-0.66013 0,0 3.31483,-2.03486 3.31483,-2.03486 v 0 c 0.2209,0.21839 0.45423,0.41958 0.71632,0.58865 0.86319,0.45612 1.81544,0.80676 2.80455,0.76224 0.70109,-0.0985 1.38439,-0.22176 2.05878,-0.44733 0.30158,-0.10088 1.13995,-0.5378 0.8918,-0.33891 -0.44453,0.35626 -3.88006,2.34361 -0.96414,0.64444 3.29066,-2.30369 6.2972,-5.03369 8.3878,-8.5047 0.75476,-1.42248 1.33016,-2.4026 1.91102,-3.90411 1.00493,-2.59774 1.38282,-5.37485 1.35634,-8.14869 -0.0363,-0.62968 -0.0437,-1.26168 -0.10892,-1.88902 -0.25195,-2.42456 -0.93234,-4.82097 -2.01566,-7.00215 -0.2322,-0.37338 -0.56962,-1.02251 -0.95886,-1.31648 -0.68623,-0.5183 -1.74691,-0.009 -2.44577,0.14066 -4.02906,1.23964 -7.95201,2.80415 -11.80592,4.50725 -2.82103,1.27786 -5.61675,2.58687 -8.38353,3.97897 -7.49317,3.77018 2.5306,-1.26814 -4.93661,2.58587 -0.29769,0.15365 0.57959,-0.33616 0.86939,-0.50424 -2.57275,1.55469 -5.17835,3.05439 -7.80016,4.52352 0,0 3.06862,-2.4546 3.06862,-2.4546 z"
       id="path14352"
       style="opacity:0;fill:#00ffff;fill-opacity:1;stroke:none;stroke-width:1.69333339;stroke-linecap:round;stroke-linejoin:round;stroke-miterlimit:4;stroke-dasharray:none;stroke-opacity:1" />
    <path
       inkscape:connector-curvature="0"
       id="path14354"
       d="m 129.09148,69.491034 -0.39687,9.12812 -0.13229,15.21354 0.19843,13.493706 -2.51354,4.8948 -3.37344,3.30729 -3.70416,1.32291 -5.95368,0.0992 -1.98382,0.0331 -2.77813,-0.52916 -5.91084,-3.46499 10.40876,0.62075 3.37344,-2.77813 1.38906,-2.97656 -6.48229,-6.01927 -0.19844,-2.645826 1.78594,-2.84427 -0.66146,-2.64584 -3.96875,-2.51354 -0.0661,-3.30729 2.97656,0.19844 2.57969,-0.46302 3.63802,-2.05053 5.49011,-6.68072 z"
       style="fill:#f1cdb5;fill-opacity:1;stroke:#f1cdb5;stroke-width:0.26458332px;stroke-linecap:butt;stroke-linejoin:miter;stroke-opacity:1" />
    <path
       inkscape:connector-curvature="0"
       id="path14356"
       d="m 102.54314,112.98955 5.91084,3.46499 2.77813,0.52916 7.9375,-0.1323 3.70416,-1.32291 3.37344,-3.30729 2.51354,-4.8948 -0.17898,-12.171076 -10.86737,12.700286 -1.38907,2.97656 -3.37343,2.77813 z"
       style="fill:#efc2ae;fill-opacity:1;stroke:#efc2ae;stroke-width:0.26458332px;stroke-linecap:butt;stroke-linejoin:miter;stroke-opacity:1" />
    <path
       inkscape:connector-curvature="0"
       id="path14358"
       d="m 108.12325,87.879574 -3.73604,-0.9109 -8.88671,-6.92228 1.40316,4.95785 0.74836,7.01582 0.48322,15.306336 0.7276,3.50573 3.6803,2.15742 10.40876,0.62075 3.37343,-2.77813 1.38907,-2.97656 -6.48229,-6.01927 -0.19844,-2.645826 1.78594,-2.84427 -0.66146,-2.64584 -3.96875,-2.51354 z"
       style="fill:#dea48e;fill-opacity:1;stroke:#dea48e;stroke-width:0.26458332px;stroke-linecap:butt;stroke-linejoin:miter;stroke-opacity:1" />
    <path
       inkscape:connector-curvature="0"
       id="path14360"
       d="m 95.5005,80.046394 8.88671,6.92228 3.73604,0.9109 0.0661,3.30729 3.96875,2.51354 0.66146,2.64584 -1.78594,2.84427 0.19844,2.645826 -7.6868,-3.081086 -3.92886,-5.05139 0.46772,4.8643 2.33861,2.525696 -0.28064,4.2095 -1.59025,1.6838 -2.41666,0.33924 -0.48321,-15.306336 -0.74836,-7.01582 z"
       style="fill:#d28365;fill-opacity:1;stroke:#d28365;stroke-width:0.26458332px;stroke-linecap:butt;stroke-linejoin:miter;stroke-opacity:1" />
    <path
       id="path14362"
       d="m 125.06072,42.441494 -1.30999,4.20956 -1.96423,2.15129 -1.49654,1.49707 -5.05137,1.30948 11.78635,4.8643 v 9.54154 l 2.06655,3.47627 2.23655,-4.59868 0.74828,-8.79326 -1.45004,-2.90009 0.60823,-2.33836 -2.52595,-6.08024 z"
       style="fill:#efc2ae;fill-opacity:1;stroke:none;stroke-width:0.26458332px;stroke-linecap:butt;stroke-linejoin:miter;stroke-opacity:1"
       inkscape:connector-curvature="0" />
    <path
       id="path14364"
       d="m 107.62716,48.083014 3.30833,4.64829 1.96422,1.77767 0.84181,1.02888 -0.35967,2.67529 -2.67891,2.34817 -1.5875,0.52917 -0.82682,0.8599 -0.56224,0.19843 -0.25218,1.87793 0.35088,1.52032 0.86507,-0.72502 11.01483,-1.66037 0.69608,0.20878 -0.39171,1.24126 -2.33887,3.64784 -1.02888,1.5906 4.88756,10.58954 5.071,-7.22437 2.49133,-3.72432 -2.06655,-3.47627 v -9.54154 l -11.78635,-4.8643 -2.61742,-0.44028 -2.3151,-1.05834 z"
       style="fill:#eebca9;fill-opacity:1;stroke:#eebca9;stroke-width:0.26458332px;stroke-linecap:butt;stroke-linejoin:miter;stroke-opacity:1"
       inkscape:connector-curvature="0" />
    <path
       inkscape:connector-curvature="0"
       id="path14366"
       d="m 125.06051,42.441564 0.26066,-4.89897 0.92604,-1.32291 1.12448,-0.33073 1.52136,0.46302 -0.52917,0.99219 1.45521,1.4552 0.85989,1.52136 0.13229,-1.78594 -0.66145,-0.99219 0.13229,-0.33073 1.52135,1.25677 0.39688,4.23334 0.19843,3.57187 -1.16434,4.58671 -2.5257,-6.08038 z"
       style="fill:#eec3a7;fill-opacity:1;stroke:#eec3a7;stroke-width:0.26458332px;stroke-linecap:butt;stroke-linejoin:miter;stroke-opacity:1" />
    <path
       inkscape:connector-curvature="0"
       id="path14368"
       d="m 132.07633,56.099044 2.43911,0.0305 1.52135,-0.92604 2.18282,-3.175 0.19843,-2.31511 -1.91822,-2.05052 -0.52917,1.71979 -1.45521,-0.46302 -0.7276,2.11667 -0.59532,-0.13229 v -2.18281 l -0.79375,-2.4474 -1.77238,6.92532 z"
       style="fill:#dea48e;fill-opacity:1;stroke:#dea48e;stroke-width:0.26458332px;stroke-linecap:butt;stroke-linejoin:miter;stroke-opacity:1" />
    <path
       inkscape:connector-curvature="0"
       id="path14370"
       d="m 132.39877,46.273814 -0.59531,-7.80518 1.28985,1.52136 0.52916,3.67109 -0.56224,0.13229 0.0992,0.62839 1.52136,0.49609 0.0992,0.3638 -1.5875,-0.0331 z"
       style="fill:#240d00;fill-opacity:1;stroke:none;stroke-width:0.26458332px;stroke-linecap:butt;stroke-linejoin:miter;stroke-opacity:1" />
    <path
       inkscape:connector-curvature="0"
       id="path14372"
       d="m 133.62247,43.661084 1.55443,0.56224 0.85989,0.8599 0.0662,1.42213 -1.05833,1.25677 -0.82682,0.0331 -0.0992,-0.59531 0.66147,-0.26458 0.46301,-0.82682 -1.42213,0.0331 -1.01727,-0.39069 0.38889,-0.5023 1.5875,0.0331 -0.0992,-0.3638 -1.52135,-0.49609 -0.0992,-0.6284 z"
       style="fill:#c4e8f8;fill-opacity:1;stroke:none;stroke-width:0.26458332px;stroke-linecap:butt;stroke-linejoin:miter;stroke-opacity:1" />
    <path
       inkscape:connector-curvature="0"
       id="path14374"
       d="m 136.49982,47.662874 -0.39683,-1.15752 -1.05833,1.25677 -0.82683,0.0331 -0.0992,-0.59531 0.66146,-0.26458 0.46302,-0.82682 -1.42213,0.0331 -1.01727,-0.39069 -0.40492,0.52292 0.79375,2.44737 v 2.18281 l 0.59531,0.13229 0.72761,-2.11667 1.45521,0.46302 z"
       style="fill:#663731;fill-opacity:1;stroke:#663731;stroke-width:0.26458332px;stroke-linecap:butt;stroke-linejoin:miter;stroke-opacity:1" />
    <path
       sodipodi:nodetypes="ccccccccccccccccccccc"
       inkscape:connector-curvature="0"
       id="path14376"
       d="m 116.6416,69.850154 -2.61948,2.52543 -3.18017,1.40353 -2.25567,0.20981 -2.57969,0.7276 -1.78594,-0.0662 -2.92023,-0.9648 -2.52595,-2.99361 -3.27421,7.29619 v 2.05828 l 7.50341,5.8446 1.38338,1.07745 3.73621,0.91106 2.97656,0.19844 2.57969,-0.46302 2.26859,-1.27848 v 0 -5.3e-4 l 1.36943,-0.77153 4.21163,-5.12475 z"
       style="fill:#eab0a1;fill-opacity:1;stroke:#eab0a1;stroke-width:0.26458332px;stroke-linecap:butt;stroke-linejoin:miter;stroke-opacity:1" />
    <path
       id="path14378"
       d="m 101.66835,49.907704 -1.42058,2.68356 -1.71566,2.61224 -4.29948,1.98438 -4.89479,0.59531 -3.30729,-2.38125 -2.24896,-3.175 0.59531,4.7625 1.71979,5.29167 0.79789,5.41724 1.44952,3.46128 3.63957,5.44205 3.51659,3.44475 v -2.05827 l 3.27421,-7.2962 -1.69757,-1.3994 -0.38499,-0.75085 1.31103,-1.00666 8.6062,-2.31562 1.21594,0.32763 -0.35088,-1.52032 0.25218,-1.87793 -1.52135,0.0661 -0.46302,-0.39687 -1.52136,0.0662 -2.01745,0.42995 -1.85208,-0.92604 -0.76068,-1.28985 0.12558,-1.21956 0.10593,-1.0294 1.25678,-1.65364 z"
       style="fill:#dea48e;fill-opacity:1;stroke:#dea48e;stroke-width:0.26458332px;stroke-linecap:butt;stroke-linejoin:miter;stroke-opacity:1"
       inkscape:connector-curvature="0" />
    <path
       inkscape:connector-curvature="0"
       id="path14380"
       d="m 100.31805,70.384004 2.3151,1.02526 3.83646,0.26458 3.73724,-0.62839 4.72942,-2.21588 3.07579,-3.00964 1.62287,-1.86317 0.63997,-0.18685 -0.26579,0.84166 -3.3676,5.23848 -2.61924,2.5257 -3.1805,1.40317 -2.2555,0.21002 -2.57968,0.72761 -1.78594,-0.0661 -2.9204,-0.96508 -2.5257,-2.99342 -1.69765,-1.39936 1.0418,-0.24805 z"
       style="fill:#c65d66;fill-opacity:1;stroke:none;stroke-width:0.26458332px;stroke-linecap:butt;stroke-linejoin:miter;stroke-opacity:1" />
    <path
       inkscape:connector-curvature="0"
       id="path14382"
       d="m 98.00281,68.400084 0.11589,0.64446 2.19935,1.33946 2.3151,1.02526 3.83646,0.26458 3.73724,-0.62839 4.72942,-2.21588 3.07578,-3.00964 1.62288,-1.86317 -2.15152,0.53788 -2.82972,0.23386 -4.46673,1.44994 -1.91766,1.19269 -2.99342,-0.0702 -2.10475,0.63142 -4.74737,0.14032 z"
       style="fill:#440b05;fill-opacity:1;stroke:none;stroke-width:0.26458332px;stroke-linecap:butt;stroke-linejoin:miter;stroke-opacity:1" />
    <path
       inkscape:connector-curvature="0"
       id="path14384"
       d="m 97.0769,69.292594 -0.38506,-0.75087 1.31097,-1.00689 5.7062,-1.59025 2.89987,-0.72497 1.21608,0.3274 0.86529,-0.72497 6.67597,-1.21799 4.33887,-0.44242 0.6959,0.20898 -0.12609,0.3993 -0.63997,0.18685 -2.15152,0.53788 -2.82971,0.23386 -4.46674,1.44994 -1.91766,1.19269 -2.99342,-0.0702 -2.10475,0.63142 -4.74737,0.14032 -0.42095,0.32741 0.11589,0.64446 z"
       style="fill:#a9393b;fill-opacity:1;stroke:none;stroke-width:0.26458332px;stroke-linecap:butt;stroke-linejoin:miter;stroke-opacity:1"
       sodipodi:nodetypes="cccccccccccccccccccccc" />
    <path
       inkscape:connector-curvature="0"
       id="path14386"
       d="m 108.2693,67.371134 1.91766,-1.19269 1.24359,0.20373 -0.0331,3.68763 -1.38907,0.64493 -1.32291,0.0827 z"
       style="fill:#f6f6f6;fill-opacity:1;stroke:none;stroke-width:0.26458332px;stroke-linecap:butt;stroke-linejoin:miter;stroke-opacity:1" />
    <path
       inkscape:connector-curvature="0"
       id="path14388"
       d="m 111.43055,66.382174 0.96203,-0.9197 1.08849,0.44015 0.25862,3.48758 -1.29187,0.60529 -1.05034,0.0743 z"
       style="fill:#f4e6e2;fill-opacity:1;stroke:none;stroke-width:0.26458332px;stroke-linecap:butt;stroke-linejoin:miter;stroke-opacity:1" />
    <path
       inkscape:connector-curvature="0"
       id="path14390"
       d="m 113.48107,65.902624 0.51279,-0.95994 0.65983,-0.21418 0.70634,-0.0584 v 3.26648 l -0.53094,0.63891 -1.14219,0.10281 z"
       style="fill:#f3e4e0;fill-opacity:1;stroke:none;stroke-width:0.26458332px;stroke-linecap:butt;stroke-linejoin:miter;stroke-opacity:1" />
    <path
       inkscape:connector-curvature="0"
       id="path14392"
       d="m 115.36003,65.196224 0.57694,-0.57378 0.71624,0.28146 0.0591,2.18779 -0.55002,0.53819 -0.80229,-0.0249 z"
       style="fill:#f2e1dc;fill-opacity:1;stroke:none;stroke-width:0.26458332px;stroke-linecap:butt;stroke-linejoin:miter;stroke-opacity:1" />
    <path
       inkscape:connector-curvature="0"
       id="path14394"
       d="m 116.65321,64.903904 0.36959,-0.3712 0.3019,-0.025 0.0259,1.54369 -0.652,0.53182 z"
       style="fill:#f2e1dc;fill-opacity:1;stroke:none;stroke-width:0.26458332px;stroke-linecap:butt;stroke-linejoin:miter;stroke-opacity:1" />
    <path
       inkscape:connector-curvature="0"
       id="path14396"
       d="m 108.6855,70.797434 -0.87223,0.39732 -1.90596,0.10524 -0.1754,-3.27405 0.86483,-0.69404 1.67256,0.0392 z"
       style="fill:#f6f6f6;fill-opacity:1;stroke:none;stroke-width:0.26458332px;stroke-linecap:butt;stroke-linejoin:miter;stroke-opacity:1" />
    <path
       inkscape:connector-curvature="0"
       id="path14398"
       d="m 105.73191,68.025944 -0.82078,-0.61559 -1.37098,0.41129 0.087,3.32634 1.14592,0.1637 1.13422,-0.0117 z"
       style="fill:#f4e6e2;fill-opacity:1;stroke:none;stroke-width:0.26458332px;stroke-linecap:butt;stroke-linejoin:miter;stroke-opacity:1" />
    <path
       inkscape:connector-curvature="0"
       id="path14400"
       d="m 103.55704,68.467524 -0.97178,-0.51785 -0.56005,0.49722 0.0351,2.32691 0.76004,0.3391 0.80682,0.0351 z"
       style="fill:#f3e4e0;fill-opacity:1;stroke:none;stroke-width:0.26458332px;stroke-linecap:butt;stroke-linejoin:miter;stroke-opacity:1" />
    <path
       inkscape:connector-curvature="0"
       id="path14402"
       d="m 102.02521,68.446894 -0.46735,-0.46686 -0.51577,0.0152 -0.0342,2.36927 1.05238,0.40925 z"
       style="fill:#f2e1dc;fill-opacity:1;stroke:none;stroke-width:0.26458332px;stroke-linecap:butt;stroke-linejoin:miter;stroke-opacity:1" />
    <path
       inkscape:connector-curvature="0"
       id="path14404"
       d="m 101.03623,68.401544 -0.53293,-0.39034 -0.25633,0.008 -0.17449,0.2761 0.0234,1.60194 0.58465,0.31572 0.33082,-0.085 z"
       style="fill:#f2e1dc;fill-opacity:1;stroke:none;stroke-width:0.26458332px;stroke-linecap:butt;stroke-linejoin:miter;stroke-opacity:1" />
    <path
       inkscape:connector-curvature="0"
       id="path14406"
       d="m 100.07248,68.295304 -0.45039,-0.25805 -0.14044,0.004 -0.0235,1.58192 0.63771,0.27392 z"
       style="fill:#f2e1dc;fill-opacity:1;stroke:none;stroke-width:0.26458332px;stroke-linecap:butt;stroke-linejoin:miter;stroke-opacity:1" />
    <path
       sodipodi:nodetypes="cccccc"
       inkscape:connector-curvature="0"
       id="path14408"
       d="m 109.11544,61.090504 0.72761,-1.98437 1.91822,-0.39687 0.52917,0.46302 -1.5875,1.38906 z"
       style="fill:#813221;fill-opacity:1;stroke:none;stroke-width:0.26458332px;stroke-linecap:butt;stroke-linejoin:miter;stroke-opacity:1" />
    <path
       inkscape:connector-curvature="0"
       id="path14410"
       d="m 108.28862,61.950404 0.82682,-0.8599 0.72761,-1.98437 1.91822,-0.39687 0.52917,0.46302 1.09141,-0.95912 0.35979,-2.67539 -0.8419,-1.02899 -1.96443,-1.77734 -3.93654,-5.53156 -1.4552,-1.85208 -1.25677,-0.46302 -0.8599,0.26458 2.51354,9.92188 0.8599,0.69453 0.95911,2.38125 v 2.05052 l -0.0331,1.9513 z"
       style="fill:#f1c3b6;fill-opacity:1;stroke:#f1c3b6;stroke-width:0.26458332px;stroke-linecap:butt;stroke-linejoin:miter;stroke-opacity:1" />
    <path
       inkscape:connector-curvature="0"
       id="path14412"
       d="m 105.54357,45.347804 -0.66526,-0.96519 -1.07575,-0.79513 -0.88867,0.14032 -0.60804,1.19269 -0.65482,5.12155 -0.57231,6.15368 -1.25677,1.65364 -0.23151,2.24896 0.76068,1.28984 1.85208,0.92604 -0.23151,-0.92604 1.12448,-0.19843 1.12448,0.69453 1.52135,-0.0662 0.46302,0.39688 1.52136,-0.0661 0.0331,-4.00182 -0.95911,-2.38125 -0.8599,-0.69453 -2.51354,-9.92188 0.8599,-0.26458 z"
       style="fill:#eab0a1;fill-opacity:1;stroke:#eab0a1;stroke-width:0.26458332px;stroke-linecap:butt;stroke-linejoin:miter;stroke-opacity:1" />
    <path
       inkscape:connector-curvature="0"
       id="path14414"
       d="m 102.2032,62.314204 -0.23151,-0.92604 1.12448,-0.19843 1.12448,0.69453 -1.02526,0.3638 z"
       style="fill:#511004;fill-opacity:1;stroke:none;stroke-width:0.26458332px;stroke-linecap:butt;stroke-linejoin:miter;stroke-opacity:1" />
    <path
       inkscape:connector-curvature="0"
       id="path14416"
       d="m 79.34982,45.215514 0.39687,2.51354 1.32292,0.85989 h 1.05833 l 1.65365,3.63803 2.24896,3.175 3.30729,2.38125 4.89479,-0.59532 4.29948,-1.98437 3.13613,-5.29608 0.63761,-4.98696 0.60804,-1.19269 0.88867,-0.14032 1.07575,0.79513 2.74885,3.70039 2.67891,2.02726 2.3151,1.05834 2.61741,0.44028 5.05117,-1.30959 3.46113,-3.64823 1.30963,-4.2095 0.26066,-4.89897 0.92604,-1.32291 0.6608,-0.981031 -0.44434,-2.43215 -1.21607,-0.3274 -4.44336,0.14031 -7.34323,1.49671 -3.83532,1.590251 -3.88209,3.08696 -1.12253,1.26285 -3.41437,0.70158 -2.10475,-0.0468 -2.80633,-0.46772 h -4.44335 l -5.28526,1.40317 -7.01582,2.33861 z"
       style="fill:#240d00;fill-opacity:1;stroke:#240d00;stroke-width:0.26458332px;stroke-linecap:butt;stroke-linejoin:miter;stroke-opacity:1" />
    <path
       inkscape:connector-curvature="0"
       id="path14418"
       d="m 83.85423,48.802584 -0.0468,-3.32083 1.59025,-2.05797 6.7352,-1.91766 4.63044,0.0468 1.87088,1.16931 1.54349,2.99341 -0.5145,4.02241 -0.42095,2.24507 -1.4967,2.52569 -3.21528,1.62079 -4.56406,0.62838 -1.9513,-0.92604 -2.64584,-3.07578 z"
       style="fill:#dea48e;fill-opacity:1;stroke:none;stroke-width:0.26458332px;stroke-linecap:butt;stroke-linejoin:miter;stroke-opacity:1" />
    <path
       inkscape:connector-curvature="0"
       id="path14420"
       d="m 106.89956,44.057954 -0.0331,-3.86953 2.19794,-2.7047 2.47892,-1.54349 4.58368,-1.028981 4.91107,-0.32741 2.05798,1.262851 0.79512,2.75956 -0.0935,3.92886 -1.07577,3.64823 -2.78294,3.06357 -4.51352,1.21608 -2.36199,-0.44434 -2.19829,-0.98221 -2.21273,-1.63812 z"
       style="fill:#e8bba4;fill-opacity:1;stroke:none;stroke-width:0.26458332px;stroke-linecap:butt;stroke-linejoin:miter;stroke-opacity:1" />
    <path
       sodipodi:nodetypes="ccccccccccc"
       inkscape:connector-curvature="0"
       id="path14422"
       d="m 126.24721,36.219684 1.12448,-0.33073 1.52136,0.46302 1.38906,0.85989 1.52135,1.25677 0.17933,-1.45263 -0.65481,-3.437761 -1.70719,-0.70158 -3.15712,-0.0702 0.44434,2.43215 -0.6608,0.981031"
       style="fill:#40404d;fill-opacity:1;stroke:#40404d;stroke-width:0.26458332px;stroke-linecap:butt;stroke-linejoin:miter;stroke-opacity:1" />
    <path
       inkscape:connector-curvature="0"
       id="path14426"
       d="m 75.01429,202.49597 -1.28687,4.90918 4.16719,1.12443 1.91823,0.59531 16.40417,-0.0313 5.1263,-7.97243 -0.26459,-1.2236 2.93431,-8.15922 0.37418,-1.68386 1.12253,-2.71272 2.15152,-6.54817 -1.58005,-2.28738 -1.83432,-2.90433 -1.94109,-2.40326 -1.00555,-1.24497 -25.7247,19.69119 z"
       style="fill:#52160c;fill-opacity:1;stroke:none;stroke-width:0.26458332px;stroke-linecap:butt;stroke-linejoin:miter;stroke-opacity:1" />
    <path
       style="fill:#52160c;fill-opacity:1;stroke:#52160c;stroke-width:0.26458332px;stroke-linecap:butt;stroke-linejoin:miter;stroke-opacity:1"
       d="m 105.80821,173.20769 5.42434,-10.84796 -2.64954,16.12034 z"
       id="path3590"
       inkscape:connector-curvature="0"
       sodipodi:nodetypes="cccc" />
    <path
       inkscape:connector-curvature="0"
       id="path14428"
       d="m 103.82925,15.260026 -1.12995,-4.109617 0.85989,-2.645832 0.19844,-2.248958 v -1.5875 L 101.1118,2.617598 96.94461,2.41916 93.1743,4.072806 l -6.08542,4.431771 -4.49792,5.357811 -3.50572,3.836459 -5.75469,11.641666 -2.57969,7.672921 0.33073,4.23333 -0.26458,7.9375 v 2.71198 l -2.18282,3.63802 -0.33073,4.56406 0.33073,2.84427 -1.38906,6.01927 -1.12448,6.28385 0.66146,7.40834 0.39688,4.10104 0.13229,6.81302 4.03489,5.88698 1.61014,17.821936 -2.15152,5.0514 -1.40317,8.88671 3.46114,7.67064 0.0709,2.63802 -0.19844,1.91824 -3.57188,7.47447 -0.46302,3.24115 0.42983,1.96997 0.36393,1.66804 1.40424,4.85036 -1.87089,10.66406 1.029,3.74177 1.87088,4.58367 2.33861,1.87089 0.0935,3.46114 -1.28493,1.76237 1.41355,0.9812 1.08746,1.93369 -0.56127,10.85115 -0.69695,2.65874 1.98977,-2.18139 0.33073,-3.83646 0.72761,-3.50573 1.71979,1.98437 -0.26459,2.11667 -1.85208,3.24115 1.25677,-0.4961 -0.49609,1.71981 0.62838,1.25677 1.45521,0.46302 0.82683,-0.23151 0.0331,-0.39688 -1.15756,-0.23151 -0.56224,-0.76067 0.19844,-0.89297 0.95912,-0.9922 1.12448,-1.65365 0.0661,-1.38906 0.82683,1.5875 1.02526,0.79375 1.65364,0.7276 1.50482,0.29766 1.25677,-0.28112 0.26458,-0.46302 -0.29765,-0.33073 -1.5875,0.0496 -1.27331,-0.76068 -0.82682,-1.75286 -0.24805,-2.31511 0.53518,-2.35293 1.68379,-1.3564 1.59026,1.80073 2.47892,1.54348 2.45964,0.79507 1.88515,1.85208 0.59532,1.45521 -0.0992,1.25677 -0.59531,0.56224 -0.62839,-0.26458 -0.42995,0.0661 -0.16536,0.42994 0.3638,0.59533 1.25677,0.33073 1.2237,-0.49609 0.92604,-1.42215 0.3638,-1.12448 -0.3638,-1.81901 -0.99219,-1.75287 c 0,0 -1.55442,-3.10885 -1.55442,-3.27422 0,-0.16536 -0.26459,-2.38125 -0.26459,-2.38125 l 1.38906,-2.61276 0.99219,-1.02526 0.52917,3.77032 -0.49609,4.00182 -0.16537,1.55443 0.92604,1.88515 0.23151,1.45521 0.59532,-0.29766 1.22369,-3.9026 0.59532,-4.06797 0.0331,-2.84427 0.42994,-2.3151 1.00725,2.29336 2.8531,2.47893 1.30962,0.8419 0.0936,-1.49671 -1.02899,-1.02899 -1.91766,-1.66041 -1.12253,-2.57247 0.70158,-6.99244 -0.37418,-5.51911 -0.37417,-1.3564 2.94664,3.64823 2.24506,3.55469 1.16931,1.63702 4.67722,3.46114 4.8643,6.45456 0.46773,1.30962 0.37417,-1.75395 -0.88867,-1.3564 1.56687,0.79513 -1.66041,-3.55468 -3.81194,-3.22728 -2.08457,-2.2396 -1.71978,-0.92604 -1.52136,-2.24896 -2.11667,-4.29948 2.4474,2.84427 3.70416,-0.26458 0.005,-6.73356 0.30402,-1.80072 -0.67241,-1.55296 -0.3638,-3.34035 -1.1387,-2.14591 -1.87088,-5.14493 -2.00785,-4.85665 -2.78777,-5.97648 v -2.24896 l -1.85208,-2.64582 1.32291,-3.4396 -0.66146,-4.10104 -3.0427,-3.70416 -0.98029,-7.54516 -2.80633,-7.95127 0.46772,-6.82872 2.20397,-0.23715 -0.42662,-13.513876 -0.74836,-7.01582 -1.40316,-4.95785 -3.51683,-3.44469 -3.63932,-5.44202 -1.44993,-3.46115 -0.79773,-5.4174 -1.71979,-5.29166 -0.59531,-4.7625 -1.65365,-3.63803 h -1.05833 l -1.32292,-0.85989 -0.39687,-2.51354 0.20136,-1.23049 1.63244,-0.54415 1.84741,-0.6158 0.86997,-5.80907 1.40316,-2.245071 2.33861,-1.87088 2.38538,-2.5257 0.46772,-2.71279 1.26285,-3.46114 1.54348,-2.806332 2.8531,-0.654806 3.27406,-2.33861 2.3386,-2.946646 z"
       style="fill:#040404;fill-opacity:1;stroke:#040404;stroke-width:0.26458332px;stroke-linecap:butt;stroke-linejoin:miter;stroke-opacity:1" />
    <path
       inkscape:connector-curvature="0"
       id="path14432"
       d="m 185.24929,176.91186 2.24887,-3.63797 0.59531,-4.03489 3.10886,0.66145 2.97665,3.30724 z"
       style="fill:#a83c21;fill-opacity:1;stroke:none;stroke-width:0.26458332px;stroke-linecap:butt;stroke-linejoin:miter;stroke-opacity:1"
       sodipodi:nodetypes="cccccc" />
    <path
       inkscape:connector-curvature="0"
       id="path14430"
       d="m 103.82925,15.260026 -1.12995,-4.109617 0.85989,-2.645832 0.19844,-3.836458 3.15528,-1.608712 4.11595,-0.935445 10.28987,2.525697 4.77076,2.899875 2.43215,4.583673 2.05798,3.835315 2.89987,3.461141 3.3676,5.05139 1.77734,2.99342 3.83532,2.89988 c 1.57918,6.95838 6.76395,9.265937 11.37027,13.584391 l 4.7625,5.15937 0.8599,2.05052 3.70417,2.51354 1.78593,2.97657 0.46302,2.97656 1.98438,1.71979 3.37344,5.09323 0.79375,3.50573 1.52135,3.77031 2.64583,3.83646 2.51355,5.29167 0.52916,2.3151 -0.33073,1.25677 -0.59531,0.13229 0.19844,-1.32291 -0.52917,-1.45521 -1.05833,-2.97657 -1.52136,-2.57968 -0.85989,-1.12448 1.45521,3.30729 0.0661,2.71198 -0.59531,2.64583 2.57969,3.37344 1.52135,3.24115 3.10886,2.97656 1.65364,3.37344 0.59531,2.778116 -0.26458,1.91824 -0.8599,0.99219 -0.7276,-0.39688 0.19844,-0.46303 0.59531,-0.59531 -0.0661,-2.05052 -0.85989,-2.315106 -1.71979,-1.78593 -1.85209,-1.25677 0.66146,2.91041 -0.33073,2.711976 1.91823,1.78594 0.92604,1.65365 c -1.05661,11.12803 6.57603,14.99141 9.88877,21.99349 l 0.0992,1.48828 4.23334,1.71979 4.89479,4.36563 1.58751,5.42395 -0.66148,4.10105 -2.77811,3.30728 -2.24896,1.19064 -0.52917,-1.05835 1.19063,-0.66145 2.24895,-2.24896 1.19063,-2.51354 -0.52917,-3.175 -2.51354,-4.63021 -3.43958,-2.77813 -0.79375,0.13229 v 2.77813 l -0.66146,2.11667 -0.66146,1.71979 2.29987,3.52565 1.54348,4.02241 0.56127,6.36101 -0.37418,3.92887 0.46772,3.92885 1.87089,2.80633 4.11595,2.7128 5.0514,2.43214 0.0935,0.8419 -1.02897,0.0936 -3.83532,-1.77735 -3.92887,-2.24506 -2.05798,-2.24505 -2.15152,-3.83533 -1.30962,-2.61925 -0.37417,-3.46112 0.28063,-5.2385 -2.05797,-2.43215 -0.56127,4.20949 -1.44914,5.7257 -0.59531,5.22552 -0.19844,3.63804 2.97656,4.82863 3.04271,3.57188 3.96875,3.50573 2.38125,2.24895 h 1.38905 l 0.13232,0.99219 -1.38908,0.52917 -0.99218,-0.26459 -1.5875,-1.78593 -3.63803,-2.71198 -1.05833,-1.19062 -2.97656,-3.3073 -3.10886,-0.66145 -0.59531,4.03489 -2.24896,3.63802 -1.55442,1.88516 -2.61276,2.11666 -0.1323,0.89297 -1.91822,7.80521 0.79375,0.59531 3.24114,-0.0661 -3.24114,1.19062 -1.25678,-0.0992 -0.16536,0.5953 -1.5875,0.9922 -1.2237,0.13229 -1.45521,1.19063 -1.89177,0.0794 -3.00302,-1.5016 2.96479,-3.18069 0.0468,-1.59025 -0.8419,-2.29183 -3.36759,-1.73057 0.0468,1.87089 -0.8419,1.30961 -5.47235,4.86431 -2.71278,0.23386 2.99342,-2.94665 -3.3499,1.53822 3.09321,-3.26934 1.71979,-4.8948 -1.2237,-2.08358 -1.98437,-0.0662 -1.85209,-1.65364 -2.57969,-4.36563 0.1323,-2.97656 -4.36563,-6.41613 -1.78594,-5.42397 -1.05833,-6.08536 -8.53281,-10.71558 -0.66146,-1.19062 -3.50573,-4.89485 -1.38906,-3.63801 -0.85989,-10.91406 -3.96876,-9.5912 -1.52135,-0.85989 0.39687,-4.43177 -0.17899,-12.171086 0.13204,-16.97757 0.37768,-8.68676 2.23649,-4.59879 0.74836,-8.79316 2.43911,0.0305 1.52135,-0.92604 2.18282,-3.175 0.19843,-2.31511 -1.91822,-2.05052 -0.39683,-1.15752 -0.0662,-1.42213 -0.85989,-0.8599 -1.55443,-0.56224 -0.52917,-3.67109 -1.28984,-1.52136 0.17932,-1.45264 -0.65481,-3.437751 -1.70718,-0.70159 -1.3817,-0.0307 -2.66409,-4.20217 -5.70621,-5.56589 -4.25626,-5.940063 -9.86893,-2.057974 z"
       style="fill:#251914;fill-opacity:1;stroke:#251914;stroke-width:0.26458332px;stroke-linecap:butt;stroke-linejoin:miter;stroke-opacity:1"
       sodipodi:nodetypes="cccccccccccccccccccccccccccccccccccccccccccccccccccccccccccccccccccccccccccccccccccccccccccccccccccccccccccccccccccccccccccccccccccccccccccccccccccccccccccccccccccccccccccccccccc" />
    <path
       inkscape:connector-curvature="0"
       id="path14424"
       d="m 83.03103,42.825074 0.86997,-5.80907 1.40316,-2.245071 2.33861,-1.87089 2.38538,-2.52569 0.46773,-2.71279 1.26284,-3.46114 1.54349,-2.806329 2.8531,-0.654809 3.27405,-2.33861 2.3386,-2.946646 3.97564,-0.374176 9.86893,2.057974 4.25627,5.940066 5.7062,5.56589 2.6641,4.20217 -1.77543,-0.0395 -1.21608,-0.32741 -2.33332,0.0737 -2.11003,0.0666 -7.34323,1.49671 -2.72561,1.13013 -1.10971,0.460131 -1.43512,1.14117 -2.44697,1.94579 -1.12253,1.26285 -3.41437,0.70158 -2.10475,-0.0468 -2.80633,-0.46772 h -4.44335 l -5.2993,1.40785 z"
       style="fill:#e8bba4;fill-opacity:1;stroke:#e8bba4;stroke-width:0.26458332px;stroke-linecap:butt;stroke-linejoin:miter;stroke-opacity:1" />
    <path
       inkscape:connector-curvature="0"
       id="path14434"
       d="m 188.95337,163.48432 2.97656,4.82863 3.04271,3.57188 4.25742,3.77837 1.36749,-4.03691 1.029,-4.44336 -0.88368,-1.9147 -1.31471,-0.75126 -2.05798,-2.24505 -7.37301,-8.63913 -0.25005,0.98797 z"
       style="fill:#c46043;fill-opacity:1;stroke:none;stroke-width:0.26458332px;stroke-linecap:butt;stroke-linejoin:miter;stroke-opacity:1" />
    <path
       inkscape:connector-curvature="0"
       id="path14436"
       d="m 90.07493,49.270304 2.07411,0.17854 2.27876,-0.0488 2.48374,-0.91029 2.22275,-1.27422 -2.23063,-1.21926 h -3.1805 l -2.33861,1.21608 z"
       style="fill:#f2f2f2;stroke:none;stroke-width:0.26458332px;stroke-linecap:butt;stroke-linejoin:miter;stroke-opacity:1" />
    <circle
       r="1.9252068"
       cy="47.515007"
       cx="94.036507"
       id="circle14438"
       style="opacity:1;fill:#5a0c03;fill-opacity:1;stroke:none;stroke-width:1.29698133;stroke-linecap:round;stroke-linejoin:round;stroke-miterlimit:4;stroke-dasharray:none;stroke-opacity:1" />
    <path
       inkscape:connector-curvature="0"
       id="path14440"
       d="m 87.54923,50.112204 1.40316,0.28063 1.12254,-1.12253 1.30962,-2.05797 2.33861,-1.21608 h 3.1805 l 3.02656,1.65432 0.0982,-0.7677 -2.38928,-1.502 -3.86953,-0.23151 -3.175,1.38906 -1.81901,2.18282 -1.65365,1.15755 z"
       style="fill:#000000;stroke:none;stroke-width:0.26458332px;stroke-linecap:butt;stroke-linejoin:miter;stroke-opacity:1" />
    <path
       inkscape:connector-curvature="0"
       id="path14442"
       d="m 110.59157,44.094804 1.4839,-0.30143 2.3151,-0.21497 1.83766,-0.20669 2.97445,-1.56271 1.74187,-1.19155 -3.08696,-0.70158 -3.83532,0.70158 -2.57247,2.0112 z"
       style="fill:#f2f2f2;fill-opacity:1;stroke:none;stroke-width:0.26458332px;stroke-linecap:butt;stroke-linejoin:miter;stroke-opacity:1" />
    <circle
       r="1.9252068"
       cy="41.506126"
       cx="115.75282"
       id="circle14444"
       style="opacity:1;fill:#5a0c03;fill-opacity:1;stroke:none;stroke-width:1.29698133;stroke-linecap:round;stroke-linejoin:round;stroke-miterlimit:4;stroke-dasharray:none;stroke-opacity:1" />
    <circle
       r="0.85412353"
       cy="47.491909"
       cx="93.991959"
       id="circle14448"
       style="opacity:1;fill:#000000;fill-opacity:1;stroke:none;stroke-width:2.57688189;stroke-linecap:round;stroke-linejoin:round;stroke-miterlimit:4;stroke-dasharray:none;stroke-opacity:1" />
    <circle
       r="0.85412353"
       cy="41.480404"
       cx="115.82644"
       id="circle14450"
       style="opacity:1;fill:#000000;fill-opacity:1;stroke:none;stroke-width:2.57688189;stroke-linecap:round;stroke-linejoin:round;stroke-miterlimit:4;stroke-dasharray:none;stroke-opacity:1" />
    <circle
       style="opacity:1;fill:#ffffff;fill-opacity:1;stroke:none;stroke-width:1.06970441;stroke-linecap:round;stroke-linejoin:round;stroke-miterlimit:4;stroke-dasharray:none;stroke-opacity:1"
       id="circle14452"
       cx="115.00239"
       cy="41.279846"
       r="0.3545602" />
    <path
       sodipodi:nodetypes="cccccccccccc"
       inkscape:connector-curvature="0"
       id="path14446"
       d="m 109.81278,44.312454 0.51449,0.23386 1.12253,-1.91766 2.57247,-2.0112 3.83532,-0.70158 3.08696,0.70158 0.874,0.26831 0.98994,-0.7926 0.0474,-1.02964 -1.77097,0.85235 c -4.67152,-1.562715 -7.67777,-1.275451 -9.96247,2.0112 z"
       style="fill:#000000;fill-opacity:1;stroke:none;stroke-width:0.26458332px;stroke-linecap:butt;stroke-linejoin:miter;stroke-opacity:1" />
    <circle
       r="0.3545602"
       cy="47.497536"
       cx="93.223885"
       id="circle14454"
       style="opacity:1;fill:#ffffff;fill-opacity:1;stroke:none;stroke-width:1.06970441;stroke-linecap:round;stroke-linejoin:round;stroke-miterlimit:4;stroke-dasharray:none;stroke-opacity:1" />
    <path
       inkscape:connector-curvature="0"
       id="path14456"
       d="m 95.87469,105.77103 1.40065,1.48927 0.8599,0.0661 -0.0566,-1.79252 z"
       style="fill:#2c0503;fill-opacity:1;stroke:none;stroke-width:0.26458332px;stroke-linecap:butt;stroke-linejoin:miter;stroke-opacity:1" />
    <path
       inkscape:connector-curvature="0"
       id="path14458"
       d="m 128.89305,36.351974 1.38905,0.85989 -0.13229,0.33073 0.66146,0.99219 -0.13229,1.78594 -0.8599,-1.52136 -1.4552,-1.4552 z"
       style="fill:#251914;fill-opacity:1;stroke:none;stroke-width:0.26458332px;stroke-linecap:butt;stroke-linejoin:miter;stroke-opacity:1" />
    <path
       inkscape:connector-curvature="0"
       id="path14460"
       d="m 103.82925,15.260026 -2.85641,2.953562 1.40316,1.683798 -1.1693,2.806327 1.44994,3.13374 4.39658,6.45456 -0.74835,4.630441 -0.56127,1.87088 -1.12253,1.26285 -3.41437,0.70158 -2.10475,-0.0468 -2.80633,-0.46772 h -4.44335 l -5.37647,1.43357 -3.44475,1.1482 0.86997,-5.80908 1.40317,-2.245061 2.33858,-1.87083 2.38538,-2.52569 0.46774,-2.71285 1.26286,-3.46114 1.54348,-2.806332 2.85308,-0.654746 3.27407,-2.338671 2.33858,-2.946585 z"
       style="fill:#dea48e;fill-opacity:1;stroke:#dea48e;stroke-width:0.26458332px;stroke-linecap:butt;stroke-linejoin:miter;stroke-opacity:1" />
    <path
       inkscape:connector-curvature="0"
       id="path14462"
       d="m 108.25558,176.0519 1.99033,3.63967 3.31716,3.49474 2.44952,1.34014 1.61364,0.32741 0.35078,-0.18709 -0.0936,-0.44434 -1.26283,-0.25725 -1.19268,-0.72496 -0.5379,-0.63143 0.0702,-0.18709 1.07576,0.72497 1.19269,0.46772 2.08135,0.70159 1.45156,0.10546 0.44595,-0.20342 -0.0806,-0.65692 -0.51263,-0.21497 -1.2237,-0.13229 -1.70325,-0.79375 -2.54662,-1.95131 -2.81119,-2.96002 -0.36976,-1.72144 z"
       style="fill:#040404;fill-opacity:1;stroke:#040404;stroke-width:0.26458332px;stroke-linecap:butt;stroke-linejoin:miter;stroke-opacity:1" />
    <path
       style="fill:#916f6f;fill-opacity:1;stroke:none;stroke-width:0.26458332px;stroke-linecap:butt;stroke-linejoin:miter;stroke-opacity:1"
       d="m 88.481536,45.687757 -0.506603,3.593951 0.800667,-0.560464 1.81901,-2.18282 3.175,-1.389059 3.869529,0.231507 2.389281,1.502 c -2.463293,-3.124975 0,2e-6 -2.463293,-3.124975 l -1.222753,-0.648157 -3.39433,-0.220496 -2.792964,0.788439 z"
       id="path3584"
       inkscape:connector-curvature="0"
       sodipodi:nodetypes="cccccccccccc" />
    <path
       style="fill:#916f6f;fill-opacity:1;stroke:none;stroke-width:0.26458332px;stroke-linecap:butt;stroke-linejoin:miter;stroke-opacity:1"
       d="m 109.81278,44.312453 1.18875,-5.127836 3.45664,-2.17105 4.47677,0.200451 2.99962,2.29293 -0.84964,0.408927 -3.32082,-0.888672 -4.06918,0.74835 -2.57247,2.15152 z"
       id="path3586"
       inkscape:connector-curvature="0"
       sodipodi:nodetypes="cccccccccc" />
  </g>
</svg>
