<?xml version="1.0" encoding="utf-8"?>
<!-- Generator: Adobe Illustrator 25.4.1, SVG Export Plug-In . SVG Version: 6.00 Build 0)  -->
<svg version="1.1"
	 id="hourglass" xmlns:cc="http://creativecommons.org/ns#" xmlns:dc="http://purl.org/dc/elements/1.1/" xmlns:rdf="http://www.w3.org/1999/02/22-rdf-syntax-ns#" xmlns:sodipodi="http://sodipodi.sourceforge.net/DTD/sodipodi-0.dtd" xmlns:svg="http://www.w3.org/2000/svg"
	 xmlns="http://www.w3.org/2000/svg" xmlns:xlink="http://www.w3.org/1999/xlink" x="0px" y="0px" viewBox="0 0 84.1 106.5"
	 style="enable-background:new 0 0 84.1 106.5;" xml:space="preserve">
<style type="text/css">
	.st0{fill:#CCF8FF;}
	.st1{fill:#DD9F80;}
	.st2{clip-path:url(#SVGID_00000162340725862378120610000011900582175353062037_);}
	.st3{fill:#EFD4BF;}
	.st4{opacity:0.3;fill:#49AFBF;enable-background:new    ;}
	.st5{fill:#0013AA;}
</style>
<path id="glass" class="st0" d="M74.4,79.1c0-10.3-7.2-19.2-17.8-23.5c-2.7-1.1-2.7-4.2,0-5.3C67.2,46,74.4,37.1,74.4,26.8V11H9.7
	v15.8c0,10.3,7.2,19.2,17.8,23.5c2.7,1.1,2.7,4.2,0,5.3C17,60,9.7,68.8,9.7,79.1v16.4h64.7L74.4,79.1L74.4,79.1z"/>
<path id="bottom-plate" class="st1" d="M75.4,11h-67c-4.7,0-8.5-2.5-8.5-5.5S3.7,0,8.4,0h67.1C80.2,0,84,2.5,84,5.5
	C83.9,8.5,80.1,11,75.4,11z"/>
<path id="top-plate" class="st1" d="M75.4,95.5h-67c-4.7,0-8.5,2.5-8.5,5.5s3.8,5.5,8.5,5.5h67.1c4.7,0,8.5-2.5,8.5-5.5
	C83.9,98,80.1,95.5,75.4,95.5z"/>
<g id="bottom-sand">
	<g>
		<defs>
			<rect id="SVGID_1_" x="-0.1" y="52.3" width="83.9" height="40"/>
		</defs>
		<clipPath id="SVGID_00000002355617227314687780000000363572292481746853_">
			<use xlink:href="#SVGID_1_"  style="overflow:visible;"/>
		</clipPath>
		<g style="clip-path:url(#SVGID_00000002355617227314687780000000363572292481746853_);">
			<path class="st3" d="M13.8,123.2V117c8.9-7.3,15.9-13.9,20.8-19.6l0.2-0.2c2.5-3,4.7-4.4,7-4.4c3.2,0,5.7,2.8,7,4.3l0.1,0.1
				l0.3,0.3c5.1,5.9,11.9,12.5,20.6,19.9v5.9h-56V123.2z"/>
		</g>
	</g>
</g>
<path id="shadow" class="st4" d="M34,11c-4.7,0-8.5-2.5-8.5-5.5S29.3,0,34,0H8.3C3.6,0-0.2,2.5-0.2,5.5S3.6,11,8.3,11h1.2v15.8
	c0,10.3,7.2,19.2,17.8,23.5c0.3,0.1,0.6,0.3,0.9,0.5c0.6,0.5,0.9,1,1.1,1.7v0.1c0.2,1.2-0.5,2.4-2,3C16.7,60,9.4,68.8,9.4,79.1v16.4
	H8.3c-4.7,0-8.5,2.5-8.5,5.5s3.8,5.5,8.5,5.5H34c-4.7,0-8.5-2.5-8.5-5.5s3.8-5.5,8.5-5.5h-9.2c-2.3-10.4-2.1-20.9,4.6-28.2
	C38.7,57,38.1,46,35.3,37.5c-2.3-6.8,3-13.8,11.2-14.7c18.8-2.2,27.8-8.9,27.8-8.9V11H34z"/>
<path class="st5" d="M62.2,63.4c-6.1-4.3-12.1-4.5-13.1-7.7c-0.5-1.4-0.5-2.8-0.5-2.8c0,0,0-1.4,0.5-2.8c1-3.1,5.6-2.9,12.4-7.1
	c0,0,0.1-0.1,0.1-0.1h0c5.6-4.1,8.8-9.9,8.8-16.2V15H13.7v11.8c0,6.4,3.4,12.4,9.3,16.5c5.8,3.9,11,3.8,12.1,6.8
	c0.5,1.4,0.5,2.8,0.5,2.8c0,0,0,1.5-0.5,3c-1.1,3.2-7.5,3.1-12.8,7.3c-5.4,4.2-8.5,9.8-8.5,15.9v12.4h56.7V79.1
	c0-5.9-2.9-11.4-8-15.5h0C62.3,63.5,62.2,63.5,62.2,63.4z"/>
<path class="st3" d="M69.5,26.9C69.5,26.8,69.5,26.8,69.5,26.9L69.5,26.9c-3-0.2-18.3-1.2-27.3-4.4c-5.2-1.9-10.8-2.8-16.8-2.8
	c-3.9,0-7.8,0.4-11.5,1.3h-0.2v5.8c0,6.4,3.4,12.4,9.3,16.5c4.2,2.8,8,3.5,10.2,4.8c2.7,0.7,5.5,1.1,8.4,1.1c3.6,0,7.2-0.6,10.5-1.8
	c0.7-0.3,1.4-0.6,2.3-0.9c0.3-0.1,0.6-0.2,0.8-0.4h0.1c1.7-0.7,3.8-1.6,6.1-3.1c0,0,0.1-0.1,0.1-0.1h0c5.6-4.1,8.8-9.9,8.8-16.1
	H69.5z"/>
</svg>
