<?xml version="1.0" encoding="UTF-8" standalone="no"?>
<!-- Created with Inkscape (http://www.inkscape.org/) -->

<svg
   xmlns:dc="http://purl.org/dc/elements/1.1/"
   xmlns:cc="http://creativecommons.org/ns#"
   xmlns:rdf="http://www.w3.org/1999/02/22-rdf-syntax-ns#"
   xmlns:svg="http://www.w3.org/2000/svg"
   xmlns="http://www.w3.org/2000/svg"
   xmlns:sodipodi="http://sodipodi.sourceforge.net/DTD/sodipodi-0.dtd"
   xmlns:inkscape="http://www.inkscape.org/namespaces/inkscape"
   width="84.063171mm"
   height="106.5137mm"
   viewBox="0 0 84.063171 106.5137"
   version="1.1"
   id="svg8"
   inkscape:version="0.92.4 (5da689c313, 2019-01-14)"
   sodipodi:docname="hourglass.svg">
  <g
     inkscape:label="Layer 1"
     inkscape:groupmode="layer"
     id="layer1"
     transform="translate(-81.189168,-141.6075)">
    <path
       id="path815"
       d="M 155.59082,168.40853 V 145.29979 H 90.850584 v 23.10874 c 0,10.27186 7.229554,19.16972 17.773516,23.5096 2.66965,1.09942 2.66965,4.20145 0,5.29973 -10.54502,4.34079 -17.773516,13.23775 -17.773516,23.51051 v 23.10867 h 64.740236 v -23.10867 c 0,-10.27186 -7.22948,-19.16972 -17.77471,-23.51051 -2.66938,-1.09828 -2.66938,-4.20031 0,-5.29973 10.54523,-4.33988 17.77471,-13.23683 17.77471,-23.5096 z"
       inkscape:connector-curvature="0"
       style="fill:#ccf8ff;stroke-width:0.24543452" />
    <path
       id="path817"
       d="m 90.850584,145.29979 v 23.10874 c 0,10.27277 7.229554,19.16972 17.773516,23.5096 2.66965,1.09942 2.66965,4.20145 0,5.30065 -10.54502,4.33987 -17.773516,13.23773 -17.773516,23.50959 v 23.10867 h 17.219746 c -4.02984,-12.47481 -5.32278,-26.01671 2.71092,-34.89955 9.30063,-10.28347 8.7331,-21.37085 5.89941,-29.85071 -2.28017,-6.82218 2.98371,-13.76069 11.15775,-14.71851 18.8423,-2.2075 27.75241,-8.93177 27.75241,-8.93177 v -10.13671 z"
       inkscape:connector-curvature="0"
       style="fill:#abebf4;stroke-width:0.24543452" />
    <path
       id="path819"
       d="m 124.99625,164.08095 c -14.94578,-5.09151 -28.017863,-2.38077 -34.146698,-0.4731 v 4.80068 c 0,10.27186 7.229528,19.16972 17.774548,23.5096 0.002,8.6e-4 9.04346,2.70815 9.04346,8.41247 0.0579,0 0.059,2.02058 0.0455,4.10332 1.2785,6.62775 10.86391,4.80651 11.01434,0 -0.0145,-2.08274 -0.0124,-4.10332 0.0455,-4.10332 0,-5.70432 9.04134,-8.41156 9.04319,-8.41247 10.54524,-4.33988 17.77365,-13.23774 17.77365,-23.5096 0.001,0 -20.28825,-0.81734 -30.5935,-4.32758 z"
       inkscape:connector-curvature="0"
       style="fill:#efd4bf;stroke-width:0.24543452"
       sodipodi:nodetypes="ccsccccccccc" />
    <path
       id="path821"
       d="m 124.99625,164.08095 c -14.94578,-5.09151 -28.017863,-2.38077 -34.146698,-0.4731 v 4.80068 c 0,10.27186 7.229528,19.16972 17.774548,23.5096 0.001,8.6e-4 6.72227,2.0092 8.57435,6.22112 2.22303,-6.83287 1.33721,-13.49933 -0.51779,-19.05247 -2.15608,-6.4513 2.45878,-13.0128 9.87637,-14.51589 -0.51382,-0.16005 -1.05013,-0.31646 -1.56078,-0.48994 z"
       inkscape:connector-curvature="0"
       style="fill:#e0c1ad;stroke-width:0.24543452" />
    <path
       id="path823"
       d="m 128.72741,219.19524 c 0,-2.48482 -2.4765,-4.49925 -5.53059,-4.49925 -3.05408,0 -5.52926,2.01443 -5.52926,4.49925 0,2.4848 2.47518,4.49833 5.52926,4.49833 3.05409,0 5.53059,-2.01353 5.53059,-4.49833 z"
       inkscape:connector-curvature="0"
       style="fill:#efd4bf;stroke-width:0.24543452" />
    <path
       id="path825"
       d="m 108.97362,237.9408 h 28.49324 c 0,0 -4.21375,-8.48873 -14.24622,-8.48873 -10.03353,0 -14.24702,8.48873 -14.24702,8.48873 z"
       inkscape:connector-curvature="0"
       style="fill:#efd4bf;stroke-width:0.24543452" />
    <path
       id="path827"
       d="M 156.75869,152.6075 H 89.681681 c -4.690163,0 -8.492513,-2.46252 -8.492513,-5.49999 0,-3.03749 3.80235,-5.50001 8.492513,-5.50001 h 67.077009 c 4.69133,0 8.49365,2.46252 8.49365,5.50001 0,3.03747 -3.80232,5.49999 -8.49365,5.49999 z"
       inkscape:connector-curvature="0"
       style="fill:#dd9f80;stroke-width:0.2129247" />
    <path
       id="path829"
       d="m 106.91066,147.10751 c 0,-3.03749 3.80233,-5.50001 8.49233,-5.50001 H 89.681681 c -4.690163,0 -8.492513,2.46252 -8.492513,5.50001 0,3.03814 3.80235,5.49999 8.492513,5.49999 h 25.721309 c -4.69,0 -8.49233,-2.46252 -8.49233,-5.49999 z"
       inkscape:connector-curvature="0"
       style="fill:#c68d6d;stroke-width:0.2129247" />
    <path
       id="path831"
       d="M 156.75869,237.1212 H 89.681681 c -4.690163,0 -8.492513,2.46251 -8.492513,5.49991 0,3.03758 3.80235,5.50009 8.492513,5.50009 h 67.077009 c 4.69133,0 8.49365,-2.46251 8.49365,-5.50009 0,-3.0374 -3.80232,-5.49991 -8.49365,-5.49991 z"
       inkscape:connector-curvature="0"
       style="fill:#dd9f80;stroke-width:0.21292515" />
    <path
       id="path833"
       d="m 106.91066,242.62111 c 0,-3.0374 3.80233,-5.49991 8.49233,-5.49991 H 89.681681 c -4.690163,0 -8.492513,2.46251 -8.492513,5.49991 0,3.03758 3.80235,5.50009 8.492513,5.50009 h 25.721309 c -4.69,0 -8.49233,-2.46251 -8.49233,-5.50009 z"
       inkscape:connector-curvature="0"
       style="fill:#c68d6d;stroke-width:0.21292515" />
  </g>
</svg>
