<?xml version="1.0" encoding="UTF-8" standalone="no"?>
<svg
   xmlns:dc="http://purl.org/dc/elements/1.1/"
   xmlns:cc="http://creativecommons.org/ns#"
   xmlns:rdf="http://www.w3.org/1999/02/22-rdf-syntax-ns#"
   xmlns:svg="http://www.w3.org/2000/svg"
   xmlns="http://www.w3.org/2000/svg"
   xmlns:sodipodi="http://sodipodi.sourceforge.net/DTD/sodipodi-0.dtd"
   xmlns:inkscape="http://www.inkscape.org/namespaces/inkscape"
   overflow="hidden"
   version="1.1"
   id="svg907"
   sodipodi:docname="logo.svg"
   inkscape:version="0.92.4 (5da689c313, 2019-01-14)"
   style="overflow:hidden"
   viewBox="0 0 603.04901 142.37196">
  <metadata
     id="metadata911">
    <rdf:RDF>
      <cc:Work
         rdf:about="">
        <dc:format>image/svg+xml</dc:format>
        <dc:type
           rdf:resource="http://purl.org/dc/dcmitype/StillImage" />
        <dc:title></dc:title>
      </cc:Work>
    </rdf:RDF>
  </metadata>
  <sodipodi:namedview
     pagecolor="#ffffff"
     bordercolor="#666666"
     borderopacity="1"
     objecttolerance="10"
     gridtolerance="10"
     guidetolerance="10"
     inkscape:pageopacity="0"
     inkscape:pageshadow="2"
     inkscape:window-width="1920"
     inkscape:window-height="986"
     id="namedview909"
     showgrid="false"
     inkscape:zoom="9.116279"
     inkscape:cx="59.019154"
     inkscape:cy="14.265893"
     inkscape:window-x="-11"
     inkscape:window-y="-11"
     inkscape:window-maximized="1"
     inkscape:current-layer="svg907"
     fit-margin-top="0"
     fit-margin-left="0"
     fit-margin-right="0"
     fit-margin-bottom="0"
     showguides="true"
     inkscape:guide-bbox="true"
     scale-x="5">
    <sodipodi:guide
       position="124.95905,-516.27984"
       orientation="0,1"
       id="guide1467"
       inkscape:locked="false" />
  </sodipodi:namedview>
  <defs
     id="defs867">
    <clipPath
       id="clip0">
      <path
         d="M 299,230 H 987 V 505 H 299 Z"
         id="path864"
         inkscape:connector-curvature="0"
         style="clip-rule:evenodd;fill-rule:evenodd" />
    </clipPath>
    <filter
       style="color-interpolation-filters:sRGB"
       inkscape:label="Drop Shadow"
       id="filter3691">
      <feFlood
         flood-opacity="0.498039"
         flood-color="rgb(0,0,0)"
         result="flood"
         id="feFlood3681" />
      <feComposite
         in="flood"
         in2="SourceGraphic"
         operator="in"
         result="composite1"
         id="feComposite3683" />
      <feGaussianBlur
         in="composite1"
         stdDeviation="2"
         result="blur"
         id="feGaussianBlur3685" />
      <feOffset
         dx="0"
         dy="1"
         result="offset"
         id="feOffset3687" />
      <feComposite
         in="SourceGraphic"
         in2="offset"
         operator="over"
         result="composite2"
         id="feComposite3689" />
    </filter>
    <filter
       style="color-interpolation-filters:sRGB"
       inkscape:label="Drop Shadow"
       id="filter3703">
      <feFlood
         flood-opacity="0.498039"
         flood-color="rgb(0,0,0)"
         result="flood"
         id="feFlood3693" />
      <feComposite
         in="flood"
         in2="SourceGraphic"
         operator="in"
         result="composite1"
         id="feComposite3695" />
      <feGaussianBlur
         in="composite1"
         stdDeviation="2"
         result="blur"
         id="feGaussianBlur3697" />
      <feOffset
         dx="0"
         dy="1"
         result="offset"
         id="feOffset3699" />
      <feComposite
         in="SourceGraphic"
         in2="offset"
         operator="over"
         result="composite2"
         id="feComposite3701" />
    </filter>
    <filter
       style="color-interpolation-filters:sRGB"
       inkscape:label="Drop Shadow"
       id="filter3715">
      <feFlood
         flood-opacity="0.498039"
         flood-color="rgb(0,0,0)"
         result="flood"
         id="feFlood3705" />
      <feComposite
         in="flood"
         in2="SourceGraphic"
         operator="in"
         result="composite1"
         id="feComposite3707" />
      <feGaussianBlur
         in="composite1"
         stdDeviation="2"
         result="blur"
         id="feGaussianBlur3709" />
      <feOffset
         dx="0"
         dy="1"
         result="offset"
         id="feOffset3711" />
      <feComposite
         in="SourceGraphic"
         in2="offset"
         operator="over"
         result="composite2"
         id="feComposite3713" />
    </filter>
    <filter
       style="color-interpolation-filters:sRGB"
       inkscape:label="Drop Shadow"
       id="filter3727">
      <feFlood
         flood-opacity="0.498039"
         flood-color="rgb(0,0,0)"
         result="flood"
         id="feFlood3717" />
      <feComposite
         in="flood"
         in2="SourceGraphic"
         operator="in"
         result="composite1"
         id="feComposite3719" />
      <feGaussianBlur
         in="composite1"
         stdDeviation="2"
         result="blur"
         id="feGaussianBlur3721" />
      <feOffset
         dx="0"
         dy="1"
         result="offset"
         id="feOffset3723" />
      <feComposite
         in="SourceGraphic"
         in2="offset"
         operator="over"
         result="composite2"
         id="feComposite3725" />
    </filter>
    <filter
       style="color-interpolation-filters:sRGB"
       inkscape:label="Drop Shadow"
       id="filter3739">
      <feFlood
         flood-opacity="0.498039"
         flood-color="rgb(0,0,0)"
         result="flood"
         id="feFlood3729" />
      <feComposite
         in="flood"
         in2="SourceGraphic"
         operator="in"
         result="composite1"
         id="feComposite3731" />
      <feGaussianBlur
         in="composite1"
         stdDeviation="2"
         result="blur"
         id="feGaussianBlur3733" />
      <feOffset
         dx="0"
         dy="1"
         result="offset"
         id="feOffset3735" />
      <feComposite
         in="SourceGraphic"
         in2="offset"
         operator="over"
         result="composite2"
         id="feComposite3737" />
    </filter>
    <filter
       style="color-interpolation-filters:sRGB"
       inkscape:label="Drop Shadow"
       id="filter3751">
      <feFlood
         flood-opacity="0.498039"
         flood-color="rgb(0,0,0)"
         result="flood"
         id="feFlood3741" />
      <feComposite
         in="flood"
         in2="SourceGraphic"
         operator="in"
         result="composite1"
         id="feComposite3743" />
      <feGaussianBlur
         in="composite1"
         stdDeviation="2"
         result="blur"
         id="feGaussianBlur3745" />
      <feOffset
         dx="0"
         dy="1"
         result="offset"
         id="feOffset3747" />
      <feComposite
         in="SourceGraphic"
         in2="offset"
         operator="over"
         result="composite2"
         id="feComposite3749" />
    </filter>
    <filter
       style="color-interpolation-filters:sRGB"
       inkscape:label="Drop Shadow"
       id="filter3763">
      <feFlood
         flood-opacity="0.498039"
         flood-color="rgb(0,0,0)"
         result="flood"
         id="feFlood3753" />
      <feComposite
         in="flood"
         in2="SourceGraphic"
         operator="in"
         result="composite1"
         id="feComposite3755" />
      <feGaussianBlur
         in="composite1"
         stdDeviation="2"
         result="blur"
         id="feGaussianBlur3757" />
      <feOffset
         dx="0"
         dy="1"
         result="offset"
         id="feOffset3759" />
      <feComposite
         in="SourceGraphic"
         in2="offset"
         operator="over"
         result="composite2"
         id="feComposite3761" />
    </filter>
    <filter
       style="color-interpolation-filters:sRGB"
       inkscape:label="Drop Shadow"
       id="filter3775">
      <feFlood
         flood-opacity="0.498039"
         flood-color="rgb(0,0,0)"
         result="flood"
         id="feFlood3765" />
      <feComposite
         in="flood"
         in2="SourceGraphic"
         operator="in"
         result="composite1"
         id="feComposite3767" />
      <feGaussianBlur
         in="composite1"
         stdDeviation="2"
         result="blur"
         id="feGaussianBlur3769" />
      <feOffset
         dx="0"
         dy="1"
         result="offset"
         id="feOffset3771" />
      <feComposite
         in="SourceGraphic"
         in2="offset"
         operator="over"
         result="composite2"
         id="feComposite3773" />
    </filter>
    <filter
       style="color-interpolation-filters:sRGB"
       inkscape:label="Drop Shadow"
       id="filter3787">
      <feFlood
         flood-opacity="0.498039"
         flood-color="rgb(0,0,0)"
         result="flood"
         id="feFlood3777" />
      <feComposite
         in="flood"
         in2="SourceGraphic"
         operator="in"
         result="composite1"
         id="feComposite3779" />
      <feGaussianBlur
         in="composite1"
         stdDeviation="2"
         result="blur"
         id="feGaussianBlur3781" />
      <feOffset
         dx="0"
         dy="1"
         result="offset"
         id="feOffset3783" />
      <feComposite
         in="SourceGraphic"
         in2="offset"
         operator="over"
         result="composite2"
         id="feComposite3785" />
    </filter>
    <filter
       style="color-interpolation-filters:sRGB"
       inkscape:label="Drop Shadow"
       id="filter3799">
      <feFlood
         flood-opacity="0.498039"
         flood-color="rgb(0,0,0)"
         result="flood"
         id="feFlood3789" />
      <feComposite
         in="flood"
         in2="SourceGraphic"
         operator="in"
         result="composite1"
         id="feComposite3791" />
      <feGaussianBlur
         in="composite1"
         stdDeviation="2"
         result="blur"
         id="feGaussianBlur3793" />
      <feOffset
         dx="0"
         dy="1"
         result="offset"
         id="feOffset3795" />
      <feComposite
         in="SourceGraphic"
         in2="offset"
         operator="over"
         result="composite2"
         id="feComposite3797" />
    </filter>
    <filter
       style="color-interpolation-filters:sRGB"
       inkscape:label="Drop Shadow"
       id="filter3811">
      <feFlood
         flood-opacity="0.498039"
         flood-color="rgb(0,0,0)"
         result="flood"
         id="feFlood3801" />
      <feComposite
         in="flood"
         in2="SourceGraphic"
         operator="in"
         result="composite1"
         id="feComposite3803" />
      <feGaussianBlur
         in="composite1"
         stdDeviation="2"
         result="blur"
         id="feGaussianBlur3805" />
      <feOffset
         dx="0"
         dy="1"
         result="offset"
         id="feOffset3807" />
      <feComposite
         in="SourceGraphic"
         in2="offset"
         operator="over"
         result="composite2"
         id="feComposite3809" />
    </filter>
    <filter
       style="color-interpolation-filters:sRGB"
       inkscape:label="Drop Shadow"
       id="filter3823">
      <feFlood
         flood-opacity="0.498039"
         flood-color="rgb(0,0,0)"
         result="flood"
         id="feFlood3813" />
      <feComposite
         in="flood"
         in2="SourceGraphic"
         operator="in"
         result="composite1"
         id="feComposite3815" />
      <feGaussianBlur
         in="composite1"
         stdDeviation="2"
         result="blur"
         id="feGaussianBlur3817" />
      <feOffset
         dx="0"
         dy="1"
         result="offset"
         id="feOffset3819" />
      <feComposite
         in="SourceGraphic"
         in2="offset"
         operator="over"
         result="composite2"
         id="feComposite3821" />
    </filter>
    <filter
       style="color-interpolation-filters:sRGB"
       inkscape:label="Drop Shadow"
       id="filter3835">
      <feFlood
         flood-opacity="0.498039"
         flood-color="rgb(0,0,0)"
         result="flood"
         id="feFlood3825" />
      <feComposite
         in="flood"
         in2="SourceGraphic"
         operator="in"
         result="composite1"
         id="feComposite3827" />
      <feGaussianBlur
         in="composite1"
         stdDeviation="2"
         result="blur"
         id="feGaussianBlur3829" />
      <feOffset
         dx="0"
         dy="1"
         result="offset"
         id="feOffset3831" />
      <feComposite
         in="SourceGraphic"
         in2="offset"
         operator="over"
         result="composite2"
         id="feComposite3833" />
    </filter>
    <filter
       style="color-interpolation-filters:sRGB"
       inkscape:label="Drop Shadow"
       id="filter3847">
      <feFlood
         flood-opacity="0.498039"
         flood-color="rgb(0,0,0)"
         result="flood"
         id="feFlood3837" />
      <feComposite
         in="flood"
         in2="SourceGraphic"
         operator="in"
         result="composite1"
         id="feComposite3839" />
      <feGaussianBlur
         in="composite1"
         stdDeviation="2"
         result="blur"
         id="feGaussianBlur3841" />
      <feOffset
         dx="0"
         dy="1"
         result="offset"
         id="feOffset3843" />
      <feComposite
         in="SourceGraphic"
         in2="offset"
         operator="over"
         result="composite2"
         id="feComposite3845" />
    </filter>
    <filter
       style="color-interpolation-filters:sRGB"
       inkscape:label="Drop Shadow"
       id="filter3859">
      <feFlood
         flood-opacity="0.498039"
         flood-color="rgb(0,0,0)"
         result="flood"
         id="feFlood3849" />
      <feComposite
         in="flood"
         in2="SourceGraphic"
         operator="in"
         result="composite1"
         id="feComposite3851" />
      <feGaussianBlur
         in="composite1"
         stdDeviation="2"
         result="blur"
         id="feGaussianBlur3853" />
      <feOffset
         dx="0"
         dy="1"
         result="offset"
         id="feOffset3855" />
      <feComposite
         in="SourceGraphic"
         in2="offset"
         operator="over"
         result="composite2"
         id="feComposite3857" />
    </filter>
    <filter
       style="color-interpolation-filters:sRGB"
       inkscape:label="Drop Shadow"
       id="filter3871">
      <feFlood
         flood-opacity="0.498039"
         flood-color="rgb(0,0,0)"
         result="flood"
         id="feFlood3861" />
      <feComposite
         in="flood"
         in2="SourceGraphic"
         operator="in"
         result="composite1"
         id="feComposite3863" />
      <feGaussianBlur
         in="composite1"
         stdDeviation="2"
         result="blur"
         id="feGaussianBlur3865" />
      <feOffset
         dx="0"
         dy="1"
         result="offset"
         id="feOffset3867" />
      <feComposite
         in="SourceGraphic"
         in2="offset"
         operator="over"
         result="composite2"
         id="feComposite3869" />
    </filter>
    <filter
       style="color-interpolation-filters:sRGB"
       inkscape:label="Drop Shadow"
       id="filter3883">
      <feFlood
         flood-opacity="0.498039"
         flood-color="rgb(0,0,0)"
         result="flood"
         id="feFlood3873" />
      <feComposite
         in="flood"
         in2="SourceGraphic"
         operator="in"
         result="composite1"
         id="feComposite3875" />
      <feGaussianBlur
         in="composite1"
         stdDeviation="2"
         result="blur"
         id="feGaussianBlur3877" />
      <feOffset
         dx="0"
         dy="1"
         result="offset"
         id="feOffset3879" />
      <feComposite
         in="SourceGraphic"
         in2="offset"
         operator="over"
         result="composite2"
         id="feComposite3881" />
    </filter>
    <filter
       style="color-interpolation-filters:sRGB"
       inkscape:label="Drop Shadow"
       id="filter3895">
      <feFlood
         flood-opacity="0.498039"
         flood-color="rgb(0,0,0)"
         result="flood"
         id="feFlood3885" />
      <feComposite
         in="flood"
         in2="SourceGraphic"
         operator="in"
         result="composite1"
         id="feComposite3887" />
      <feGaussianBlur
         in="composite1"
         stdDeviation="2"
         result="blur"
         id="feGaussianBlur3889" />
      <feOffset
         dx="0"
         dy="1"
         result="offset"
         id="feOffset3891" />
      <feComposite
         in="SourceGraphic"
         in2="offset"
         operator="over"
         result="composite2"
         id="feComposite3893" />
    </filter>
    <filter
       style="color-interpolation-filters:sRGB"
       inkscape:label="Drop Shadow"
       id="filter3907">
      <feFlood
         flood-opacity="0.498039"
         flood-color="rgb(0,0,0)"
         result="flood"
         id="feFlood3897" />
      <feComposite
         in="flood"
         in2="SourceGraphic"
         operator="in"
         result="composite1"
         id="feComposite3899" />
      <feGaussianBlur
         in="composite1"
         stdDeviation="2"
         result="blur"
         id="feGaussianBlur3901" />
      <feOffset
         dx="0"
         dy="1"
         result="offset"
         id="feOffset3903" />
      <feComposite
         in="SourceGraphic"
         in2="offset"
         operator="over"
         result="composite2"
         id="feComposite3905" />
    </filter>
  </defs>
  <g
     clip-path="url(#clip0)"
     transform="translate(-359.79741,-230)"
     id="g905">
    <path
       d="m 391.741,267.892 c -8.375,2.669 -14.029,8.814 -16.963,18.437 -2.23,7.338 -3.057,17.811 -2.481,31.421 0.533,10.667 1.693,18.805 3.481,24.415 3.498,10.976 10.125,14.91 19.882,11.801 l 6.098,-1.944 c 7.805,-2.487 13.502,-7.795 17.091,-15.925 2.337,-5.312 3.398,-9.994 3.182,-14.045 -0.067,-1.053 -0.23,-1.987 -0.489,-2.8 -1.348,-4.227 -4.379,-5.59 -9.095,-4.087 -2.439,0.777 -4.482,2.234 -6.13,4.371 -1.814,2.459 -2.674,5.241 -2.58,8.346 0.108,2.025 -1.56,3.676 -5.004,4.953 -2.924,0.662 -4.918,-0.679 -5.983,-4.021 -0.988,-3.099 -1.714,-8.75 -2.179,-16.955 -0.423,-9.476 -0.139,-16.033 0.851,-19.671 0.791,-2.858 2.502,-4.796 5.134,-5.813 3.06,-0.795 4.8,-0.535 5.219,0.78 0.104,0.328 0.2,0.908 0.286,1.74 0.086,0.833 0.207,1.495 0.364,1.986 1.361,4.271 4.399,5.656 9.115,4.153 2.439,-0.777 4.524,-2.315 6.255,-4.613 1.73,-2.298 2.549,-4.999 2.455,-8.104 -0.063,-1.323 -0.393,-2.92 -0.989,-4.79 -3.549,-11.139 -10.69,-14.998 -21.423,-11.578 z m -0.358,-6.603 6.098,-1.943 c 7.398,-2.358 13.678,-1.762 18.84,1.788 4.037,2.833 6.95,7.055 8.738,12.665 0.751,2.358 1.181,4.549 1.289,6.575 0.176,5.049 -1.192,9.537 -4.105,13.466 -2.913,3.928 -6.442,6.553 -10.589,7.875 -3.171,1.01 -6.092,0.978 -8.763,-0.096 -2.671,-1.075 -4.672,-3.28 -6.004,-6.617 -0.42,3.178 -0.466,8.164 -0.138,14.955 0.328,6.792 0.852,11.596 1.57,14.412 1.944,-8.232 6.534,-13.501 13.77,-15.807 3.334,-1.063 6.443,-1.001 9.329,0.184 2.885,1.185 4.872,3.485 5.96,6.9 0.441,1.382 0.691,2.87 0.751,4.463 0.32,6.346 -1.375,13.111 -5.086,20.294 -4.846,9.247 -11.822,15.321 -20.928,18.223 l -6.098,1.943 c -12.927,4.119 -21.632,-0.854 -26.114,-14.919 -1.892,-5.936 -3.126,-14.588 -3.704,-25.957 -0.553,-13.258 0.126,-23.774 2.037,-31.548 3.561,-14.121 11.276,-23.073 23.147,-26.856 z"
       id="path869"
       inkscape:connector-curvature="0"
       style="fill:#30cfcf;fill-rule:evenodd;filter:url(#filter3703)" />
    <text
       font-size="104.034"
       x="366.013"
       y="348.96399"
       id="text871"
       style="font-size:104.03399658px;font-family:Arial, Arial_MSFontService, sans-serif;fill:#000000;fill-opacity:0;filter:url(#filter3715)">C</text>
    <path
       d="m 466.507,270.724 c 2.427,-0.029 3.945,1.549 4.553,4.734 0.609,3.185 0.611,8.875 0.006,17.07 -0.645,8.898 -1.593,15.074 -2.844,18.528 -1.08,2.986 -2.761,4.871 -5.044,5.655 -2.427,0.03 -3.945,-1.548 -4.554,-4.733 -0.608,-3.185 -0.652,-8.867 -0.131,-17.047 0.729,-8.914 1.719,-15.097 2.97,-18.551 1.08,-2.987 2.761,-4.872 5.044,-5.656 z m -1.618,-19.368 c -8.633,1.65 -14.98,7.077 -19.041,16.28 -3.089,7.02 -5.16,17.32 -6.213,30.9 -0.743,10.655 -0.562,18.874 0.543,24.657 2.163,11.315 8.274,16.011 18.331,14.089 l 6.287,-1.202 c 8.633,-1.65 14.98,-7.077 19.041,-16.281 3.089,-7.019 5.118,-17.311 6.087,-30.876 0.828,-10.67 0.688,-18.897 -0.417,-24.68 -2.163,-11.316 -8.274,-16.012 -18.331,-14.089 z m 0.433,-6.599 6.286,-1.202 c 13.327,-2.547 21.376,3.429 24.148,17.929 1.17,6.119 1.321,14.864 0.455,26.237 -0.95,13.214 -2.837,23.565 -5.662,31.056 -5.22,13.595 -13.949,21.562 -26.186,23.902 l -6.286,1.201 c -13.327,2.548 -21.376,-3.428 -24.148,-17.929 -1.17,-6.118 -1.363,-14.856 -0.58,-26.213 1.033,-13.229 2.962,-23.589 5.787,-31.079 5.22,-13.596 13.949,-21.563 26.186,-23.902 z"
       id="path873"
       inkscape:connector-curvature="0"
       style="fill:#30cfcf;fill-rule:evenodd;filter:url(#filter3727)" />
    <text
       font-size="101.467"
       x="432.87799"
       y="331.76801"
       id="text875"
       style="font-size:101.46700287px;font-family:Arial, Arial_MSFontService, sans-serif;fill:#000000;fill-opacity:0;filter:url(#filter3739)">O</text>
    <path
       d="m 524.133,243.241 c -2.553,0.274 -4.928,1.409 -7.124,3.404 -2.196,1.995 -3.565,4.481 -4.106,7.457 l -10.095,65.452 c -0.23,1.055 -0.299,2.007 -0.208,2.855 0.474,4.412 3.198,6.351 8.174,5.816 2.53,-0.271 4.866,-1.362 7.007,-3.271 2.141,-1.908 3.474,-4.398 3.997,-7.469 l 3.459,-21.583 c -0.028,-0.253 0.124,-0.44 0.454,-0.562 0.237,-0.197 0.42,-0.088 0.55,0.328 l 8.704,24.683 c 1.146,3.482 3.672,5.013 7.576,4.594 2.547,-0.274 4.915,-1.408 7.104,-3.402 2.19,-1.995 3.511,-4.476 3.965,-7.442 l 10.218,-65.466 c 0.23,-1.054 0.299,-2.006 0.208,-2.854 -0.474,-4.412 -3.2,-6.351 -8.178,-5.816 -2.53,0.271 -4.811,1.291 -6.84,3.06 -2.255,2.049 -3.645,4.609 -4.168,7.678 l -3.371,21.596 c -0.059,0.253 -0.212,0.434 -0.459,0.542 -0.245,0.112 -0.429,0.003 -0.552,-0.327 l -8.719,-24.682 c -1.149,-3.481 -3.681,-5.011 -7.596,-4.591 z m 1.059,-6.551 c 6.448,-0.692 10.665,1.816 12.651,7.524 l 1.329,3.977 c 1.509,-4.323 3.964,-7.837 7.364,-10.542 3.079,-2.498 6.485,-3.947 10.218,-4.348 3.479,-0.374 6.513,0.31 9.103,2.051 2.59,1.742 4.072,4.354 4.447,7.838 0.155,1.444 0.107,2.996 -0.144,4.656 l -10.211,65.549 c -0.761,4.895 -3.014,9.09 -6.759,12.586 -3.61,3.138 -7.537,4.935 -11.779,5.391 -6.448,0.692 -10.661,-1.773 -12.638,-7.397 l -1.329,-3.977 c -1.514,4.282 -3.972,7.765 -7.374,10.447 -3.081,2.477 -6.489,3.916 -10.222,4.317 -3.478,0.373 -6.468,-0.293 -8.968,-1.998 -2.764,-1.763 -4.338,-4.426 -4.72,-7.99 -0.146,-1.357 -0.094,-2.865 0.157,-4.522 l 10.22,-65.466 c 0.847,-4.897 3.143,-9.092 6.888,-12.584 3.602,-3.219 7.524,-5.056 11.767,-5.512 z"
       id="path877"
       inkscape:connector-curvature="0"
       style="fill:#30cfcf;fill-rule:evenodd;filter:url(#filter3751)" />
    <text
       font-size="101.661"
       x="496.07901"
       y="322.155"
       id="text879"
       style="font-size:101.66100311px;font-family:Arial, Arial_MSFontService, sans-serif;fill:#000000;fill-opacity:0;filter:url(#filter3763)">N</text>
    <path
       d="m 596.781,237.984 c -2.566,0.102 -5.011,1.075 -7.337,2.918 -2.325,1.843 -3.858,4.231 -4.598,7.164 l -14.472,64.626 c -0.301,1.036 -0.434,1.981 -0.4,2.834 0.176,4.433 2.764,6.551 7.764,6.352 2.544,-0.101 4.948,-1.031 7.212,-2.792 2.265,-1.761 3.761,-4.155 4.49,-7.184 l 4.902,-21.301 c -0.01,-0.255 0.154,-0.431 0.491,-0.53 0.249,-0.181 0.425,-0.06 0.527,0.363 l 7.024,25.213 c 0.91,3.551 3.327,5.248 7.25,5.093 2.56,-0.102 4.999,-1.074 7.317,-2.917 2.319,-1.843 3.804,-4.229 4.457,-7.159 l 14.596,-64.63 c 0.3,-1.037 0.433,-1.981 0.4,-2.834 -0.177,-4.434 -2.766,-6.552 -7.769,-6.353 -2.543,0.101 -4.887,0.966 -7.03,2.593 -2.388,1.894 -3.947,4.354 -4.675,7.382 l -4.816,21.32 c -0.075,0.248 -0.24,0.418 -0.494,0.51 -0.252,0.095 -0.428,-0.026 -0.529,-0.364 l -7.04,-25.212 c -0.912,-3.551 -3.335,-5.248 -7.27,-5.092 z m 1.497,-6.464 c 6.48,-0.257 10.519,2.528 12.117,8.358 l 1.058,4.057 c 1.797,-4.212 4.482,-7.553 8.057,-10.024 3.239,-2.285 6.735,-3.502 10.487,-3.651 3.496,-0.139 6.477,0.747 8.945,2.659 2.467,1.912 3.77,4.618 3.909,8.119 0.058,1.451 -0.095,2.996 -0.456,4.636 L 627.8,310.388 c -1.089,4.833 -3.619,8.867 -7.59,12.103 -3.814,2.888 -7.852,4.417 -12.115,4.587 -6.481,0.257 -10.518,-2.486 -12.113,-8.23 l -1.057,-4.057 c -1.799,4.17 -4.486,7.48 -8.061,9.927 -3.24,2.264 -6.737,3.471 -10.488,3.62 -3.496,0.139 -6.434,-0.727 -8.814,-2.597 -2.64,-1.944 -4.03,-4.707 -4.173,-8.288 -0.054,-1.365 0.1,-2.865 0.462,-4.502 l 14.598,-64.631 c 1.175,-4.829 3.747,-8.859 7.718,-12.092 3.811,-2.969 7.848,-4.539 12.111,-4.708 z"
       id="path881"
       inkscape:connector-curvature="0"
       style="fill:#30cfcf;fill-rule:evenodd;filter:url(#filter3775)" />
    <text
       font-size="98.1062"
       x="563.37903"
       y="316.08899"
       id="text883"
       style="font-size:98.10620117px;font-family:Arial, Arial_MSFontService, sans-serif;fill:#000000;fill-opacity:0;filter:url(#filter3787)">N</text>
    <path
       d="m 681.054,237.693 c -8.808,-0.156 -16.149,3.841 -22.023,11.99 -4.474,6.217 -8.621,15.843 -12.443,28.879 -2.919,10.243 -4.43,18.3 -4.534,24.169 -0.203,11.483 4.83,17.315 15.101,17.496 l 12.838,0.227 c 3.595,0.064 6.614,-1.197 9.057,-3.782 2.443,-2.585 3.69,-5.361 3.743,-8.327 0.079,-4.492 -2.313,-6.78 -7.176,-6.866 l -6.399,-0.113 c -2.474,-0.044 -4.134,-0.287 -4.98,-0.729 -1.353,-0.706 -2.008,-2.254 -1.966,-4.643 0.027,-1.536 0.319,-3.536 0.874,-6.002 l 0.133,-0.253 c 0.184,-0.765 0.789,-1.181 1.814,-1.248 l 14.078,0.249 c 3.583,0.063 6.593,-1.207 9.029,-3.809 2.435,-2.603 3.68,-5.397 3.733,-8.384 0.08,-4.522 -2.312,-6.826 -7.175,-6.912 l -14.334,-0.253 c -0.937,-0.102 -1.271,-0.535 -1.001,-1.298 l 0.132,-0.254 c 1.712,-5.09 3.604,-8.343 5.678,-9.757 1.381,-0.914 3.651,-1.344 6.808,-1.288 l 6.271,0.111 c 3.583,0.064 6.592,-1.197 9.028,-3.783 2.435,-2.585 3.679,-5.361 3.732,-8.327 0.079,-4.491 -2.318,-6.78 -7.192,-6.866 z m 1.821,-6.369 12.798,0.226 c 4.01,0.071 7.02,1.191 9.03,3.361 2.01,2.169 2.985,4.917 2.927,8.245 -0.088,4.948 -2.046,9.48 -5.874,13.594 -4.177,4.535 -9.251,6.749 -15.224,6.644 4.01,0.071 7.02,1.186 9.031,3.347 2.01,2.161 2.985,4.898 2.927,8.212 -0.087,4.929 -2.045,9.442 -5.873,13.54 -4.176,4.517 -9.25,6.722 -15.223,6.616 4.01,0.071 7.02,1.187 9.03,3.347 2.01,2.161 2.986,4.898 2.928,8.212 -0.088,4.929 -2.045,9.442 -5.873,13.541 -4.176,4.516 -9.251,6.721 -15.223,6.616 l -12.798,-0.227 c -13.566,-0.24 -20.219,-7.72 -19.958,-22.44 0.109,-6.213 1.712,-14.782 4.807,-25.707 3.724,-12.702 7.736,-22.42 12.037,-29.154 7.897,-12.202 18.074,-18.193 30.531,-17.973 z"
       id="path885"
       inkscape:connector-curvature="0"
       style="fill:#30cfcf;fill-rule:evenodd;filter:url(#filter3799)" />
    <text
       font-size="95.5099"
       x="635.492"
       y="314.88901"
       id="text887"
       style="font-size:95.50990295px;font-family:Arial, Arial_MSFontService, sans-serif;fill:#000000;fill-opacity:0;filter:url(#filter3811)">E</text>
    <path
       d="m 745.95,241.564 c -8.763,-0.686 -16.317,2.875 -22.662,10.681 -4.831,5.956 -9.546,15.345 -14.144,28.167 -3.527,10.081 -5.52,18.057 -5.979,23.927 -0.899,11.485 3.757,17.626 13.965,18.425 l 6.381,0.499 c 8.167,0.639 15.445,-2.13 21.834,-8.307 4.168,-4.039 6.915,-7.976 8.242,-11.809 0.335,-1.001 0.536,-1.927 0.602,-2.778 0.346,-4.424 -1.948,-6.828 -6.882,-7.214 -2.552,-0.2 -4.994,0.379 -7.326,1.738 -2.607,1.593 -4.452,3.846 -5.536,6.757 -0.663,1.916 -2.83,2.817 -6.502,2.701 -2.957,-0.49 -4.299,-2.483 -4.026,-5.98 0.254,-3.242 1.712,-8.751 4.374,-16.526 3.181,-8.936 5.916,-14.902 8.204,-17.898 1.81,-2.349 4.126,-3.499 6.947,-3.449 3.134,0.417 4.647,1.314 4.54,2.69 -0.027,0.343 -0.158,0.916 -0.392,1.72 -0.234,0.803 -0.371,1.462 -0.411,1.977 -0.35,4.469 1.943,6.896 6.877,7.282 2.552,0.2 5.063,-0.439 7.532,-1.914 2.47,-1.476 4.246,-3.67 5.33,-6.581 0.44,-1.249 0.736,-2.853 0.889,-4.809 0.912,-11.655 -4.247,-17.922 -15.477,-18.8 z m 2.158,-6.251 6.38,0.499 c 7.742,0.605 13.334,3.525 16.776,8.759 2.672,4.146 3.778,9.154 3.319,15.024 -0.193,2.467 -0.621,4.659 -1.285,6.576 -1.74,4.743 -4.7,8.384 -8.879,10.925 -4.179,2.541 -8.437,3.641 -12.776,3.302 -3.318,-0.26 -6.011,-1.39 -8.08,-3.393 -2.069,-2.002 -3.091,-4.799 -3.067,-8.392 -1.588,2.786 -3.509,7.386 -5.766,13.8 -2.256,6.415 -3.582,11.061 -3.979,13.94 4.905,-6.891 11.142,-10.041 18.714,-9.449 3.488,0.273 6.345,1.502 8.571,3.687 2.225,2.186 3.198,5.065 2.919,8.638 -0.113,1.447 -0.442,2.919 -0.987,4.417 -2.096,5.999 -6.216,11.625 -12.362,16.879 -7.974,6.738 -16.725,9.734 -26.253,8.989 l -6.38,-0.499 c -13.527,-1.058 -19.715,-8.946 -18.564,-23.664 0.486,-6.21 2.604,-14.69 6.355,-25.438 4.486,-12.488 9.079,-21.972 13.78,-28.452 8.622,-11.737 19.143,-17.12 31.564,-16.148 z"
       id="path889"
       inkscape:connector-curvature="0"
       style="fill:#30cfcf;fill-rule:evenodd;filter:url(#filter3823)" />
    <text
       font-size="94.4234"
       x="696.27399"
       y="317.82199"
       id="text891"
       style="font-size:94.42340088px;font-family:Arial, Arial_MSFontService, sans-serif;fill:#000000;fill-opacity:0;filter:url(#filter3835)">C</text>
    <path
       d="m 805.102,248.824 c -3.545,-0.528 -6.694,0.34 -9.447,2.604 -2.753,2.265 -4.35,4.874 -4.79,7.828 -0.666,4.474 1.407,7.069 6.219,7.785 2.11,0.315 2.883,1.206 2.319,2.675 l -21.604,49.453 c -0.404,0.975 -0.669,1.885 -0.795,2.729 -0.654,4.389 1.497,6.952 6.452,7.69 2.518,0.375 5.055,-0.09 7.61,-1.397 2.555,-1.306 4.432,-3.385 5.629,-6.236 l 21.602,-49.452 c 0.576,-1.535 1.925,-2.144 4.047,-1.828 3.567,0.531 6.734,-0.325 9.499,-2.571 2.765,-2.245 4.366,-4.834 4.803,-7.769 0.661,-4.443 -1.413,-7.022 -6.224,-7.739 z m 2.588,-6.085 25.321,3.772 c 3.967,0.591 6.803,2.113 8.508,4.567 1.705,2.454 2.306,5.369 1.803,8.745 -0.641,4.305 -2.764,8.13 -6.368,11.475 -3.908,3.646 -8.505,5.549 -13.792,5.711 l -20.042,45.932 c -1.996,4.707 -5.239,8.235 -9.73,10.586 -4.104,2.063 -8.308,2.774 -12.612,2.133 -3.461,-0.516 -6.228,-1.92 -8.302,-4.213 -2.074,-2.294 -2.854,-5.171 -2.338,-8.631 0.226,-1.519 0.67,-3.049 1.331,-4.59 l 20.042,-45.932 c -5.888,-2.172 -8.386,-6.253 -7.493,-12.246 0.729,-4.895 3.422,-9.218 8.078,-12.967 4.657,-3.75 9.855,-5.197 15.594,-4.342 z"
       id="path893"
       inkscape:connector-curvature="0"
       style="fill:#30cfcf;fill-rule:evenodd;filter:url(#filter3847)" />
    <text
       font-size="93.387"
       x="769.98401"
       y="324.215"
       id="text895"
       style="font-size:93.38700104px;font-family:Arial, Arial_MSFontService, sans-serif;fill:#000000;fill-opacity:0;filter:url(#filter3859)">T</text>
    <text
       font-size="94.0622"
       x="834.74402"
       y="338.41599"
       id="text899"
       style="font-size:94.06220245px;font-family:Arial, Arial_MSFontService, sans-serif;fill:#000000;fill-opacity:0;filter:url(#filter3871)">4</text>
    <text
       font-size="83.4695"
       x="880.10602"
       y="350.814"
       id="text903"
       style="font-size:83.46949768px;font-family:Arial, Arial_MSFontService, sans-serif;fill:#000000;fill-opacity:0;filter:url(#filter3883)">!</text>
    <path
       style="opacity:1;fill:#1d7775;fill-opacity:1;stroke-width:0.19220987;filter:url(#filter3895)"
       d="m 910.56984,338.07128 c -2.68886,-0.60145 -5.70094,-2.16052 -6.96644,-3.60586 -1.25065,-1.42839 -1.4888,-2.1242 -1.48984,-4.35339 -8.3e-4,-1.74697 0.073,-2.21964 0.5505,-3.51708 0.69737,-1.89549 0.32584,-1.34797 16.65606,-24.54557 9.32164,-13.2417 14.13677,-19.91792 14.98812,-20.78126 4.27868,-4.33887 10.51676,-5.80622 16.29146,-3.8321 4.04705,1.3835 6.37709,3.76917 6.70017,6.86018 0.1605,1.53565 -0.45703,3.97566 -1.41842,5.60455 -0.3954,0.66994 -7.24675,10.48888 -15.2252,21.81987 -16.28764,23.13173 -16.4121,23.28967 -19.61097,24.88559 -0.89859,0.44829 -2.32575,0.99256 -3.17148,1.20949 -2.09053,0.53619 -5.51391,0.65598 -7.30396,0.25558 z"
       id="path1463"
       inkscape:connector-curvature="0" />
    <path
       style="opacity:1;fill:#1d7775;fill-opacity:1;stroke-width:0.21168362;filter:url(#filter3907)"
       d="m 893.69047,361.92705 c -2.86991,-0.67066 -5.72292,-2.24603 -7.27279,-4.01591 -1.371,-1.56558 -1.85478,-3.05802 -1.72753,-5.32921 0.13035,-2.32727 0.81272,-4.20449 2.33357,-6.42021 3.65141,-5.31977 8.1799,-7.83032 14.11157,-7.82334 3.06259,0.005 4.41343,0.318 7.20747,1.67752 4.32691,2.10539 6.07691,5.22676 5.24135,9.34865 -0.4349,2.14545 -1.4768,4.21531 -3.25945,6.47532 -2.28769,2.90027 -4.98528,4.75393 -8.39229,5.76676 -1.98192,0.58919 -6.36292,0.75951 -8.2419,0.32042 z"
       id="path1465"
       inkscape:connector-curvature="0" />
  </g>
  <path
     style="opacity:1;fill:#1d7775;fill-opacity:1;stroke-width:0.13157359;filter:url(#filter3691)"
     d="m 491.6466,120.76703 c -1.08533,-0.25529 -3.06389,-1.01256 -3.92547,-1.50245 -2.12134,-1.2062 -3.36784,-2.99988 -3.60465,-5.18701 -0.17724,-1.63703 0.37888,-3.93053 1.41684,-5.84326 0.35117,-0.64713 1.6943,-2.82469 2.98472,-4.83903 1.29041,-2.01436 2.43961,-3.891915 2.55378,-4.172354 0.2612,-0.641613 0.1832,-1.24762 -0.23019,-1.788829 -0.44399,-0.581259 -1.10595,-0.929447 -2.93189,-1.542155 -6.13761,-2.059525 -9.69953,-4.985054 -11.58403,-9.514382 -2.3372,-5.617319 -1.14956,-13.385712 3.64304,-23.829553 1.72971,-3.769327 4.72813,-9.341242 7.42371,-13.79538 2.30605,-3.810502 11.60649,-18.329125 12.30305,-19.205901 2.23929,-2.818674 5.66387,-4.766513 9.42935,-5.363249 1.36195,-0.21583 4.42502,-0.09722 5.6123,0.217321 3.345,0.886153 5.65769,2.268982 6.75392,4.038376 1.31635,2.124643 1.18826,5.170963 -0.34619,8.234556 -0.26745,0.533953 -2.56316,4.228651 -5.10157,8.210439 -7.54411,11.833726 -10.69338,17.358907 -12.49393,21.919652 -0.93627,2.371554 -1.23463,3.588838 -1.31774,5.376141 -0.057,1.223905 -0.0234,1.642122 0.17938,2.239314 0.23663,0.696871 0.87589,1.619282 1.13134,1.632439 0.0651,0.0034 0.63934,-0.151056 1.27607,-0.34313 0.98269,-0.296435 1.20649,-0.418764 1.48048,-0.809224 0.17753,-0.252998 5.08591,-8.183926 10.9075,-17.624284 5.8216,-9.440358 10.92715,-17.626821 11.34567,-18.192139 4.11836,-5.562863 11.53316,-7.700604 17.94147,-5.172665 3.84377,1.516288 5.59805,3.826999 5.42699,7.148372 -0.0588,1.142724 -0.41982,2.665035 -0.85917,3.623307 -0.15944,0.347808 -5.47402,8.964942 -11.81016,19.149186 -6.33614,10.184242 -11.67019,18.774724 -11.85346,19.089958 -0.19827,0.341023 -0.35056,0.823492 -0.37604,1.191265 -0.0395,0.573115 -5e-4,0.661091 0.53892,1.208383 0.68652,0.696598 1.47215,2.007454 1.83547,3.062561 0.22711,0.659557 0.24772,0.991622 0.16455,2.65122 -0.0928,1.859239 -0.10618,1.925565 -0.66988,3.310614 -0.93336,2.295139 -1.92798,3.697952 -3.69166,5.206677 -1.8941,1.620334 -4.48671,2.757624 -7.58598,3.327744 -1.11642,0.20538 -2.54057,0.96357 -3.53104,1.87986 -0.29597,0.27381 -1.79165,2.49825 -3.56335,5.2995 -3.1344,4.95592 -3.74559,5.82084 -4.98245,7.05103 -2.02271,2.01174 -5.36915,3.53036 -8.64924,3.925 -1.35551,0.16307 -3.97807,0.029 -5.24048,-0.2669 z"
     id="path1456"
     inkscape:connector-curvature="0" />
</svg>
