<?xml version="1.0" encoding="UTF-8" standalone="no"?>
<!-- Created with Inkscape (http://www.inkscape.org/) -->

<svg
   xmlns:dc="http://purl.org/dc/elements/1.1/"
   xmlns:cc="http://creativecommons.org/ns#"
   xmlns:rdf="http://www.w3.org/1999/02/22-rdf-syntax-ns#"
   xmlns:svg="http://www.w3.org/2000/svg"
   xmlns="http://www.w3.org/2000/svg"
   xmlns:sodipodi="http://sodipodi.sourceforge.net/DTD/sodipodi-0.dtd"
   xmlns:inkscape="http://www.inkscape.org/namespaces/inkscape"
   viewBox="0 0 135.46715 120.04173"
   version="1.1"
   id="svg6633"
   inkscape:version="0.92.4 (5da689c313, 2019-01-14)"
   sodipodi:docname="maple-pizza-logo.svg">
  <defs
     id="defs6627" />
  <sodipodi:namedview
     id="base"
     pagecolor="#ffffff"
     bordercolor="#666666"
     borderopacity="1.0"
     inkscape:pageopacity="0.0"
     inkscape:pageshadow="2"
     inkscape:zoom="0.98994949"
     inkscape:cx="-167.10846"
     inkscape:cy="284.60971"
     inkscape:document-units="mm"
     inkscape:current-layer="layer1"
     showgrid="false"
     inkscape:window-width="1920"
     inkscape:window-height="986"
     inkscape:window-x="-11"
     inkscape:window-y="-11"
     inkscape:window-maximized="1"
     fit-margin-top="0"
     fit-margin-left="0"
     fit-margin-right="0"
     fit-margin-bottom="0" />
  <metadata
     id="metadata6630">
    <rdf:RDF>
      <cc:Work
         rdf:about="">
        <dc:format>image/svg+xml</dc:format>
        <dc:type
           rdf:resource="http://purl.org/dc/dcmitype/StillImage" />
        <dc:title></dc:title>
      </cc:Work>
    </rdf:RDF>
  </metadata>
  <g
     inkscape:label="Layer 1"
     inkscape:groupmode="layer"
     id="layer1"
     transform="translate(-7.105711,-4.1457971)">
    <path
       inkscape:connector-curvature="0"
       style="fill:#c87137;fill-opacity:1;stroke:none;stroke-width:1.85200024;stroke-miterlimit:4;stroke-dasharray:none;stroke-opacity:1"
       d="m 75.90041,124.11183 c 0.0836,0.0138 0.1583,0.0592 0.24342,0.0677 5.07047,0.50845 9.37117,-23.73606 14.81251,-23.66727 16.75477,0.17067 30.7035,13.38715 19.97814,-6.45028 -0.5577,-1.71007 -1.00812,-2.08388 -0.0729,-2.76674 l 29.8023,-22.63994 c 2.93259,-2.14177 2.39014,-6.66508 -0.9684,-8.0512 l -6.28439,-2.59312 c -0.10025,-0.0413 -0.15216,-0.15081 -0.12041,-0.25477 l 3.38791,-11.05307 c 1.09032,-3.55855 -2.24565,-6.89721 -5.80637,-5.80636 l -11.05358,3.38739 c -0.10426,0.0317 -0.21321,-0.0196 -0.25475,-0.11989 l -2.5926,-6.28437 c -1.38533,-3.35749 -5.90865,-3.90312 -8.05172,-0.9679 l -12.60286,17.26251 5.81927,-32.06368 c 0.6567,-3.61836 -2.96293,-6.53449 -6.35825,-5.12165 l -9.09452,3.78168 c -0.10028,0.0415 -0.21432,0.001 -0.26512,-0.0951 L 78.94468,6.59754 C 78.26491,5.31716 77.13159,4.5511 75.90041,4.26796 Z"
       id="path3877-4" />
    <path
       inkscape:connector-curvature="0"
       style="fill:#ad2d0c;fill-opacity:1;stroke:none;stroke-width:1.85208333;stroke-miterlimit:4;stroke-dasharray:none;stroke-opacity:1"
       d="m 75.90041,109.69979 c 2.44094,-8.01404 7.62897,-17.76328 17.28628,-17.2248 3.06952,-0.29707 7.16352,1.60611 9.27749,1.23455 -0.38677,-8.93852 9.12381,-12.69452 14.88644,-17.42785 4.12877,-3.40096 10.66773,-6.86759 13.23639,-10.66033 -5.50545,-2.7701 -6.60386,-9.86378 -3.66953,-14.89833 -10.13955,5.21353 -13.20993,-4.53563 -14.05496,-6.27093 -7.17511,5.12881 -13.21224,23.5486 -22.23535,17.19119 -9.40424,-6.62594 0.41643,-18.284 2.081,-34.44957 C 87.77462,29.96271 80.84888,28.70834 78.50335,23.1273 78.28548,22.354416 78.146799,21.493095 78.028564,20.637673 77.910328,19.78225 77.812537,18.932724 77.676447,18.183428 77.404268,16.684836 76.978896,15.587163 75.93038,15.64507 Z"
       id="path3880-5"
       sodipodi:nodetypes="cccccccsccsscc" />
    <path
       inkscape:connector-curvature="0"
       style="fill:#e7b55f;fill-opacity:1;stroke:none;stroke-width:1.85208333;stroke-miterlimit:4;stroke-dasharray:none;stroke-opacity:1"
       d="M 75.90041,124.11183 V 4.26798 C 73.97133,3.82435 71.79923,4.58957 70.73328,6.59756 l -7.4724,14.07821 c -0.0508,0.0958 -0.16482,0.13715 -0.2651,0.0946 L 53.90125,16.9892 c -3.39558,-1.41257 -7.01496,1.50303 -6.35827,5.12165 l 0.37569,2.07016 1.78438,9.83351 3.65921,20.16053 L 40.7589,36.91202 c -2.14068,-2.93178 -6.66481,-2.39171 -8.05119,0.9679 l -2.59312,6.28437 c -0.0413,0.10026 -0.15079,0.15216 -0.25477,0.12041 L 18.80623,40.89679 c -3.55831,-1.09006 -6.89775,2.24568 -5.80636,5.80637 l 3.38791,11.05358 c 0.032,0.10398 -0.0201,0.21348 -0.12041,0.25476 L 9.983,60.60463 C 6.62577,61.99024 6.08067,66.513 9.0151,68.65581 l 30.67099,22.39192 c 0.93554,0.68286 1.62185,0.93415 0.85835,1.80504 -14.49362,21.63712 15.93544,6.60483 20.40961,8.22224 6.0869,1.18871 7.76409,21.84445 14.94636,23.03685 z"
       id="path5242-3-0-1-8-6-7-5" />
    <path
       inkscape:connector-curvature="0"
       style="fill:#ff5523;fill-opacity:1;stroke:none;stroke-width:1.85208333;stroke-miterlimit:4;stroke-dasharray:none;stroke-opacity:1"
       d="m 75.90041,109.69979 c 0.02997,-94.05472 1e-5,-2e-5 0.02997,-94.05472 -1.023703,0.03871 -1.253364,0.459132 -1.552353,1.1622 -1.84491,6.30543 -7.06063,13.67512 -14.57792,11.64632 -3.46655,-2.06463 -3.42219,-0.54941 -2.42052,2.98069 2.82717,15.0912 9.84209,24.35489 1.38079,29.16205 -7.2725,4.13179 -12.81462,-3.66355 -20.92327,-13.85187 -2.55923,5.31847 -9.18998,6.94964 -14.23996,4.25039 -1.5011,-0.32461 0.7872,3.58363 0.46096,5.22449 0.57562,4.01345 -1.71725,8.24896 -5.60173,9.60717 10.03438,7.95774 22.4872,13.75732 30.10514,24.27759 1.02373,2.21347 -1.76507,6.503 2.00091,4.46741 7.32393,-2.76327 17.1003,-1.79147 20.9796,5.87612 1.9218,2.89446 2.91095,7.33002 4.18942,9.76376 0.0488,-0.16655 0.11774,-0.3434 0.16896,-0.5116 z"
       id="path5242-3-0-1-8-6-8-4-5"
       sodipodi:nodetypes="cccccccccccccccc" />
    <path
       style="fill:#f9f9f9;fill-opacity:1;stroke:none;stroke-width:1.85208333;stroke-miterlimit:4;stroke-dasharray:none;stroke-opacity:1"
       d="m 37.83711,46.74448 c -0.63438,1.31832 -1.51917,2.40949 -2.5678,3.2649 2.421,1.71104 4.08973,1.24534 5.02398,1.70894 -0.22163,2.31732 -0.44944,4.63144 -1.6707,6.36705 -0.41728,0.10666 -0.40311,1.2754 -1.53065,-0.3669 -1.37808,-1.67417 -1.12658,-3.26462 -0.6687,-4.84465 -0.46381,-1.07548 -1.08425,-1.82918 -1.80247,-2.3823 -3.1484,2.15597 -7.47543,2.39986 -11.02362,0.50333 -1.5011,-0.32461 0.78719,3.58364 0.46096,5.22449 0.57561,4.01346 -1.71725,8.24896 -5.60173,9.60716 6.8449,5.42833 14.81418,9.8531 21.60747,15.45641 1.15429,-0.68605 2.30289,-1.37505 1.72599,-3.06854 -0.19527,-2.99434 -2.36858,-2.84063 -3.9734,-3.65455 -8.39484,-0.1798 8.4111,-6.42884 10.50375,-10.27017 2.96152,-6.64772 3.26536,2.21941 4.98213,3.18947 1.21938,0.6894 2.05134,1.66238 3.76617,1.86448 2.47711,-0.82969 3.38891,-1.13782 3.69538,-3.3538 C 58.65222,63.73318 58.2133,62.22657 58.17954,60.90122 51.18915,64.30691 45.72848,56.65979 37.83711,46.74448 Z"
       id="path5242-3-0-1-8-6-8-4-9-1"
       inkscape:connector-curvature="0" />
    <path
       style="fill:#4d671e;fill-opacity:1;stroke:none;stroke-width:1.85200024;stroke-linecap:butt;stroke-linejoin:miter;stroke-miterlimit:4;stroke-dasharray:none;stroke-opacity:1"
       d="m 48.43352,71.5855 c -0.87542,-3.16354 -1.51809,-6.89005 -3.75127,-9.43188 -1.94032,-2.2085 -4.97897,-2.92411 -7.70716,-4.28723 -0.91396,1.50426 -2.67711,2.68004 -2.7282,4.51807 -0.25384,2.3645 0.009,4.68185 1.12538,6.6287 1.61875,2.82322 6.74931,4.05851 9.13946,3.49573 z"
       id="path2862-6-2-7-7"
       inkscape:connector-curvature="0"
       sodipodi:nodetypes="caccssc" />
    <path
       style="fill:#e0dace;fill-opacity:1;stroke:none;stroke-width:1.85208333;stroke-miterlimit:4;stroke-dasharray:none;stroke-opacity:1"
       d="m 123.11823,52.99214 c -2.01007,2.6471 -2.77921,1.79217 -4.12378,2.56108 -2.60758,-1.13223 -4.24105,-3.7403 -11.31044,1.88774 -2.65827,3.02511 -6.1673,6.57884 -5.13146,7.30963 2.69735,0.47892 5.05723,1.28466 5.75779,3.69745 -0.34597,2.69605 -2.19549,3.86783 -5.12887,3.94085 0,0 -4.901487,-1.870263 -7.39749,-1.53531 -1.94081,0.260448 -4.07609,2.93823 -5.2338,2.66806 0,0 -6.753395,-0.2256 -8.93225,1.90014 -2.778299,2.710572 -1.88847,7.56737 -2.7032,11.32643 -0.16081,4.04092 0.22096,7.70034 4.48551,8.63152 0.4531,-0.0925 0.85685,-0.16132 1.2392,-0.22015 2.35437,-1.80591 5.17811,-2.87244 8.54728,-2.68459 3.06951,-0.29707 7.16349,1.60611 9.27746,1.23455 -0.38677,-8.93852 9.12381,-12.69454 14.88644,-17.42787 4.12877,-3.40095 10.66773,-6.86758 13.2364,-10.66033 -4.53126,-2.27993 -6.07447,-7.4885 -4.84362,-12.06748 -0.86689,-0.19682 -1.77794,-0.34197 -2.62517,-0.56172 z"
       id="path3880-1-4"
       inkscape:connector-curvature="0"
       sodipodi:nodetypes="ccccccacaccccccccc" />
    <path
       style="fill:#e0dace;fill-opacity:1;stroke:none;stroke-width:1.85208333;stroke-miterlimit:4;stroke-dasharray:none;stroke-opacity:1"
       d="m 75.90022,19.9554 v 29.99714 c 0.88215,-0.84873 1.49878,-0.6652 2.24689,-0.99322 1.00103,0.22779 -1.42499,3.8362 -1.26658,2.80758 -0.34076,0.12994 -0.6649,0.27136 -0.98031,0.41754 v 16.20005 c 2.82705,0.0889 7.07885,-0.68604 8.98861,-4.64468 0.73768,-3.59209 1.64264,-8.08687 0.45215,-10.62571 -2.60311,-1.61839 0.48712,-5.42678 2.60503,-6.68383 0.78915,-2.76327 1.8056,-5.77891 2.71817,-9.04337 -5.14111,2.18423 -2.95359,3.12563 -2.9683,4.39094 -1.888,0.66492 -1.20293,-1.00972 -3.01274,-1.36632 -3.17275,-0.68654 -1.68928,-0.75751 -0.83302,-2.26911 0.78717,-1.72608 5.0045,-2.78867 6.40684,-2.99362 2.09828,-3.08918 -2.51936,-3.91163 -2.93005,-6.33811 l 0.01,-0.20258 C 82.499053,27.688446 78.9159,25.203038 78.018378,20.57576 77.548638,20.43475 76.26074,20.19354 75.9004,19.9554 Z"
       id="path3880-15-2"
       inkscape:connector-curvature="0"
       sodipodi:nodetypes="ccccccccccccccccccc" />
    <ellipse
       style="opacity:1;fill:#e7b55f;fill-opacity:1;stroke:none;stroke-width:0.50017345;stroke-linecap:round;stroke-linejoin:round;stroke-miterlimit:4;stroke-dasharray:none;stroke-opacity:1"
       id="path6138-5-2"
       cx="115.93707"
       cy="72.18116"
       rx="2.875114"
       ry="2.5687041" />
    <path
       style="fill:#688628;fill-opacity:1;stroke:none;stroke-width:1.85200024;stroke-linecap:butt;stroke-linejoin:miter;stroke-miterlimit:4;stroke-dasharray:none;stroke-opacity:1"
       d="m 118.97181,58.46772 c -1.42858,-0.56599 -2.90083,-0.96914 -4.6352,-0.39476 -2.92457,0.9186 -6.52174,3.04507 -8.82609,7.77439 -0.12009,1.02861 -0.40761,2.12057 -0.007,2.9513 0.66306,0.39287 1.29009,1.09977 2.01908,0.9183 l -0.17057,0.90725 c 0.32387,0.90494 1.77519,2.59446 4.26526,2.17159 1.94883,-0.33095 2.84707,-1.28327 4.46052,-4.15635 1.24626,-3.10041 3.99538,-9.77371 2.89379,-10.17172 z"
       id="path2864-1-1-3-8"
       inkscape:connector-curvature="0"
       sodipodi:nodetypes="ccccccsccc" />
    <ellipse
       style="fill:#ffffff;fill-opacity:1;stroke:none;stroke-width:0.02645833;stroke-miterlimit:4;stroke-dasharray:none;stroke-opacity:1"
       cx="54.154476"
       cy="82.178627"
       rx="7.7751431"
       ry="6.1919117"
       id="ellipse5232-9-9-3-6" />
    <ellipse
       style="fill:#ffffff;fill-opacity:1;stroke:none;stroke-width:0.02645833;stroke-miterlimit:4;stroke-dasharray:none;stroke-opacity:1"
       cx="94.182373"
       cy="82.178627"
       rx="7.7751431"
       ry="6.1919117"
       id="ellipse5234-8-2-5-5" />
    <path
       style="fill:#552200;fill-opacity:1;stroke:none;stroke-width:0.31674337;stroke-opacity:1"
       d="m 60.44304,75.29364 c -2.08881,-1.12622 -4.9378,-2.0841 -8.42503,-2.13374 -0.44958,-0.006 -1.20421,0.0289 -1.20421,-0.10068 0,-0.12956 -0.33484,-0.91197 0.469,-1.13215 0.80383,-0.22017 1.16447,-0.30322 1.35752,-0.36223 0.23515,-0.0719 0.3039,-0.78774 0.20831,-2.16908 0.40838,-13.54094 18.30858,-3.29398 9.86015,4.57417 -0.97392,0.85074 -0.24566,0.75944 0.0991,1.19967 0.32588,0.41613 -0.0133,1.0184 -0.4723,1.12135 -0.43989,0.0975 -1.40349,-0.69883 -1.89254,-0.99732 -1e-5,0 0,1e-5 0,1e-5 z m 1.53844,-6.49239 c 2.98173,-5.53877 -5.98086,-3.13336 -2.57385,-0.0237 1.01943,0.84978 1.78764,0.85684 2.57385,0.0237 z m 22.92718,6.40437 c 0.38924,-0.53391 0.71323,-0.19033 -0.16357,-1.22884 -8.53979,-10.11479 9.67942,-15.6748 9.69741,-4.9575 0,2.70861 0.003,2.71677 0.80023,2.71667 0.48582,-7e-5 0.36888,0.002 0.93196,0.20048 0.5631,0.19807 0.44645,0.8111 0.44645,0.98207 0,0.13605 0.13271,0.12623 -1.36702,0.2462 -3.1751,0.254 -6.70615,1.21339 -8.61947,2.34193 -0.82713,0.48786 -1.26957,0.73351 -1.43383,0.74325 -0.43306,-0.22585 -0.7263,-0.44873 -0.29216,-1.04426 z m 3.22625,-6.40437 c 2.26547,-3.50286 -3.25297,-4.76962 -3.38455,-1.61551 0,0.86082 1.32751,2.26764 2.13981,2.26764 0.34616,0 0.90628,-0.29346 1.24474,-0.65213 z"
       id="path5197-0-4-9-6-4-7"
       inkscape:connector-curvature="0"
       sodipodi:nodetypes="csccccccscccccsscssccccscccc" />
    <path
       style="fill:#ffffff;fill-opacity:1;stroke:none;stroke-width:0.31674337;stroke-opacity:1"
       d="m 61.98148,68.80125 c 2.98173,-5.53877 -5.98086,-3.13336 -2.57385,-0.0237 1.01943,0.84978 1.78764,0.85684 2.57385,0.0237 z m 26.15343,0 c 2.26547,-3.50286 -3.25297,-4.76962 -3.38455,-1.61551 0,0.86082 1.32751,2.26764 2.13981,2.26764 0.34616,0 0.90628,-0.29346 1.24474,-0.65213 z"
       id="path5197-0-3-9-9-5-4"
       inkscape:connector-curvature="0"
       sodipodi:nodetypes="ccccccsc" />
    <path
       style="fill:#552200;fill-opacity:1;stroke:none;stroke-width:0.31674337;stroke-opacity:1"
       d="m 74.54917,90.60938 c -4.0321,0.0233 -6.02078,-0.2403 -7.09008,-2.0271 -1.0311,-1.72299 -2.45148,-8.89595 -1.61483,-9.99205 3.32994,2.8487 16.71549,-2.00716 17.80878,0.0522 0.53599,1.18462 -0.55442,8.49158 -2.29194,10.04294 -2.24487,2.00438 -3.17558,1.90344 -6.81193,1.92403 z"
       id="path5197-0-4-8-2"
       inkscape:connector-curvature="0"
       sodipodi:nodetypes="ccccscc" />
    <path
       style="fill:#e3dbdb;fill-opacity:1;stroke:none;stroke-width:0.31674337;stroke-opacity:1"
       d="m 69.18861,81.28901 c -1.24956,0.0907 -2.99146,-1.69786 -2.99146,-1.69786 4.40666,2.60531 14.67408,-2.21077 16.62445,-0.3426 -0.1177,1.34036 -2.49346,0.86373 -3.83834,0.90599 -3.05123,0.0959 -6.63468,0.90508 -9.79465,1.13447 z"
       id="path5197-0-6-70-0-7"
       inkscape:connector-curvature="0"
       sodipodi:nodetypes="sccss" />
    <path
       style="fill:#c83737;fill-opacity:1;stroke:none;stroke-width:0.31674337;stroke-opacity:1"
       d="m 71.02199,89.42519 c -1.25263,-0.0234 -2.60678,-1.03314 -2.60678,-1.03314 0.2191,-8.00362 12.46949,-7.44316 13.00727,-1.30424 -0.59077,0.99012 -2.3277,2.43803 -3.6763,2.43107 -3.05272,-0.0157 -3.06203,-0.0253 -6.72419,-0.0937 z"
       id="path5197-0-6-7-5-0-1"
       inkscape:connector-curvature="0"
       sodipodi:nodetypes="sccss" />
    <path
       style="fill:#ff5555;fill-opacity:1;stroke:none;stroke-width:0.31674337;stroke-opacity:1"
       d="m 75.7662,83.39557 c -4.25043,-0.66462 -5.57221,7.53399 -7.06853,4.60366 0.32466,-5.21614 7.47569,-5.63306 7.06853,-4.60366 z"
       id="path5197-0-6-6-0-0-4"
       inkscape:connector-curvature="0"
       sodipodi:nodetypes="ccc" />
    <path
       style="fill:#f9f9f9;fill-opacity:1;stroke:none;stroke-width:0.47232834px;stroke-linecap:butt;stroke-linejoin:miter;stroke-opacity:1"
       d="m 54.48545,88.9076 c -0.57742,0.0131 -0.97846,0.24028 -1.11776,0.80616 -0.021,0.12593 -0.0245,0.25885 -0.0186,0.39429 0.20492,0.57028 0.0318,1.16482 0.001,1.65054 0,0.72311 0.0151,1.33369 0.0501,1.85208 0.0351,0.5184 0.0897,0.94443 0.16899,1.29915 0.0608,0.27215 0.15073,0.47051 0.24236,0.66766 0.0873,0.14075 0.16777,0.28681 0.27905,0.40876 0.16855,0.18466 0.36632,0.34746 0.59738,0.48628 0.20155,0.12107 0.35036,0.14915 0.51315,0.21961 0.085,0.0178 0.166,0.0486 0.25321,0.0574 0.3943,0.0398 0.80524,-0.01 1.17823,-0.13177 0.18649,-0.061 0.36309,-0.1398 0.52399,-0.23461 0.16091,-0.0948 0.30609,-0.20548 0.42789,-0.3297 0.12179,-0.12422 0.2202,-0.26213 0.28939,-0.41134 0.0692,-0.14921 0.10906,-0.30978 0.11213,-0.47956 0.001,-0.0919 -0.0113,-0.19954 -0.006,-0.28164 0.005,-0.0821 0.0291,-0.13856 0.10335,-0.12816 0.0617,0.009 0.11515,-0.0134 0.16123,-0.0594 0.0461,-0.046 0.0849,-0.1164 0.11679,-0.20412 0.0638,-0.17543 0.1006,-0.42118 0.11627,-0.68523 0.0143,-0.24082 -0.005,-0.45354 -0.0326,-0.65629 0.0198,8e-4 0.0374,0.003 0.0574,0.004 3.00986,0.099 5.96329,0.88025 7.80004,1.89963 1.77095,0.98285 3.61236,2.81997 3.76877,3.14812 -0.0952,-0.60386 -1.4843,-3.1554 -2.43913,-4.53563 -0.97737,-1.41279 -2.38157,-2.64382 -4.12326,-2.4381 -1.69715,0.20045 -4.07355,-0.82417 -6.10506,-1.57562 -1.14273,-0.42268 -2.17628,-0.75898 -2.91868,-0.74207 z"
       id="path1719-8-16-3-0"
       inkscape:connector-curvature="0"
       sodipodi:nodetypes="cccccccccccccccccccccccccccccc" />
    <path
       style="fill:#f9f9f9;fill-opacity:1;stroke:none;stroke-width:0.41376758px;stroke-linecap:butt;stroke-linejoin:miter;stroke-opacity:1"
       d="m 73.80422,18.51053 c -1.64079,4.31698 -4.76713,8.68904 -9.05113,9.93273 -0.0133,0.26623 -0.0236,0.54179 -0.0279,0.83664 0.46514,2.75994 1.14951,5.41824 1.85052,4.86792 3.2839,-2.57801 0.11033,2.51127 -0.83664,4.63331 -0.52702,-0.55563 -2.55701,4.05944 -3.15071,5.15472 -0.0592,5.22007 3.30888,4.43682 5.00795,6.57686 2.14858,1.92999 4.332,3.40434 6.76498,1.62006 0.60946,-1.10145 1.10564,-1.76337 1.53892,-2.18023 V 19.9554 c -0.45543,-0.30099 -0.9054,-0.58594 -1.55752,-0.60616 -0.26051,-0.18741 -0.56896,-0.32021 -0.53848,-0.83871 z m 2.096,33.67391 c -6.14886,2.84999 -7.48908,8.51553 -4.09948,6.49728 1.34909,-0.55643 2.37985,-0.0828 1.72858,0.9462 -0.80788,1.27652 -3.29428,-0.2275 -3.86231,1.59938 -0.66291,2.13195 -0.45069,3.89494 0.39015,5.18677 1.27016,1.95144 2.08188,1.37162 3.99823,1.77096 0.47434,0.0988 1.11437,0.17648 1.84483,0.19946 z"
       id="path1719-8-1-7"
       inkscape:connector-curvature="0" />
    <path
       inkscape:connector-curvature="0"
       style="fill:none;fill-opacity:1;stroke:none;stroke-width:1.85208333;stroke-miterlimit:4;stroke-dasharray:none;stroke-opacity:1"
       d="m 75.90042,109.69977 c 2.44094,-8.01404 7.62897,-17.76328 17.28628,-17.2248 3.06952,-0.29707 7.16352,1.6061 9.27749,1.23455 -0.38677,-8.93851 9.12382,-12.69452 14.88643,-17.42785 4.12877,-3.40095 10.66775,-6.86758 13.2364,-10.66033 -5.50545,-2.77009 -6.60387,-9.86379 -3.66953,-14.89833 -10.13955,5.21352 -13.20993,-4.53562 -14.05496,-6.27093 -7.17511,5.12881 -13.21224,23.5486 -22.23535,17.19119 -9.40424,-6.62594 0.41643,-18.284 2.081,-34.44957 -4.93355,2.76899 -11.85928,1.51462 -14.20481,-4.06642 -1.03876,-1.63808 -1.82531,-3.407 -2.60295,-5.17953 z"
       id="path3880-3-2" />
    <path
       style="fill:#e0dace;fill-opacity:1;stroke:none;stroke-width:0.20360593"
       d="m 91.51591,89.092 c -0.95631,-0.15027 0.28141,0.47414 0.0351,1.35755 -0.24266,0.87045 -5.52894,1.29389 -6.8647,1.60921 -1.33575,0.31529 1.26788,0.13526 0.53486,1.04179 0.53594,-0.10309 0.69519,0.16164 0.74672,0.5364 0.0435,0.0745 0.0737,0.16779 0.0837,0.28681 0.0102,0.12116 2.6e-4,0.26761 -0.0362,0.44441 -0.0414,0.17673 -0.0497,0.34832 -0.0315,0.51056 0.0182,0.16224 0.0629,0.31515 0.12816,0.45373 0.0653,0.13857 0.1508,0.26325 0.25063,0.36896 0.0998,0.10572 0.21405,0.19263 0.3359,0.25632 0.12184,0.0637 0.25159,0.10379 0.38292,0.11627 0.13133,0.0125 0.26395,-0.003 0.39222,-0.0506 0.12828,-0.0479 0.25215,-0.1285 0.36484,-0.24598 0.11269,-0.11749 0.21463,-0.27195 0.29921,-0.46819 0.17657,-0.21932 0.30209,-0.34664 0.39997,-0.39223 0.0979,-0.0456 0.16771,-0.009 0.23306,0.0971 0.0941,0.15354 0.1375,0.49766 0.0961,0.76482 -0.0283,0.18313 -0.021,0.36706 0.016,0.54726 0.037,0.18019 0.10363,0.35669 0.19378,0.52502 0.18032,0.33668 0.45453,0.64087 0.77464,0.87643 0.16005,0.11779 0.33172,0.21857 0.50849,0.29766 0.17677,0.0791 0.35869,0.1365 0.54002,0.16795 0.18133,0.0314 0.36215,0.0365 0.53588,0.0114 0.17374,-0.0251 0.34056,-0.0804 0.49455,-0.17105 0.22661,-0.13342 1.61508,-1.51467 3.0856,-3.06907 1.29509,-1.36896 1.96233,-2.08064 2.2841,-2.53059 0.16088,-0.22497 0.23529,-0.38462 0.2589,-0.52813 0.0236,-0.14352 -0.004,-0.27109 -0.0465,-0.43202 -0.0488,-0.18271 -0.0753,-0.40463 -0.078,-0.61546 -0.003,-0.21084 0.0179,-0.41009 0.0625,-0.54726 -1.94093,-0.54466 -5.02469,-1.06879 -5.98103,-1.21905 z"
       id="path5351-5-1-6-6-4-3-8"
       inkscape:connector-curvature="0" />
    <path
       inkscape:connector-curvature="0"
       style="fill:none;fill-opacity:1;stroke:none;stroke-width:1.85208333;stroke-miterlimit:4;stroke-dasharray:none;stroke-opacity:1"
       d="M 75.90041,109.69979 V 17.94777 c -0.3379,-0.77026 -0.67241,-1.54255 -1.02835,-2.3027 l -0.39119,0.92035 -0.10284,0.24185 c -1.84492,6.30543 -7.06063,13.67512 -14.57792,11.64632 -3.46655,-2.06463 -3.42219,-0.54941 -2.42052,2.98069 2.82717,15.09121 9.84209,24.35489 1.38079,29.16205 -7.2725,4.13179 -12.81462,-3.66355 -20.92327,-13.85187 -2.55923,5.31847 -9.18998,6.94964 -14.23996,4.25039 -1.5011,-0.32461 0.7872,3.58364 0.46096,5.22449 0.57562,4.01346 -1.71725,8.24896 -5.60173,9.60717 10.03438,7.95775 22.4872,13.75732 30.10514,24.27759 1.02373,2.21347 -1.76507,6.503 2.00092,4.46741 7.32392,-2.76327 17.10029,-1.79147 20.9796,5.87612 1.9218,2.89446 2.91094,7.33002 4.18941,9.76376 0.0488,-0.16655 0.11774,-0.3434 0.16896,-0.5116 z"
       id="path5242-3-0-1-8-6-8-4-1-0" />
    <path
       style="fill:#165016;fill-opacity:1;stroke:none;stroke-width:0.00817099;stroke-miterlimit:4;stroke-dasharray:none;stroke-opacity:1"
       sodipodi:nodetypes="sssssss"
       inkscape:connector-curvature="0"
       d="m 110.76404,67.7481 2.76363,-2.82864 c 2.09968,-2.14914 2.09801,-3.87088 1.9203,-4.00458 -0.17771,-0.13368 -2.06982,0.98542 -3.23616,2.96308 l -1.89949,3.22075 c -0.25441,0.43139 -0.54269,1.01671 -0.36494,1.15041 0.17771,0.1337 0.4685,-0.14469 0.81666,-0.50102 z"
       id="path5242-4-5-3-1-3-8" />
    <path
       style="fill:#37400c;fill-opacity:1;stroke:none;stroke-width:0.0094095;stroke-miterlimit:4;stroke-dasharray:none;stroke-opacity:1"
       sodipodi:nodetypes="sssssss"
       inkscape:connector-curvature="0"
       d="M 44.13672,68.74298 41.03745,65.3596 c -2.35475,-2.57057 -4.29853,-2.65457 -4.45553,-2.45275 -0.15734,0.2015 1.04202,2.47744 3.23495,3.9445 l 3.57137,2.38919 c 0.47838,0.31994 1.1293,0.68741 1.2863,0.48555 0.15735,-0.20151 -0.14732,-0.5569 -0.53782,-0.98311 z"
       id="path5242-4-5-3-1-6-4-3-4" />
    <path
       style="fill:#ffeeaa;fill-opacity:1;stroke:none;stroke-width:1.85208333;stroke-miterlimit:4;stroke-dasharray:none;stroke-opacity:1"
       d="m 74.79869,4.14605 c -1.10863,0.006 -2.2139,0.39648 -3.07681,1.17615 -0.005,0.004 -0.01,0.009 -0.0145,0.0134 -0.0819,0.0747 -0.16094,0.15391 -0.23823,0.23565 -0.0269,0.0286 -0.0527,0.0584 -0.079,0.0879 -0.0522,0.0582 -0.10322,0.11776 -0.15296,0.17931 -0.0321,0.0398 -0.0641,0.0798 -0.0951,0.12093 -0.0462,0.0612 -0.0907,0.12486 -0.13437,0.18913 -0.0277,0.0407 -0.0561,0.0805 -0.0827,0.12248 -0.0518,0.0815 -0.10057,0.16642 -0.14832,0.25269 -0.0139,0.0252 -0.0293,0.0488 -0.0429,0.0744 l -7.47292,14.0777 c -0.0127,0.0239 -0.0292,0.0443 -0.0486,0.061 -0.0195,0.0169 -0.0418,0.0296 -0.0656,0.0382 -0.0474,0.0171 -0.10075,0.0172 -0.15089,-0.004 l -6.42337,-2.67116 -2.67065,-1.11052 c -1.4e-4,-6e-5 -2.6e-4,6e-5 -5.3e-4,0 -0.10596,-0.0441 -0.21206,-0.0841 -0.31832,-0.11989 -1.6e-4,-5e-5 -2.6e-4,5e-5 -5.3e-4,0 -0.10625,-0.0358 -0.21256,-0.0674 -0.31884,-0.0951 -1.5e-4,-4e-5 -2.6e-4,4e-5 -5.2e-4,0 -0.10629,-0.0276 -0.2123,-0.0515 -0.31834,-0.0713 -1.6e-4,-3e-5 -2.7e-4,3e-5 -5.3e-4,0 -0.10602,-0.0197 -0.2118,-0.0354 -0.31729,-0.0475 -1.8e-4,-2e-5 -2.7e-4,2e-5 -5.3e-4,0 -0.10549,-0.0121 -0.21104,-0.0207 -0.31573,-0.0253 -1.9e-4,-10e-6 -2.7e-4,10e-6 -5.3e-4,0 -0.41944,-0.0186 -0.83111,0.0218 -1.22679,0.11369 -0.0988,0.023 -0.19693,0.0493 -0.29353,0.0786 -0.0968,0.0293 -0.19249,0.0617 -0.28681,0.0971 -0.18846,0.0709 -0.37174,0.15399 -0.5488,0.24804 -1.3e-4,8e-5 -2.7e-4,-7e-5 -5.3e-4,0 -0.17706,0.0941 -0.34767,0.19977 -0.5111,0.31523 -0.0819,0.0578 -0.16221,0.11799 -0.24029,0.18087 -0.15582,0.12553 -0.30345,0.26087 -0.44236,0.40514 -0.13888,0.14427 -0.26932,0.29764 -0.38912,0.45889 -8e-5,1.1e-4 8e-5,4e-4 0,5.3e-4 -0.0598,0.0806 -0.11742,0.16305 -0.17209,0.24753 -5e-5,1.2e-4 8e-5,4e-4 0,5e-4 -0.0546,0.0845 -0.10686,0.17074 -0.15605,0.2589 -0.0493,0.0884 -0.0954,0.17837 -0.13901,0.27027 -0.087,0.18339 -0.16238,0.37353 -0.22479,0.56947 -5e-5,1.6e-4 5e-5,3.7e-4 0,5.3e-4 -0.0311,0.0979 -0.0591,0.19748 -0.0837,0.29817 -5e-5,1.6e-4 3e-5,3.7e-4 0,5.3e-4 -0.0246,0.1007 -0.0463,0.20264 -0.0641,0.30592 -0.0178,0.10362 -0.0322,0.2082 -0.0429,0.3142 -0.0214,0.21164 -0.0279,0.42772 -0.0191,0.6475 3e-5,1.8e-4 0,3.5e-4 0,5.3e-4 0.004,0.10973 0.0125,0.22034 0.0248,0.33176 3e-5,1.7e-4 -2e-5,3.5e-4 0,5.3e-4 0.0123,0.11143 0.0286,0.2235 0.0491,0.33641 3e-5,1.7e-4 -2e-5,3.5e-4 0,5.3e-4 l 0.37571,2.06964 v 5.3e-4 l 0.27387,1.5105 1.51101,8.32249 3.65871,20.16053 -12.60337,-17.26303 c -0.1338,-0.18324 -0.27681,-0.35274 -0.42789,-0.50902 -0.15097,-0.15617 -0.30988,-0.29935 -0.47543,-0.42891 -10e-5,-9e-5 -2.6e-4,9e-5 -5.3e-4,0 -0.0827,-0.0647 -0.16685,-0.12635 -0.2527,-0.18449 -1.1e-4,-8e-5 -5.3e-4,9e-5 -5.3e-4,0 -0.0858,-0.0581 -0.17285,-0.11326 -0.26148,-0.16484 -1.4e-4,-8e-5 -5.3e-4,7e-5 -5.3e-4,0 -0.0886,-0.0516 -0.17865,-0.10015 -0.26975,-0.14521 -1.3e-4,-7e-5 -2.6e-4,6e-5 -5.3e-4,0 -0.0911,-0.0451 -0.18324,-0.087 -0.27646,-0.12558 -1.3e-4,-6e-5 -2.7e-4,6e-5 -5.3e-4,0 -0.035,-0.0145 -0.0707,-0.0262 -0.10594,-0.0398 -0.0587,-0.0226 -0.11689,-0.0461 -0.17622,-0.0661 -0.0665,-0.0225 -0.13385,-0.0416 -0.20102,-0.061 -0.029,-0.008 -0.0577,-0.0186 -0.0868,-0.0264 -1.6e-4,-4e-5 -2.7e-4,5e-5 -5.3e-4,0 -0.0964,-0.0258 -0.19339,-0.0483 -0.29094,-0.0677 -1.6e-4,-3e-5 -2.7e-4,4e-5 -5.3e-4,0 -0.0161,-0.003 -0.0324,-0.005 -0.0486,-0.008 -0.27374,-0.0514 -0.55083,-0.0789 -0.82785,-0.0811 -0.004,-3e-5 -0.008,-5.3e-4 -0.0114,-5.3e-4 -0.0989,-5.3e-4 -0.19799,0.002 -0.29662,0.008 -0.29647,0.0169 -0.59071,0.0613 -0.87903,0.13332 -1.6e-4,4e-5 -2.7e-4,-4e-5 -5.3e-4,0 -0.0959,0.024 -0.1914,0.0511 -0.28578,0.0811 -0.0945,0.03 -0.18851,0.0632 -0.28112,0.0992 -0.55549,0.21627 -1.07365,0.5406 -1.51773,0.9679 -0.0739,0.0711 -0.14584,0.14483 -0.2155,0.22169 -8e-5,9e-5 8e-5,5.3e-4 0,5.3e-4 -0.0697,0.0769 -0.1375,0.1562 -0.20257,0.23874 -7e-5,1.1e-4 8e-5,5.3e-4 0,5.3e-4 -0.0651,0.0825 -0.12797,0.16762 -0.18811,0.2558 -6e-5,1.1e-4 8e-5,5.3e-4 0,5.3e-4 -0.0601,0.0882 -0.11777,0.17908 -0.17259,0.27285 -8e-5,1.2e-4 8e-5,2.7e-4 0,5.3e-4 -0.0548,0.0938 -0.10737,0.19058 -0.15658,0.28991 -6e-5,1.3e-4 8e-5,2.7e-4 0,5.3e-4 -0.0492,0.0993 -0.0957,0.20108 -0.13901,0.30592 -6e-5,1.5e-4 5e-5,2.7e-4 0,5.3e-4 l -2.5926,6.28437 c -0.031,0.0752 -0.10015,0.12292 -0.17675,0.12867 -0.0255,0.002 -0.052,-7.9e-4 -0.078,-0.009 h -5.3e-4 l -3.38738,-1.03818 -7.66567,-2.34921 c -0.55599,-0.17032 -1.10686,-0.23284 -1.63608,-0.20309 -1.8e-4,10e-6 -3.5e-4,-1e-5 -5.3e-4,0 -0.52904,0.0298 -1.03669,0.15161 -1.50689,0.34933 -1.5e-4,7e-5 -3.7e-4,-6e-5 -5.3e-4,0 -2.06925,0.8704 -3.41262,3.21232 -2.66236,5.66012 l 2.3492,7.66568 1.0382,3.3874 v 5.3e-4 c 0.008,0.0258 0.0107,0.0521 0.009,0.0775 -3e-5,1.7e-4 0,2.7e-4 0,5.3e-4 -0.002,0.0254 -0.008,0.0497 -0.0191,0.0724 -8e-5,1.5e-4 8e-5,2.7e-4 0,5.3e-4 -0.0214,0.0455 -0.0594,0.0832 -0.10954,0.10387 l -6.28491,2.59261 c -0.73438,0.3031 -1.3344,0.75611 -1.79263,1.30173 -0.0655,0.0779 -0.12793,0.15772 -0.18759,0.23926 -0.29845,0.40783 -0.52404,0.85852 -0.6744,1.33119 -0.0301,0.0945 -0.0571,0.18969 -0.0811,0.28577 -3e-5,1.6e-4 5e-5,2.7e-4 0,5.3e-4 -0.048,0.19218 -0.0839,0.38695 -0.10747,0.58343 -0.035,0.29097 -0.0427,0.58542 -0.0233,0.8785 2.4e-4,0.004 2.6e-4,0.007 5e-4,0.0108 6.9e-4,0.01 0.002,0.02 0.003,0.03 0.0129,0.17149 0.0353,0.34241 0.0672,0.51211 0.003,0.0162 0.005,0.0325 0.008,0.0486 2e-5,1.7e-4 -3e-5,2.6e-4 0,5.3e-4 0.0194,0.0976 0.042,0.19449 0.0677,0.29094 0.008,0.0293 0.0179,0.0581 0.0264,0.0873 0.0193,0.0672 0.0385,0.13455 0.061,0.20102 0.0321,0.0949 0.0669,0.18898 0.10543,0.28215 8e-5,2.1e-4 4.2e-4,2.6e-4 5e-4,5.3e-4 0.0386,0.0932 0.0806,0.18542 0.12558,0.27646 0.0242,0.049 0.0514,0.0969 0.0775,0.14521 0.0225,0.0417 0.0433,0.0839 0.0672,0.12506 10e-5,2e-4 3.9e-4,2.6e-4 5.3e-4,5.3e-4 0.0515,0.0886 0.10623,0.1762 0.16433,0.262 1.3e-4,2e-4 3.7e-4,2.6e-4 5e-4,5.3e-4 0.0581,0.0858 0.1198,0.17002 0.18449,0.25269 1.4e-4,1.9e-4 3.8e-4,2.6e-4 5.1e-4,5.2e-4 0.0647,0.0827 0.13226,0.16368 0.20362,0.24289 1.6e-4,1.8e-4 3.4e-4,2.6e-4 5e-4,5.3e-4 0.0714,0.0792 0.14627,0.15661 0.22429,0.23202 1.6e-4,1.7e-4 3.2e-4,2.6e-4 5e-4,5.3e-4 0.078,0.0754 0.15918,0.14886 0.24392,0.22014 1.9e-4,1.6e-4 3.2e-4,2.6e-4 5.1e-4,5.3e-4 0.0848,0.0713 0.17309,0.1404 0.26458,0.20722 2.1e-4,1.4e-4 3.4e-4,2.6e-4 5.3e-4,5.3e-4 l 30.67073,22.39114 c 0.70165,0.51216 1.26294,0.78151 1.17771,1.25161 -0.0142,0.0784 -0.0462,0.16219 -0.0987,0.25373 -0.0525,0.0915 -0.1252,0.19086 -0.22064,0.29972 -3.1705,4.73313 -4.19132,7.71158 -3.80441,9.49348 0.0552,0.25456 0.13901,0.4846 0.24958,0.69196 0.11057,0.20733 0.24775,0.39212 0.40928,0.55551 0.16153,0.16338 0.34735,0.3052 0.55552,0.42788 2.1e-4,1.3e-4 2.6e-4,2.7e-4 5.3e-4,5.3e-4 0.1039,0.0612 0.21341,0.1173 0.32814,0.16898 0.11512,0.0519 0.23521,0.0989 0.3607,0.14159 0.12523,0.0426 0.25514,0.0809 0.39016,0.11473 1.5e-4,4e-5 2.6e-4,-5e-5 5.3e-4,0 0.13486,0.0338 0.27453,0.0634 0.4186,0.0889 0.43285,0.0766 0.90606,0.11679 1.41232,0.12557 0.16867,0.003 0.34102,0.002 0.51675,-0.002 1.05431,-0.0228 2.23068,-0.16286 3.4711,-0.3762 0.4137,-0.0712 0.83465,-0.15034 1.26039,-0.23616 1.27657,-0.25738 2.59768,-0.57355 3.90467,-0.90434 1.6e-4,-4e-5 2.6e-4,4e-5 5.3e-4,0 1.30696,-0.33079 2.5998,-0.67635 3.82043,-0.99272 1.5e-4,-3e-5 2.6e-4,6e-5 5.3e-4,0 3.02083,-0.78292 5.59618,-1.38584 6.84557,-1.14565 0.0128,0.002 0.0278,0.004 0.0403,0.006 1.5e-4,2e-5 2.6e-4,-4e-5 5.2e-4,0 0.0229,0.005 0.0416,0.0126 0.0636,0.0181 0.0567,0.014 0.11406,0.0273 0.16434,0.0455 0.0964,0.0188 0.19156,0.0429 0.28577,0.0713 0.094,0.0284 0.18711,0.0616 0.27905,0.0992 0.092,0.0377 0.18283,0.08 0.27285,0.1266 0.09,0.0467 0.17907,0.0976 0.26717,0.15297 0.0878,0.0552 0.17499,0.11482 0.26097,0.17828 0.0862,0.0636 0.17137,0.13143 0.25578,0.20309 0.0845,0.0717 0.16789,0.14743 0.25064,0.22685 4.6531,4.46537 6.68686,20.91809 13.07415,21.97851 l 0.002,-4.39548 c -1.69105,-1.38608 -2.43303,0.49026 -3.39425,-1.355 -0.96122,-1.84525 -2.14371,-5.048 -2.84897,-7.05322 -1.41051,-4.01043 -2.78296,-8.0416 -6.01284,-10.89666 -8.42907,-4.12403 -16.90765,4.20285 -25.74417,2.01589 0.71974,-3.84664 4.07376,-6.50472 4.86897,-10.23657 C 33.95005,82.49588 21.69791,76.21331 11.36541,68.07531 5.54963,64.1186 13.67442,60.47422 17.29887,59.61845 19.90946,54.52747 11.8288,48.2406 14.77914,43.78428 c 0.68425,-1.03353 2.43704,-1.29989 3.60893,-0.89609 1.64778,0.56775 -1.35151,2.43745 3.22129,4.11834 3.40236,1.25067 2.59466,-2.33095 3.75289,-1.86382 1.15822,0.46714 2.32202,0.86055 3.50286,1.00112 4.98996,0.15751 3.76894,-8.6616 7.64127,-8.75462 8.33532,-0.20022 9.7261,21.44465 17.33393,18.03312 6.56975,-2.94602 -7.02983,-24.7855 -3.70778,-35.60248 4.55242,-3.72806 8.7037,3.90816 13.37902,2.68925 5.54069,-3.25483 4.56781,-12.054124 9.51668,-16.1680138 0.48112,-0.6622984 2.087844,-1.047855 2.87607,-0.9645327 L 75.903,4.1500461 Z"
       id="path5242-3-0-1-8-6-6"
       inkscape:connector-curvature="0"
       sodipodi:nodetypes="ccccccccccccccccccccccccccccccccccccccccccccccccccccccccccccccccccccccccccccccccccccccccccccccccccccccccccccccccccccccccccccccccccccccccccccccccccccccccccccccccccccccccccccccccccccccccccccsscccccaaszcascccccc" />
    <path
       style="fill:#a05a2c;fill-opacity:1;stroke:none;stroke-width:1.85208333;stroke-miterlimit:4;stroke-dasharray:none;stroke-opacity:1"
       d="m 75.903,4.1500461 0.0013,1.2265074 c 5.757719,0.3113214 3.800162,14.5336245 9.862672,17.0675765 4.471989,1.86916 9.839805,-6.033154 14.07046,-3.66799 2.793938,1.561962 -10.03382,35.03736 -4.39716,37.53827 4.610038,2.04542 9.511688,-10.86686 15.434208,-18.53994 4.75739,-2.54396 5.46867,4.64335 7.074,7.40419 5.08498,2.63974 10.42956,-2.82017 15.84965,-2.50785 2.82567,4.98155 -1.90256,9.46573 -2.3709,14.26579 0.0406,2.41913 0.96244,2.83752 3.51345,3.4543 2.55102,0.61678 0.5442,3.3133 2.84719,3.84139 4.83303,1.10822 1.22317,4.45644 -1.5495,6.194 -2.77267,1.73756 -6.18929,3.17234 -8.57873,4.89693 -6.27015,4.98952 -12.30998,9.48068 -18.2812,14.76743 -3.88964,3.98272 4.64828,8.16531 0.51366,11.54296 -6.92348,0.62221 -13.826188,-5.30052 -20.845748,-2.33371 -7.22111,5.60087 -7.04209,15.09061 -11.81956,22.50431 0.47516,-0.55234 -0.69854,-2.03996 -1.32439,-2.08804 l -0.002,4.39566 c 0.0834,0.0138 0.15795,0.0591 0.24286,0.0677 1.8e-4,2e-5 2.6e-4,-1e-5 5.3e-4,0 0.0792,0.008 0.15832,0.01 0.23719,0.006 0.15754,-0.008 0.31462,-0.0393 0.47078,-0.0925 0.0783,-0.0267 0.1561,-0.0586 0.23407,-0.0961 0.15555,-0.0748 0.31076,-0.17072 0.46512,-0.28629 0.15446,-0.11567 0.30808,-0.25109 0.46146,-0.40463 4.29439,-4.29908 8.18218,-22.85413 12.94339,-22.79395 14.136818,0.14402 26.275908,9.57513 23.281798,0.60306 -0.0554,-0.16595 -0.11557,-0.33805 -0.18139,-0.51676 -8e-5,-2e-4 -5.3e-4,-2.6e-4 -5.3e-4,-5.3e-4 -0.0659,-0.17875 -0.13647,-0.36417 -0.21291,-0.55604 -8e-5,-2e-4 -5.3e-4,-2.6e-4 -5.3e-4,-5.3e-4 -0.0765,-0.19189 -0.15822,-0.39045 -0.24545,-0.59582 -8e-5,-2.1e-4 -5.3e-4,-2.6e-4 -5.3e-4,-5.3e-4 -0.26191,-0.61662 -0.57227,-1.29477 -0.9343,-2.03915 -10e-5,-2e-4 -5.3e-4,-2.6e-4 -5.3e-4,-5.3e-4 -0.24135,-0.49624 -0.50572,-1.02219 -0.79322,-1.57872 -1e-4,-1.9e-4 -5.3e-4,-2.6e-4 -5.3e-4,-5.3e-4 -0.28752,-0.55657 -0.59822,-1.14404 -0.93326,-1.76371 -8e-5,-2.3e-4 -5.3e-4,-2.7e-4 -5.3e-4,-5.3e-4 -0.0696,-0.21353 -0.13721,-0.4063 -0.201,-0.58136 -1.1e-4,-2.2e-4 -5.3e-4,-2.7e-4 -5.3e-4,-5.3e-4 -0.0401,-0.11013 -0.0744,-0.20225 -0.1106,-0.29922 -0.0214,-0.0573 -0.0459,-0.12358 -0.0656,-0.17672 -0.053,-0.14291 -0.0993,-0.27135 -0.13642,-0.38861 -6e-5,-1.8e-4 5e-5,-2.7e-4 0,-5.3e-4 -0.0743,-0.23475 -0.11203,-0.42424 -0.093,-0.59479 0.01,-0.0853 0.0331,-0.16608 0.0734,-0.24495 0.0806,-0.15774 0.22765,-0.30884 0.46146,-0.47956 l 29.80233,-22.63996 c 0.4582,-0.33465 0.8319,-0.72766 1.12291,-1.15755 0.11642,-0.17195 0.21932,-0.34979 0.30954,-0.53227 0.18047,-0.36495 0.3089,-0.74807 0.38656,-1.13894 0.0776,-0.39087 0.10475,-0.78971 0.0822,-1.18494 -0.0113,-0.19762 -0.0349,-0.39393 -0.0708,-0.5886 -0.0179,-0.0973 -0.039,-0.19433 -0.063,-0.29042 -0.024,-0.0961 -0.0511,-0.19178 -0.0811,-0.28629 -0.12026,-0.37803 -0.28853,-0.74179 -0.50385,-1.08107 -0.16148,-0.25446 -0.34957,-0.49522 -0.56327,-0.71727 -0.0712,-0.0739 -0.14483,-0.14582 -0.2217,-0.21549 -8e-5,-9e-5 -5.3e-4,9e-5 -5.3e-4,0 -0.15383,-0.13939 -0.31917,-0.27037 -0.49559,-0.39067 -1.1e-4,-8e-5 -5.3e-4,8e-5 -5.3e-4,0 -0.0882,-0.0601 -0.1786,-0.11777 -0.27234,-0.1726 -1.3e-4,-8e-5 -5.3e-4,8e-5 -5.3e-4,0 -0.18761,-0.10972 -0.38658,-0.20848 -0.59634,-0.29507 h -5.3e-4 l -6.28386,-2.59313 c -1.6e-4,-5e-5 -5.2e-4,6e-5 -5.2e-4,0 -0.0249,-0.0103 -0.0467,-0.0253 -0.0651,-0.0429 -0.0556,-0.0531 -0.0791,-0.13376 -0.0553,-0.21187 l 3.38791,-11.0536 c 0.30665,-1.00083 0.26345,-1.98433 -0.0367,-2.85666 -0.0333,-0.0967 -0.0696,-0.19243 -0.10903,-0.28629 -8e-5,-2.1e-4 -5.3e-4,-2.7e-4 -5.3e-4,-5.3e-4 -0.0395,-0.0939 -0.0817,-0.18625 -0.12714,-0.27698 -1e-4,-2.1e-4 -2.7e-4,-2.7e-4 -5.3e-4,-5.3e-4 -0.0454,-0.0907 -0.0936,-0.17981 -0.1447,-0.26716 -1.3e-4,-2.1e-4 -5.3e-4,-2.7e-4 -5.3e-4,-5.3e-4 -0.0511,-0.0873 -0.10472,-0.17312 -0.16121,-0.25683 -1.6e-4,-2e-4 -5.3e-4,-2.6e-4 -5.3e-4,-5.3e-4 -0.0565,-0.0837 -0.11557,-0.16564 -0.17724,-0.24546 -1.6e-4,-1.9e-4 -2.7e-4,-2.6e-4 -5.3e-4,-5.3e-4 -0.12351,-0.15982 -0.25731,-0.31151 -0.39997,-0.45424 -1.6e-4,-1.7e-4 -2.7e-4,-2.6e-4 -5.3e-4,-5.3e-4 -0.0713,-0.0713 -0.14441,-0.14053 -0.22016,-0.20721 -1e-4,-9e-5 -5.3e-4,7e-5 -5.3e-4,0 -0.0758,-0.0667 -0.1537,-0.13099 -0.23357,-0.19276 -1.4e-4,-9e-5 -5.3e-4,9e-5 -5.3e-4,0 -0.0578,-0.0447 -0.11793,-0.0867 -0.17778,-0.12868 -0.023,-0.0161 -0.0449,-0.0339 -0.0682,-0.0496 -0.0837,-0.0565 -0.16898,-0.11012 -0.2563,-0.16123 -2.1e-4,-1.2e-4 -2.7e-4,-5.2e-4 -5.3e-4,-5.2e-4 -0.0872,-0.051 -0.17658,-0.0993 -0.26717,-0.14469 -2.6e-4,-1.8e-4 -7.9e-4,-2.7e-4 -0.001,-5.3e-4 -0.0908,-0.0454 -0.18307,-0.0881 -0.27697,-0.12764 -1.6e-4,-7e-5 -2.6e-4,5e-5 -5.3e-4,0 -0.0939,-0.0395 -0.18899,-0.0762 -0.28578,-0.10957 -1.5e-4,-5e-5 -2.6e-4,7e-5 -5.3e-4,0 -0.0968,-0.0333 -0.19516,-0.0636 -0.29456,-0.0904 -1.6e-4,-4e-5 -2.6e-4,5e-5 -5.3e-4,0 -0.0303,-0.008 -0.0614,-0.0141 -0.092,-0.0217 -0.0696,-0.0172 -0.13861,-0.0346 -0.20928,-0.0486 -0.0823,-0.0163 -0.16591,-0.0285 -0.24961,-0.0403 -0.02,-0.003 -0.0394,-0.007 -0.0594,-0.01 -1.5e-4,-1e-5 -2.7e-4,4e-5 -5.3e-4,0 -0.10387,-0.0132 -0.20902,-0.023 -0.31472,-0.0289 -1.6e-4,0 -2.7e-4,2e-5 -5.3e-4,0 -0.52935,-0.0298 -1.08021,0.0326 -1.63658,0.2031 l -11.0538,3.38703 c -0.0259,0.008 -0.0522,0.0106 -0.0775,0.009 -0.0257,-0.002 -0.0505,-0.009 -0.0734,-0.0196 -0.0226,-0.0106 -0.0428,-0.0257 -0.0605,-0.0439 -0.0178,-0.0185 -0.033,-0.0399 -0.0434,-0.0651 l -2.59263,-6.28437 c -0.25974,-0.62954 -0.62984,-1.16058 -1.07384,-1.58803 -0.0664,-0.0639 -0.13504,-0.12467 -0.20463,-0.18396 -0.008,-0.007 -0.0152,-0.0145 -0.0232,-0.0212 -0.0778,-0.0654 -0.15731,-0.12798 -0.23874,-0.18759 -1.2e-4,-8e-5 -2.6e-4,9e-5 -5.2e-4,0 -0.0814,-0.0596 -0.16438,-0.11624 -0.24908,-0.17001 -1.3e-4,-8e-5 -2.7e-4,7e-5 -5.3e-4,0 -0.0847,-0.0538 -0.17079,-0.10506 -0.25839,-0.15297 -1.3e-4,-7e-5 -2.7e-4,8e-5 -5.3e-4,0 -0.0876,-0.0479 -0.17645,-0.0929 -0.26665,-0.13487 -1.3e-4,-7e-5 -2.7e-4,6e-5 -5.3e-4,0 -0.0902,-0.042 -0.18145,-0.0813 -0.2739,-0.11731 -1.5e-4,-6e-5 -2.6e-4,6e-5 -5.3e-4,0 -0.18502,-0.0721 -0.37438,-0.13229 -0.56639,-0.18035 -1.6e-4,-4e-5 -2.6e-4,4e-5 -5.3e-4,0 -0.0961,-0.024 -0.19259,-0.0451 -0.28991,-0.063 -0.29199,-0.0539 -0.58859,-0.0802 -0.88574,-0.0786 -0.099,5.3e-4 -0.1982,0.004 -0.29713,0.0109 -0.19791,0.0136 -0.39521,0.0397 -0.59066,0.0786 -0.29321,0.0582 -0.58234,0.14504 -0.86249,0.26097 -0.5603,0.23186 -1.08534,0.58028 -1.53892,1.04955 -0.0755,0.0781 -0.1493,0.15958 -0.22066,0.24443 -8e-5,9e-5 8e-5,5.3e-4 0,5.3e-4 -0.0714,0.0849 -0.14084,0.17297 -0.20772,0.26459 -1.1e-4,1.1e-4 7e-5,5.3e-4 0,5.3e-4 L 96.316387,54.17458 102.13516,22.11091 c 0.20516,-1.13048 -0.007,-2.19293 -0.49919,-3.07578 -1e-4,-2.1e-4 -2.7e-4,-3.2e-4 -5.3e-4,-5.3e-4 -0.0492,-0.0881 -0.10096,-0.17448 -0.15555,-0.2589 -1.3e-4,-2e-4 -2.7e-4,-3.1e-4 -5.3e-4,-5.3e-4 -0.16406,-0.25359 -0.35189,-0.48999 -0.56017,-0.70641 -1.6e-4,-1.8e-4 -2.6e-4,-3.4e-4 -5.3e-4,-5.3e-4 -0.0693,-0.072 -0.14131,-0.14184 -0.21497,-0.20929 -1.8e-4,-1.6e-4 -2.6e-4,-3.4e-4 -5.3e-4,-5e-4 -0.0738,-0.0675 -0.14901,-0.13261 -0.22685,-0.19534 -1.1e-4,-9e-5 -5.3e-4,9e-5 -5.3e-4,0 -0.0778,-0.0627 -0.15759,-0.12316 -0.23926,-0.18087 -1.1e-4,-8e-5 -5.3e-4,8e-5 -5.3e-4,0 -0.054,-0.0381 -0.10983,-0.0737 -0.16536,-0.10955 -0.0286,-0.0185 -0.0562,-0.0385 -0.0853,-0.0563 -0.0851,-0.0524 -0.17205,-0.10186 -0.26043,-0.14883 -2.1e-4,-1.1e-4 -2.6e-4,-4.2e-4 -5.3e-4,-5.3e-4 -0.0884,-0.047 -0.17839,-0.091 -0.26975,-0.13229 -2e-4,-9e-5 -2.6e-4,-4.2e-4 -5.3e-4,-5.3e-4 -0.0914,-0.0413 -0.18444,-0.0793 -0.27851,-0.11472 -2.3e-4,-8e-5 -2.7e-4,-4.5e-4 -5.3e-4,-5e-4 -0.0941,-0.0354 -0.18974,-0.0674 -0.28628,-0.0966 -0.9675,-0.29332 -2.05042,-0.2746 -3.11145,0.16691 l -9.09452,3.78168 h -5.3e-4 c -0.0249,0.0103 -0.0505,0.0154 -0.076,0.016 -0.004,9e-5 -0.008,-0.002 -0.0124,-0.002 -0.0214,-8.7e-4 -0.0426,-0.003 -0.0625,-0.0103 -0.0236,-0.008 -0.0453,-0.0212 -0.0646,-0.0377 -0.0194,-0.0166 -0.0364,-0.037 -0.0491,-0.061 L 86.41714,20.67544 80.53227,6.59793 C 80.48267,6.50443 80.43001,6.41426 80.37569,6.32611 80.35809,6.29751 80.33959,6.26981 80.32149,6.24191 80.28569,6.18641 80.24899,6.13195 80.2114,6.07861 80.1849,6.04121 80.1581,6.00431 80.1308,5.96803 80.1037,5.93193 80.0755,5.89713 80.0476,5.86209 79.227196,4.5883318 76.586753,4.1419046 75.903,4.1500461 Z"
       id="path5242-3-0-1-8-6-6-2-3"
       inkscape:connector-curvature="0"
       sodipodi:nodetypes="ccassccccssscccccccccccccccccccccccccccccccccccsccccccccccccccccccccccccccccccccccccccccccccccccccccccccccccccccccccccccccccccccccccccscccccccccccccccccccccccccccccccccccccccccccc" />
    <ellipse
       style="opacity:1;fill:#a05a2c;fill-opacity:1;stroke:none;stroke-width:0.94190508;stroke-linecap:round;stroke-linejoin:round;stroke-miterlimit:4;stroke-dasharray:none;stroke-opacity:1"
       id="path6138"
       cx="101.75021"
       cy="15.646406"
       rx="2.6861258"
       ry="9.7502518"
       transform="rotate(11.906258)" />
    <ellipse
       style="opacity:1;fill:#ffeeaa;fill-opacity:1;stroke:none;stroke-width:0.74842054;stroke-linecap:round;stroke-linejoin:round;stroke-miterlimit:4;stroke-dasharray:none;stroke-opacity:1"
       id="path6138-2"
       cx="9.3821955"
       cy="109.56735"
       rx="5.8380232"
       ry="2.832392"
       transform="matrix(0.98271085,-0.18514693,0.34717379,0.93780081,0,0)" />
    <ellipse
       style="opacity:1;fill:#e7b55f;fill-opacity:1;stroke:none;stroke-width:0.67334247;stroke-linecap:round;stroke-linejoin:round;stroke-miterlimit:4;stroke-dasharray:none;stroke-opacity:1"
       id="path6138-5"
       cx="69.068024"
       cy="25.784584"
       rx="3.9145486"
       ry="3.4191506" />
    <ellipse
       style="opacity:1;fill:#e7b55f;fill-opacity:1;stroke:none;stroke-width:0.83996564;stroke-linecap:round;stroke-linejoin:round;stroke-miterlimit:4;stroke-dasharray:none;stroke-opacity:1"
       id="path6138-5-3"
       cx="65.929741"
       cy="2.8743684"
       rx="4.481513"
       ry="4.647573"
       transform="rotate(67.410542)" />
    <ellipse
       style="opacity:1;fill:#c87137;fill-opacity:1;stroke:none;stroke-width:0.89215887;stroke-linecap:round;stroke-linejoin:round;stroke-miterlimit:4;stroke-dasharray:none;stroke-opacity:1"
       id="path6138-4"
       cx="80.99221"
       cy="111.11851"
       rx="5.2020664"
       ry="4.5168576"
       transform="matrix(0.94453003,-0.32842507,0.30949107,0.95090235,0,0)" />
    <ellipse
       style="opacity:1;fill:#e7b55f;fill-opacity:1;stroke:none;stroke-width:0.50017345;stroke-linecap:round;stroke-linejoin:round;stroke-miterlimit:4;stroke-dasharray:none;stroke-opacity:1"
       id="path6138-5-6"
       cx="27.490658"
       cy="68.779366"
       rx="2.875114"
       ry="2.5687041" />
    <ellipse
       style="opacity:1;fill:#a05a2c;fill-opacity:1;stroke:none;stroke-width:0.55378485;stroke-linecap:round;stroke-linejoin:round;stroke-miterlimit:4;stroke-dasharray:none;stroke-opacity:1"
       id="path6138-6"
       cx="12.843939"
       cy="149.64903"
       rx="2.7096915"
       ry="3.3411052"
       transform="matrix(0.59266908,-0.80544607,0.68452542,0.72898899,0,0)" />
    <ellipse
       style="opacity:1;fill:#c87137;fill-opacity:1;stroke:none;stroke-width:0.56395525;stroke-linecap:round;stroke-linejoin:round;stroke-miterlimit:4;stroke-dasharray:none;stroke-opacity:1"
       id="path6138-4-0"
       cx="119.21741"
       cy="115.26295"
       rx="2.3046801"
       ry="4.0738635"
       transform="matrix(0.76991665,-0.63814446,0.03429298,0.99941182,0,0)" />
    <ellipse
       style="opacity:1;fill:#e7b55f;fill-opacity:1;stroke:none;stroke-width:0.33241403;stroke-linecap:round;stroke-linejoin:round;stroke-miterlimit:4;stroke-dasharray:none;stroke-opacity:1"
       id="path6138-5-66"
       cx="29.603846"
       cy="38.177498"
       rx="2.0843492"
       ry="1.5650063"
       transform="matrix(0.97257581,0.2325861,-0.17888143,0.98387064,0,0)" />
    <ellipse
       style="opacity:1;fill:#e7b55f;fill-opacity:1;stroke:none;stroke-width:0.29142231;stroke-linecap:round;stroke-linejoin:round;stroke-miterlimit:4;stroke-dasharray:none;stroke-opacity:1"
       id="path6138-5-66-8"
       cx="0.12053199"
       cy="110.0416"
       rx="2.1817007"
       ry="1.1491538"
       transform="matrix(0.89877783,-0.43840439,0.40305085,0.91517758,0,0)" />
    <ellipse
       style="opacity:1;fill:#a05a2c;fill-opacity:1;stroke:none;stroke-width:0.4433111;stroke-linecap:round;stroke-linejoin:round;stroke-miterlimit:4;stroke-dasharray:none;stroke-opacity:1"
       id="path6138-6-1"
       cx="-12.019084"
       cy="140.36504"
       rx="2.0939009"
       ry="2.7706962"
       transform="matrix(0.80364129,-0.59511401,0.8649223,0.50190579,0,0)" />
    <ellipse
       style="opacity:1;fill:#ffeeaa;fill-opacity:1;stroke:none;stroke-width:0.59130347;stroke-linecap:round;stroke-linejoin:round;stroke-miterlimit:4;stroke-dasharray:none;stroke-opacity:1"
       id="path6138-5-2-5"
       cx="54.043118"
       cy="14.753502"
       rx="2.3318994"
       ry="4.4262805"
       transform="matrix(0.9831193,0.18296567,-0.14523906,0.98939659,0,0)" />
    <path
       style="fill:#e0dace;fill-opacity:1;stroke:none;stroke-width:0.47232834px;stroke-linecap:butt;stroke-linejoin:miter;stroke-opacity:1"
       d="m 124.40665,64.84096 c -0.57742,0.0131 -0.97847,0.24028 -1.11776,0.80615 -0.021,0.12594 -0.0245,0.25886 -0.0186,0.39429 0.20492,0.57029 0.0318,1.16483 10e-4,1.65054 0,0.72312 0.0151,3.45038 0.0501,3.96876 0.0351,0.5184 0.0897,0.94443 0.16898,1.29914 0.0608,0.27215 0.15073,0.47052 0.24236,0.66766 0.0873,0.14075 0.16778,0.28682 0.27906,0.40876 0.16855,0.18467 0.36632,0.34747 0.59738,0.48628 0.20155,0.12108 0.35035,0.14916 0.51314,0.21962 0.085,0.0178 0.16601,0.0486 0.25322,0.0574 0.3943,0.0398 0.80524,-0.01 1.17822,-0.13177 0.18649,-0.061 0.3631,-0.13979 0.524,-0.2346 0.1609,-0.0948 0.30608,-0.20549 0.42788,-0.3297 0.1218,-0.12422 0.2202,-0.26214 0.28939,-0.41134 0.0692,-0.14922 0.10907,-0.30978 0.11213,-0.47956 0.001,-0.0919 -0.0113,-0.19955 -0.006,-0.28165 0.005,-0.0821 0.0291,-0.13855 0.10336,-0.12815 0.0617,0.009 0.11515,-0.0134 0.16123,-0.0594 0.0461,-0.046 0.0849,-0.1164 0.11679,-0.20412 0.0638,-0.17543 0.1006,-0.42119 0.11627,-0.68523 0.0143,-0.24083 -0.006,-2.57021 -0.0326,-2.77296 0.0198,7.9e-4 -0.10434,-0.42222 -0.0843,-0.42122 1.07577,0.52209 0.54089,0.49384 0.99441,0.98067 1.05126,1.12847 1.85272,0.42734 1.86435,-0.50597 0.0293,-2.34984 -0.012,-3.00236 -0.68823,-3.5394 -0.6762,-0.53704 -2.696,-0.2499 -3.88338,0.50804 -1.14273,-0.42268 -1.42034,-1.2787 -2.16274,-1.26179 z"
       id="path1719-8-16-3-1"
       inkscape:connector-curvature="0"
       sodipodi:nodetypes="cccccccccccccccccccccccsssccc" />
  </g>
</svg>
