<?xml version="1.0" encoding="utf-8"?>
<!-- Generator: Adobe Illustrator 25.4.1, SVG Export Plug-In . SVG Version: 6.00 Build 0)  -->
<svg version="1.1" id="svg6633"
	xmlns:cc="http://creativecommons.org/ns#"
	xmlns:dc="http://purl.org/dc/elements/1.1/"
	xmlns:inkscape="http://www.inkscape.org/namespaces/inkscape"
	xmlns:rdf="http://www.w3.org/1999/02/22-rdf-syntax-ns#"
	xmlns:sodipodi="http://sodipodi.sourceforge.net/DTD/sodipodi-0.dtd"
	xmlns:svg="http://www.w3.org/2000/svg"
	xmlns="http://www.w3.org/2000/svg"
	xmlns:xlink="http://www.w3.org/1999/xlink" x="0px" y="0px" viewBox="0 0 155.4 140" style="enable-background:new 0 0 155.4 140;" xml:space="preserve">
	<style type="text/css">
	.st0{fill:none;}
	.st1{fill:#C87137;}
	.st2{fill:#AD2D0C;}
	.st3{fill:#E7B55F;}
	.st4{fill:#FF5523;}
	.st5{fill:#F9F9F9;}
	.st6{fill:#4D671E;}
	.st7{fill:#E0DACE;}
	.st8{fill:#688628;}
	.st9{fill:#FFFFFF;}
	.st10{fill:#552200;}
	.st11{fill:#E3DBDB;}
	.st12{fill:#C83737;}
	.st13{fill:#FF5555;}
	.st14{fill:#165016;}
	.st15{fill:#37400C;}
	.st16{fill:#FFEEAA;}
	.st17{fill:#A05A2C;}
	</style>
	<path id="outline" class="st0" d="M79.1,140c-0.4,0-0.8,0-1.2-0.1c-0.5-0.1-1.1-0.2-1.6-0.3c-8.9-2-12.3-11.1-15.1-18.4
	c-0.3-0.9-0.9-2.4-1.5-3.7c-0.2,0-1.9,0.5-1.9,0.5c-0.8,0.2-1.7,0.4-2.5,0.7c-1.7,0.4-3.1,0.8-4.4,1c-0.5,0.1-1,0.2-1.5,0.3
	c-1.8,0.3-3.5,0.5-5,0.5l-0.5,0l-0.4,0c-1.1,0-2.1-0.1-3-0.3c-0.4-0.1-0.7-0.1-1.1-0.2c-0.4-0.1-0.8-0.2-1.2-0.3
	c-0.4-0.1-0.8-0.3-1.2-0.5c-0.4-0.2-0.9-0.4-1.3-0.7c-0.9-0.6-1.8-1.2-2.6-2c-0.9-0.9-1.6-1.8-2.1-2.9c-0.6-1.1-1-2.2-1.2-3.3
	c-0.6-2.9-0.3-6,1.1-9.5L5.9,82.6c-0.3-0.2-0.5-0.4-0.8-0.6c-0.3-0.2-0.5-0.5-0.8-0.7c-0.3-0.2-0.5-0.5-0.7-0.7
	C3.4,80.3,3.2,80,3,79.7c-0.1-0.2-0.3-0.5-0.5-0.7c-0.2-0.3-0.4-0.6-0.5-0.9l-0.2-0.3l-0.1-0.2c-0.1-0.2-0.2-0.4-0.3-0.6
	c-0.1-0.1-0.2-0.4-0.3-0.7c-0.1-0.3-0.3-0.6-0.4-0.9c-0.1-0.2-0.1-0.4-0.2-0.6l-0.1-0.2l-0.1-0.2c-0.1-0.3-0.1-0.6-0.2-0.8l-0.1-0.3
	C0.1,73,0,72.6,0,72.3l-0.1-0.4l0-0.5c0-0.8,0-1.6,0.1-2.3c0.1-0.6,0.2-1.2,0.3-1.8c0.1-0.3,0.2-0.6,0.3-0.9
	c0.5-1.5,1.2-2.9,2.1-4.2c0.2-0.3,0.4-0.5,0.6-0.8c1.1-1.3,2.3-2.3,3.7-3.2l-0.8-2.7C4,48.3,7.6,40.6,14.6,37.7
	c1.5-0.6,3.2-1,4.8-1.1c0.3,0,0.5,0,0.8,0c1.5,0,2.9,0.2,4.3,0.6l2.7,0.8c0.2-0.3,0.3-0.5,0.5-0.8c0.1-0.2,0.3-0.5,0.6-0.8
	c0.3-0.3,0.5-0.6,0.7-0.8c0.2-0.2,0.4-0.4,0.7-0.7c1.4-1.3,3-2.4,4.8-3.1c0.3-0.1,0.6-0.2,0.9-0.3c0.2-0.1,0.5-0.2,0.9-0.2
	c0.9-0.2,1.8-0.4,2.7-0.4c0.2,0,0.5,0,0.8,0h0.3c0,0,0.4,0,0.6,0l-0.2-1.1c-0.1-0.4-0.1-0.7-0.2-1.1c0-0.2-0.1-0.6-0.1-1
	c0-0.7,0-1.3,0.1-2c0-0.4,0.1-0.7,0.2-1.1c0-0.2,0.1-0.6,0.2-0.9c0.1-0.4,0.2-0.7,0.3-1c0.2-0.6,0.4-1.2,0.7-1.8
	c0.1-0.3,0.3-0.6,0.5-0.9c0.1-0.2,0.3-0.5,0.5-0.8c0.2-0.3,0.4-0.6,0.6-0.8c0.3-0.4,0.7-0.9,1.2-1.4c0.4-0.4,0.9-0.9,1.4-1.3
	c0.2-0.2,0.5-0.4,0.8-0.6c0.5-0.3,1-0.7,1.6-1c0.6-0.3,1.1-0.6,1.7-0.8c0.3-0.1,0.6-0.2,0.9-0.3c0.3-0.1,0.6-0.2,0.9-0.2
	c1.1-0.2,2.2-0.4,3.3-0.4c0.2,0,0.4,0,0.7,0c0.3,0,0.6,0,1,0.1c0.4,0,0.7,0.1,1.1,0.2c0.3,0.1,0.6,0.1,1,0.2c0.3,0.1,0.6,0.2,1,0.3
	c0.3,0.1,0.6,0.2,1,0.4l0.9,0.4l3.4-6.4L65,7.3c0.1-0.2,0.2-0.4,0.3-0.6c0.1-0.1,0.2-0.3,0.3-0.5C65.7,6.2,65.8,6,66,5.8
	c0.1-0.2,0.2-0.3,0.3-0.4c0.1-0.2,0.3-0.3,0.4-0.5l0.2-0.2c0.3-0.4,0.6-0.6,0.9-0.9L68,3.6c2.7-2.3,6-3.6,9.6-3.6l1.2,0
	c0.3,0,8.1,0.1,12.2,5.9l0.2,0.3c0.1,0.1,0.2,0.3,0.3,0.5c0,0,0.1,0.2,0.2,0.4c0.2,0.2,0.3,0.5,0.4,0.8l0.2,0.4l2.3,5.5l0.1,0
	c1.8-0.8,3.7-1.1,5.6-1.1c1.4,0,2.8,0.2,4.2,0.6c0.3,0.1,0.6,0.2,0.9,0.3c0.3,0.1,0.6,0.2,0.8,0.4c0.3,0.1,0.6,0.3,0.8,0.4
	c0.3,0.2,0.6,0.3,0.9,0.5c0.1,0,0.6,0.4,0.7,0.5c0.3,0.2,0.6,0.4,0.8,0.6c0.2,0.2,0.4,0.4,0.7,0.6c0.3,0.2,0.5,0.5,0.7,0.7
	c0.6,0.7,1.2,1.4,1.7,2.2c0.2,0.3,0.3,0.5,0.5,0.8c1.7,3,2.2,6.4,1.6,9.8l-0.2,1.1c0.3,0,0.5,0,0.8,0c1,0,1.8,0.1,2.7,0.2
	c0.3,0.1,0.6,0.1,0.9,0.2c0.6,0.2,1.2,0.3,1.8,0.6c0.3,0.1,0.6,0.2,0.9,0.4c0.2,0.1,0.5,0.3,0.8,0.4c0.3,0.2,0.6,0.3,0.8,0.5
	c0.3,0.2,0.5,0.4,0.8,0.5c0.3,0.2,0.5,0.4,0.8,0.6l0.3,0.3c0.2,0.1,0.3,0.3,0.4,0.4c1,0.9,1.8,1.9,2.4,3.1l2.7-0.8
	c1.4-0.4,2.9-0.6,4.3-0.6c0.3,0,0.5,0,0.8,0c0.3,0,0.7,0.1,1,0.1l0.3,0c0.2,0,0.5,0.1,0.7,0.1c0.1,0,0.4,0.1,0.6,0.1
	c0.1,0,0.2,0.1,0.4,0.1c0.3,0.1,0.6,0.2,0.9,0.3c0.3,0.1,0.6,0.2,0.9,0.3c0.3,0.1,0.6,0.3,0.9,0.4c0.3,0.1,0.5,0.3,0.8,0.4
	c0.3,0.2,0.6,0.3,0.8,0.5l0.3,0.2c0,0,0.4,0.3,0.5,0.4c0.3,0.2,0.5,0.4,0.8,0.6c0.2,0.2,0.5,0.4,0.7,0.6c0.4,0.4,0.9,0.9,1.2,1.4
	c0.2,0.2,0.4,0.5,0.6,0.8c0.2,0.3,0.4,0.5,0.5,0.8c0.1,0.2,0.3,0.5,0.4,0.8c0.1,0.3,0.3,0.6,0.4,0.9c0.1,0.3,0.3,0.7,0.4,1
	c1,2.9,1.1,6.1,0.1,9l-0.8,2.7c0.3,0.2,0.5,0.3,0.8,0.5c0.6,0.4,1.1,0.8,1.6,1.2c0.2,0.2,0.5,0.4,0.7,0.7c0.7,0.7,1.3,1.5,1.8,2.3
	c0.7,1.1,1.2,2.2,1.6,3.4c0.1,0.4,0.2,0.6,0.3,0.9c0.1,0.4,0.2,0.7,0.2,1c0.1,0.6,0.2,1.2,0.2,1.8c0.1,1.3,0,2.5-0.3,3.7
	c-0.2,1.2-0.7,2.4-1.2,3.6c-0.3,0.6-0.6,1.2-1,1.7c-0.9,1.4-2.1,2.6-3.4,3.6l-24.1,18.3c0.1,0.2,0.2,0.4,0.2,0.6
	c0.1,0.3,0.2,0.5,0.3,0.8c0.1,0.2,0.2,0.5,0.3,0.8c0.1,0.3,0.2,0.6,0.3,0.8c1.6,4.8,1.2,9-1.2,12.3c-2.2,3-5.7,4.7-9.7,4.7
	c-2.9,0-5.8-0.9-9.1-1.9c-2.7-0.8-5.7-1.7-8.8-2.2c-0.8,1.8-1.7,4.1-2.3,5.5c-2.3,5.8-4.3,10.7-7.6,14c-0.5,0.5-1,0.9-1.5,1.3
	c-0.7,0.5-1.4,0.9-2.1,1.3c-0.4,0.2-0.9,0.4-1.4,0.6c-1,0.3-2.1,0.5-3.1,0.6l-0.2,0L79.1,140L79.1,140z M61.3,95.1
	c3.4,0,6.6,0.7,9.6,2.2l1.2,0.6l1,0.9c2.4,2.1,4.1,4.5,5.5,7c1.7-3,3.9-5.9,7.2-8.5l1-0.8l1.2-0.5c2.6-1.1,5.3-1.6,8.1-1.6
	c1.9,0,3.7,0.2,5.5,0.6c0.6-2.2,1.7-4.2,3.5-6l0.3-0.3l0.3-0.2c4.6-4,9.2-7.7,13.7-11.1c1.7-1.3,3.3-2.6,5-4l0.2-0.1l0.2-0.1
	c0.8-0.6,1.7-1.1,2.6-1.7c-1.9-2.2-2.9-5.1-2.9-8.5l0-0.6c0,0,0.1-0.6,0.1-0.6c-0.2,0-0.3,0-0.5,0c-2.7,0-5.3-0.6-7.6-1.8l-0.7-0.4
	c-4.1,6.7-8.5,12.9-16.2,12.9c-1.7,0-3.4-0.4-5.1-1.1c-10.5-4.6-7.9-17-4-32.7c0,0-0.1,0-0.1,0c-1.8,0-3.6-0.4-5.3-1.1
	c-3.4-1.4-5.7-3.8-7.3-6.4c-1.4,2.2-3.3,4.2-6.1,5.9l-1.2,0.7L68.9,38c-1.2,0.3-2.4,0.5-3.6,0.5c-0.4,0-0.8,0-1.2,0
	c0.4,1.5,0.9,3,1.3,4.4c2.9,9.5,6.8,22.4-4.6,27.5c-1.8,0.8-3.7,1.2-5.7,1.2c-8.3,0-12.4-6.9-15.1-12.4c-2.7,2.2-5.7,2.7-8.1,2.7
	c-0.1,0-0.9,0-0.9,0l-0.1,0c-0.1,0-0.1,0.1-0.2,0.1c0.2,2.8-0.3,5.5-1.6,8l-0.9,1.7c1,0.7,2,1.4,3,2.1l0.1,0.1
	c7.5,5.1,15.2,10.3,21.7,17.5l3.5,3.8l-0.1,0.5C57.9,95.3,59.6,95.1,61.3,95.1z" />
	<sodipodi:namedview bordercolor="#666666" borderopacity="1.0" fit-margin-bottom="0" fit-margin-left="0" fit-margin-right="0" fit-margin-top="0" id="base" inkscape:current-layer="layer1" inkscape:cx="-167.10846" inkscape:cy="284.60971" inkscape:document-units="mm" inkscape:pageopacity="0.0" inkscape:pageshadow="2" inkscape:window-height="986" inkscape:window-maximized="1" inkscape:window-width="1920" inkscape:window-x="-11" inkscape:window-y="-11" inkscape:zoom="0.98994949" pagecolor="#ffffff" showgrid="false">
	</sodipodi:namedview>
	<path id="path3877-4" inkscape:connector-curvature="0" class="st1" d="M77.8,129.7c0.1,0,0.2,0.1,0.2,0.1
	c5.1,0.5,9.4-23.7,14.8-23.7c16.8,0.2,30.7,13.4,20-6.5c-0.6-1.7-1-2.1-0.1-2.8l29.8-22.6c2.9-2.1,2.4-6.7-1-8.1l-6.3-2.6
	c-0.1,0-0.2-0.2-0.1-0.3l3.4-11.1c1.1-3.6-2.2-6.9-5.8-5.8l-11.1,3.4c-0.1,0-0.2,0-0.3-0.1l-2.6-6.3c-1.4-3.4-5.9-3.9-8.1-1
	L98.2,59.8l5.8-32.1c0.7-3.6-3-6.5-6.4-5.1l-9.1,3.8c-0.1,0-0.2,0-0.3-0.1l-7.5-14.1c-0.7-1.3-1.8-2-3-2.3V129.7z" />
	<path id="path3880-5" inkscape:connector-curvature="0" sodipodi:nodetypes="cccccccsccsscc" class="st2" d="M77.8,115.3
	c2.4-8,7.6-17.8,17.3-17.2c3.1-0.3,7.2,1.6,9.3,1.2c-0.4-8.9,9.1-12.7,14.9-17.4c4.1-3.4,10.7-6.9,13.2-10.7
	c-5.5-2.8-6.6-9.9-3.7-14.9c-10.1,5.2-13.2-4.5-14.1-6.3c-7.2,5.1-13.2,23.5-22.2,17.2c-9.4-6.6,0.4-18.3,2.1-34.4
	c-4.9,2.8-11.9,1.5-14.2-4.1c-0.2-0.8-0.4-1.6-0.5-2.5s-0.2-1.7-0.4-2.5c-0.3-1.5-0.7-2.6-1.7-2.5L77.8,115.3z" />
	<path id="path5242-3-0-1-8-6-7-5" inkscape:connector-curvature="0" class="st3" d="M77.8,129.7V9.9c-1.9-0.4-4.1,0.3-5.2,2.3
	l-7.5,14.1c-0.1,0.1-0.2,0.1-0.3,0.1l-9.1-3.8c-3.4-1.4-7,1.5-6.4,5.1l0.4,2.1l1.8,9.8l3.7,20.2L42.6,42.5c-2.1-2.9-6.7-2.4-8.1,1
	L32,49.8c0,0.1-0.2,0.2-0.3,0.1l-11.1-3.4c-3.6-1.1-6.9,2.2-5.8,5.8l3.4,11.1c0,0.1,0,0.2-0.1,0.3l-6.3,2.6c-3.4,1.4-3.9,5.9-1,8.1
	l30.7,22.4c0.9,0.7,1.6,0.9,0.9,1.8c-14.5,21.6,15.9,6.6,20.4,8.2C68.9,107.9,70.6,128.5,77.8,129.7L77.8,129.7z" />
	<path id="path5242-3-0-1-8-6-8-4-5" inkscape:connector-curvature="0" sodipodi:nodetypes="cccccccccccccccc" class="st4" d="
	M77.8,115.3c0-94.1,0,0,0-94.1c-1,0-1.3,0.5-1.6,1.2c-1.8,6.3-7.1,13.7-14.6,11.6c-3.5-2.1-3.4-0.5-2.4,3
	c2.8,15.1,9.8,24.4,1.4,29.2c-7.3,4.1-12.8-3.7-20.9-13.9c-2.6,5.3-9.2,6.9-14.2,4.3c-1.5-0.3,0.8,3.6,0.5,5.2
	c0.6,4-1.7,8.2-5.6,9.6c10,8,22.5,13.8,30.1,24.3c1,2.2-1.8,6.5,2,4.5c7.3-2.8,17.1-1.8,21,5.9c1.9,2.9,2.9,7.3,4.2,9.8
	C77.7,115.7,77.7,115.5,77.8,115.3z" />
	<path id="path5242-3-0-1-8-6-8-4-9-1" inkscape:connector-curvature="0" class="st5" d="M39.7,52.4c-0.6,1.3-1.5,2.4-2.6,3.3
	c2.4,1.7,4.1,1.2,5,1.7c-0.2,2.3-0.4,4.6-1.7,6.4c-0.4,0.1-0.4,1.3-1.5-0.4c-1.4-1.7-1.1-3.3-0.7-4.8c-0.5-1.1-1.1-1.8-1.8-2.4
	c-3.1,2.2-7.5,2.4-11,0.5c-1.5-0.3,0.8,3.6,0.5,5.2c0.6,4-1.7,8.2-5.6,9.6c6.8,5.4,14.8,9.9,21.6,15.5c1.2-0.7,2.3-1.4,1.7-3.1
	c-0.2-3-2.4-2.8-4-3.7c-8.4-0.2,8.4-6.4,10.5-10.3c3-6.6,3.3,2.2,5,3.2c1.2,0.7,2.1,1.7,3.8,1.9c2.5-0.8,3.4-1.1,3.7-3.4
	c-2.1-2.3-2.6-3.8-2.6-5.1C53.1,69.9,47.6,62.3,39.7,52.4z" />
	<path id="path2862-6-2-7-7" inkscape:connector-curvature="0" sodipodi:nodetypes="caccssc" class="st6" d="M50.3,77.2
	c-0.9-3.2-1.5-6.9-3.8-9.4c-1.9-2.2-5-2.9-7.7-4.3c-0.9,1.5-2.7,2.7-2.7,4.5c-0.3,2.4,0,4.7,1.1,6.6c1.6,2.8,6.7,4.1,9.1,3.5
	L50.3,77.2z" />
	<path id="path3880-1-4" inkscape:connector-curvature="0" sodipodi:nodetypes="ccccccacaccccccccc" class="st7" d="M125,58.6
	c-2,2.6-2.8,1.8-4.1,2.6c-2.6-1.1-4.2-3.7-11.3,1.9c-2.7,3-6.2,6.6-5.1,7.3c2.7,0.5,5.1,1.3,5.8,3.7c-0.3,2.7-2.2,3.9-5.1,3.9
	c0,0-4.9-1.9-7.4-1.5c-1.9,0.3-4.1,2.9-5.2,2.7c0,0-6.8-0.2-8.9,1.9c-2.8,2.7-1.9,7.6-2.7,11.3c-0.2,4,0.2,7.7,4.5,8.6
	c0.5-0.1,0.9-0.2,1.2-0.2c2.4-1.8,5.2-2.9,8.5-2.7c3.1-0.3,7.2,1.6,9.3,1.2c-0.4-8.9,9.1-12.7,14.9-17.4c4.1-3.4,10.7-6.9,13.2-10.7
	c-4.5-2.3-6.1-7.5-4.8-12.1C126.8,59,125.8,58.8,125,58.6z" />
	<path id="path3880-15-2" inkscape:connector-curvature="0" sodipodi:nodetypes="ccccccccccccccccccc" class="st7" d="M77.8,25.6v30
	c0.9-0.8,1.5-0.7,2.2-1c1,0.2-1.4,3.8-1.3,2.8c-0.3,0.1-0.7,0.3-1,0.4V74c2.8,0.1,7.1-0.7,9-4.6c0.7-3.6,1.6-8.1,0.5-10.6
	c-2.6-1.6,0.5-5.4,2.6-6.7c0.8-2.8,1.8-5.8,2.7-9c-5.1,2.2-3,3.1-3,4.4c-1.9,0.7-1.2-1-3-1.4c-3.2-0.7-1.7-0.8-0.8-2.3
	c0.8-1.7,5-2.8,6.4-3c2.1-3.1-2.5-3.9-2.9-6.3l0-0.2c-4.8-0.9-8.4-3.4-9.3-8C79.4,26.1,78.1,25.8,77.8,25.6L77.8,25.6z" />
	<ellipse id="path6138-5-2" class="st3" cx="117.8" cy="77.8" rx="2.9" ry="2.6" />
	<path id="path2864-1-1-3-8" inkscape:connector-curvature="0" sodipodi:nodetypes="ccccccsccc" class="st8" d="M120.8,64.1
	c-1.4-0.6-2.9-1-4.6-0.4c-2.9,0.9-6.5,3-8.8,7.8c-0.1,1-0.4,2.1,0,3c0.7,0.4,1.3,1.1,2,0.9l-0.2,0.9c0.3,0.9,1.8,2.6,4.3,2.2
	c1.9-0.3,2.8-1.3,4.5-4.2C119.2,71.2,121.9,64.5,120.8,64.1L120.8,64.1z" />
	<ellipse id="ellipse5232-9-9-3-6" class="st9" cx="56" cy="87.8" rx="7.8" ry="6.2" />
	<ellipse id="ellipse5234-8-2-5-5" class="st9" cx="96.1" cy="87.8" rx="7.8" ry="6.2" />
	<path id="path5197-0-4-9-6-4-7" inkscape:connector-curvature="0" sodipodi:nodetypes="csccccccscccccsscssccccscccc" class="st10" d="
	M62.3,80.9c-2.1-1.1-4.9-2.1-8.4-2.1c-0.4,0-1.2,0-1.2-0.1c0-0.1-0.3-0.9,0.5-1.1c0.8-0.2,1.2-0.3,1.4-0.4c0.2-0.1,0.3-0.8,0.2-2.2
	c0.4-13.5,18.3-3.3,9.9,4.6c-1,0.9-0.2,0.8,0.1,1.2c0.3,0.4,0,1-0.5,1.1C63.8,82,62.8,81.2,62.3,80.9C62.3,80.9,62.3,80.9,62.3,80.9
	z M63.9,74.4c3-5.5-6-3.1-2.6,0C62.3,75.2,63.1,75.3,63.9,74.4z M86.8,80.8c0.4-0.5,0.7-0.2-0.2-1.2c-8.5-10.1,9.7-15.7,9.7-5
	c0,2.7,0,2.7,0.8,2.7c0.5,0,0.4,0,0.9,0.2c0.6,0.2,0.4,0.8,0.4,1c0,0.1,0.1,0.1-1.4,0.2C94,79,90.4,80,88.5,81.1
	c-0.8,0.5-1.3,0.7-1.4,0.7C86.6,81.6,86.4,81.4,86.8,80.8z M90,74.4c2.3-3.5-3.3-4.8-3.4-1.6c0,0.9,1.3,2.3,2.1,2.3
	C89.1,75.1,89.7,74.8,90,74.4z" />
	<path id="path5197-0-3-9-9-5-4" inkscape:connector-curvature="0" sodipodi:nodetypes="ccccccsc" class="st9" d="M63.9,74.4
	c3-5.5-6-3.1-2.6,0C62.3,75.2,63.1,75.3,63.9,74.4z M90,74.4c2.3-3.5-3.3-4.8-3.4-1.6c0,0.9,1.3,2.3,2.1,2.3
	C89.1,75.1,89.7,74.8,90,74.4z" />
	<path id="path5197-0-4-8-2" inkscape:connector-curvature="0" sodipodi:nodetypes="ccccscc" class="st10" d="M76.4,96.2
	c-4,0-6-0.2-7.1-2c-1-1.7-2.5-8.9-1.6-10c3.3,2.8,16.7-2,17.8,0.1c0.5,1.2-0.6,8.5-2.3,10C81,96.3,80.1,96.2,76.4,96.2L76.4,96.2z" />
	<path id="path5197-0-6-70-0-7" inkscape:connector-curvature="0" sodipodi:nodetypes="sccss" class="st11" d="M71.1,86.9
	c-1.2,0.1-3-1.7-3-1.7c4.4,2.6,14.7-2.2,16.6-0.3c-0.1,1.3-2.5,0.9-3.8,0.9C77.8,85.9,74.2,86.7,71.1,86.9z" />
	<path id="path5197-0-6-7-5-0-1" inkscape:connector-curvature="0" sodipodi:nodetypes="sccss" class="st12" d="M72.9,95
	c-1.3,0-2.6-1-2.6-1c0.2-8,12.5-7.4,13-1.3c-0.6,1-2.3,2.4-3.7,2.4C76.6,95.1,76.6,95.1,72.9,95z" />
	<path id="path5197-0-6-6-0-0-4" inkscape:connector-curvature="0" sodipodi:nodetypes="ccc" class="st13" d="M77.6,89
	c-4.3-0.7-5.6,7.5-7.1,4.6C70.9,88.4,78,88,77.6,89z" />
	<path id="path1719-8-16-3-0" inkscape:connector-curvature="0" sodipodi:nodetypes="cccccccccccccccccccccccccccccc" class="st5" d="
	M56.4,94.5c-0.6,0-1,0.2-1.1,0.8c0,0.1,0,0.3,0,0.4c0.2,0.6,0,1.2,0,1.7c0,0.7,0,1.3,0.1,1.9c0,0.5,0.1,0.9,0.2,1.3
	c0.1,0.3,0.2,0.5,0.2,0.7c0.1,0.1,0.2,0.3,0.3,0.4c0.2,0.2,0.4,0.3,0.6,0.5c0.2,0.1,0.4,0.1,0.5,0.2c0.1,0,0.2,0,0.3,0.1
	c0.4,0,0.8,0,1.2-0.1c0.2-0.1,0.4-0.1,0.5-0.2c0.2-0.1,0.3-0.2,0.4-0.3c0.1-0.1,0.2-0.3,0.3-0.4c0.1-0.1,0.1-0.3,0.1-0.5
	c0-0.1,0-0.2,0-0.3c0-0.1,0-0.1,0.1-0.1c0.1,0,0.1,0,0.2-0.1c0,0,0.1-0.1,0.1-0.2c0.1-0.2,0.1-0.4,0.1-0.7c0-0.2,0-0.5,0-0.7
	c0,0,0,0,0.1,0c3,0.1,6,0.9,7.8,1.9c1.8,1,3.6,2.8,3.8,3.1c-0.1-0.6-1.5-3.2-2.4-4.5c-1-1.4-2.4-2.6-4.1-2.4
	c-1.7,0.2-4.1-0.8-6.1-1.6C58.1,94.8,57.1,94.5,56.4,94.5L56.4,94.5z" />
	<path id="path1719-8-1-7" inkscape:connector-curvature="0" class="st5" d="M75.7,24.1c-1.6,4.3-4.8,8.7-9.1,9.9c0,0.3,0,0.5,0,0.8
	c0.5,2.8,1.1,5.4,1.9,4.9c3.3-2.6,0.1,2.5-0.8,4.6c-0.5-0.6-2.6,4.1-3.2,5.2c-0.1,5.2,3.3,4.4,5,6.6c2.1,1.9,4.3,3.4,6.8,1.6
	c0.6-1.1,1.1-1.8,1.5-2.2v-30c-0.5-0.3-0.9-0.6-1.6-0.6C76,24.8,75.7,24.6,75.7,24.1L75.7,24.1z M77.8,57.8
	c-6.1,2.8-7.5,8.5-4.1,6.5c1.3-0.6,2.4-0.1,1.7,0.9c-0.8,1.3-3.3-0.2-3.9,1.6c-0.7,2.1-0.5,3.9,0.4,5.2c1.3,2,2.1,1.4,4,1.8
	c0.5,0.1,1.1,0.2,1.8,0.2V57.8z" />
	<path id="path3880-3-2" inkscape:connector-curvature="0" class="st0" d="M77.8,115.3c2.4-8,7.6-17.8,17.3-17.2
	c3.1-0.3,7.2,1.6,9.3,1.2c-0.4-8.9,9.1-12.7,14.9-17.4c4.1-3.4,10.7-6.9,13.2-10.7c-5.5-2.8-6.6-9.9-3.7-14.9
	c-10.1,5.2-13.2-4.5-14.1-6.3c-7.2,5.1-13.2,23.5-22.2,17.2c-9.4-6.6,0.4-18.3,2.1-34.4c-4.9,2.8-11.9,1.5-14.2-4.1
	c-1-1.6-1.8-3.4-2.6-5.2L77.8,115.3z" />
	<path id="path5351-5-1-6-6-4-3-8" inkscape:connector-curvature="0" class="st7" d="M93.4,94.7c-1-0.2,0.3,0.5,0,1.4
	c-0.2,0.9-5.5,1.3-6.9,1.6c-1.3,0.3,1.3,0.1,0.5,1c0.5-0.1,0.7,0.2,0.7,0.5c0,0.1,0.1,0.2,0.1,0.3c0,0.1,0,0.3,0,0.4
	c0,0.2,0,0.3,0,0.5c0,0.2,0.1,0.3,0.1,0.5c0.1,0.1,0.2,0.3,0.3,0.4c0.1,0.1,0.2,0.2,0.3,0.3c0.1,0.1,0.3,0.1,0.4,0.1
	c0.1,0,0.3,0,0.4-0.1c0.1,0,0.3-0.1,0.4-0.2c0.1-0.1,0.2-0.3,0.3-0.5c0.2-0.2,0.3-0.3,0.4-0.4c0.1,0,0.2,0,0.2,0.1
	c0.1,0.2,0.1,0.5,0.1,0.8c0,0.2,0,0.4,0,0.5c0,0.2,0.1,0.4,0.2,0.5c0.2,0.3,0.5,0.6,0.8,0.9c0.2,0.1,0.3,0.2,0.5,0.3
	c0.2,0.1,0.4,0.1,0.5,0.2c0.2,0,0.4,0,0.5,0c0.2,0,0.3-0.1,0.5-0.2c0.2-0.1,1.6-1.5,3.1-3.1c1.3-1.4,2-2.1,2.3-2.5
	c0.2-0.2,0.2-0.4,0.3-0.5c0-0.1,0-0.3,0-0.4c0-0.2-0.1-0.4-0.1-0.6c0-0.2,0-0.4,0.1-0.5C97.4,95.4,94.3,94.9,93.4,94.7L93.4,94.7z" />
	<path id="path5242-3-0-1-8-6-8-4-1-0" inkscape:connector-curvature="0" class="st0" d="M77.8,115.3V23.6c-0.3-0.8-0.7-1.5-1-2.3
	l-0.4,0.9l-0.1,0.2c-1.8,6.3-7.1,13.7-14.6,11.6c-3.5-2.1-3.4-0.5-2.4,3c2.8,15.1,9.8,24.4,1.4,29.2c-7.3,4.1-12.8-3.7-20.9-13.9
	c-2.6,5.3-9.2,6.9-14.2,4.3c-1.5-0.3,0.8,3.6,0.5,5.2c0.6,4-1.7,8.2-5.6,9.6c10,8,22.5,13.8,30.1,24.3c1,2.2-1.8,6.5,2,4.5
	c7.3-2.8,17.1-1.8,21,5.9c1.9,2.9,2.9,7.3,4.2,9.8C77.7,115.7,77.7,115.5,77.8,115.3z" />
	<path id="path5242-4-5-3-1-3-8" inkscape:connector-curvature="0" sodipodi:nodetypes="sssssss" class="st14" d="M112.6,73.4
	l2.8-2.8c2.1-2.1,2.1-3.9,1.9-4c-0.2-0.1-2.1,1-3.2,3l-1.9,3.2c-0.3,0.4-0.5,1-0.4,1.2C112,74,112.3,73.7,112.6,73.4z" />
	<path id="path5242-4-5-3-1-6-4-3-4" inkscape:connector-curvature="0" sodipodi:nodetypes="sssssss" class="st15" d="M46,74.4
	L42.9,71c-2.4-2.6-4.3-2.7-4.5-2.5c-0.2,0.2,1,2.5,3.2,3.9l3.6,2.4c0.5,0.3,1.1,0.7,1.3,0.5C46.7,75.1,46.4,74.8,46,74.4z" />
	<path id="path5242-3-0-1-8-6-6" inkscape:connector-curvature="0" sodipodi:nodetypes="ccccccccccccccccccccccccccccccccccccccccccccccccccccccccccccccccccccccccccccccccccccccccccccccccccccccccccccccccccccccccccccccccccccccccccccccccccccccccccccccccccccccccccccccccccccccccccccsscccccaaszcascccccc" class="st16" d="
	M76.7,9.8c-1.1,0-2.2,0.4-3.1,1.2c0,0,0,0,0,0c-0.1,0.1-0.2,0.2-0.2,0.2c0,0-0.1,0.1-0.1,0.1c-0.1,0.1-0.1,0.1-0.2,0.2
	c0,0-0.1,0.1-0.1,0.1c0,0.1-0.1,0.1-0.1,0.2c0,0-0.1,0.1-0.1,0.1c-0.1,0.1-0.1,0.2-0.1,0.3c0,0,0,0,0,0.1l-7.5,14.1c0,0,0,0,0,0.1
	c0,0,0,0-0.1,0c0,0-0.1,0-0.2,0l-6.4-2.7l-2.7-1.1c0,0,0,0,0,0c-0.1,0-0.2-0.1-0.3-0.1c0,0,0,0,0,0c-0.1,0-0.2-0.1-0.3-0.1
	c0,0,0,0,0,0c-0.1,0-0.2-0.1-0.3-0.1c0,0,0,0,0,0c-0.1,0-0.2,0-0.3,0c0,0,0,0,0,0c-0.1,0-0.2,0-0.3,0c0,0,0,0,0,0
	c-0.4,0-0.8,0-1.2,0.1c-0.1,0-0.2,0-0.3,0.1c-0.1,0-0.2,0.1-0.3,0.1c-0.2,0.1-0.4,0.2-0.5,0.2c0,0,0,0,0,0c-0.2,0.1-0.3,0.2-0.5,0.3
	c-0.1,0.1-0.2,0.1-0.2,0.2c-0.2,0.1-0.3,0.3-0.4,0.4c-0.1,0.1-0.3,0.3-0.4,0.5c0,0,0,0,0,0c-0.1,0.1-0.1,0.2-0.2,0.2c0,0,0,0,0,0
	c-0.1,0.1-0.1,0.2-0.2,0.3c0,0.1-0.1,0.2-0.1,0.3c-0.1,0.2-0.2,0.4-0.2,0.6c0,0,0,0,0,0c0,0.1-0.1,0.2-0.1,0.3c0,0,0,0,0,0
	c0,0.1,0,0.2-0.1,0.3c0,0.1,0,0.2,0,0.3c0,0.2,0,0.4,0,0.6c0,0,0,0,0,0c0,0.1,0,0.2,0,0.3c0,0,0,0,0,0c0,0.1,0,0.2,0,0.3
	c0,0,0,0,0,0l0.4,2.1v0l0.3,1.5l1.5,8.3l3.7,20.2L42.6,42.5c-0.1-0.2-0.3-0.4-0.4-0.5c-0.2-0.2-0.3-0.3-0.5-0.4c0,0,0,0,0,0
	c-0.1-0.1-0.2-0.1-0.3-0.2c0,0,0,0,0,0c-0.1-0.1-0.2-0.1-0.3-0.2c0,0,0,0,0,0c-0.1-0.1-0.2-0.1-0.3-0.1c0,0,0,0,0,0
	c-0.1,0-0.2-0.1-0.3-0.1c0,0,0,0,0,0c0,0-0.1,0-0.1,0c-0.1,0-0.1,0-0.2-0.1c-0.1,0-0.1,0-0.2-0.1c0,0-0.1,0-0.1,0c0,0,0,0,0,0
	c-0.1,0-0.2,0-0.3-0.1c0,0,0,0,0,0c0,0,0,0,0,0c-0.3-0.1-0.6-0.1-0.8-0.1c0,0,0,0,0,0c-0.1,0-0.2,0-0.3,0c-0.3,0-0.6,0.1-0.9,0.1
	c0,0,0,0,0,0c-0.1,0-0.2,0.1-0.3,0.1c-0.1,0-0.2,0.1-0.3,0.1c-0.6,0.2-1.1,0.5-1.5,1c-0.1,0.1-0.1,0.1-0.2,0.2c0,0,0,0,0,0
	c-0.1,0.1-0.1,0.2-0.2,0.2c0,0,0,0,0,0c-0.1,0.1-0.1,0.2-0.2,0.3c0,0,0,0,0,0c-0.1,0.1-0.1,0.2-0.2,0.3c0,0,0,0,0,0
	c-0.1,0.1-0.1,0.2-0.2,0.3c0,0,0,0,0,0c0,0.1-0.1,0.2-0.1,0.3c0,0,0,0,0,0L32,49.8c0,0.1-0.1,0.1-0.2,0.1c0,0-0.1,0-0.1,0h0l-3.4-1
	l-7.7-2.3c-0.6-0.2-1.1-0.2-1.6-0.2c0,0,0,0,0,0c-0.5,0-1,0.2-1.5,0.3c0,0,0,0,0,0c-2.1,0.9-3.4,3.2-2.7,5.7l2.3,7.7l1,3.4v0
	c0,0,0,0.1,0,0.1c0,0,0,0,0,0c0,0,0,0,0,0.1c0,0,0,0,0,0c0,0-0.1,0.1-0.1,0.1l-6.3,2.6c-0.7,0.3-1.3,0.8-1.8,1.3
	c-0.1,0.1-0.1,0.2-0.2,0.2c-0.3,0.4-0.5,0.9-0.7,1.3c0,0.1-0.1,0.2-0.1,0.3c0,0,0,0,0,0C9.1,69.6,9,69.8,9,70c0,0.3,0,0.6,0,0.9
	c0,0,0,0,0,0c0,0,0,0,0,0c0,0.2,0,0.3,0.1,0.5c0,0,0,0,0,0c0,0,0,0,0,0c0,0.1,0,0.2,0.1,0.3c0,0,0,0.1,0,0.1c0,0.1,0,0.1,0.1,0.2
	c0,0.1,0.1,0.2,0.1,0.3c0,0,0,0,0,0c0,0.1,0.1,0.2,0.1,0.3c0,0,0.1,0.1,0.1,0.1c0,0,0,0.1,0.1,0.1c0,0,0,0,0,0
	c0.1,0.1,0.1,0.2,0.2,0.3c0,0,0,0,0,0c0.1,0.1,0.1,0.2,0.2,0.3c0,0,0,0,0,0c0.1,0.1,0.1,0.2,0.2,0.2c0,0,0,0,0,0
	c0.1,0.1,0.1,0.2,0.2,0.2c0,0,0,0,0,0c0.1,0.1,0.2,0.1,0.2,0.2c0,0,0,0,0,0c0.1,0.1,0.2,0.1,0.3,0.2c0,0,0,0,0,0l30.7,22.4
	c0.7,0.5,1.3,0.8,1.2,1.3c0,0.1,0,0.2-0.1,0.3c-0.1,0.1-0.1,0.2-0.2,0.3c-3.2,4.7-4.2,7.7-3.8,9.5c0.1,0.3,0.1,0.5,0.2,0.7
	c0.1,0.2,0.2,0.4,0.4,0.6c0.2,0.2,0.3,0.3,0.6,0.4c0,0,0,0,0,0c0.1,0.1,0.2,0.1,0.3,0.2c0.1,0.1,0.2,0.1,0.4,0.1
	c0.1,0,0.3,0.1,0.4,0.1c0,0,0,0,0,0c0.1,0,0.3,0.1,0.4,0.1c0.4,0.1,0.9,0.1,1.4,0.1c0.2,0,0.3,0,0.5,0c1.1,0,2.2-0.2,3.5-0.4
	c0.4-0.1,0.8-0.2,1.3-0.2c1.3-0.3,2.6-0.6,3.9-0.9c0,0,0,0,0,0c1.3-0.3,2.6-0.7,3.8-1c0,0,0,0,0,0c3-0.8,5.6-1.4,6.8-1.1
	c0,0,0,0,0,0c0,0,0,0,0,0c0,0,0,0,0.1,0c0.1,0,0.1,0,0.2,0c0.1,0,0.2,0,0.3,0.1c0.1,0,0.2,0.1,0.3,0.1c0.1,0,0.2,0.1,0.3,0.1
	c0.1,0,0.2,0.1,0.3,0.2c0.1,0.1,0.2,0.1,0.3,0.2c0.1,0.1,0.2,0.1,0.3,0.2c0.1,0.1,0.2,0.1,0.3,0.2c4.7,4.5,6.7,20.9,13.1,22l0-4.4
	c-1.7-1.4-2.4,0.5-3.4-1.4c-1-1.8-2.1-5-2.8-7.1c-1.4-4-2.8-8-6-10.9c-8.4-4.1-16.9,4.2-25.7,2c0.7-3.8,4.1-6.5,4.9-10.2
	c-8.8-9.7-21.1-16-31.4-24.1c-5.8-4,2.3-7.6,5.9-8.5c2.6-5.1-5.5-11.4-2.5-15.8c0.7-1,2.4-1.3,3.6-0.9c1.6,0.6-1.4,2.4,3.2,4.1
	c3.4,1.3,2.6-2.3,3.8-1.9c1.2,0.5,2.3,0.9,3.5,1c5,0.2,3.8-8.7,7.6-8.8c8.3-0.2,9.7,21.4,17.3,18c6.6-2.9-7-24.8-3.7-35.6
	c4.6-3.7,8.7,3.9,13.4,2.7c5.5-3.3,4.6-12.1,9.5-16.2c0.5-0.7,2.1-1,2.9-1l0-1.2L76.7,9.8z" />
	<path id="path5242-3-0-1-8-6-6-2-3" inkscape:connector-curvature="0" sodipodi:nodetypes="ccassccccssscccccccccccccccccccccccccccccccccccsccccccccccccccccccccccccccccccccccccccccccccccccccccccccccccccccccccccccccccccccccccccscccccccccccccccccccccccccccccccccccccccccccc" class="st17" d="
	M77.8,9.8l0,1.2c5.8,0.3,3.8,14.5,9.9,17.1c4.5,1.9,9.8-6,14.1-3.7c2.8,1.6-10,35-4.4,37.5c4.6,2,9.5-10.9,15.4-18.5
	c4.8-2.5,5.5,4.6,7.1,7.4c5.1,2.6,10.4-2.8,15.8-2.5c2.8,5-1.9,9.5-2.4,14.3c0,2.4,1,2.8,3.5,3.5c2.6,0.6,0.5,3.3,2.8,3.8
	c4.8,1.1,1.2,4.5-1.5,6.2c-2.8,1.7-6.2,3.2-8.6,4.9c-6.3,5-12.3,9.5-18.3,14.8c-3.9,4,4.6,8.2,0.5,11.5c-6.9,0.6-13.8-5.3-20.8-2.3
	c-7.2,5.6-7,15.1-11.8,22.5c0.5-0.6-0.7-2-1.3-2.1l0,4.4c0.1,0,0.2,0.1,0.2,0.1c0,0,0,0,0,0c0.1,0,0.2,0,0.2,0c0.2,0,0.3,0,0.5-0.1
	c0.1,0,0.2-0.1,0.2-0.1c0.2-0.1,0.3-0.2,0.5-0.3c0.2-0.1,0.3-0.3,0.5-0.4c4.3-4.3,8.2-22.9,12.9-22.8c14.1,0.1,26.3,9.6,23.3,0.6
	c-0.1-0.2-0.1-0.3-0.2-0.5c0,0,0,0,0,0c-0.1-0.2-0.1-0.4-0.2-0.6c0,0,0,0,0,0c-0.1-0.2-0.2-0.4-0.2-0.6c0,0,0,0,0,0
	c-0.3-0.6-0.6-1.3-0.9-2c0,0,0,0,0,0c-0.2-0.5-0.5-1-0.8-1.6c0,0,0,0,0,0c-0.3-0.6-0.6-1.1-0.9-1.8c0,0,0,0,0,0
	c-0.1-0.2-0.1-0.4-0.2-0.6c0,0,0,0,0,0c0-0.1-0.1-0.2-0.1-0.3c0-0.1,0-0.1-0.1-0.2c-0.1-0.1-0.1-0.3-0.1-0.4c0,0,0,0,0,0
	c-0.1-0.2-0.1-0.4-0.1-0.6c0-0.1,0-0.2,0.1-0.2c0.1-0.2,0.2-0.3,0.5-0.5l29.8-22.6c0.5-0.3,0.8-0.7,1.1-1.2c0.1-0.2,0.2-0.3,0.3-0.5
	c0.2-0.4,0.3-0.7,0.4-1.1c0.1-0.4,0.1-0.8,0.1-1.2c0-0.2,0-0.4-0.1-0.6c0-0.1,0-0.2-0.1-0.3c0-0.1-0.1-0.2-0.1-0.3
	c-0.1-0.4-0.3-0.7-0.5-1.1c-0.2-0.3-0.3-0.5-0.6-0.7c-0.1-0.1-0.1-0.1-0.2-0.2c0,0,0,0,0,0c-0.2-0.1-0.3-0.3-0.5-0.4c0,0,0,0,0,0
	c-0.1-0.1-0.2-0.1-0.3-0.2c0,0,0,0,0,0c-0.2-0.1-0.4-0.2-0.6-0.3h0l-6.3-2.6c0,0,0,0,0,0c0,0,0,0-0.1,0c-0.1-0.1-0.1-0.1-0.1-0.2
	l3.4-11.1c0.3-1,0.3-2,0-2.9c0-0.1-0.1-0.2-0.1-0.3c0,0,0,0,0,0c0-0.1-0.1-0.2-0.1-0.3c0,0,0,0,0,0c0-0.1-0.1-0.2-0.1-0.3
	c0,0,0,0,0,0c-0.1-0.1-0.1-0.2-0.2-0.3c0,0,0,0,0,0c-0.1-0.1-0.1-0.2-0.2-0.2c0,0,0,0,0,0c-0.1-0.2-0.3-0.3-0.4-0.5c0,0,0,0,0,0
	c-0.1-0.1-0.1-0.1-0.2-0.2c0,0,0,0,0,0c-0.1-0.1-0.2-0.1-0.2-0.2c0,0,0,0,0,0c-0.1,0-0.1-0.1-0.2-0.1c0,0,0,0-0.1,0
	c-0.1-0.1-0.2-0.1-0.3-0.2c0,0,0,0,0,0c-0.1-0.1-0.2-0.1-0.3-0.1c0,0,0,0,0,0c-0.1,0-0.2-0.1-0.3-0.1c0,0,0,0,0,0
	c-0.1,0-0.2-0.1-0.3-0.1c0,0,0,0,0,0c-0.1,0-0.2-0.1-0.3-0.1c0,0,0,0,0,0c0,0-0.1,0-0.1,0c-0.1,0-0.1,0-0.2,0c-0.1,0-0.2,0-0.2,0
	c0,0,0,0-0.1,0c0,0,0,0,0,0c-0.1,0-0.2,0-0.3,0c0,0,0,0,0,0c-0.5,0-1.1,0-1.6,0.2l-11.1,3.4c0,0-0.1,0-0.1,0c0,0-0.1,0-0.1,0
	c0,0,0,0-0.1,0c0,0,0,0,0-0.1l-2.6-6.3c-0.3-0.6-0.6-1.2-1.1-1.6c-0.1-0.1-0.1-0.1-0.2-0.2c0,0,0,0,0,0c-0.1-0.1-0.2-0.1-0.2-0.2
	c0,0,0,0,0,0c-0.1-0.1-0.2-0.1-0.2-0.2c0,0,0,0,0,0c-0.1-0.1-0.2-0.1-0.3-0.2c0,0,0,0,0,0c-0.1,0-0.2-0.1-0.3-0.1c0,0,0,0,0,0
	c-0.1,0-0.2-0.1-0.3-0.1c0,0,0,0,0,0c-0.2-0.1-0.4-0.1-0.6-0.2c0,0,0,0,0,0c-0.1,0-0.2,0-0.3-0.1c-0.3-0.1-0.6-0.1-0.9-0.1
	c-0.1,0-0.2,0-0.3,0c-0.2,0-0.4,0-0.6,0.1c-0.3,0.1-0.6,0.1-0.9,0.3c-0.6,0.2-1.1,0.6-1.5,1c-0.1,0.1-0.1,0.2-0.2,0.2c0,0,0,0,0,0
	c-0.1,0.1-0.1,0.2-0.2,0.3c0,0,0,0,0,0L98.2,59.8l5.8-32.1c0.2-1.1,0-2.2-0.5-3.1c0,0,0,0,0,0c0-0.1-0.1-0.2-0.2-0.3c0,0,0,0,0,0
	c-0.2-0.3-0.4-0.5-0.6-0.7c0,0,0,0,0,0c-0.1-0.1-0.1-0.1-0.2-0.2c0,0,0,0,0,0c-0.1-0.1-0.1-0.1-0.2-0.2c0,0,0,0,0,0
	c-0.1-0.1-0.2-0.1-0.2-0.2c0,0,0,0,0,0c-0.1,0-0.1-0.1-0.2-0.1c0,0-0.1,0-0.1-0.1c-0.1-0.1-0.2-0.1-0.3-0.1c0,0,0,0,0,0
	c-0.1,0-0.2-0.1-0.3-0.1c0,0,0,0,0,0c-0.1,0-0.2-0.1-0.3-0.1c0,0,0,0,0,0c-0.1,0-0.2-0.1-0.3-0.1c-1-0.3-2.1-0.3-3.1,0.2l-9.1,3.8h0
	c0,0-0.1,0-0.1,0c0,0,0,0,0,0c0,0,0,0-0.1,0c0,0,0,0-0.1,0c0,0,0,0,0-0.1l0,0l-5.9-14.1c0-0.1-0.1-0.2-0.2-0.3c0,0,0-0.1-0.1-0.1
	c0-0.1-0.1-0.1-0.1-0.2c0,0-0.1-0.1-0.1-0.1c0,0-0.1-0.1-0.1-0.1C81.1,10.2,78.5,9.8,77.8,9.8z" />
	<ellipse id="path6138" transform="matrix(0.2063 -0.9785 0.9785 0.2063 36.93 129.3683)" class="st17" cx="98.2" cy="41.9" rx="9.8" ry="2.7" />
	<ellipse id="path6138-2" transform="matrix(0.9907 -0.136 0.136 0.9907 -14.0437 7.672)" class="st16" cx="49.1" cy="106.6" rx="5.9" ry="2.8" />
	<ellipse id="path6138-5" class="st3" cx="70.9" cy="31.4" rx="3.9" ry="3.4" />
	<ellipse id="path6138-5-3" transform="matrix(0.9233 -0.3841 0.3841 0.9233 -24.0811 14.6153)" class="st3" cx="24.5" cy="67.6" rx="4.6" ry="4.5" />
	<ellipse id="path6138-4" transform="matrix(0.9229 -0.3852 0.3852 0.9229 -23.9155 49.9653)" class="st1" cx="112.8" cy="84.7" rx="5.2" ry="4.5" />
	<ellipse id="path6138-5-6" class="st3" cx="29.4" cy="74.4" rx="2.9" ry="2.6" />
	<ellipse id="path6138-6" transform="matrix(0.8868 -0.4622 0.4622 0.8868 -35.566 63.5541)" class="st17" cx="111.9" cy="104.4" rx="2.6" ry="3.4" />
	<ellipse id="path6138-4-0" transform="matrix(0.1278 -0.9918 0.9918 0.1278 40.7706 135.8327)" class="st1" cx="97.6" cy="44.7" rx="4.4" ry="1.7" />
	<ellipse id="path6138-5-66" transform="matrix(0.2998 -0.954 0.954 0.2998 -31.0701 57.7963)" class="st3" cx="23.8" cy="50.1" rx="1.6" ry="2.1" />
	<ellipse id="path6138-5-66-8" transform="matrix(0.8921 -0.4518 0.4518 0.8921 -43.0127 32.3971)" class="st3" cx="46.3" cy="106.3" rx="2.2" ry="1.1" />
	<ellipse id="path6138-6-1" transform="matrix(0.2242 -0.9746 0.9746 0.2242 7.05 175.2969)" class="st17" cx="113.6" cy="83.2" rx="1.8" ry="3" />
	<ellipse id="path6138-5-2-5" transform="matrix(0.1307 -0.9914 0.9914 0.1307 16.1095 78.5789)" class="st16" cx="52.9" cy="30.1" rx="4.4" ry="2.3" />
	<path id="path1719-8-16-3-1" inkscape:connector-curvature="0" sodipodi:nodetypes="cccccccccccccccccccccccsssccc" class="st7" d="
	M126.3,70.5c-0.6,0-1,0.2-1.1,0.8c0,0.1,0,0.3,0,0.4c0.2,0.6,0,1.2,0,1.7c0,0.7,0,3.5,0.1,4c0,0.5,0.1,0.9,0.2,1.3
	c0.1,0.3,0.2,0.5,0.2,0.7c0.1,0.1,0.2,0.3,0.3,0.4c0.2,0.2,0.4,0.3,0.6,0.5c0.2,0.1,0.4,0.1,0.5,0.2c0.1,0,0.2,0,0.3,0.1
	c0.4,0,0.8,0,1.2-0.1c0.2-0.1,0.4-0.1,0.5-0.2c0.2-0.1,0.3-0.2,0.4-0.3c0.1-0.1,0.2-0.3,0.3-0.4c0.1-0.1,0.1-0.3,0.1-0.5
	c0-0.1,0-0.2,0-0.3c0-0.1,0-0.1,0.1-0.1c0.1,0,0.1,0,0.2-0.1c0,0,0.1-0.1,0.1-0.2c0.1-0.2,0.1-0.4,0.1-0.7c0-0.2,0-2.6,0-2.8
	c0,0-0.1-0.4-0.1-0.4c1.1,0.5,0.5,0.5,1,1c1.1,1.1,1.9,0.4,1.9-0.5c0-2.3,0-3-0.7-3.5c-0.7-0.5-2.7-0.2-3.9,0.5
	C127.3,71.3,127,70.4,126.3,70.5L126.3,70.5z" />
</svg>
