<?xml version="1.0" encoding="utf-8"?>
<!-- Generator: Adobe Illustrator 25.4.1, SVG Export Plug-In . SVG Version: 6.00 Build 0)  -->
<svg version="1.1" id="svg892"
	xmlns:cc="http://creativecommons.org/ns#"
	xmlns:dc="http://purl.org/dc/elements/1.1/"
	xmlns:inkscape="http://www.inkscape.org/namespaces/inkscape"
	xmlns:rdf="http://www.w3.org/1999/02/22-rdf-syntax-ns#"
	xmlns:sodipodi="http://sodipodi.sourceforge.net/DTD/sodipodi-0.dtd"
	xmlns:svg="http://www.w3.org/2000/svg"
	xmlns="http://www.w3.org/2000/svg"
	xmlns:xlink="http://www.w3.org/1999/xlink" x="0px" y="0px" viewBox="0 0 100 99.7" style="enable-background:new 0 0 100 99.7;" xml:space="preserve">
	<sodipodi:namedview bordercolor="#666666" borderopacity="1.0" fit-margin-bottom="0" fit-margin-left="0" fit-margin-right="0" fit-margin-top="0" id="base" inkscape:current-layer="layer1" inkscape:cx="102.75774" inkscape:cy="54.752579" inkscape:document-units="mm" inkscape:pagecheckerboard="false" inkscape:pageopacity="0.0" inkscape:pageshadow="2" inkscape:window-height="1013" inkscape:window-maximized="1" inkscape:window-width="1920" inkscape:window-x="-9" inkscape:window-y="-9" inkscape:zoom="3.959798" pagecolor="#ffffff" showgrid="false">
	</sodipodi:namedview>
	<path id="path27_00000090292304205612621540000018010408218700710275_" inkscape:connector-curvature="0" fill="#C00000" d="M0,49.7
	C0.1,22.2,22.5,0,50.1,0.1S100.1,22.5,100,50c-0.1,27.5-22.5,49.7-50.1,49.6C22.2,99.5-0.1,77.2,0,49.7L0,49.7z" />
	<path id="path29_00000117650873142867979050000004325294747952294839_" inkscape:connector-curvature="0" fill="#A40000" d="M50.1,0.1
	C77.8,0.2,100.1,22.5,100,50c-0.1,27.5-22.5,49.7-50.1,49.6L50.1,0.1z" />
	<g>
		<path id="path39_00000134932969948671517630000007911377824917406110_" inkscape:connector-curvature="0" fill="#FFA3A3" d="
		M61.7,54.3c0-2.6,4.3-4.7,9.7-4.8c5.4-0.1,9.8,1.9,9.8,4.5c0,2.6-4.3,4.7-9.7,4.8C66.2,58.9,61.8,56.9,61.7,54.3L61.7,54.3z" />
		<path id="path41_00000037666797666017596310000012276045740451355558_" inkscape:connector-curvature="0" fill="#FFA3A3" d="
		M18.8,54.3c0-2.6,4.4-4.6,9.8-4.5c5.4,0.1,9.7,2.3,9.7,4.8c0,2.6-4.4,4.6-9.8,4.5C23,59,18.7,56.9,18.8,54.3z" />
	</g>
	<g id="g73_00000029014618472267096500000011498364990827546538_" transform="translate(646,414)">

		<g id="text45_00000132083540969387294460000000867329718626202035_" transform="matrix(-0.83471193,-0.41803536,0.38520125,-0.76719525,-1105.7683,-386.04792)">
			<path id="path51_00000180329396572755037990000001086334867643004841_" inkscape:connector-curvature="0" fill="#3E1500" d="
			M-517.7,259.2l2.4-1.3l9.6,9.1l-1.1-13.8l2.4-1.3l1.2,16.4l-3,1.7L-517.7,259.2z" />
			<path id="path51_00000129183963848628115860000005489066704010101635_" inkscape:connector-curvature="0" fill="#3E1500" d="
			M-488.4,243.2l2.4-1.3l9.6,9.1l-1.1-13.8l2.4-1.3l1.2,16.4l-3,1.7L-488.4,243.2z" />
		</g>
	</g>
	<g id="text49_00000075154192910221226360000013219275863093886891_" transform="matrix(-0.401528,0.80270245,-0.82968711,-0.39083833,1738.4223,-297.40065)">
		<path id="path319_00000089564409069043729630000000752110010488179859_" inkscape:connector-curvature="0" fill="#3E1500" d="
		M1158.4,1473.5c1.3-0.3,2.5-0.3,3.6,0.2c1.1,0.5,1.9,1.3,2.5,2.4c0.9,1.8,1,3.4,0.3,5c-0.7,1.6-2.2,2.9-4.5,4.1
		c-0.8,0.4-1.6,0.7-2.5,0.9c-0.9,0.3-1.8,0.4-2.9,0.6l-1.2-2.3c0.9,0.1,1.8,0,2.7-0.2c0.9-0.2,1.8-0.5,2.7-1
		c1.6-0.8,2.6-1.6,3.1-2.6c0.5-1,0.5-2.1-0.1-3.2c-0.6-1.1-1.4-1.7-2.4-1.9c-1.1-0.2-2.3,0-3.6,0.7l-2.1,1.1l-1-2l2.2-1.1
		c1.2-0.6,2-1.3,2.4-2.1c0.4-0.8,0.4-1.6-0.1-2.5c-0.5-0.9-1.2-1.5-2.1-1.6c-0.9-0.2-2,0.1-3.2,0.7c-0.7,0.3-1.4,0.8-2.1,1.3
		c-0.7,0.5-1.4,1.2-2.2,1.9l-1.1-2.2c0.8-0.7,1.6-1.3,2.3-1.9c0.8-0.5,1.5-1,2.2-1.3c1.9-0.9,3.6-1.2,5.1-0.9
		c1.5,0.3,2.7,1.1,3.4,2.6c0.5,1,0.7,2,0.5,2.9C1159.9,1471.9,1159.3,1472.7,1158.4,1473.5z" />
	</g>
</svg>
