<?xml version="1.0" encoding="UTF-8" standalone="no"?>
<!-- Created with Inkscape (http://www.inkscape.org/) -->

<svg
   width="185.64224mm"
   height="176.90021mm"
   viewBox="0 0 185.64224 176.90021"
   version="1.1"
   id="svg5"
   inkscape:version="1.1 (c68e22c387, 2021-05-23)"
   sodipodi:docname="star.svg"
   xmlns:inkscape="http://www.inkscape.org/namespaces/inkscape"
   xmlns:sodipodi="http://sodipodi.sourceforge.net/DTD/sodipodi-0.dtd"
   xmlns="http://www.w3.org/2000/svg"
   xmlns:svg="http://www.w3.org/2000/svg">
  <sodipodi:namedview
     id="namedview7"
     pagecolor="#ffffff"
     bordercolor="#111111"
     borderopacity="1"
     inkscape:pageshadow="0"
     inkscape:pageopacity="0"
     inkscape:pagecheckerboard="1"
     inkscape:document-units="mm"
     showgrid="false"
     inkscape:zoom="0.83654462"
     inkscape:cx="277.33129"
     inkscape:cy="273.74511"
     inkscape:window-width="1920"
     inkscape:window-height="1001"
     inkscape:window-x="-9"
     inkscape:window-y="-9"
     inkscape:window-maximized="1"
     inkscape:current-layer="layer1" />
  <defs
     id="defs2" />
  <g
     inkscape:label="Ebene 1"
     inkscape:groupmode="layer"
     id="layer1"
     transform="translate(-13.040334,-112.64614)">
    <path
       id="path906"
       style="fill:#ffdb66;fill-opacity:1"
       inkscape:transform-center-x="0.14718266"
       inkscape:transform-center-y="-9.1329069"
       d="M 659.31126,819.91273 C 650.66887,827.60075 447.13643,759.75301 435.62569,760.89288 424.11495,762.03274 237.84246,868.48141 227.86008,862.63774 217.8777,856.79407 219.50975,642.25711 214.86866,631.66198 210.22756,621.06686 51.427498,476.80563 53.900436,465.50603 c 2.472938,-11.2996 207.014044,-76.043 215.656424,-83.73101 8.64239,-7.68801 96.77105,-203.29502 108.28179,-204.43489 11.51074,-1.13986 136.29204,173.38348 146.27442,179.22715 9.98238,5.84367 223.24896,29.21311 227.89005,39.80824 4.64109,10.59513 -122.78093,183.19988 -125.25386,194.49948 -2.47294,11.2996 41.20439,221.34972 32.562,229.03773 z"
       transform="matrix(0.26341948,0.02478942,-0.02478942,0.26341948,10.398272,56.5649)" />
    <path
       id="path4376"
       style="fill:#ffaa00;fill-opacity:1;stroke:none;stroke-width:0.999999px;stroke-linecap:butt;stroke-linejoin:miter;stroke-opacity:1"
       d="m 607.92969,860.8125 c 10e-4,-0.004 5.6e-4,-0.023 0.002,-0.0273 0.22005,-0.68864 0.98644,-1.95721 2.22656,-3.73633 1.24012,-1.77913 2.95571,-4.06878 5.07618,-6.79297 4.24092,-5.44839 10.10149,-12.63993 17.02539,-20.99609 13.84778,-16.71234 31.94395,-38.07793 49.8164,-59.44141 8.93623,-10.68174 17.81644,-21.36336 26.08203,-31.46289 8.2656,-10.09953 15.91744,-19.61672 22.39453,-27.9707 3.23855,-4.177 6.18381,-8.06346 8.76563,-11.58594 2.58182,-3.52249 4.79862,-6.68174 6.58398,-9.4043 1.78537,-2.72256 3.13911,-5.00794 3.98828,-6.78515 0.42459,-0.88861 0.72238,-1.65039 0.88672,-2.2754 0.11632,-0.44237 0.0801,-0.7287 0.0586,-1.03125 L 405.73047,794.55469 Z"
       transform="scale(0.26458333)" />
    <path
       id="path4032"
       style="fill:#f58300;fill-opacity:1;stroke:none;stroke-width:0.999999px;stroke-linecap:butt;stroke-linejoin:miter;stroke-opacity:1"
       d="m 185.69922,1094.0723 c 0.2869,0.1216 0.57103,0.2448 1.05078,0.2675 0.64553,0.031 1.46053,-0.025 2.43555,-0.164 1.95003,-0.2775 4.5374,-0.8823 7.66992,-1.7696 3.13251,-0.8872 6.81093,-2.0575 10.94531,-3.4648 4.13439,-1.4073 8.72405,-3.0529 13.67969,-4.8906 9.91129,-3.6754 21.2858,-8.122 33.39844,-12.9805 12.11264,-4.8584 24.96489,-10.1274 37.83398,-15.4512 25.73818,-10.6474 51.54411,-21.509 71.63867,-29.7109 10.04729,-4.101 18.66574,-7.5363 25.13477,-9.9492 3.23451,-1.2065 5.93097,-2.1568 8,-2.8067 2.06903,-0.6498 3.51144,-1.0003 4.23437,-1.0039 0.72293,0 2.16693,0.3333 4.24219,0.9629 2.07527,0.6297 4.78122,1.5537 8.02734,2.7285 6.49225,2.3498 15.14564,5.7004 25.23243,9.7032 20.17357,8.0056 46.08306,18.6137 71.92382,29.0097 12.92039,5.1981 25.82299,10.3439 37.98243,15.084 12.15943,4.7401 23.57679,9.0758 33.52343,12.6543 4.97333,1.7893 9.57866,3.3889 13.72657,4.7559 4.14791,1.3669 7.8375,2.5007 10.97851,3.3574 3.14102,0.8567 5.7329,1.4369 7.68555,1.6953 0.97632,0.1292 1.79425,0.1775 2.43945,0.1406 0.59785,-0.034 1.01186,-0.1599 1.30664,-0.3457 L 405.73047,794.55469 Z"
       transform="scale(0.26458333)" />
    <path
       id="path1821"
       style="fill:#f58300;fill-opacity:1;stroke:none;stroke-width:0.999999px;stroke-linecap:butt;stroke-linejoin:miter;stroke-opacity:1"
       d="M 405.73047,794.55469 527.57031,617.74414 c -0.59355,-0.46332 -1.48703,-1.4725 -2.73633,-3.12305 -1.30882,-1.7292 -2.95502,-4.06728 -4.89062,-6.92578 -3.87121,-5.717 -8.90141,-13.51443 -14.70898,-22.68164 -11.61518,-18.33442 -26.34174,-42.1467 -41.13672,-65.74609 -7.39749,-11.7997 -14.81228,-23.54733 -21.86328,-34.5293 -7.05102,-10.98197 -13.73806,-21.19784 -19.68165,-29.93945 -2.97179,-4.37081 -5.75829,-8.374 -8.31054,-11.91797 -2.55226,-3.54397 -4.87061,-6.62867 -6.90821,-9.16797 -2.0376,-2.5393 -3.79483,-4.53187 -5.22265,-5.88867 -0.71391,-0.6784 -1.34504,-1.19939 -1.88867,-1.54883 -0.54364,-0.34943 -0.99987,-0.52715 -1.36133,-0.52539 -0.10057,4.9e-4 -0.26222,0.12209 -0.37695,0.15039 z"
       transform="scale(0.26458333)" />
    <path
       id="path32949"
       style="fill:#ffaa00;fill-opacity:1;stroke:none;stroke-width:0.264583px;stroke-linecap:butt;stroke-linejoin:miter;stroke-opacity:1"
       d="m 72.025579,163.71559 35.323941,46.51034 -1.91719,-97.53978 c -0.0788,0.0194 -0.15574,0.0351 -0.2589,0.10283 -0.14293,0.0938 -0.30845,0.23312 -0.49558,0.41445 -0.37426,0.36265 -0.83378,0.8944 -1.36632,1.57148 -0.53254,0.67708 -1.13843,1.49956 -1.80454,2.44378 -0.66612,0.94421 -1.39285,2.00991 -2.167831,3.17396 -1.54995,2.32811 -3.29276,5.04895 -5.12992,7.97264 -1.83716,2.9237 -3.76854,6.05024 -5.69526,9.19117 -3.85345,6.28187 -7.68833,12.62003 -10.71407,17.50074 -1.51287,2.44036 -2.82338,4.51637 -3.83284,6.03891 -0.50474,0.76127 -0.93408,1.38398 -1.2759,1.84485 -0.30319,0.4088 -0.50888,0.63721 -0.66559,0.77463 z" />
    <path
       id="path1825"
       style="fill:#ffaa00;fill-opacity:1;stroke:none;stroke-width:0.999999px;stroke-linecap:butt;stroke-linejoin:miter;stroke-opacity:1"
       d="m 405.73047,794.55469 -220.03125,299.51761 -0.0332,0.051 c 0.28285,0.1126 0.62398,0.1951 1.08398,0.2168 0.64553,0.031 1.46053,-0.025 2.43555,-0.164 1.95003,-0.2775 4.5374,-0.8823 7.66992,-1.7696 3.13251,-0.8871 6.81093,-2.0575 10.94531,-3.4648 4.13439,-1.4073 8.72405,-3.0529 13.67969,-4.8906 9.91129,-3.6754 21.2858,-8.122 33.39844,-12.9805 12.11264,-4.8584 24.96489,-10.1274 37.83398,-15.4512 25.73818,-10.6474 51.54411,-21.509 71.63867,-29.7109 10.04729,-4.101 18.66574,-7.5363 25.13477,-9.9492 3.23451,-1.2065 5.93097,-2.1568 8,-2.8067 2.06903,-0.6498 3.51144,-1.0003 4.23437,-1.0039 0.23701,0 1.00171,0.2464 1.39063,0.3164 z"
       transform="scale(0.26458333)" />
    <path
       id="path52302"
       style="fill:#f58300;fill-opacity:1;stroke:none;stroke-width:0.264583px;stroke-linecap:butt;stroke-linejoin:miter;stroke-opacity:1"
       d="m 107.34952,210.22593 -94.274861,-29.43283 -0.008,0.0315 c 0.006,0.0292 0.007,0.0534 0.0155,0.0853 0.0451,0.16493 0.12567,0.36544 0.2403,0.59944 0.22925,0.46802 0.5929,1.06921 1.07228,1.78491 0.47938,0.7157 1.07466,1.54588 1.76682,2.47117 0.69216,0.92528 1.48161,1.94595 2.34921,3.0427 1.7352,2.19352 3.78365,4.69147 5.99653,7.34219 2.21289,2.65072 4.59019,5.45384 6.982,8.25686 4.78364,5.60605 9.62622,11.21215 13.33304,15.59801 1.85341,2.19294 3.42282,4.08075 4.5589,5.5113 0.56804,0.71527 1.02795,1.31636 1.36064,1.78387 0.24838,0.34903 0.42599,0.62317 0.52503,0.81545 z" />
    <path
       id="path57611"
       style="fill:#000000;fill-opacity:0;stroke:none;stroke-width:0.999999px;stroke-linecap:butt;stroke-linejoin:miter;stroke-opacity:1"
       d="m 405.73047,794.55469 -211.96485,67.61523 c 0.12706,0.24668 0.21989,0.45886 0.27735,0.63281 0.22675,0.68646 0.35402,2.16377 0.39648,4.33204 0.0425,2.16826 -9.8e-4,5.02822 -0.11523,8.47851 -0.2285,6.90059 -0.74173,16.16605 -1.43164,26.9961 -1.37983,21.66006 -3.46325,49.58056 -5.36524,77.36914 -0.95099,13.89429 -1.85677,27.75608 -2.60742,40.78518 -0.75065,13.0291 -1.34605,25.2253 -1.67578,35.791 -0.16486,5.2828 -0.26298,10.1581 -0.28125,14.5254 -0.0183,4.3673 0.0433,8.2265 0.19922,11.4785 0.15589,3.252 0.40605,5.897 0.76367,7.834 0.17881,0.9684 0.38472,1.7591 0.61914,2.3613 0.23442,0.6022 0.49755,1.0155 0.79102,1.2266 0.0843,0.061 0.21599,0.097 0.33008,0.1425 l 0.0332,-0.051 z"
       transform="scale(0.26458333)" />
    <path
       id="path57609"
       style="fill:#ffdb66;fill-opacity:1;stroke:none;stroke-width:0.264583px;stroke-linecap:butt;stroke-linejoin:miter;stroke-opacity:1"
       d="m 72.025579,163.71559 c -0.0199,0.0175 -0.0673,0.0859 -0.0847,0.0987 -0.15419,0.11318 -0.51568,0.26576 -1.05781,0.45372 -0.54214,0.18796 -1.26496,0.41121 -2.14251,0.66456 -1.7551,0.5067 -4.12856,1.13453 -6.91017,1.8464 -5.56322,1.42373 -12.75926,3.18251 -19.90731,4.97592 -3.57403,0.89671 -7.13592,1.80201 -10.47585,2.67839 -3.33993,0.87638 -6.45799,1.72387 -9.14363,2.50476 -1.34281,0.39044 -2.57735,0.76425 -3.67781,1.11673 -1.10045,0.35247 -2.06661,0.68397 -2.87217,0.98908 -0.80557,0.30512 -1.45077,0.58415 -1.90893,0.83251 -0.22908,0.12418 -0.41126,0.24059 -0.54364,0.34882 -0.13238,0.10822 -0.2148,0.2081 -0.24391,0.2992 -0.0235,0.0735 -0.0153,0.17831 0.01,0.30024 l 0.008,-0.0315 94.274861,29.43283 z" />
    <path
       sodipodi:type="star"
       style="fill:#fef7e0;fill-opacity:1"
       id="path1010"
       inkscape:flatsided="false"
       sodipodi:sides="5"
       sodipodi:cx="853.72357"
       sodipodi:cy="480.11383"
       sodipodi:r1="114.4424"
       sodipodi:r2="21.972176"
       sodipodi:arg1="0.9321512"
       sodipodi:arg2="1.541797"
       inkscape:rounded="0.05"
       inkscape:randomized="0"
       d="m 921.94362,572.00011 c -3.84909,2.97091 -62.72093,-69.97353 -67.58296,-69.92334 -4.89032,0.0505 -62.90667,74.0712 -66.94498,71.3126 -4.01494,-2.74263 47.16695,-81.27416 45.61677,-85.88271 -1.55921,-4.63537 -89.88513,-36.93854 -88.50945,-41.63165 1.36771,-4.66596 91.8717,19.74333 95.77567,16.8449 3.92668,-2.9153 7.3546,-96.90047 12.24312,-97.04238 4.86024,-0.14108 9.61289,93.47622 13.57586,96.29344 3.98602,2.83362 94.43052,-22.94925 96.07612,-18.34384 1.63608,4.57876 -85.93062,38.02814 -87.38533,42.66771 -1.46318,4.66658 51.00667,82.71706 47.13518,85.70527 z"
       transform="matrix(0.26458284,5.1000935e-4,-5.1000935e-4,0.26458284,-118.73801,82.303248)"
       inkscape:transform-center-x="5.2996809"
       inkscape:transform-center-y="-0.53219328" />
    <path
       sodipodi:type="star"
       style="fill:#ffdb66;fill-opacity:1;stroke:none"
       id="path73649"
       inkscape:flatsided="false"
       sodipodi:sides="4"
       sodipodi:cx="713.40863"
       sodipodi:cy="471.66113"
       sodipodi:r1="52.766842"
       sodipodi:r2="13.378417"
       sodipodi:arg1="0.61466295"
       sodipodi:arg2="1.3970715"
       inkscape:rounded="0.05"
       inkscape:randomized="0"
       d="m 756.51744,502.09088 c -1.27177,1.81317 -38.6138,-17.629 -40.79632,-17.25271 -2.18584,0.37687 -30.92632,31.20548 -32.74224,29.93178 -1.81317,-1.27178 17.629,-38.61381 17.25271,-40.79633 -0.37687,-2.18583 -31.20548,-30.92631 -29.93177,-32.74224 1.27177,-1.81317 38.6138,17.62901 40.79632,17.25271 2.18584,-0.37687 30.92632,-31.20548 32.74224,-29.93177 1.81317,1.27177 -17.629,38.6138 -17.25271,40.79632 0.37687,2.18584 31.20548,30.92632 29.93177,32.74224 z"
       transform="matrix(0.21577855,-0.1531142,0.1531142,0.21577855,-75.068199,141.89889)"
       inkscape:transform-center-x="-1.3882885e-06"
       inkscape:transform-center-y="2.3939657e-06" />
    <path
       sodipodi:type="star"
       style="fill:#ffaa00;fill-opacity:1;stroke:none"
       id="path85380"
       inkscape:flatsided="false"
       sodipodi:sides="4"
       sodipodi:cx="713.40863"
       sodipodi:cy="471.66113"
       sodipodi:r1="52.766842"
       sodipodi:r2="13.378417"
       sodipodi:arg1="0.61466295"
       sodipodi:arg2="1.3970715"
       inkscape:rounded="0.05"
       inkscape:randomized="0"
       d="m 756.51744,502.09088 c -1.27177,1.81317 -38.6138,-17.629 -40.79632,-17.25271 -2.18584,0.37687 -30.92632,31.20548 -32.74224,29.93178 -1.81317,-1.27178 17.629,-38.61381 17.25271,-40.79633 -0.37687,-2.18583 -31.20548,-30.92631 -29.93177,-32.74224 1.27177,-1.81317 38.6138,17.62901 40.79632,17.25271 2.18584,-0.37687 30.92632,-31.20548 32.74224,-29.93177 1.81317,1.27177 -17.629,38.6138 -17.25271,40.79632 0.37687,2.18584 31.20548,30.92632 29.93177,32.74224 z"
       transform="matrix(0.30865656,-0.21728511,0.21901947,0.3062124,-145.21298,157.67609)"
       inkscape:transform-center-x="-6.6004949e-06"
       inkscape:transform-center-y="3.5167947e-06" />
  </g>
</svg>
