<?xml version="1.0" encoding="UTF-8" standalone="no"?>
<svg
   xmlns:dc="http://purl.org/dc/elements/1.1/"
   xmlns:cc="http://creativecommons.org/ns#"
   xmlns:rdf="http://www.w3.org/1999/02/22-rdf-syntax-ns#"
   xmlns:svg="http://www.w3.org/2000/svg"
   xmlns="http://www.w3.org/2000/svg"
   xmlns:sodipodi="http://sodipodi.sourceforge.net/DTD/sodipodi-0.dtd"
   xmlns:inkscape="http://www.inkscape.org/namespaces/inkscape"
   width="143.54881"
   height="176.09593"
   overflow="hidden"
   version="1.1"
   id="svg4563"
   sodipodi:docname="yellow-token-smiley.svg"
   style="overflow:hidden"
   inkscape:version="0.92.4 (5da689c313, 2019-01-14)">
  <sodipodi:namedview
     pagecolor="#ffffff"
     bordercolor="#666666"
     borderopacity="1"
     objecttolerance="10"
     gridtolerance="10"
     guidetolerance="10"
     inkscape:pageopacity="0"
     inkscape:pageshadow="2"
     inkscape:window-width="958"
     inkscape:window-height="974"
     id="namedview43"
     showgrid="false"
     fit-margin-top="0"
     fit-margin-left="0"
     fit-margin-right="0"
     fit-margin-bottom="0"
     inkscape:zoom="1.2740405"
     inkscape:cx="69.054364"
     inkscape:cy="65.547207"
     inkscape:window-x="950"
     inkscape:window-y="0"
     inkscape:window-maximized="0"
     inkscape:current-layer="svg4563" />
  <metadata
     id="metadata4567">
    <rdf:RDF>
      <cc:Work
         rdf:about="">
        <dc:format>image/svg+xml</dc:format>
        <dc:type
           rdf:resource="http://purl.org/dc/dcmitype/StillImage" />
        <dc:title></dc:title>
      </cc:Work>
    </rdf:RDF>
  </metadata>
  <defs
     id="defs4531">
    <filter
       style="color-interpolation-filters:sRGB"
       inkscape:label="Drop Shadow"
       id="filter5501">
      <feFlood
         flood-opacity="0.498039"
         flood-color="rgb(0,0,0)"
         result="flood"
         id="feFlood5491" />
      <feComposite
         in="flood"
         in2="SourceGraphic"
         operator="in"
         result="composite1"
         id="feComposite5493" />
      <feGaussianBlur
         in="composite1"
         stdDeviation="1.1"
         result="blur"
         id="feGaussianBlur5495" />
      <feOffset
         dx="0.4"
         dy="1"
         result="offset"
         id="feOffset5497" />
      <feComposite
         in="SourceGraphic"
         in2="offset"
         operator="over"
         result="composite2"
         id="feComposite5499" />
    </filter>
    <filter
       style="color-interpolation-filters:sRGB"
       inkscape:label="Drop Shadow"
       id="filter5513">
      <feFlood
         flood-opacity="0.498039"
         flood-color="rgb(0,0,0)"
         result="flood"
         id="feFlood5503" />
      <feComposite
         in="flood"
         in2="SourceGraphic"
         operator="in"
         result="composite1"
         id="feComposite5505" />
      <feGaussianBlur
         in="composite1"
         stdDeviation="1.1"
         result="blur"
         id="feGaussianBlur5507" />
      <feOffset
         dx="0.4"
         dy="1"
         result="offset"
         id="feOffset5509" />
      <feComposite
         in="SourceGraphic"
         in2="offset"
         operator="over"
         result="composite2"
         id="feComposite5511" />
    </filter>
    <filter
       style="color-interpolation-filters:sRGB"
       inkscape:label="Drop Shadow"
       id="filter5525">
      <feFlood
         flood-opacity="0.498039"
         flood-color="rgb(0,0,0)"
         result="flood"
         id="feFlood5515" />
      <feComposite
         in="flood"
         in2="SourceGraphic"
         operator="in"
         result="composite1"
         id="feComposite5517" />
      <feGaussianBlur
         in="composite1"
         stdDeviation="1.1"
         result="blur"
         id="feGaussianBlur5519" />
      <feOffset
         dx="0.4"
         dy="1"
         result="offset"
         id="feOffset5521" />
      <feComposite
         in="SourceGraphic"
         in2="offset"
         operator="over"
         result="composite2"
         id="feComposite5523" />
    </filter>
  </defs>
  <g
     id="g898"
     transform="rotate(44.850363,68.95705,70.763147)">
    <path
       style="overflow:hidden;fill:#ffd966;fill-rule:evenodd"
       inkscape:connector-curvature="0"
       id="path31"
       d="m 5.991298,98.714386 c -16.161,-36.009993 0.065,-78.362993 36.24,-94.5979931 36.176005,-16.2349999 78.603002,-0.205 94.764002,35.8050001 16.161,36.009 -0.064,78.362997 -36.24,94.597997 -36.176002,16.235 -78.603002,0.205 -94.764002,-35.805004 z" />
    <path
       style="overflow:hidden;fill:#ffe699;fill-rule:evenodd"
       inkscape:connector-curvature="0"
       id="path33"
       d="m 42.231298,4.1163929 c 36.176005,-16.2349999 78.603002,-0.205 94.764002,35.8050001 16.161,36.009 -0.064,78.362997 -36.24,94.597997 z" />
    <path
       style="overflow:hidden;fill:#ffffff;fill-rule:evenodd"
       inkscape:connector-curvature="0"
       id="path35"
       d="m 37.729298,104.80939 c -2.401,-5.570004 1.554,-12.628994 8.834,-15.767997 7.279,-3.139 15.128,-1.168 17.529,4.402003 2.402,5.56999 -1.553,12.629994 -8.833,15.768994 -7.28,3.138 -15.128,1.167 -17.53,-4.403 z" />
    <path
       style="overflow:hidden;fill:#ffffff;fill-rule:evenodd"
       inkscape:connector-curvature="0"
       id="path37"
       d="m 99.620303,74.685393 c -3.477,-4.97 -1.028,-12.683 5.467997,-17.226 6.496,-4.544 14.581,-4.198 18.057,0.772 3.477,4.971 1.029,12.683 -5.468,17.227 -6.496,4.544 -14.581,4.198 -18.056997,-0.773 z" />
    <path
       style="overflow:hidden;fill:#7a2900"
       inkscape:connector-curvature="0"
       id="path47"
       d="m 56.928328,78.242753 c 0.2735,0.22736 0.46368,0.42507 0.57035,0.59324 0.10676,0.16812 0.12267,0.32988 0.0479,0.48532 -0.0747,0.15553 -0.2402,0.31431 -0.49627,0.47629 -0.25611,0.16213 -0.60611,0.35846 -1.05015,0.58895 -0.39816,0.20667 -0.73716,0.368 -1.01704,0.4841 -0.27993,0.11623 -0.51997,0.18732 -0.72022,0.21352 -0.20024,0.0262 -0.3663,0.0152 -0.49821,-0.033 -0.13192,-0.0481 -0.26026,-0.11762 -0.38508,-0.20831 l -11.89818,-9.88978 -0.0332,0.10476 1.50347,15.19794 c 0.0176,0.14633 0.008,0.28733 -0.0283,0.4229 -0.0365,0.13558 -0.12311,0.27775 -0.25976,0.42643 -0.13666,0.14867 -0.32532,0.30012 -0.56609,0.45417 -0.24072,0.15413 -0.56012,0.33458 -0.95825,0.54124 -0.44407,0.23051 -0.79841,0.39979 -1.063,0.50796 -0.26455,0.10825 -0.48009,0.14239 -0.64662,0.10242 -0.16649,-0.0399 -0.28965,-0.14608 -0.36944,-0.31851 -0.0797,-0.17235 -0.1339,-0.43582 -0.16242,-0.79035 l -1.20277,-18.26992 c -0.0256,-0.16156 -0.003,-0.32395 0.0679,-0.48716 0.0708,-0.16307 0.18601,-0.32494 0.34567,-0.48555 0.15956,-0.16057 0.36921,-0.32776 0.62899,-0.50148 0.25969,-0.17367 0.57328,-0.35594 0.94081,-0.54672 0.39816,-0.20668 0.74296,-0.36616 1.03452,-0.47864 0.29148,-0.11243 0.54504,-0.18568 0.76056,-0.21981 0.2156,-0.0342 0.41044,-0.0332 0.58457,0.003 0.17417,0.036 0.32763,0.10699 0.46046,0.2129 z" />
    <path
       style="overflow:hidden;fill:#7a2900"
       inkscape:connector-curvature="0"
       id="path53"
       d="m 81.845795,69.236373 c 0.871205,1.67836 1.458625,3.29362 1.76221,4.84588 0.303674,1.55222 0.308221,3.00527 0.01355,4.3592 -0.294583,1.35387 -0.903413,2.59268 -1.826402,3.71638 -0.923081,1.12374 -2.175605,2.09619 -3.757664,2.91741 -1.560757,0.81016 -3.031046,1.27821 -4.410901,1.40416 -1.37985,0.12595 -2.67153,-0.0619 -3.87504,-0.56349 -1.20351,-0.50161 -2.32825,-1.31551 -3.37423,-2.44171 -1.04597,-1.12619 -2.01288,-2.54448 -2.90071,-4.25486 -0.84899,-1.63558 -1.42251,-3.22408 -1.72062,-4.76569 -0.29808,-1.54152 -0.29436,-2.98528 0.0112,-4.33129 0.30555,-1.34592 0.91981,-2.58077 1.84282,-3.70447 0.923,-1.1237 2.1755,-2.0962 3.75765,-2.91746 1.52863,-0.79349 2.97883,-1.25445 4.35057,-1.38297 1.37174,-0.12853 2.663274,0.0525 3.874702,0.54327 1.211516,0.49072 2.338697,1.28977 3.381633,2.3971 1.042982,1.10741 2.000119,2.50028 2.871278,4.17854 z m -2.818472,1.70729 c -0.61035,-1.17583 -1.281871,-2.21489 -2.014426,-3.11693 -0.732512,-0.90217 -1.534588,-1.59867 -2.406048,-2.08936 -0.871421,-0.49082 -1.821071,-0.73405 -2.848771,-0.7298 -1.02775,0.004 -2.13948,0.31669 -3.33528,0.93741 -1.1958,0.62072 -2.08286,1.36612 -2.66121,2.23632 -0.57841,0.87013 -0.92692,1.81099 -1.0456,2.82251 -0.11867,1.01152 -0.0281,2.07383 0.27191,3.18701 0.29991,1.1131 0.73562,2.22015 1.30718,3.32124 0.63256,1.21861 1.31665,2.28844 2.0522,3.20937 0.73556,0.92093 1.53639,1.62817 2.4025,2.12172 0.86611,0.49355 1.80903,0.7369 2.82875,0.73003 1.019716,-0.007 2.1381,-0.32617 3.35502,-0.95785 1.206447,-0.62624 2.104212,-1.37723 2.693294,-2.25296 0.589082,-0.87574 0.936117,-1.82598 1.041098,-2.85076 0.104986,-1.02476 0.0035,-2.09502 -0.304562,-3.21072 -0.308054,-1.11569 -0.753393,-2.23475 -1.336055,-3.35723 z" />
    <path
       style="overflow:hidden;fill:#7a2900"
       inkscape:connector-curvature="0"
       id="path59"
       d="m 102.34133,54.242773 c 0.2735,0.22736 0.46368,0.42507 0.57035,0.59324 0.10676,0.16812 0.12267,0.32988 0.0479,0.48532 -0.0747,0.15553 -0.2402,0.31431 -0.49627,0.47629 -0.25611,0.16213 -0.60611,0.35846 -1.05016,0.58895 -0.39815,0.20667 -0.73715,0.36799 -1.01703,0.4841 -0.27993,0.11623 -0.519967,0.18732 -0.720216,0.21352 -0.200246,0.0262 -0.366304,0.0152 -0.498216,-0.033 -0.131912,-0.0481 -0.260256,-0.11762 -0.385075,-0.20831 l -11.89818,-9.88978 -0.03317,0.10476 1.503466,15.19794 c 0.01764,0.14633 0.0082,0.28733 -0.02832,0.4229 -0.03654,0.13558 -0.123111,0.27775 -0.259761,0.42643 -0.13665,0.14867 -0.325311,0.30012 -0.566084,0.45417 -0.240717,0.15413 -0.560122,0.33458 -0.95825,0.54124 -0.444068,0.23051 -0.798412,0.39979 -1.063003,0.50796 -0.264545,0.10825 -0.480084,0.14239 -0.646616,0.10242 -0.166495,-0.0399 -0.289652,-0.14608 -0.369444,-0.31851 -0.07974,-0.17235 -0.133895,-0.43582 -0.162416,-0.79035 L 83.10806,45.332143 c -0.02562,-0.16156 -0.003,-0.32395 0.06789,-0.48716 0.07084,-0.16307 0.186015,-0.32494 0.34567,-0.48555 0.159567,-0.16057 0.369216,-0.32776 0.628995,-0.50148 0.25969,-0.17367 0.573279,-0.35594 0.940813,-0.54672 0.398155,-0.20668 0.742951,-0.36616 1.034519,-0.47864 0.291479,-0.11243 0.545041,-0.18569 0.760553,-0.21981 0.215601,-0.0342 0.410444,-0.0332 0.584571,0.003 0.174174,0.036 0.327633,0.10699 0.460465,0.2129 z" />
  </g>
  <path
     d="m 16.280201,169.09594 c 0,-3.866 21.49,-7 48.000005,-7 26.509997,0 47.999994,3.134 47.999994,7 0,3.866 -21.489997,7 -47.999994,7 -26.510005,0 -48.000005,-3.134 -48.000005,-7 z"
     id="path69"
     inkscape:connector-curvature="0"
     style="overflow:hidden;fill:#b6b6b6;fill-rule:evenodd" />
</svg>
