<?xml version="1.0" encoding="utf-8"?>
<!-- Generator: Adobe Illustrator 25.4.1, SVG Export Plug-In . SVG Version: 6.00 Build 0)  -->
<svg version="1.1" id="svg892"
	xmlns:cc="http://creativecommons.org/ns#"
	xmlns:dc="http://purl.org/dc/elements/1.1/"
	xmlns:inkscape="http://www.inkscape.org/namespaces/inkscape"
	xmlns:rdf="http://www.w3.org/1999/02/22-rdf-syntax-ns#"
	xmlns:sodipodi="http://sodipodi.sourceforge.net/DTD/sodipodi-0.dtd"
	xmlns:svg="http://www.w3.org/2000/svg"
	xmlns="http://www.w3.org/2000/svg"
	xmlns:xlink="http://www.w3.org/1999/xlink" x="0px" y="0px" viewBox="0 0 100 100" style="enable-background:new 0 0 100 100;" xml:space="preserve">
	<sodipodi:namedview bordercolor="#666666" borderopacity="1.0" fit-margin-bottom="0" fit-margin-left="0" fit-margin-right="0" fit-margin-top="0" id="base" inkscape:current-layer="layer1" inkscape:cx="13.451947" inkscape:cy="104.93989" inkscape:document-units="mm" inkscape:guide-bbox="true" inkscape:pagecheckerboard="false" inkscape:pageopacity="0.0" inkscape:pageshadow="2" inkscape:window-height="1013" inkscape:window-maximized="1" inkscape:window-width="1920" inkscape:window-x="-9" inkscape:window-y="-9" inkscape:zoom="2.8" pagecolor="#ffffff" showgrid="false" showguides="true">
		<sodipodi:guide id="guide1553" inkscape:locked="false" orientation="1,0" position="18.708866,5.6126599"></sodipodi:guide>
		<sodipodi:guide id="guide1572" inkscape:locked="false" orientation="0,1" position="41.293141,18.307962"></sodipodi:guide>
	</sodipodi:namedview>
	<path id="path31_00000117640172254573592760000008503088719846313625_" inkscape:connector-curvature="0" fill="#FFD966" d="M0,50.1
	C-0.1,22.7,22.2,0.3,49.9,0.2C77.5,0.1,99.9,22.4,100,49.9c0.1,27.5-22.2,49.8-49.9,49.9C22.5,99.9,0.1,77.6,0,50.1z" />
	<path id="path33_00000005230997636843760670000012194654260594713774_" inkscape:connector-curvature="0" fill="#FFE699" d="M49.9,0.2
	C77.5,0.1,99.9,22.4,100,49.9c0.1,27.5-22.2,49.8-49.9,49.9L49.9,0.2z" />
	<g>
		<path id="path35_00000048474553310997444470000006865530877031969451_" inkscape:connector-curvature="0" fill="#FFFFFF" d="
		M16.1,60.7c0.3-4.2,5.1-7.3,10.6-6.8c5.5,0.4,9.7,4.2,9.3,8.4c-0.3,4.2-5.1,7.3-10.6,6.8C19.9,68.6,15.8,64.9,16.1,60.7L16.1,60.7z
		" />
		<path id="path37_00000164515220656971400890000009533422173022635945_" inkscape:connector-curvature="0" fill="#FFFFFF" d="M64,62.4
		c-0.5-4.2,3.5-8.1,9-8.8c5.5-0.7,10.3,2.2,10.9,6.4c0.5,4.2-3.5,8.1-9,8.8C69.4,69.4,64.5,66.6,64,62.4L64,62.4z" />
	</g>
	<g>
		<path id="path47_00000084493958919821436880000014884087655141352855_" inkscape:connector-curvature="0" fill="#7A2900" d="M39.2,51
		c0.1,0.2,0.2,0.4,0.2,0.5c0,0.1,0,0.2-0.1,0.3C39.1,51.9,39,52,38.8,52c-0.2,0-0.5,0-0.8,0c-0.3,0-0.6,0-0.8,0
		c-0.2,0-0.4,0-0.5-0.1c-0.1,0-0.2-0.1-0.3-0.2c-0.1-0.1-0.1-0.2-0.2-0.3l-4.3-9.9l-0.1,0.1L28,51.5c0,0.1-0.1,0.2-0.2,0.3
		c-0.1,0.1-0.2,0.1-0.3,0.2s-0.3,0.1-0.5,0.1c-0.2,0-0.5,0-0.8,0c-0.3,0-0.6,0-0.8,0c-0.2,0-0.3-0.1-0.4-0.1
		c-0.1-0.1-0.1-0.2-0.1-0.3c0-0.1,0.1-0.3,0.1-0.5l5-11.7c0-0.1,0.1-0.2,0.2-0.3c0.1-0.1,0.2-0.1,0.4-0.2c0.1,0,0.3-0.1,0.5-0.1
		c0.2,0,0.5,0,0.8,0c0.3,0,0.6,0,0.8,0c0.2,0,0.4,0.1,0.5,0.1c0.1,0,0.3,0.1,0.4,0.2c0.1,0.1,0.2,0.2,0.2,0.3L39.2,51z" />
		<path id="path53_00000160885702590547952490000017965842912657974665_" inkscape:connector-curvature="0" fill="#7A2900" d="
		M57.5,53.3c0,1.3-0.1,2.5-0.4,3.6c-0.3,1.1-0.8,2-1.4,2.7c-0.6,0.7-1.4,1.3-2.3,1.7c-0.9,0.4-2,0.6-3.3,0.6c-1.2,0-2.3-0.2-3.2-0.5
		c-0.9-0.4-1.6-0.9-2.2-1.6c-0.6-0.7-1-1.6-1.3-2.6c-0.3-1-0.4-2.2-0.5-3.6c0-1.3,0.1-2.5,0.4-3.5c0.3-1.1,0.8-1.9,1.4-2.7
		c0.6-0.7,1.4-1.3,2.3-1.7c0.9-0.4,2-0.6,3.3-0.6c1.2,0,2.2,0.2,3.1,0.5s1.6,0.9,2.2,1.6c0.6,0.7,1,1.5,1.3,2.6
		C57.3,50.8,57.5,52,57.5,53.3z M55.2,53.4c0-0.9-0.1-1.8-0.3-2.6c-0.2-0.8-0.4-1.5-0.8-2.1c-0.4-0.6-0.9-1-1.5-1.4
		c-0.6-0.3-1.4-0.5-2.4-0.5s-1.7,0.2-2.4,0.5c-0.6,0.4-1.1,0.8-1.5,1.4c-0.4,0.6-0.7,1.3-0.8,2.1c-0.2,0.8-0.2,1.6-0.2,2.5
		c0,1,0.1,1.8,0.3,2.6s0.4,1.5,0.8,2.1c0.4,0.6,0.9,1,1.5,1.3c0.6,0.3,1.4,0.5,2.4,0.5c0.9,0,1.7-0.2,2.4-0.5
		c0.6-0.4,1.2-0.8,1.5-1.4c0.4-0.6,0.7-1.3,0.8-2.1C55.1,55.2,55.2,54.3,55.2,53.4z" />
		<path id="path59_00000003075811949081490460000007800569117818133652_" inkscape:connector-curvature="0" fill="#7A2900" d="
		M74.9,50.5c0.1,0.2,0.2,0.4,0.2,0.5c0,0.1,0,0.2-0.1,0.3c-0.1,0.1-0.2,0.1-0.5,0.1c-0.2,0-0.5,0-0.8,0c-0.3,0-0.6,0-0.8,0
		c-0.2,0-0.4,0-0.5-0.1c-0.1,0-0.2-0.1-0.3-0.2C72,51.1,72,51,71.9,50.9L67.7,41l-0.1,0.1L63.7,51c0,0.1-0.1,0.2-0.2,0.3
		c-0.1,0.1-0.2,0.1-0.3,0.2c-0.1,0-0.3,0.1-0.5,0.1c-0.2,0-0.5,0-0.8,0c-0.3,0-0.6,0-0.8,0c-0.2,0-0.3-0.1-0.4-0.1
		c-0.1-0.1-0.1-0.2-0.1-0.3c0-0.1,0.1-0.3,0.1-0.5l5-11.7c0-0.1,0.1-0.2,0.2-0.3c0.1-0.1,0.2-0.1,0.4-0.2c0.1,0,0.3-0.1,0.5-0.1
		c0.2,0,0.5,0,0.8,0c0.3,0,0.6,0,0.8,0c0.2,0,0.4,0.1,0.5,0.1c0.1,0,0.3,0.1,0.4,0.2c0.1,0.1,0.2,0.2,0.2,0.3L74.9,50.5z" />
	</g>
</svg>
