<?xml version="1.0" encoding="utf-8"?>
<!-- Generator: Adobe Illustrator 25.4.1, SVG Export Plug-In . SVG Version: 6.00 Build 0)  -->
<svg version="1.1"
	 id="svg892" xmlns:cc="http://creativecommons.org/ns#" xmlns:dc="http://purl.org/dc/elements/1.1/" xmlns:inkscape="http://www.inkscape.org/namespaces/inkscape" xmlns:rdf="http://www.w3.org/1999/02/22-rdf-syntax-ns#" xmlns:sodipodi="http://sodipodi.sourceforge.net/DTD/sodipodi-0.dtd" xmlns:svg="http://www.w3.org/2000/svg"
	 xmlns="http://www.w3.org/2000/svg" xmlns:xlink="http://www.w3.org/1999/xlink" x="0px" y="0px" viewBox="0 0 100 100"
	 style="enable-background:new 0 0 100 100;" xml:space="preserve">
<style type="text/css">
	.st0{fill-rule:evenodd;clip-rule:evenodd;fill:#FFD966;}
	.st1{fill-rule:evenodd;clip-rule:evenodd;fill:#FFE699;}
	.st2{fill:#7A2900;}
	.st3{fill-rule:evenodd;clip-rule:evenodd;fill:#8AE3FF;}
</style>
<sodipodi:namedview  bordercolor="#666666" borderopacity="1.0" fit-margin-bottom="0" fit-margin-left="0" fit-margin-right="0" fit-margin-top="0" id="base" inkscape:current-layer="layer1" inkscape:cx="13.451947" inkscape:cy="104.93989" inkscape:document-units="mm" inkscape:guide-bbox="true" inkscape:pagecheckerboard="false" inkscape:pageopacity="0.0" inkscape:pageshadow="2" inkscape:window-height="1013" inkscape:window-maximized="1" inkscape:window-width="1920" inkscape:window-x="-9" inkscape:window-y="-9" inkscape:zoom="2.8" pagecolor="#ffffff" showgrid="false" showguides="true">
	<sodipodi:guide  id="guide1553" inkscape:locked="false" orientation="1,0" position="18.708866,5.6126599"></sodipodi:guide>
	<sodipodi:guide  id="guide1572" inkscape:locked="false" orientation="0,1" position="41.293141,18.307962"></sodipodi:guide>
</sodipodi:namedview>
<path id="path31_00000117640172254573592760000008503088719846313625_" inkscape:connector-curvature="0" class="st0" d="M0,50.1
	C-0.1,22.7,22.2,0.3,49.9,0.2C77.5,0.1,99.9,22.4,100,49.9c0.1,27.5-22.2,49.8-49.9,49.9C22.5,99.9,0.1,77.6,0,50.1z"/>
<path id="path33_00000005230997636843760670000012194654260594713774_" inkscape:connector-curvature="0" class="st1" d="M49.9,0.2
	C77.5,0.1,99.9,22.4,100,49.9c0.1,27.5-22.2,49.8-49.9,49.9L49.9,0.2z"/>
<g>
	<g>
		<path class="st2" d="M56.5,65.6L57,65c0.3-0.4,0.6-0.7,0.8-1.1c0.2-0.3,0.2-0.6,0.2-0.9c0-0.4-0.2-0.8-0.6-1.3
			c-0.4-0.5-1-1-1.9-1.3c-0.9-0.4-2-0.6-3.3-0.6c-1.4,0-2.5,0.2-3.2,0.5c-0.6,0.3-0.9,0.7-0.9,1.3c0,0.3,0.1,0.9,0.7,1.8l0.4,0.5
			c0.1,0.1,0.3,0.3,0.3,0.6c0,0.4-0.4,0.7-1,1C47.8,66,47.6,66,47.4,66c-0.7,0-1.1-0.8-1.4-1.4c-0.4-0.8-0.5-1.4-0.5-1.9
			c0-0.8,0.4-1.6,1.1-2.5c0.7-0.8,1.7-1.5,2.9-2.1c1.2-0.5,2.6-0.8,4.2-0.8c0.7,0,1.5,0.1,2.3,0.2c0.8,0.1,1.5,0.4,2,0.6
			c0.7,0.4,1.3,1,1.7,1.8c0.4,0.8,0.6,1.5,0.6,2.2c0,1.3-0.7,2.5-2.1,3.6L58,66L56.5,65.6z"/>
		<path class="st2" d="M58.2,64.2c0.2-0.3,0.3-0.7,0.3-1.1c0-0.5-0.2-1-0.7-1.6s-1.1-1.1-2.1-1.5c-1-0.4-2.1-0.6-3.5-0.6
			c-1.5,0-2.7,0.2-3.4,0.6c-0.8,0.4-1.1,1-1.1,1.8c0,0.6,0.3,1.3,0.8,2.1c0.2,0.3,0.4,0.5,0.5,0.6s0.1,0.2,0.1,0.3
			c0,0.1-0.2,0.3-0.7,0.5s-0.8,0.3-0.9,0.3c-0.3,0-0.6-0.4-0.9-1.1c-0.3-0.7-0.5-1.3-0.5-1.7c0-0.7,0.3-1.4,1-2.1s1.6-1.4,2.8-1.9
			s2.5-0.8,4-0.8c0.7,0,1.5,0.1,2.2,0.2c0.8,0.1,1.4,0.3,1.8,0.6c0.6,0.4,1.1,0.9,1.5,1.6s0.6,1.3,0.6,2c0,1.1-0.6,2.2-1.9,3.2
			l-0.5-0.2C57.7,64.9,58,64.5,58.2,64.2z"/>
	</g>
</g>
<g>
	<g>
		<path class="st2" d="M67.7,47.5c-4.6,0-7.8-3.6-7.8-8.7c0-5.3,3.3-9,8-9c4.6,0,7.8,3.5,7.8,8.7C75.7,44.7,71.7,47.5,67.7,47.5z
			 M67.9,32.5c-3.2,0-4.7,3.1-4.7,6.2c0,2.9,1.5,6.1,4.7,6.1c3.2,0,4.7-3.1,4.7-6.2C72.5,35.7,71.1,32.5,67.9,32.5z"/>
	</g>
</g>
<path class="st3" d="M70.8,95.3c-5.9-3-9.1-6.1-9.3-9.4c-0.2-3,2.1-4.9,4.1-6.7c1.7-1.5,3.3-2.8,3.3-4.8c0.1-2-1.3-3-3-4.4
	c-1.9-1.5-4.2-3.4-3.7-6.4c0.6-3.2,3.8-5.1,6.5-6.7c3.3-2,3.5-2.7,3.7-3.6c0.5-1.7-0.5-4.4-6.9-9.2c1.4,0,2.9,0,4.3,0.1
	c2.5,1.1,11.4,5.2,10.8,9.1c-0.2,1.9-2.4,4.3-5.7,6.2c-2.3,1.4-4.2,2.5-4.6,4.4c-0.3,1.7,0.8,2.5,2.5,3.9c1.9,1.5,4.3,3.4,4.2,6.6
	c-0.1,3.1-2.5,5.2-4.4,6.8c-3,2.6-2.9,3.5-3,4.4c-0.1,1.5,1,3.7,6.7,6.5c-0.7,0.4-1.4,0.9-2.2,1.3C73,94.2,71.9,94.8,70.8,95.3z"/>
<g>
	<g>
		<path class="st2" d="M30.8,46.7c4.6,0,7.8-3.6,7.8-8.7c0-5.3-3.3-9-8-9c-4.6,0-7.8,3.5-7.8,8.7C22.8,43.9,26.8,46.7,30.8,46.7z
			 M30.7,31.7c3.2,0,4.7,3.1,4.7,6.2c0,2.9-1.5,6.1-4.7,6.1c-3.2,0-4.7-3.1-4.7-6.2C26,34.9,27.4,31.7,30.7,31.7z"/>
	</g>
</g>
<path class="st3" d="M27.7,94.5c5.9-3,9.1-6.1,9.3-9.4c0.2-3-2.1-4.9-4.1-6.7c-1.7-1.5-3.3-2.8-3.3-4.8c-0.1-2,1.3-3,3-4.4
	c1.9-1.5,4.2-3.4,3.7-6.4c-0.6-3.2-3.8-5.1-6.5-6.7c-3.3-2-3.5-2.7-3.7-3.6c-0.5-1.7,0.5-4.4,6.9-9.2c-1.4,0-2.9,0-4.3,0.1
	c-2.5,1.1-11.4,5.2-10.8,9.1c0.2,1.9,2.4,4.3,5.7,6.2c2.3,1.4,4.2,2.5,4.6,4.4c0.3,1.7-0.8,2.5-2.5,3.9c-1.9,1.5-4.3,3.4-4.2,6.6
	c0.1,3.1,2.5,5.2,4.4,6.8c3,2.6,2.9,3.5,3,4.4c0.1,1.5-1,3.7-6.7,6.5c0.7,0.4,1.4,0.9,2.2,1.3C25.5,93.4,26.6,94,27.7,94.5z"/>
</svg>
