<?xml version="1.0" encoding="UTF-8" standalone="no"?>
<svg
   xmlns:dc="http://purl.org/dc/elements/1.1/"
   xmlns:cc="http://creativecommons.org/ns#"
   xmlns:rdf="http://www.w3.org/1999/02/22-rdf-syntax-ns#"
   xmlns:svg="http://www.w3.org/2000/svg"
   xmlns="http://www.w3.org/2000/svg"
   xmlns:sodipodi="http://sodipodi.sourceforge.net/DTD/sodipodi-0.dtd"
   xmlns:inkscape="http://www.inkscape.org/namespaces/inkscape"
   width="143.5177"
   height="185.23744"
   overflow="hidden"
   version="1.1"
   id="svg4563"
   sodipodi:docname="yellow-token-smiley.svg"
   style="overflow:hidden"
   inkscape:version="0.92.4 (5da689c313, 2019-01-14)">
  <sodipodi:namedview
     pagecolor="#ffffff"
     bordercolor="#666666"
     borderopacity="1"
     objecttolerance="10"
     gridtolerance="10"
     guidetolerance="10"
     inkscape:pageopacity="0"
     inkscape:pageshadow="2"
     inkscape:window-width="1920"
     inkscape:window-height="986"
     id="namedview43"
     showgrid="false"
     fit-margin-top="0"
     fit-margin-left="0"
     fit-margin-right="0"
     fit-margin-bottom="0"
     inkscape:zoom="3.6035307"
     inkscape:cx="70.216847"
     inkscape:cy="94.972451"
     inkscape:window-x="-11"
     inkscape:window-y="-11"
     inkscape:window-maximized="1"
     inkscape:current-layer="svg4563" />
  <metadata
     id="metadata4567">
    <rdf:RDF>
      <cc:Work
         rdf:about="">
        <dc:format>image/svg+xml</dc:format>
        <dc:type
           rdf:resource="http://purl.org/dc/dcmitype/StillImage" />
        <dc:title></dc:title>
      </cc:Work>
    </rdf:RDF>
  </metadata>
  <defs
     id="defs4531">
    <filter
       style="color-interpolation-filters:sRGB"
       inkscape:label="Drop Shadow"
       id="filter5501">
      <feFlood
         flood-opacity="0.498039"
         flood-color="rgb(0,0,0)"
         result="flood"
         id="feFlood5491" />
      <feComposite
         in="flood"
         in2="SourceGraphic"
         operator="in"
         result="composite1"
         id="feComposite5493" />
      <feGaussianBlur
         in="composite1"
         stdDeviation="1.1"
         result="blur"
         id="feGaussianBlur5495" />
      <feOffset
         dx="0.4"
         dy="1"
         result="offset"
         id="feOffset5497" />
      <feComposite
         in="SourceGraphic"
         in2="offset"
         operator="over"
         result="composite2"
         id="feComposite5499" />
    </filter>
    <filter
       style="color-interpolation-filters:sRGB"
       inkscape:label="Drop Shadow"
       id="filter5513">
      <feFlood
         flood-opacity="0.498039"
         flood-color="rgb(0,0,0)"
         result="flood"
         id="feFlood5503" />
      <feComposite
         in="flood"
         in2="SourceGraphic"
         operator="in"
         result="composite1"
         id="feComposite5505" />
      <feGaussianBlur
         in="composite1"
         stdDeviation="1.1"
         result="blur"
         id="feGaussianBlur5507" />
      <feOffset
         dx="0.4"
         dy="1"
         result="offset"
         id="feOffset5509" />
      <feComposite
         in="SourceGraphic"
         in2="offset"
         operator="over"
         result="composite2"
         id="feComposite5511" />
    </filter>
    <filter
       style="color-interpolation-filters:sRGB"
       inkscape:label="Drop Shadow"
       id="filter5525">
      <feFlood
         flood-opacity="0.498039"
         flood-color="rgb(0,0,0)"
         result="flood"
         id="feFlood5515" />
      <feComposite
         in="flood"
         in2="SourceGraphic"
         operator="in"
         result="composite1"
         id="feComposite5517" />
      <feGaussianBlur
         in="composite1"
         stdDeviation="1.1"
         result="blur"
         id="feGaussianBlur5519" />
      <feOffset
         dx="0.4"
         dy="1"
         result="offset"
         id="feOffset5521" />
      <feComposite
         in="SourceGraphic"
         in2="offset"
         operator="over"
         result="composite2"
         id="feComposite5523" />
    </filter>
  </defs>
  <g
     transform="translate(-812.64608,-591.76255)"
     id="g4561">
    <path
       style="fill:#ffd966;fill-rule:evenodd"
       d="m 818.903,692.699 c -16.161,-36.01 0.064,-78.363 36.24,-94.598 36.176,-16.236 78.603,-0.205 94.764,35.805 16.161,36.009 -0.065,78.362 -36.241,94.598 -36.175,16.235 -78.603,0.205 -94.763,-35.805 z"
       id="path4533"
       inkscape:connector-curvature="0" />
    <path
       d="m 855.143,598.101 c 36.176,-16.236 78.603,-0.205 94.764,35.805 16.161,36.009 -0.065,78.362 -36.24,94.598 z"
       id="path4535"
       inkscape:connector-curvature="0"
       style="fill:#ffe699;fill-rule:evenodd" />
    <path
       d="m 850.641,698.794 c -2.401,-5.57 1.553,-12.63 8.833,-15.768 7.28,-3.139 15.128,-1.168 17.53,4.402 2.401,5.57 -1.554,12.63 -8.833,15.768 -7.28,3.139 -15.129,1.168 -17.53,-4.402 z"
       id="path4537"
       inkscape:connector-curvature="0"
       style="fill:#ffffff;fill-rule:evenodd" />
    <path
       d="m 912.531,668.67 c -3.476,-4.97 -1.028,-12.683 5.468,-17.227 6.497,-4.543 14.581,-4.197 18.058,0.773 3.476,4.971 1.028,12.683 -5.468,17.227 -6.496,4.544 -14.581,4.198 -18.058,-0.773 z"
       id="path4539"
       inkscape:connector-curvature="0"
       style="fill:#ffffff;fill-rule:evenodd" />
    <path
       d="m 23.291,-16.1484 c 0.138,0.3278 0.2157,0.5909 0.2329,0.7893 0.0173,0.1984 -0.0431,0.3493 -0.1811,0.4528 -0.138,0.1036 -0.358,0.1683 -0.6599,0.1941 -0.302,0.0259 -0.7031,0.0389 -1.2034,0.0389 -0.4486,0 -0.8238,-0.013 -1.1257,-0.0389 -0.302,-0.0258 -0.5478,-0.0733 -0.7376,-0.1423 -0.1898,-0.069 -0.3321,-0.1553 -0.427,-0.2588 -0.0949,-0.1035 -0.1768,-0.2243 -0.2458,-0.3623 l -6.0039,-14.2593 -0.0777,0.0777 -5.66746,14.1816 c -0.05176,0.138 -0.12509,0.2588 -0.21997,0.3623 -0.09489,0.1035 -0.23723,0.1898 -0.42701,0.2588 -0.18978,0.069 -0.427,0.1165 -0.71167,0.1423 -0.28466,0.0259 -0.65128,0.0389 -1.09985,0.0389 -0.50033,0 -0.89282,-0.013 -1.17749,-0.0389 -0.28467,-0.0258 -0.4917,-0.0948 -0.62109,-0.207 -0.1294,-0.1121 -0.18978,-0.2631 -0.18116,-0.4529 0.00863,-0.1897 0.08195,-0.4485 0.21997,-0.7763 L 10.3257,-32.918 c 0.0517,-0.1552 0.1466,-0.2889 0.2847,-0.4011 0.138,-0.1121 0.3148,-0.2027 0.5305,-0.2717 0.2156,-0.069 0.4787,-0.1208 0.7893,-0.1553 0.3105,-0.0345 0.6728,-0.0518 1.0869,-0.0518 0.4486,0 0.8281,0.0173 1.1387,0.0518 0.3105,0.0345 0.5693,0.0863 0.7763,0.1553 0.2071,0.069 0.3796,0.1596 0.5176,0.2717 0.138,0.1122 0.2415,0.2459 0.3106,0.4011 z"
       id="path4545"
       inkscape:connector-curvature="0"
       style="fill:#7a2900;filter:url(#filter5501)"
       transform="rotate(-27.433002,1856.1215,-1406.2745)" />
    <path
       d="m 22.6914,-11.96 c 0,1.891 -0.2228,3.59525 -0.6685,5.11283 -0.4456,1.51758 -1.111,2.80933 -1.9963,3.87525 -0.8852,1.06591 -1.9963,1.88492 -3.3332,2.457027 -1.337,0.5721033 -2.8967,0.858155 -4.6792,0.858155 -1.7585,0 -3.27909,-0.2619632 -4.56181,-0.785889 C 6.16968,-0.966553 5.10978,-1.72835 4.27271,-2.72803 3.43563,-3.7277 2.81234,-4.96826 2.40283,-6.44971 1.99333,-7.93115 1.78857,-9.63542 1.78857,-11.5625 c 0,-1.8428 0.22282,-3.5169 0.66846,-5.0225 0.44564,-1.5055 1.1141,-2.7852 2.00537,-3.8391 0.89128,-1.0538 2.00537,-1.8668 3.34229,-2.4389 1.33691,-0.5721 2.89661,-0.8582 4.67921,-0.8582 1.7223,0 3.2218,0.259 4.4985,0.7769 1.2767,0.5179 2.3396,1.2736 3.1887,2.2673 0.8492,0.9937 1.4815,2.2222 1.897,3.6855 0.4155,1.4634 0.6233,3.1406 0.6233,5.0315 z"
       id="path4551"
       inkscape:connector-curvature="0"
       style="fill:#7a2900;filter:url(#filter5513)"
       transform="rotate(-27.433002,1843.2993,-1460.4557)"
       sodipodi:nodetypes="scccscccscccssccs" />
    <path
       d="m 23.291,-16.1484 c 0.138,0.3278 0.2157,0.5909 0.2329,0.7893 0.0173,0.1984 -0.0431,0.3493 -0.1811,0.4528 -0.138,0.1036 -0.358,0.1683 -0.6599,0.1941 -0.302,0.0259 -0.7031,0.0389 -1.2034,0.0389 -0.4486,0 -0.8238,-0.013 -1.1257,-0.0389 -0.302,-0.0258 -0.5478,-0.0733 -0.7376,-0.1423 -0.1898,-0.069 -0.3321,-0.1553 -0.427,-0.2588 -0.0949,-0.1035 -0.1768,-0.2243 -0.2458,-0.3623 l -6.0039,-14.2593 -0.0777,0.0777 -5.66746,14.1816 c -0.05176,0.138 -0.12509,0.2588 -0.21997,0.3623 -0.09489,0.1035 -0.23723,0.1898 -0.42701,0.2588 -0.18978,0.069 -0.427,0.1165 -0.71167,0.1423 -0.28466,0.0259 -0.65128,0.0389 -1.09985,0.0389 -0.50033,0 -0.89282,-0.013 -1.17749,-0.0389 -0.28467,-0.0258 -0.4917,-0.0948 -0.62109,-0.207 -0.1294,-0.1121 -0.18978,-0.2631 -0.18116,-0.4529 0.00863,-0.1897 0.08195,-0.4485 0.21997,-0.7763 L 10.3257,-32.918 c 0.0517,-0.1552 0.1466,-0.2889 0.2847,-0.4011 0.138,-0.1121 0.3148,-0.2027 0.5305,-0.2717 0.2156,-0.069 0.4787,-0.1208 0.7893,-0.1553 0.3105,-0.0345 0.6728,-0.0518 1.0869,-0.0518 0.4486,0 0.8281,0.0173 1.1387,0.0518 0.3105,0.0345 0.5693,0.0863 0.7763,0.1553 0.2071,0.069 0.3796,0.1596 0.5176,0.2717 0.138,0.1122 0.2415,0.2459 0.3106,0.4011 z"
       id="path4557"
       inkscape:connector-curvature="0"
       style="fill:#7a2900;filter:url(#filter5525)"
       transform="rotate(-27.433002,1829.6636,-1511.3039)" />
    <path
       d="m 844,770 c 0,-3.866 21.49,-7 48,-7 26.51,0 48,3.134 48,7 0,3.866 -21.49,7 -48,7 -26.51,0 -48,-3.134 -48,-7 z"
       id="path4559"
       inkscape:connector-curvature="0"
       style="fill:#b6b6b6;fill-rule:evenodd" />
  </g>
</svg>
